%TF.GenerationSoftware,KiCad,Pcbnew,9.0.2*%
%TF.CreationDate,2025-06-17T12:09:41-05:00*%
%TF.ProjectId,board,626f6172-642e-46b6-9963-61645f706362,rev?*%
%TF.SameCoordinates,Original*%
%TF.FileFunction,Soldermask,Top*%
%TF.FilePolarity,Negative*%
%FSLAX46Y46*%
G04 Gerber Fmt 4.6, Leading zero omitted, Abs format (unit mm)*
G04 Created by KiCad (PCBNEW 9.0.2) date 2025-06-17 12:09:41*
%MOMM*%
%LPD*%
G01*
G04 APERTURE LIST*
G04 Aperture macros list*
%AMFreePoly0*
4,1,25,0.333266,0.742596,0.345389,0.732242,0.732242,0.345389,0.760749,0.289441,0.762000,0.273547,0.762000,-0.273547,0.742596,-0.333266,0.732242,-0.345389,0.345389,-0.732242,0.289441,-0.760749,0.273547,-0.762000,-0.273547,-0.762000,-0.333266,-0.742596,-0.345389,-0.732242,-0.732242,-0.345389,-0.760749,-0.289441,-0.762000,-0.273547,-0.762000,0.273547,-0.742596,0.333266,-0.732242,0.345389,
-0.345389,0.732242,-0.289441,0.760749,-0.273547,0.762000,0.273547,0.762000,0.333266,0.742596,0.333266,0.742596,$1*%
%AMFreePoly1*
4,1,25,0.391131,0.882296,0.403254,0.871942,0.871942,0.403254,0.900449,0.347306,0.901700,0.331412,0.901700,-0.331412,0.882296,-0.391131,0.871942,-0.403254,0.403254,-0.871942,0.347306,-0.900449,0.331412,-0.901700,-0.331412,-0.901700,-0.391131,-0.882296,-0.403254,-0.871942,-0.871942,-0.403254,-0.900449,-0.347306,-0.901700,-0.331412,-0.901700,0.331412,-0.882296,0.391131,-0.871942,0.403254,
-0.403254,0.871942,-0.347306,0.900449,-0.331412,0.901700,0.331412,0.901700,0.391131,0.882296,0.391131,0.882296,$1*%
%AMFreePoly2*
4,1,25,0.375350,0.844196,0.387473,0.833842,0.833842,0.387473,0.862349,0.331525,0.863600,0.315631,0.863600,-0.315631,0.844196,-0.375350,0.833842,-0.387473,0.387473,-0.833842,0.331525,-0.862349,0.315631,-0.863600,-0.315631,-0.863600,-0.375350,-0.844196,-0.387473,-0.833842,-0.833842,-0.387473,-0.862349,-0.331525,-0.863600,-0.315631,-0.863600,0.315631,-0.844196,0.375350,-0.833842,0.387473,
-0.387473,0.833842,-0.331525,0.862349,-0.315631,0.863600,0.315631,0.863600,0.375350,0.844196,0.375350,0.844196,$1*%
G04 Aperture macros list end*
%ADD10C,2.133600*%
%ADD11O,3.251200X1.727200*%
%ADD12FreePoly0,0.000000*%
%ADD13FreePoly0,90.000000*%
%ADD14FreePoly0,270.000000*%
%ADD15O,1.727200X3.251200*%
%ADD16FreePoly1,0.000000*%
%ADD17C,1.803400*%
%ADD18FreePoly1,180.000000*%
%ADD19FreePoly2,0.000000*%
%ADD20FreePoly2,180.000000*%
%ADD21O,4.165600X2.184400*%
%ADD22O,2.184400X4.165600*%
%ADD23C,1.711200*%
%ADD24C,1.500000*%
%ADD25C,1.800000*%
G04 APERTURE END LIST*
D10*
%TO.C,ESP32*%
X118101100Y-55443600D03*
X118101100Y-57983600D03*
X118101100Y-60523600D03*
X118101100Y-63063600D03*
X118101100Y-65603600D03*
X118101100Y-68143600D03*
X118101100Y-70683600D03*
X118101100Y-73223600D03*
X118101100Y-75763600D03*
X118101100Y-78303600D03*
X118101100Y-80843600D03*
X118101100Y-83383600D03*
X118101100Y-85923600D03*
X118101100Y-88463600D03*
X118101100Y-91003600D03*
X143501100Y-55443600D03*
X143501100Y-57983600D03*
X143501100Y-60523600D03*
X143501100Y-63063600D03*
X143501100Y-65603600D03*
X143501100Y-68143600D03*
X143501100Y-70683600D03*
X143501100Y-73223600D03*
X143501100Y-75763600D03*
X143501100Y-78303600D03*
X143501100Y-80843600D03*
X143501100Y-83383600D03*
X143501100Y-85923600D03*
X143501100Y-88463600D03*
X143501100Y-91003600D03*
%TD*%
D11*
%TO.C,LEDS0*%
X86801100Y-56853600D03*
X86801100Y-59393600D03*
X86801100Y-61933600D03*
X86801100Y-64473600D03*
X86801100Y-67013600D03*
X86801100Y-69553600D03*
%TD*%
D12*
%TO.C,R1*%
X106311100Y-73003600D03*
X98691100Y-73003600D03*
%TD*%
%TO.C,R2*%
X106311100Y-69003600D03*
X98691100Y-69003600D03*
%TD*%
%TO.C,R3*%
X106311100Y-65003600D03*
X98691100Y-65003600D03*
%TD*%
%TO.C,R4*%
X106311100Y-61003600D03*
X98691100Y-61003600D03*
%TD*%
%TO.C,R5*%
X106311100Y-57003600D03*
X98691100Y-57003600D03*
%TD*%
D11*
%TO.C,SIM800L0*%
X109301100Y-101653600D03*
X109301100Y-99113600D03*
X109301100Y-96573600D03*
X109301100Y-94033600D03*
X109301100Y-91493600D03*
X109301100Y-88953600D03*
%TD*%
%TO.C,REG5V0*%
X119041100Y-144463600D03*
X119041100Y-147003600D03*
X119041100Y-149543600D03*
%TD*%
%TO.C,REG4.2V0*%
X93041100Y-144463600D03*
X93041100Y-147003600D03*
X93041100Y-149543600D03*
%TD*%
D13*
%TO.C,R6*%
X133501100Y-147193600D03*
X133501100Y-154813600D03*
%TD*%
%TO.C,R7*%
X106501100Y-147193600D03*
X106501100Y-154813600D03*
%TD*%
D14*
%TO.C,R8*%
X137501100Y-154813600D03*
X137501100Y-147193600D03*
%TD*%
%TO.C,R9*%
X110501100Y-154813600D03*
X110501100Y-147193600D03*
%TD*%
D15*
%TO.C,VBAT0*%
X95771100Y-162003600D03*
X93231100Y-162003600D03*
%TD*%
D16*
%TO.C,C1*%
X101771100Y-151503600D03*
X99231100Y-151503600D03*
%TD*%
%TO.C,C2*%
X101771100Y-143503600D03*
X99231100Y-143503600D03*
%TD*%
%TO.C,C3*%
X126771100Y-151503600D03*
X124231100Y-151503600D03*
%TD*%
%TO.C,C4*%
X126771100Y-143503600D03*
X124231100Y-143503600D03*
%TD*%
D17*
%TO.C,C5*%
X87357100Y-78803600D03*
D18*
X83801100Y-78803600D03*
%TD*%
D11*
%TO.C,_0*%
X87301100Y-91493600D03*
X87301100Y-94033600D03*
X87301100Y-96573600D03*
X87301100Y-99113600D03*
X87301100Y-101653600D03*
X87301100Y-104193600D03*
%TD*%
%TO.C,DS3231*%
X191501100Y-151353600D03*
X191501100Y-148813600D03*
X191501100Y-146273600D03*
X191501100Y-143733600D03*
X191501100Y-141193600D03*
X191501100Y-138653600D03*
%TD*%
%TO.C,HW-125*%
X83601100Y-130853600D03*
X83601100Y-128313600D03*
X83601100Y-125773600D03*
X83601100Y-123233600D03*
X83601100Y-120693600D03*
X83601100Y-118153600D03*
%TD*%
%TO.C,JP3*%
X156501100Y-141193600D03*
X156501100Y-143733600D03*
X156501100Y-146273600D03*
X156501100Y-148813600D03*
%TD*%
%TO.C,DISPLAY0*%
X154101100Y-58993600D03*
X154101100Y-61533600D03*
X154101100Y-64073600D03*
X154101100Y-66613600D03*
%TD*%
%TO.C,LORA0*%
X161501100Y-107113600D03*
X161501100Y-109653600D03*
X161501100Y-112193600D03*
X161501100Y-114733600D03*
X161501100Y-117273600D03*
X161501100Y-119813600D03*
X161501100Y-122353600D03*
X161501100Y-124893600D03*
%TD*%
%TO.C,.0*%
X186501100Y-107113600D03*
X186501100Y-109653600D03*
X186501100Y-112193600D03*
X186501100Y-114733600D03*
X186501100Y-117273600D03*
X186501100Y-119813600D03*
X186501100Y-122353600D03*
X186501100Y-124893600D03*
%TD*%
D19*
%TO.C,JP4*%
X133501100Y-144003600D03*
%TD*%
D20*
%TO.C,JP5*%
X126001100Y-91003600D03*
%TD*%
D19*
%TO.C,JP6*%
X192201100Y-48003600D03*
%TD*%
%TO.C,JP7*%
X186001100Y-134503600D03*
%TD*%
%TO.C,JP8*%
X133001100Y-68003600D03*
%TD*%
%TO.C,JP9*%
X173501100Y-134503600D03*
%TD*%
%TO.C,JP10*%
X130401100Y-57903600D03*
%TD*%
%TO.C,JP11*%
X143701100Y-112303600D03*
%TD*%
%TO.C,JP12*%
X137001100Y-68003600D03*
%TD*%
%TO.C,JP13*%
X179801100Y-120703600D03*
%TD*%
%TO.C,JP14*%
X149501100Y-56603600D03*
%TD*%
%TO.C,JP15*%
X164501100Y-146503600D03*
%TD*%
%TO.C,JP16*%
X89001100Y-135703600D03*
%TD*%
%TO.C,JP17*%
X168201100Y-124103600D03*
%TD*%
%TO.C,JP18*%
X99901100Y-102103600D03*
%TD*%
%TO.C,JP19*%
X204401100Y-49403600D03*
%TD*%
%TO.C,JP20*%
X137001100Y-132003600D03*
%TD*%
D21*
%TO.C,BUS_B0*%
X208001100Y-136985200D03*
X208001100Y-142014400D03*
X208001100Y-146992800D03*
X208001100Y-152022000D03*
%TD*%
D22*
%TO.C,VBAT_B0*%
X148201100Y-155503600D03*
X143171900Y-155503600D03*
%TD*%
D19*
%TO.C,JP21*%
X99901100Y-135003600D03*
%TD*%
%TO.C,JP22*%
X167501100Y-160503600D03*
%TD*%
%TO.C,JP23*%
X143001100Y-139003600D03*
%TD*%
%TO.C,JP24*%
X112601100Y-135603600D03*
%TD*%
%TO.C,JP1*%
X161001100Y-59503600D03*
%TD*%
%TO.C,JP2*%
X166201100Y-62703600D03*
%TD*%
%TO.C,JP25*%
X161001100Y-67503600D03*
%TD*%
%TO.C,JP26*%
X166101100Y-70903600D03*
%TD*%
%TO.C,JP27*%
X159801100Y-64103600D03*
%TD*%
D11*
%TO.C,PORT1*%
X210001100Y-63813600D03*
X210001100Y-61273600D03*
X210001100Y-58733600D03*
X210001100Y-56193600D03*
%TD*%
%TO.C,PORT2*%
X210001100Y-79813600D03*
X210001100Y-77273600D03*
X210001100Y-74733600D03*
X210001100Y-72193600D03*
%TD*%
%TO.C,PORT3*%
X210001100Y-95813600D03*
X210001100Y-93273600D03*
X210001100Y-90733600D03*
X210001100Y-88193600D03*
%TD*%
D19*
%TO.C,JP28*%
X178901100Y-71103600D03*
%TD*%
%TO.C,JP29*%
X175401100Y-75503600D03*
%TD*%
%TO.C,JP30*%
X202501100Y-152003600D03*
%TD*%
%TO.C,JP31*%
X202501100Y-147003600D03*
%TD*%
%TO.C,JP34*%
X197901100Y-136603600D03*
%TD*%
%TO.C,JP35*%
X210001100Y-68003600D03*
%TD*%
%TO.C,JP36*%
X210001100Y-84003600D03*
%TD*%
%TO.C,JP37*%
X210001100Y-100003600D03*
%TD*%
%TO.C,JP39*%
X107901100Y-128103600D03*
%TD*%
%TO.C,JP40*%
X106901100Y-82103600D03*
%TD*%
D23*
%TO.C,PI_PICO0*%
X181841100Y-100603600D03*
X179301100Y-100603600D03*
X176761100Y-100603600D03*
D24*
X181726100Y-55733600D03*
X176876100Y-55733600D03*
D25*
X182026100Y-52703600D03*
X176576100Y-52703600D03*
D23*
X188191100Y-52573600D03*
X188191100Y-55113600D03*
X188191100Y-57653600D03*
X188191100Y-60193600D03*
X188191100Y-62733600D03*
X188191100Y-65273600D03*
X188191100Y-67813600D03*
X188191100Y-70353600D03*
X188191100Y-72893600D03*
X188191100Y-75433600D03*
X188191100Y-77973600D03*
X188191100Y-80513600D03*
X188191100Y-83053600D03*
X188191100Y-85593600D03*
X188191100Y-88133600D03*
X188191100Y-90673600D03*
X188191100Y-93213600D03*
X188191100Y-95753600D03*
X188191100Y-98293600D03*
X188191100Y-100833600D03*
X170411100Y-100833600D03*
X170411100Y-98293600D03*
X170411100Y-95753600D03*
X170411100Y-93213600D03*
X170411100Y-90673600D03*
X170411100Y-88133600D03*
X170411100Y-85593600D03*
X170411100Y-83053600D03*
X170411100Y-80513600D03*
X170411100Y-77973600D03*
X170411100Y-75433600D03*
X170411100Y-72893600D03*
X170411100Y-62733600D03*
X170411100Y-65273600D03*
X170411100Y-60193600D03*
X170411100Y-57653600D03*
X170411100Y-70353600D03*
X170411100Y-67813600D03*
X170411100Y-55113600D03*
X170411100Y-52573600D03*
%TD*%
D19*
%TO.C,JP41*%
X159401100Y-87003600D03*
%TD*%
%TO.C,JP42*%
X155401100Y-116803600D03*
%TD*%
%TO.C,JP43*%
X159401100Y-90303600D03*
%TD*%
%TO.C,JP44*%
X157701100Y-113703600D03*
%TD*%
%TO.C,JP45*%
X164801100Y-84803600D03*
%TD*%
%TO.C,JP46*%
X165501100Y-114703600D03*
%TD*%
D11*
%TO.C,V_PICO0*%
X195301100Y-55173600D03*
X195301100Y-52633600D03*
%TD*%
D15*
%TO.C,V_I2C0*%
X192371100Y-159403600D03*
X189831100Y-159403600D03*
%TD*%
D11*
%TO.C,SERIAL0*%
X166201100Y-57643600D03*
X166201100Y-55103600D03*
X166201100Y-52563600D03*
%TD*%
M02*
