%TF.GenerationSoftware,KiCad,Pcbnew,9.0.2*%
%TF.CreationDate,2025-06-17T12:09:41-05:00*%
%TF.ProjectId,board,626f6172-642e-46b6-9963-61645f706362,rev?*%
%TF.SameCoordinates,Original*%
%TF.FileFunction,Profile,NP*%
%FSLAX46Y46*%
G04 Gerber Fmt 4.6, Leading zero omitted, Abs format (unit mm)*
G04 Created by KiCad (PCBNEW 9.0.2) date 2025-06-17 12:09:41*
%MOMM*%
%LPD*%
G01*
G04 APERTURE LIST*
%TA.AperFunction,Profile*%
%ADD10C,0.050000*%
%TD*%
%TA.AperFunction,Profile*%
%ADD11C,0.127000*%
%TD*%
%TA.AperFunction,Profile*%
%ADD12C,0.101600*%
%TD*%
G04 APERTURE END LIST*
D10*
X78501100Y-50003600D02*
X78501100Y-160003600D01*
X83501100Y-165003600D02*
G75*
G02*
X78501100Y-160003600I0J5000000D01*
G01*
X83501100Y-165003600D02*
X213379787Y-165003600D01*
X218501100Y-159882289D02*
G75*
G02*
X213379787Y-165003600I-5121312J1D01*
G01*
X218501100Y-159882288D02*
X218501100Y-50124913D01*
X213379787Y-45003600D02*
G75*
G02*
X218501100Y-50124913I0J-5121313D01*
G01*
X213379787Y-45003600D02*
X83501100Y-45003600D01*
X78501100Y-50003600D02*
G75*
G02*
X83501100Y-45003600I5000000J0D01*
G01*
D11*
X85001100Y-50003600D02*
G75*
G02*
X82001100Y-50003600I-1500000J0D01*
G01*
X82001100Y-50003600D02*
G75*
G02*
X85001100Y-50003600I1500000J0D01*
G01*
X215001100Y-50003600D02*
G75*
G02*
X212001100Y-50003600I-1500000J0D01*
G01*
X212001100Y-50003600D02*
G75*
G02*
X215001100Y-50003600I1500000J0D01*
G01*
X85001100Y-160003600D02*
G75*
G02*
X82001100Y-160003600I-1500000J0D01*
G01*
X82001100Y-160003600D02*
G75*
G02*
X85001100Y-160003600I1500000J0D01*
G01*
X215001100Y-160003600D02*
G75*
G02*
X212001100Y-160003600I-1500000J0D01*
G01*
X212001100Y-160003600D02*
G75*
G02*
X215001100Y-160003600I1500000J0D01*
G01*
D12*
X122101100Y-114503600D02*
G75*
G02*
X119101100Y-114503600I-1500000J0D01*
G01*
X119101100Y-114503600D02*
G75*
G02*
X122101100Y-114503600I1500000J0D01*
G01*
X122101100Y-134503600D02*
G75*
G02*
X119101100Y-134503600I-1500000J0D01*
G01*
X119101100Y-134503600D02*
G75*
G02*
X122101100Y-134503600I1500000J0D01*
G01*
M02*
