M48
; DRILL file {KiCad 9.0.2} date 2025-06-17T12:09:45-0500
; FORMAT={-:-/ absolute / metric / decimal}
; #@! TF.CreationDate,2025-06-17T12:09:45-05:00
; #@! TF.GenerationSoftware,Kicad,Pcbnew,9.0.2
; #@! TF.FileFunction,Plated,1,2,PTH
FMAT,2
METRIC
; #@! TA.AperFunction,Plated,PTH,ComponentDrill
T1C0.813
; #@! TA.AperFunction,Plated,PTH,ComponentDrill
T2C1.000
; #@! TA.AperFunction,Plated,PTH,ComponentDrill
T3C1.016
; #@! TA.AperFunction,Plated,PTH,ComponentDrill
T4C1.321
%
G90
G05
T1
X83.801Y-78.804
X87.357Y-78.804
X98.691Y-57.004
X98.691Y-61.004
X98.691Y-65.004
X98.691Y-69.004
X98.691Y-73.004
X99.231Y-143.504
X99.231Y-151.504
X101.771Y-143.504
X101.771Y-151.504
X106.311Y-57.004
X106.311Y-61.004
X106.311Y-65.004
X106.311Y-69.004
X106.311Y-73.004
X106.501Y-147.194
X106.501Y-154.814
X110.501Y-147.194
X110.501Y-154.814
X124.231Y-143.504
X124.231Y-151.504
X126.771Y-143.504
X126.771Y-151.504
X133.501Y-147.194
X133.501Y-154.814
X137.501Y-147.194
X137.501Y-154.814
T2
X118.101Y-55.444
X118.101Y-57.984
X118.101Y-60.524
X118.101Y-63.064
X118.101Y-65.604
X118.101Y-68.144
X118.101Y-70.684
X118.101Y-73.224
X118.101Y-75.764
X118.101Y-78.304
X118.101Y-80.844
X118.101Y-83.384
X118.101Y-85.924
X118.101Y-88.464
X118.101Y-91.004
X143.501Y-55.444
X143.501Y-57.984
X143.501Y-60.524
X143.501Y-63.064
X143.501Y-65.604
X143.501Y-68.144
X143.501Y-70.684
X143.501Y-73.224
X143.501Y-75.764
X143.501Y-78.304
X143.501Y-80.844
X143.501Y-83.384
X143.501Y-85.924
X143.501Y-88.464
X143.501Y-91.004
X170.411Y-52.574
X170.411Y-55.114
X170.411Y-57.654
X170.411Y-60.194
X170.411Y-62.734
X170.411Y-65.274
X170.411Y-67.814
X170.411Y-70.354
X170.411Y-72.894
X170.411Y-75.434
X170.411Y-77.974
X170.411Y-80.514
X170.411Y-83.054
X170.411Y-85.594
X170.411Y-88.134
X170.411Y-90.674
X170.411Y-93.214
X170.411Y-95.754
X170.411Y-98.294
X170.411Y-100.834
X176.761Y-100.604
X179.301Y-100.604
X181.841Y-100.604
X188.191Y-52.574
X188.191Y-55.114
X188.191Y-57.654
X188.191Y-60.194
X188.191Y-62.734
X188.191Y-65.274
X188.191Y-67.814
X188.191Y-70.354
X188.191Y-72.894
X188.191Y-75.434
X188.191Y-77.974
X188.191Y-80.514
X188.191Y-83.054
X188.191Y-85.594
X188.191Y-88.134
X188.191Y-90.674
X188.191Y-93.214
X188.191Y-95.754
X188.191Y-98.294
X188.191Y-100.834
T3
X83.601Y-118.154
X83.601Y-120.694
X83.601Y-123.234
X83.601Y-125.774
X83.601Y-128.314
X83.601Y-130.854
X86.801Y-56.854
X86.801Y-59.394
X86.801Y-61.934
X86.801Y-64.474
X86.801Y-67.014
X86.801Y-69.554
X87.301Y-91.494
X87.301Y-94.034
X87.301Y-96.574
X87.301Y-99.114
X87.301Y-101.654
X87.301Y-104.194
X89.001Y-135.704
X93.041Y-144.464
X93.041Y-147.004
X93.041Y-149.544
X93.231Y-162.004
X95.771Y-162.004
X99.901Y-102.104
X99.901Y-135.004
X106.901Y-82.104
X107.901Y-128.104
X109.301Y-88.954
X109.301Y-91.494
X109.301Y-94.034
X109.301Y-96.574
X109.301Y-99.114
X109.301Y-101.654
X112.601Y-135.604
X119.041Y-144.464
X119.041Y-147.004
X119.041Y-149.544
X126.001Y-91.004
X130.401Y-57.904
X133.001Y-68.004
X133.501Y-144.004
X137.001Y-68.004
X137.001Y-132.004
X143.001Y-139.004
X143.701Y-112.304
X149.501Y-56.604
X154.101Y-58.994
X154.101Y-61.534
X154.101Y-64.074
X154.101Y-66.614
X155.401Y-116.804
X156.501Y-141.194
X156.501Y-143.734
X156.501Y-146.274
X156.501Y-148.814
X157.701Y-113.704
X159.401Y-87.004
X159.401Y-90.304
X159.801Y-64.104
X161.001Y-59.504
X161.001Y-67.504
X161.501Y-107.114
X161.501Y-109.654
X161.501Y-112.194
X161.501Y-114.734
X161.501Y-117.274
X161.501Y-119.814
X161.501Y-122.354
X161.501Y-124.894
X164.501Y-146.504
X164.801Y-84.804
X165.501Y-114.704
X166.101Y-70.904
X166.201Y-52.564
X166.201Y-55.104
X166.201Y-57.644
X166.201Y-62.704
X167.501Y-160.504
X168.201Y-124.104
X173.501Y-134.504
X175.401Y-75.504
X178.901Y-71.104
X179.801Y-120.704
X186.001Y-134.504
X186.501Y-107.114
X186.501Y-109.654
X186.501Y-112.194
X186.501Y-114.734
X186.501Y-117.274
X186.501Y-119.814
X186.501Y-122.354
X186.501Y-124.894
X189.831Y-159.404
X191.501Y-138.654
X191.501Y-141.194
X191.501Y-143.734
X191.501Y-146.274
X191.501Y-148.814
X191.501Y-151.354
X192.201Y-48.004
X192.371Y-159.404
X195.301Y-52.634
X195.301Y-55.174
X197.901Y-136.604
X202.501Y-147.004
X202.501Y-152.004
X204.401Y-49.404
X210.001Y-56.194
X210.001Y-58.734
X210.001Y-61.274
X210.001Y-63.814
X210.001Y-68.004
X210.001Y-72.194
X210.001Y-74.734
X210.001Y-77.274
X210.001Y-79.814
X210.001Y-84.004
X210.001Y-88.194
X210.001Y-90.734
X210.001Y-93.274
X210.001Y-95.814
X210.001Y-100.004
T4
X143.172Y-155.504
X148.201Y-155.504
X208.001Y-136.985
X208.001Y-142.014
X208.001Y-146.993
X208.001Y-152.022
M30
