%TF.GenerationSoftware,KiCad,Pcbnew,9.0.2*%
%TF.CreationDate,2025-06-17T12:09:41-05:00*%
%TF.ProjectId,board,626f6172-642e-46b6-9963-61645f706362,rev?*%
%TF.SameCoordinates,Original*%
%TF.FileFunction,Legend,Bot*%
%TF.FilePolarity,Positive*%
%FSLAX46Y46*%
G04 Gerber Fmt 4.6, Leading zero omitted, Abs format (unit mm)*
G04 Created by KiCad (PCBNEW 9.0.2) date 2025-06-17 12:09:41*
%MOMM*%
%LPD*%
G01*
G04 APERTURE LIST*
%ADD10C,0.154432*%
G04 APERTURE END LIST*
D10*
X130035455Y-62608049D02*
X130035455Y-63200038D01*
X130965724Y-63453748D02*
X130965724Y-62608049D01*
X130965724Y-62608049D02*
X129189756Y-62608049D01*
X129189756Y-62608049D02*
X129189756Y-63453748D01*
X130881155Y-64130307D02*
X130965724Y-64384017D01*
X130965724Y-64384017D02*
X130965724Y-64806866D01*
X130965724Y-64806866D02*
X130881155Y-64976006D01*
X130881155Y-64976006D02*
X130796585Y-65060576D01*
X130796585Y-65060576D02*
X130627445Y-65145146D01*
X130627445Y-65145146D02*
X130458305Y-65145146D01*
X130458305Y-65145146D02*
X130289165Y-65060576D01*
X130289165Y-65060576D02*
X130204595Y-64976006D01*
X130204595Y-64976006D02*
X130120025Y-64806866D01*
X130120025Y-64806866D02*
X130035455Y-64468587D01*
X130035455Y-64468587D02*
X129950886Y-64299447D01*
X129950886Y-64299447D02*
X129866316Y-64214877D01*
X129866316Y-64214877D02*
X129697176Y-64130307D01*
X129697176Y-64130307D02*
X129528036Y-64130307D01*
X129528036Y-64130307D02*
X129358896Y-64214877D01*
X129358896Y-64214877D02*
X129274326Y-64299447D01*
X129274326Y-64299447D02*
X129189756Y-64468587D01*
X129189756Y-64468587D02*
X129189756Y-64891436D01*
X129189756Y-64891436D02*
X129274326Y-65145146D01*
X130965724Y-65906275D02*
X129189756Y-65906275D01*
X129189756Y-65906275D02*
X129189756Y-66582834D01*
X129189756Y-66582834D02*
X129274326Y-66751974D01*
X129274326Y-66751974D02*
X129358896Y-66836544D01*
X129358896Y-66836544D02*
X129528036Y-66921114D01*
X129528036Y-66921114D02*
X129781746Y-66921114D01*
X129781746Y-66921114D02*
X129950886Y-66836544D01*
X129950886Y-66836544D02*
X130035455Y-66751974D01*
X130035455Y-66751974D02*
X130120025Y-66582834D01*
X130120025Y-66582834D02*
X130120025Y-65906275D01*
X129189756Y-67513103D02*
X129189756Y-68612512D01*
X129189756Y-68612512D02*
X129866316Y-68020523D01*
X129866316Y-68020523D02*
X129866316Y-68274232D01*
X129866316Y-68274232D02*
X129950886Y-68443372D01*
X129950886Y-68443372D02*
X130035455Y-68527942D01*
X130035455Y-68527942D02*
X130204595Y-68612512D01*
X130204595Y-68612512D02*
X130627445Y-68612512D01*
X130627445Y-68612512D02*
X130796585Y-68527942D01*
X130796585Y-68527942D02*
X130881155Y-68443372D01*
X130881155Y-68443372D02*
X130965724Y-68274232D01*
X130965724Y-68274232D02*
X130965724Y-67766813D01*
X130965724Y-67766813D02*
X130881155Y-67597673D01*
X130881155Y-67597673D02*
X130796585Y-67513103D01*
X129358896Y-69289071D02*
X129274326Y-69373641D01*
X129274326Y-69373641D02*
X129189756Y-69542781D01*
X129189756Y-69542781D02*
X129189756Y-69965630D01*
X129189756Y-69965630D02*
X129274326Y-70134770D01*
X129274326Y-70134770D02*
X129358896Y-70219340D01*
X129358896Y-70219340D02*
X129528036Y-70303910D01*
X129528036Y-70303910D02*
X129697176Y-70303910D01*
X129697176Y-70303910D02*
X129950886Y-70219340D01*
X129950886Y-70219340D02*
X130965724Y-69204501D01*
X130965724Y-69204501D02*
X130965724Y-70303910D01*
X130289165Y-71065039D02*
X130289165Y-72418158D01*
X130965724Y-73263857D02*
X129189756Y-73263857D01*
X129189756Y-73263857D02*
X129189756Y-73686707D01*
X129189756Y-73686707D02*
X129274326Y-73940416D01*
X129274326Y-73940416D02*
X129443466Y-74109556D01*
X129443466Y-74109556D02*
X129612606Y-74194126D01*
X129612606Y-74194126D02*
X129950886Y-74278696D01*
X129950886Y-74278696D02*
X130204595Y-74278696D01*
X130204595Y-74278696D02*
X130542875Y-74194126D01*
X130542875Y-74194126D02*
X130712015Y-74109556D01*
X130712015Y-74109556D02*
X130881155Y-73940416D01*
X130881155Y-73940416D02*
X130965724Y-73686707D01*
X130965724Y-73686707D02*
X130965724Y-73263857D01*
X130881155Y-75716384D02*
X130965724Y-75547244D01*
X130965724Y-75547244D02*
X130965724Y-75208965D01*
X130965724Y-75208965D02*
X130881155Y-75039825D01*
X130881155Y-75039825D02*
X130712015Y-74955255D01*
X130712015Y-74955255D02*
X130035455Y-74955255D01*
X130035455Y-74955255D02*
X129866316Y-75039825D01*
X129866316Y-75039825D02*
X129781746Y-75208965D01*
X129781746Y-75208965D02*
X129781746Y-75547244D01*
X129781746Y-75547244D02*
X129866316Y-75716384D01*
X129866316Y-75716384D02*
X130035455Y-75800954D01*
X130035455Y-75800954D02*
X130204595Y-75800954D01*
X130204595Y-75800954D02*
X130373735Y-74955255D01*
X129781746Y-76392943D02*
X130965724Y-76815793D01*
X130965724Y-76815793D02*
X129781746Y-77238642D01*
X130965724Y-77915201D02*
X129189756Y-77915201D01*
X130289165Y-78084341D02*
X130965724Y-78591760D01*
X129781746Y-78591760D02*
X130458305Y-77915201D01*
X130965724Y-79352889D02*
X129781746Y-79352889D01*
X129189756Y-79352889D02*
X129274326Y-79268319D01*
X129274326Y-79268319D02*
X129358896Y-79352889D01*
X129358896Y-79352889D02*
X129274326Y-79437459D01*
X129274326Y-79437459D02*
X129189756Y-79352889D01*
X129189756Y-79352889D02*
X129358896Y-79352889D01*
X129781746Y-79944878D02*
X129781746Y-80621438D01*
X129189756Y-80198588D02*
X130712015Y-80198588D01*
X130712015Y-80198588D02*
X130881155Y-80283158D01*
X130881155Y-80283158D02*
X130965724Y-80452298D01*
X130965724Y-80452298D02*
X130965724Y-80621438D01*
X129189756Y-82312835D02*
X130965724Y-82904825D01*
X130965724Y-82904825D02*
X129189756Y-83496814D01*
X130965724Y-85019072D02*
X130965724Y-84004233D01*
X130965724Y-84511653D02*
X129189756Y-84511653D01*
X129189756Y-84511653D02*
X129443466Y-84342513D01*
X129443466Y-84342513D02*
X129612606Y-84173373D01*
X129612606Y-84173373D02*
X129697176Y-84004233D01*
M02*
