M48
; DRILL file {KiCad 9.0.2} date 2025-06-17T11:44:20-0500
; FORMAT={-:-/ absolute / metric / decimal}
; #@! TF.CreationDate,2025-06-17T11:44:20-05:00
; #@! TF.GenerationSoftware,Kicad,Pcbnew,9.0.2
; #@! TF.FileFunction,Plated,1,2,PTH
FMAT,2
METRIC
; #@! TA.AperFunction,Plated,PTH,ComponentDrill
T1C0.813
; #@! TA.AperFunction,Plated,PTH,ComponentDrill
T2C1.000
; #@! TA.AperFunction,Plated,PTH,ComponentDrill
T3C1.016
; #@! TA.AperFunction,Plated,PTH,ComponentDrill
T4C1.321
%
G90
G05
T1
X122.061Y-123.834
X123.961Y-120.004
X127.961Y-115.004
X129.041Y-120.004
X129.681Y-123.834
X133.041Y-115.004
X134.961Y-120.004
X135.501Y-124.194
X135.501Y-131.814
X138.461Y-135.194
X139.501Y-124.194
X139.501Y-131.814
X140.041Y-120.004
X141.961Y-138.004
X146.081Y-135.194
X147.041Y-138.004
X170.501Y-125.194
X170.501Y-132.814
X174.501Y-125.194
X174.501Y-132.814
T2
X155.581Y-81.424
X155.581Y-83.964
X155.581Y-86.504
X155.581Y-89.044
X155.581Y-91.584
X155.581Y-94.124
X155.581Y-96.664
X155.581Y-99.204
X155.581Y-101.744
X155.581Y-104.284
X155.581Y-106.824
X155.581Y-109.364
X155.581Y-111.904
X155.581Y-114.444
X155.581Y-116.984
X180.981Y-81.424
X180.981Y-83.964
X180.981Y-86.504
X180.981Y-89.044
X180.981Y-91.584
X180.981Y-94.124
X180.981Y-96.664
X180.981Y-99.204
X180.981Y-101.744
X180.981Y-104.284
X180.981Y-106.824
X180.981Y-109.364
X180.981Y-111.904
X180.981Y-114.444
X180.981Y-116.984
T3
X115.501Y-109.654
X115.501Y-112.194
X115.501Y-114.734
X115.501Y-117.274
X115.501Y-119.814
X115.501Y-122.354
X121.441Y-129.374
X122.461Y-147.054
X123.981Y-129.374
X126.151Y-100.004
X126.521Y-129.374
X128.691Y-100.004
X131.231Y-100.004
X131.501Y-106.004
X133.461Y-72.974
X133.771Y-100.004
X136.311Y-100.004
X138.851Y-100.004
X142.461Y-108.214
X146.541Y-126.234
X146.541Y-128.774
X146.541Y-131.314
X150.501Y-112.194
X150.501Y-114.734
X150.501Y-117.274
X150.501Y-119.814
X157.011Y-129.374
X159.551Y-129.374
X160.461Y-66.134
X161.501Y-117.004
X162.091Y-129.374
X172.461Y-129.294
X180.461Y-142.894
T4
X126.986Y-143.004
X132.016Y-143.004
X137.987Y-143.004
X143.016Y-143.004
X148.987Y-143.004
X154.016Y-143.004
X159.983Y-143.004
X165.012Y-143.004
X169.99Y-143.004
X175.019Y-143.004
M30
