%TF.GenerationSoftware,KiCad,Pcbnew,9.0.2*%
%TF.CreationDate,2025-06-17T11:44:15-05:00*%
%TF.ProjectId,BOARD,424f4152-442e-46b6-9963-61645f706362,rev?*%
%TF.SameCoordinates,Original*%
%TF.FileFunction,Copper,L1,Top*%
%TF.FilePolarity,Positive*%
%FSLAX46Y46*%
G04 Gerber Fmt 4.6, Leading zero omitted, Abs format (unit mm)*
G04 Created by KiCad (PCBNEW 9.0.2) date 2025-06-17 11:44:15*
%MOMM*%
%LPD*%
G01*
G04 APERTURE LIST*
G04 Aperture macros list*
%AMOutline5P*
0 Free polygon, 5 corners , with rotation*
0 The origin of the aperture is its center*
0 number of corners: always 5*
0 $1 to $10 corner X, Y*
0 $11 Rotation angle, in degrees counterclockwise*
0 create outline with 5 corners*
4,1,5,$1,$2,$3,$4,$5,$6,$7,$8,$9,$10,$1,$2,$11*%
%AMOutline6P*
0 Free polygon, 6 corners , with rotation*
0 The origin of the aperture is its center*
0 number of corners: always 6*
0 $1 to $12 corner X, Y*
0 $13 Rotation angle, in degrees counterclockwise*
0 create outline with 6 corners*
4,1,6,$1,$2,$3,$4,$5,$6,$7,$8,$9,$10,$11,$12,$1,$2,$13*%
%AMOutline7P*
0 Free polygon, 7 corners , with rotation*
0 The origin of the aperture is its center*
0 number of corners: always 7*
0 $1 to $14 corner X, Y*
0 $15 Rotation angle, in degrees counterclockwise*
0 create outline with 7 corners*
4,1,7,$1,$2,$3,$4,$5,$6,$7,$8,$9,$10,$11,$12,$13,$14,$1,$2,$15*%
%AMOutline8P*
0 Free polygon, 8 corners , with rotation*
0 The origin of the aperture is its center*
0 number of corners: always 8*
0 $1 to $16 corner X, Y*
0 $17 Rotation angle, in degrees counterclockwise*
0 create outline with 8 corners*
4,1,8,$1,$2,$3,$4,$5,$6,$7,$8,$9,$10,$11,$12,$13,$14,$15,$16,$1,$2,$17*%
G04 Aperture macros list end*
%TA.AperFunction,ComponentPad*%
%ADD10O,1.981200X3.962400*%
%TD*%
%TA.AperFunction,ComponentPad*%
%ADD11Outline8P,-0.800100X0.331412X-0.331412X0.800100X0.331412X0.800100X0.800100X0.331412X0.800100X-0.331412X0.331412X-0.800100X-0.331412X-0.800100X-0.800100X-0.331412X180.000000*%
%TD*%
%TA.AperFunction,ComponentPad*%
%ADD12Outline8P,-0.762000X0.315631X-0.315631X0.762000X0.315631X0.762000X0.762000X0.315631X0.762000X-0.315631X0.315631X-0.762000X-0.315631X-0.762000X-0.762000X-0.315631X0.000000*%
%TD*%
%TA.AperFunction,ComponentPad*%
%ADD13O,1.524000X3.048000*%
%TD*%
%TA.AperFunction,ComponentPad*%
%ADD14O,3.048000X1.524000*%
%TD*%
%TA.AperFunction,ComponentPad*%
%ADD15Outline8P,-0.660400X0.273547X-0.273547X0.660400X0.273547X0.660400X0.660400X0.273547X0.660400X-0.273547X0.273547X-0.660400X-0.273547X-0.660400X-0.660400X-0.273547X270.000000*%
%TD*%
%TA.AperFunction,ComponentPad*%
%ADD16Outline8P,-0.660400X0.273547X-0.273547X0.660400X0.273547X0.660400X0.660400X0.273547X0.660400X-0.273547X0.273547X-0.660400X-0.273547X-0.660400X-0.660400X-0.273547X90.000000*%
%TD*%
%TA.AperFunction,ComponentPad*%
%ADD17C,1.930400*%
%TD*%
%TA.AperFunction,ComponentPad*%
%ADD18O,2.641600X1.320800*%
%TD*%
%TA.AperFunction,Conductor*%
%ADD19C,1.270000*%
%TD*%
G04 APERTURE END LIST*
D10*
%TO.P,X2,1*%
%TO.N,V_BAT*%
X148986500Y-143003600D03*
%TO.P,X2,2*%
%TO.N,GND*%
X154015700Y-143003600D03*
%TD*%
D11*
%TO.P,C1,1*%
%TO.N,N$4*%
X129041100Y-120003600D03*
%TO.P,C1,2*%
%TO.N,GND*%
X123961100Y-120003600D03*
%TD*%
D12*
%TO.P,JP4,1*%
%TO.N,GND*%
X160461100Y-66133600D03*
%TD*%
D13*
%TO.P,IC2,1*%
%TO.N,N$1*%
X126521100Y-129373600D03*
%TO.P,IC2,2*%
%TO.N,V_PANEL*%
X123981100Y-129373600D03*
%TO.P,IC2,3*%
%TO.N,N$4*%
X121441100Y-129373600D03*
%TD*%
D14*
%TO.P,SELECT0,1*%
%TO.N,V_CARG*%
X146541100Y-131313600D03*
%TO.P,SELECT0,2*%
%TO.N,V_BAT*%
X146541100Y-128773600D03*
%TO.P,SELECT0,3*%
%TO.N,V_PANEL*%
X146541100Y-126233600D03*
%TD*%
%TO.P,_0,1*%
%TO.N,N/C*%
X115501100Y-122353600D03*
%TO.P,_0,2*%
X115501100Y-119813600D03*
%TO.P,_0,3*%
X115501100Y-117273600D03*
%TO.P,_0,4*%
X115501100Y-114733600D03*
%TO.P,_0,5*%
X115501100Y-112193600D03*
%TO.P,_0,6*%
X115501100Y-109653600D03*
%TD*%
D12*
%TO.P,JP6,1*%
%TO.N,GND*%
X172461100Y-129293600D03*
%TD*%
D15*
%TO.P,R4,1*%
%TO.N,N$1*%
X139501100Y-124193600D03*
%TO.P,R4,2*%
%TO.N,GND*%
X139501100Y-131813600D03*
%TD*%
D12*
%TO.P,JP1,1*%
%TO.N,GND*%
X180461100Y-142893600D03*
%TD*%
D15*
%TO.P,R1,1*%
%TO.N,N$2*%
X170501100Y-125193600D03*
%TO.P,R1,2*%
%TO.N,5V*%
X170501100Y-132813600D03*
%TD*%
D13*
%TO.P,IC1,1*%
%TO.N,N$2*%
X162091100Y-129373600D03*
%TO.P,IC1,2*%
%TO.N,5V*%
X159551100Y-129373600D03*
%TO.P,IC1,3*%
%TO.N,V_BAT*%
X157011100Y-129373600D03*
%TD*%
D11*
%TO.P,C3,1*%
%TO.N,V_BAT*%
X147041100Y-138003600D03*
%TO.P,C3,2*%
%TO.N,GND*%
X141961100Y-138003600D03*
%TD*%
D16*
%TO.P,R3,1*%
%TO.N,V_PANEL*%
X135501100Y-131813600D03*
%TO.P,R3,2*%
%TO.N,N$1*%
X135501100Y-124193600D03*
%TD*%
D14*
%TO.P,RTC0,1*%
%TO.N,GND*%
X150501100Y-112193600D03*
%TO.P,RTC0,2*%
%TO.N,5V*%
X150501100Y-114733600D03*
%TO.P,RTC0,3*%
%TO.N,SDA_RTC*%
X150501100Y-117273600D03*
%TO.P,RTC0,4*%
%TO.N,SCL_RTC*%
X150501100Y-119813600D03*
%TD*%
D15*
%TO.P,R2,1*%
%TO.N,N$2*%
X174501100Y-125193600D03*
%TO.P,R2,2*%
%TO.N,GND*%
X174501100Y-132813600D03*
%TD*%
D12*
%TO.P,JP11,1*%
%TO.N,MOSI_SD*%
X161501100Y-117003600D03*
%TD*%
D17*
%TO.P,BOARD1,3V3*%
%TO.N,N/C*%
X155581100Y-81423600D03*
%TO.P,BOARD1,D1*%
X155581100Y-111903600D03*
%TO.P,BOARD1,D2*%
X155581100Y-89043600D03*
%TO.P,BOARD1,D3*%
X155581100Y-109363600D03*
%TO.P,BOARD1,D4*%
X155581100Y-91583600D03*
%TO.P,BOARD1,D5*%
%TO.N,CS_SD*%
X155581100Y-99203600D03*
%TO.P,BOARD1,D12*%
%TO.N,N/C*%
X180981100Y-89043600D03*
%TO.P,BOARD1,D13*%
X180981100Y-86503600D03*
%TO.P,BOARD1,D14*%
X180981100Y-91583600D03*
%TO.P,BOARD1,D15*%
X155581100Y-86503600D03*
%TO.P,BOARD1,D16*%
X155581100Y-94123600D03*
%TO.P,BOARD1,D17*%
X155581100Y-96663600D03*
%TO.P,BOARD1,D18*%
%TO.N,SCK_SD*%
X155581100Y-101743600D03*
%TO.P,BOARD1,D19*%
%TO.N,MISO_SD*%
X155581100Y-104283600D03*
%TO.P,BOARD1,D21*%
%TO.N,SDA_RTC*%
X155581100Y-106823600D03*
%TO.P,BOARD1,D22*%
%TO.N,SCL_RTC*%
X155581100Y-114443600D03*
%TO.P,BOARD1,D23*%
%TO.N,MOSI_SD*%
X155581100Y-116983600D03*
%TO.P,BOARD1,D25*%
%TO.N,ECHO_SENSOR*%
X180981100Y-99203600D03*
%TO.P,BOARD1,D26*%
%TO.N,TRIGGER_SENSOR*%
X180981100Y-96663600D03*
%TO.P,BOARD1,D27*%
%TO.N,N/C*%
X180981100Y-94123600D03*
%TO.P,BOARD1,D32*%
X180981100Y-104283600D03*
%TO.P,BOARD1,D33*%
X180981100Y-101743600D03*
%TO.P,BOARD1,D34*%
X180981100Y-109363600D03*
%TO.P,BOARD1,D35*%
X180981100Y-106823600D03*
%TO.P,BOARD1,EN*%
X180981100Y-116983600D03*
%TO.P,BOARD1,GND*%
%TO.N,GND*%
X180981100Y-83963600D03*
%TO.P,BOARD1,GND@1*%
X155581100Y-83963600D03*
%TO.P,BOARD1,VIN*%
%TO.N,5V*%
X180981100Y-81423600D03*
%TO.P,BOARD1,VN*%
%TO.N,N/C*%
X180981100Y-111903600D03*
%TO.P,BOARD1,VP*%
X180981100Y-114443600D03*
%TD*%
D12*
%TO.P,JP12,1*%
%TO.N,MOSI_SD*%
X131501100Y-106003600D03*
%TD*%
D10*
%TO.P,X3,1*%
%TO.N,V_CAR*%
X137986500Y-143003600D03*
%TO.P,X3,2*%
%TO.N,GND*%
X143015700Y-143003600D03*
%TD*%
D18*
%TO.P,D2,A*%
%TO.N,V_CAR*%
X138461100Y-135193600D03*
%TO.P,D2,C*%
%TO.N,V_CARG*%
X146081100Y-135193600D03*
%TD*%
D12*
%TO.P,JP5,1*%
%TO.N,GND*%
X142461100Y-108213600D03*
%TD*%
%TO.P,JP2,1*%
%TO.N,GND*%
X133461100Y-72973600D03*
%TD*%
D13*
%TO.P,SD0,1*%
%TO.N,GND*%
X138851100Y-100003600D03*
%TO.P,SD0,2*%
%TO.N,5V*%
X136311100Y-100003600D03*
%TO.P,SD0,3*%
%TO.N,MISO_SD*%
X133771100Y-100003600D03*
%TO.P,SD0,4*%
%TO.N,MOSI_SD*%
X131231100Y-100003600D03*
%TO.P,SD0,5*%
%TO.N,SCK_SD*%
X128691100Y-100003600D03*
%TO.P,SD0,6*%
%TO.N,CS_SD*%
X126151100Y-100003600D03*
%TD*%
D10*
%TO.P,X4,1*%
%TO.N,V_PAN*%
X126986500Y-143003600D03*
%TO.P,X4,2*%
%TO.N,GND*%
X132015700Y-143003600D03*
%TD*%
D18*
%TO.P,D1,A*%
%TO.N,V_PAN*%
X122061100Y-123833600D03*
%TO.P,D1,C*%
%TO.N,N$4*%
X129681100Y-123833600D03*
%TD*%
D11*
%TO.P,C2,1*%
%TO.N,V_PANEL*%
X140041100Y-120003600D03*
%TO.P,C2,2*%
%TO.N,GND*%
X134961100Y-120003600D03*
%TD*%
D10*
%TO.P,X1,1*%
%TO.N,GND*%
X159982700Y-143003600D03*
%TO.P,X1,2*%
%TO.N,5V*%
X165011900Y-143003600D03*
%TO.P,X1,3*%
%TO.N,TRIGGER_SENSOR*%
X169990300Y-143003600D03*
%TO.P,X1,4*%
%TO.N,ECHO_SENSOR*%
X175019500Y-143003600D03*
%TD*%
D11*
%TO.P,C4,1*%
%TO.N,5V*%
X133041100Y-115003600D03*
%TO.P,C4,2*%
%TO.N,GND*%
X127961100Y-115003600D03*
%TD*%
D12*
%TO.P,JP3,1*%
%TO.N,GND*%
X122461100Y-147053600D03*
%TD*%
D19*
%TO.N,MOSI_SD*%
X145501100Y-115003600D02*
X145501100Y-122003600D01*
X131501100Y-106003600D02*
X138501100Y-113003600D01*
X138501100Y-113003600D02*
X143501100Y-113003600D01*
X159501100Y-124003600D02*
X161501100Y-122003600D01*
X161501100Y-122003600D02*
X161501100Y-117003600D01*
X143501100Y-113003600D02*
X145501100Y-115003600D01*
X145501100Y-122003600D02*
X147501100Y-124003600D01*
X147501100Y-124003600D02*
X159501100Y-124003600D01*
%TD*%
%TA.AperFunction,Conductor*%
%TO.N,GND*%
G36*
X179089357Y-60940142D02*
G01*
X179098308Y-60940611D01*
X179448833Y-60958980D01*
X179452003Y-60959314D01*
X179808375Y-61015758D01*
X179811518Y-61016426D01*
X180160037Y-61109811D01*
X180163082Y-61110800D01*
X180499947Y-61240111D01*
X180502878Y-61241417D01*
X180824360Y-61405220D01*
X180827126Y-61406817D01*
X181129736Y-61603334D01*
X181129738Y-61603335D01*
X181132342Y-61605227D01*
X181412734Y-61832285D01*
X181415126Y-61834438D01*
X181670261Y-62089573D01*
X181672414Y-62091965D01*
X181899472Y-62372357D01*
X181901364Y-62374961D01*
X182083281Y-62655088D01*
X182097876Y-62677561D01*
X182099485Y-62680349D01*
X182263280Y-63001817D01*
X182264590Y-63004757D01*
X182393896Y-63341609D01*
X182394890Y-63344670D01*
X182488272Y-63693178D01*
X182488941Y-63696327D01*
X182545383Y-64052681D01*
X182545720Y-64055882D01*
X182564558Y-64415342D01*
X182564600Y-64416951D01*
X182564600Y-80141371D01*
X182555594Y-80163115D01*
X182533850Y-80172121D01*
X182512106Y-80163115D01*
X182509455Y-80160091D01*
X182474222Y-80114176D01*
X182474221Y-80114175D01*
X182474218Y-80114171D01*
X182290529Y-79930482D01*
X182084436Y-79772341D01*
X181859464Y-79642454D01*
X181859457Y-79642451D01*
X181619473Y-79543045D01*
X181619457Y-79543039D01*
X181368539Y-79475807D01*
X181170911Y-79449789D01*
X181110987Y-79441900D01*
X180851213Y-79441900D01*
X180821250Y-79445844D01*
X180593660Y-79475807D01*
X180342742Y-79543039D01*
X180342726Y-79543045D01*
X180102742Y-79642451D01*
X180102726Y-79642459D01*
X179877768Y-79772338D01*
X179671675Y-79930478D01*
X179487978Y-80114175D01*
X179329838Y-80320268D01*
X179199959Y-80545226D01*
X179199951Y-80545242D01*
X179100545Y-80785226D01*
X179100539Y-80785242D01*
X179033307Y-81036160D01*
X178999400Y-81293714D01*
X178999400Y-81553485D01*
X179033307Y-81811039D01*
X179100539Y-82061957D01*
X179100545Y-82061973D01*
X179199951Y-82301957D01*
X179199954Y-82301964D01*
X179329841Y-82526936D01*
X179487982Y-82733029D01*
X179671671Y-82916718D01*
X179877764Y-83074859D01*
X179952206Y-83117838D01*
X180085747Y-83194938D01*
X180100074Y-83213609D01*
X180097002Y-83236943D01*
X180095249Y-83239642D01*
X180004205Y-83364953D01*
X180004197Y-83364966D01*
X179922583Y-83525142D01*
X179922581Y-83525147D01*
X179867024Y-83696136D01*
X179838900Y-83873700D01*
X179838900Y-83875099D01*
X179838901Y-83875100D01*
X180487176Y-83875100D01*
X180481100Y-83897774D01*
X180481100Y-84029426D01*
X180487176Y-84052100D01*
X179838901Y-84052100D01*
X179838900Y-84052101D01*
X179838900Y-84053499D01*
X179867024Y-84231063D01*
X179922581Y-84402052D01*
X179922583Y-84402057D01*
X180004197Y-84562233D01*
X180004205Y-84562246D01*
X180095249Y-84687558D01*
X180100743Y-84710442D01*
X180088446Y-84730509D01*
X180085747Y-84732262D01*
X179877768Y-84852338D01*
X179671675Y-85010478D01*
X179487978Y-85194175D01*
X179329838Y-85400268D01*
X179199959Y-85625226D01*
X179199951Y-85625242D01*
X179100545Y-85865226D01*
X179100539Y-85865242D01*
X179033307Y-86116160D01*
X178999400Y-86373714D01*
X178999400Y-86633485D01*
X179033307Y-86891039D01*
X179100539Y-87141957D01*
X179100545Y-87141973D01*
X179199951Y-87381957D01*
X179199954Y-87381964D01*
X179329841Y-87606936D01*
X179407778Y-87708505D01*
X179443363Y-87754881D01*
X179449454Y-87777614D01*
X179443363Y-87792319D01*
X179329838Y-87940268D01*
X179199959Y-88165226D01*
X179199951Y-88165242D01*
X179100545Y-88405226D01*
X179100539Y-88405242D01*
X179033307Y-88656160D01*
X178999400Y-88913714D01*
X178999400Y-89173485D01*
X179033307Y-89431039D01*
X179100539Y-89681957D01*
X179100545Y-89681973D01*
X179199951Y-89921957D01*
X179199954Y-89921964D01*
X179329841Y-90146936D01*
X179407778Y-90248505D01*
X179443363Y-90294881D01*
X179449454Y-90317614D01*
X179443363Y-90332319D01*
X179329838Y-90480268D01*
X179199959Y-90705226D01*
X179199951Y-90705242D01*
X179100545Y-90945226D01*
X179100539Y-90945242D01*
X179033307Y-91196160D01*
X178999400Y-91453714D01*
X178999400Y-91713485D01*
X179033307Y-91971039D01*
X179100539Y-92221957D01*
X179100545Y-92221973D01*
X179199951Y-92461957D01*
X179199954Y-92461964D01*
X179329841Y-92686936D01*
X179407778Y-92788505D01*
X179443363Y-92834881D01*
X179449454Y-92857614D01*
X179443363Y-92872319D01*
X179329838Y-93020268D01*
X179199959Y-93245226D01*
X179199951Y-93245242D01*
X179100545Y-93485226D01*
X179100539Y-93485242D01*
X179033307Y-93736160D01*
X178999400Y-93993714D01*
X178999400Y-94253485D01*
X179033307Y-94511039D01*
X179100539Y-94761957D01*
X179100545Y-94761973D01*
X179199951Y-95001957D01*
X179199954Y-95001964D01*
X179329841Y-95226936D01*
X179407778Y-95328505D01*
X179443363Y-95374881D01*
X179449454Y-95397614D01*
X179443363Y-95412319D01*
X179329838Y-95560268D01*
X179199959Y-95785226D01*
X179199951Y-95785242D01*
X179100545Y-96025226D01*
X179100539Y-96025242D01*
X179033307Y-96276160D01*
X178999400Y-96533714D01*
X178999400Y-96793485D01*
X179033307Y-97051039D01*
X179100539Y-97301957D01*
X179100545Y-97301973D01*
X179167287Y-97463100D01*
X179199954Y-97541964D01*
X179199957Y-97541970D01*
X179199959Y-97541973D01*
X179258338Y-97643089D01*
X179329841Y-97766936D01*
X179407778Y-97868505D01*
X179443363Y-97914881D01*
X179449454Y-97937614D01*
X179443363Y-97952319D01*
X179329838Y-98100268D01*
X179199959Y-98325226D01*
X179199951Y-98325242D01*
X179100545Y-98565226D01*
X179100539Y-98565242D01*
X179033307Y-98816160D01*
X178999400Y-99073714D01*
X178999400Y-99333485D01*
X179033307Y-99591039D01*
X179100539Y-99841957D01*
X179100545Y-99841973D01*
X179195197Y-100070480D01*
X179199954Y-100081964D01*
X179199957Y-100081970D01*
X179199959Y-100081973D01*
X179329838Y-100306931D01*
X179329841Y-100306936D01*
X179407778Y-100408505D01*
X179443363Y-100454881D01*
X179449454Y-100477614D01*
X179443363Y-100492319D01*
X179329838Y-100640268D01*
X179199959Y-100865226D01*
X179199951Y-100865242D01*
X179100545Y-101105226D01*
X179100539Y-101105242D01*
X179033307Y-101356160D01*
X178999400Y-101613714D01*
X178999400Y-101873485D01*
X179033307Y-102131039D01*
X179100539Y-102381957D01*
X179100545Y-102381973D01*
X179199951Y-102621957D01*
X179199954Y-102621964D01*
X179329841Y-102846936D01*
X179407778Y-102948505D01*
X179443363Y-102994881D01*
X179449454Y-103017614D01*
X179443363Y-103032319D01*
X179329838Y-103180268D01*
X179199959Y-103405226D01*
X179199951Y-103405242D01*
X179100545Y-103645226D01*
X179100539Y-103645242D01*
X179033307Y-103896160D01*
X178999400Y-104153714D01*
X178999400Y-104413485D01*
X179033307Y-104671039D01*
X179100539Y-104921957D01*
X179100545Y-104921973D01*
X179182781Y-105120505D01*
X179199954Y-105161964D01*
X179329841Y-105386936D01*
X179407778Y-105488505D01*
X179443363Y-105534881D01*
X179449454Y-105557614D01*
X179443363Y-105572319D01*
X179329838Y-105720268D01*
X179199959Y-105945226D01*
X179199951Y-105945242D01*
X179100545Y-106185226D01*
X179100539Y-106185242D01*
X179033307Y-106436160D01*
X178999400Y-106693714D01*
X178999400Y-106953485D01*
X179033307Y-107211039D01*
X179100539Y-107461957D01*
X179100545Y-107461973D01*
X179199951Y-107701957D01*
X179199954Y-107701964D01*
X179199957Y-107701970D01*
X179199959Y-107701973D01*
X179317482Y-107905530D01*
X179329841Y-107926936D01*
X179359717Y-107965871D01*
X179443363Y-108074881D01*
X179449454Y-108097614D01*
X179443363Y-108112319D01*
X179329838Y-108260268D01*
X179199959Y-108485226D01*
X179199951Y-108485242D01*
X179100545Y-108725226D01*
X179100539Y-108725242D01*
X179033307Y-108976160D01*
X178999400Y-109233714D01*
X178999400Y-109493485D01*
X179033307Y-109751039D01*
X179100539Y-110001957D01*
X179100545Y-110001973D01*
X179193551Y-110226506D01*
X179199954Y-110241964D01*
X179199957Y-110241970D01*
X179199959Y-110241973D01*
X179329838Y-110466931D01*
X179329841Y-110466936D01*
X179407778Y-110568505D01*
X179443363Y-110614881D01*
X179449454Y-110637614D01*
X179443363Y-110652319D01*
X179329838Y-110800268D01*
X179199959Y-111025226D01*
X179199951Y-111025242D01*
X179100545Y-111265226D01*
X179100539Y-111265242D01*
X179033307Y-111516160D01*
X178999400Y-111773714D01*
X178999400Y-112033485D01*
X179033307Y-112291039D01*
X179100539Y-112541957D01*
X179100545Y-112541973D01*
X179152326Y-112666981D01*
X179199954Y-112781964D01*
X179199957Y-112781970D01*
X179199959Y-112781973D01*
X179317483Y-112985531D01*
X179329841Y-113006936D01*
X179407778Y-113108505D01*
X179443363Y-113154881D01*
X179449454Y-113177614D01*
X179443363Y-113192319D01*
X179329838Y-113340268D01*
X179199959Y-113565226D01*
X179199951Y-113565242D01*
X179100545Y-113805226D01*
X179100539Y-113805242D01*
X179033307Y-114056160D01*
X179006038Y-114263294D01*
X178999400Y-114313713D01*
X178999400Y-114573487D01*
X179002465Y-114596770D01*
X179033307Y-114831039D01*
X179100539Y-115081957D01*
X179100545Y-115081973D01*
X179190000Y-115297933D01*
X179199954Y-115321964D01*
X179199957Y-115321970D01*
X179199959Y-115321973D01*
X179329838Y-115546931D01*
X179329841Y-115546936D01*
X179394739Y-115631512D01*
X179443363Y-115694881D01*
X179449454Y-115717614D01*
X179443363Y-115732319D01*
X179329838Y-115880268D01*
X179199959Y-116105226D01*
X179199951Y-116105242D01*
X179100545Y-116345226D01*
X179100539Y-116345242D01*
X179033307Y-116596160D01*
X178999400Y-116853714D01*
X178999400Y-117113485D01*
X179033307Y-117371039D01*
X179100539Y-117621957D01*
X179100545Y-117621973D01*
X179182220Y-117819151D01*
X179199954Y-117861964D01*
X179199957Y-117861970D01*
X179199959Y-117861973D01*
X179329838Y-118086931D01*
X179329841Y-118086936D01*
X179487982Y-118293029D01*
X179671671Y-118476718D01*
X179877764Y-118634859D01*
X180102736Y-118764746D01*
X180214546Y-118811059D01*
X180342726Y-118864154D01*
X180342742Y-118864160D01*
X180593660Y-118931392D01*
X180851213Y-118965300D01*
X180851218Y-118965300D01*
X181110982Y-118965300D01*
X181110987Y-118965300D01*
X181368540Y-118931392D01*
X181470365Y-118904108D01*
X181619457Y-118864160D01*
X181619460Y-118864158D01*
X181619463Y-118864158D01*
X181859464Y-118764746D01*
X182084436Y-118634859D01*
X182290529Y-118476718D01*
X182474218Y-118293029D01*
X182509454Y-118247107D01*
X182529836Y-118235340D01*
X182552569Y-118241431D01*
X182564337Y-118261813D01*
X182564600Y-118265827D01*
X182564600Y-145590250D01*
X182564558Y-145591859D01*
X182545720Y-145951319D01*
X182545383Y-145954520D01*
X182488941Y-146310873D01*
X182488272Y-146314022D01*
X182394890Y-146662530D01*
X182393896Y-146665591D01*
X182264590Y-147002444D01*
X182263280Y-147005384D01*
X182099485Y-147326851D01*
X182097876Y-147329639D01*
X181901364Y-147632239D01*
X181899472Y-147634843D01*
X181672414Y-147915235D01*
X181670261Y-147917627D01*
X181415126Y-148172762D01*
X181412734Y-148174915D01*
X181132341Y-148401973D01*
X181129737Y-148403865D01*
X180827137Y-148600377D01*
X180824349Y-148601986D01*
X180502882Y-148765781D01*
X180499942Y-148767091D01*
X180163089Y-148896396D01*
X180160028Y-148897390D01*
X179811520Y-148990773D01*
X179808371Y-148991442D01*
X179452019Y-149047883D01*
X179448818Y-149048220D01*
X179089357Y-149067058D01*
X179087748Y-149067100D01*
X117914451Y-149067100D01*
X117912842Y-149067058D01*
X117553381Y-149048220D01*
X117550180Y-149047883D01*
X117193827Y-148991441D01*
X117190678Y-148990772D01*
X116842170Y-148897390D01*
X116839109Y-148896396D01*
X116502256Y-148767090D01*
X116499316Y-148765780D01*
X116350150Y-148689776D01*
X116177844Y-148601982D01*
X116175063Y-148600377D01*
X116013269Y-148495307D01*
X115872461Y-148403865D01*
X115869857Y-148401973D01*
X115589464Y-148174915D01*
X115587072Y-148172762D01*
X115331937Y-147917627D01*
X115329784Y-147915235D01*
X115102726Y-147634842D01*
X115100834Y-147632238D01*
X115067105Y-147580300D01*
X114904317Y-147329627D01*
X114902715Y-147326851D01*
X114738917Y-147005379D01*
X114737611Y-147002448D01*
X114608300Y-146665583D01*
X114607311Y-146662537D01*
X114513705Y-146313192D01*
X114512826Y-146308451D01*
X114496604Y-146154111D01*
X114480785Y-146003600D01*
X114467954Y-145881517D01*
X114467742Y-145879504D01*
X115924400Y-145879504D01*
X115924400Y-146127695D01*
X115963223Y-146372808D01*
X116039914Y-146608842D01*
X116039916Y-146608847D01*
X116152580Y-146829961D01*
X116152588Y-146829974D01*
X116298456Y-147030745D01*
X116298458Y-147030747D01*
X116298461Y-147030751D01*
X116473949Y-147206239D01*
X116473952Y-147206241D01*
X116473954Y-147206243D01*
X116533742Y-147249681D01*
X116674729Y-147352114D01*
X116674734Y-147352116D01*
X116674738Y-147352119D01*
X116895852Y-147464783D01*
X116895857Y-147464785D01*
X117131889Y-147541476D01*
X117314380Y-147570380D01*
X117377004Y-147580299D01*
X117377005Y-147580299D01*
X117377011Y-147580300D01*
X117377017Y-147580300D01*
X117625183Y-147580300D01*
X117625189Y-147580300D01*
X117870311Y-147541476D01*
X118106343Y-147464785D01*
X118327471Y-147352114D01*
X118528251Y-147206239D01*
X118592389Y-147142101D01*
X121522099Y-147142101D01*
X121522099Y-147386664D01*
X121532370Y-147438293D01*
X121532370Y-147438294D01*
X121561609Y-147482055D01*
X121561611Y-147482057D01*
X122032644Y-147953091D01*
X122032646Y-147953093D01*
X122076405Y-147982330D01*
X122128032Y-147992599D01*
X122128033Y-147992600D01*
X122372599Y-147992600D01*
X122372600Y-147992599D01*
X122372600Y-147555806D01*
X122394220Y-147561600D01*
X122527980Y-147561600D01*
X122549600Y-147555806D01*
X122549600Y-147992599D01*
X122549601Y-147992600D01*
X122794164Y-147992600D01*
X122845793Y-147982329D01*
X122845794Y-147982329D01*
X122889555Y-147953090D01*
X122889557Y-147953088D01*
X123360591Y-147482055D01*
X123360593Y-147482053D01*
X123389830Y-147438294D01*
X123400099Y-147386667D01*
X123400100Y-147386667D01*
X123400100Y-147142101D01*
X123400099Y-147142100D01*
X122963307Y-147142100D01*
X122969100Y-147120480D01*
X122969100Y-146986720D01*
X122963307Y-146965100D01*
X123400100Y-146965100D01*
X123400101Y-146965099D01*
X123400101Y-146720535D01*
X123389829Y-146668906D01*
X123389829Y-146668905D01*
X123360590Y-146625144D01*
X123360588Y-146625142D01*
X122889555Y-146154108D01*
X122889553Y-146154106D01*
X122845794Y-146124869D01*
X122794167Y-146114600D01*
X122794166Y-146114599D01*
X122549600Y-146114599D01*
X122549600Y-146551393D01*
X122527980Y-146545600D01*
X122394220Y-146545600D01*
X122372600Y-146551393D01*
X122372600Y-146114600D01*
X122372599Y-146114599D01*
X122128035Y-146114599D01*
X122076406Y-146124870D01*
X122076405Y-146124870D01*
X122032644Y-146154109D01*
X122032642Y-146154111D01*
X121561608Y-146625144D01*
X121561606Y-146625146D01*
X121532369Y-146668905D01*
X121522100Y-146720532D01*
X121522100Y-146965099D01*
X121522101Y-146965100D01*
X121958893Y-146965100D01*
X121953100Y-146986720D01*
X121953100Y-147120480D01*
X121958893Y-147142100D01*
X121522100Y-147142100D01*
X121522099Y-147142101D01*
X118592389Y-147142101D01*
X118703739Y-147030751D01*
X118849614Y-146829971D01*
X118884812Y-146760892D01*
X118913259Y-146705063D01*
X118962283Y-146608847D01*
X118962285Y-146608842D01*
X118976701Y-146564474D01*
X119038976Y-146372811D01*
X119077800Y-146127689D01*
X119077800Y-145879511D01*
X119038976Y-145634389D01*
X118962285Y-145398357D01*
X118962283Y-145398352D01*
X118849619Y-145177238D01*
X118849616Y-145177234D01*
X118849614Y-145177229D01*
X118817515Y-145133049D01*
X118703743Y-144976454D01*
X118703741Y-144976452D01*
X118703739Y-144976449D01*
X118528251Y-144800961D01*
X118528247Y-144800958D01*
X118528245Y-144800956D01*
X118327474Y-144655088D01*
X118327461Y-144655080D01*
X118106347Y-144542416D01*
X118106342Y-144542414D01*
X117870308Y-144465723D01*
X117625195Y-144426900D01*
X117625189Y-144426900D01*
X117377011Y-144426900D01*
X117377004Y-144426900D01*
X117131891Y-144465723D01*
X116895857Y-144542414D01*
X116895852Y-144542416D01*
X116674738Y-144655080D01*
X116674725Y-144655088D01*
X116473954Y-144800956D01*
X116298456Y-144976454D01*
X116152588Y-145177225D01*
X116152580Y-145177238D01*
X116039916Y-145398352D01*
X116039914Y-145398357D01*
X115963223Y-145634391D01*
X115924400Y-145879504D01*
X114467742Y-145879504D01*
X114437768Y-145594320D01*
X114437600Y-145591106D01*
X114437600Y-141881449D01*
X124979400Y-141881449D01*
X124979400Y-144125750D01*
X125013741Y-144386605D01*
X125081837Y-144640745D01*
X125101677Y-144688642D01*
X125182524Y-144883823D01*
X125182527Y-144883829D01*
X125182529Y-144883832D01*
X125314073Y-145111673D01*
X125314076Y-145111678D01*
X125474244Y-145320413D01*
X125660287Y-145506456D01*
X125869022Y-145666624D01*
X126096877Y-145798176D01*
X126339954Y-145898862D01*
X126594094Y-145966958D01*
X126854948Y-146001300D01*
X126854953Y-146001300D01*
X127118047Y-146001300D01*
X127118052Y-146001300D01*
X127378906Y-145966958D01*
X127633046Y-145898862D01*
X127876123Y-145798176D01*
X128103978Y-145666624D01*
X128312713Y-145506456D01*
X128498756Y-145320413D01*
X128658924Y-145111678D01*
X128790476Y-144883823D01*
X128891162Y-144640746D01*
X128959258Y-144386606D01*
X128993600Y-144125752D01*
X128993600Y-141921102D01*
X130848100Y-141921102D01*
X130848100Y-142915099D01*
X130848101Y-142915100D01*
X131359966Y-142915100D01*
X131355300Y-142938556D01*
X131355300Y-143068644D01*
X131359966Y-143092100D01*
X130848101Y-143092100D01*
X130848100Y-143092101D01*
X130848100Y-144086097D01*
X130876850Y-144267611D01*
X130933642Y-144442402D01*
X130933644Y-144442407D01*
X131017073Y-144606146D01*
X131017081Y-144606159D01*
X131125100Y-144754834D01*
X131255065Y-144884799D01*
X131403740Y-144992818D01*
X131403753Y-144992826D01*
X131567492Y-145076255D01*
X131567497Y-145076257D01*
X131742288Y-145133049D01*
X131923802Y-145161799D01*
X131923814Y-145161800D01*
X131927199Y-145161800D01*
X131927200Y-145161799D01*
X131927200Y-143659334D01*
X131950656Y-143664000D01*
X132080744Y-143664000D01*
X132104200Y-143659334D01*
X132104200Y-145161799D01*
X132104201Y-145161800D01*
X132107586Y-145161800D01*
X132107597Y-145161799D01*
X132289111Y-145133049D01*
X132463902Y-145076257D01*
X132463907Y-145076255D01*
X132627646Y-144992826D01*
X132627659Y-144992818D01*
X132776334Y-144884799D01*
X132906299Y-144754834D01*
X133014318Y-144606159D01*
X133014326Y-144606146D01*
X133097755Y-144442407D01*
X133097757Y-144442402D01*
X133154549Y-144267611D01*
X133183299Y-144086097D01*
X133183300Y-144086086D01*
X133183300Y-143092101D01*
X133183299Y-143092100D01*
X132671434Y-143092100D01*
X132676100Y-143068644D01*
X132676100Y-142938556D01*
X132671434Y-142915100D01*
X133183299Y-142915100D01*
X133183300Y-142915099D01*
X133183300Y-141921113D01*
X133183299Y-141921101D01*
X133177621Y-141885251D01*
X133177019Y-141881449D01*
X135979400Y-141881449D01*
X135979400Y-144125750D01*
X136013741Y-144386605D01*
X136081837Y-144640745D01*
X136101677Y-144688642D01*
X136182524Y-144883823D01*
X136182527Y-144883829D01*
X136182529Y-144883832D01*
X136314073Y-145111673D01*
X136314076Y-145111678D01*
X136474244Y-145320413D01*
X136660287Y-145506456D01*
X136869022Y-145666624D01*
X137096877Y-145798176D01*
X137339954Y-145898862D01*
X137594094Y-145966958D01*
X137854948Y-146001300D01*
X137854953Y-146001300D01*
X138118047Y-146001300D01*
X138118052Y-146001300D01*
X138378906Y-145966958D01*
X138633046Y-145898862D01*
X138876123Y-145798176D01*
X139103978Y-145666624D01*
X139312713Y-145506456D01*
X139498756Y-145320413D01*
X139658924Y-145111678D01*
X139790476Y-144883823D01*
X139891162Y-144640746D01*
X139959258Y-144386606D01*
X139993600Y-144125752D01*
X139993600Y-141921102D01*
X141848100Y-141921102D01*
X141848100Y-142915099D01*
X141848101Y-142915100D01*
X142359966Y-142915100D01*
X142355300Y-142938556D01*
X142355300Y-143068644D01*
X142359966Y-143092100D01*
X141848101Y-143092100D01*
X141848100Y-143092101D01*
X141848100Y-144086097D01*
X141876850Y-144267611D01*
X141933642Y-144442402D01*
X141933644Y-144442407D01*
X142017073Y-144606146D01*
X142017081Y-144606159D01*
X142125100Y-144754834D01*
X142255065Y-144884799D01*
X142403740Y-144992818D01*
X142403753Y-144992826D01*
X142567492Y-145076255D01*
X142567497Y-145076257D01*
X142742288Y-145133049D01*
X142923802Y-145161799D01*
X142923814Y-145161800D01*
X142927199Y-145161800D01*
X142927200Y-145161799D01*
X142927200Y-143659334D01*
X142950656Y-143664000D01*
X143080744Y-143664000D01*
X143104200Y-143659334D01*
X143104200Y-145161799D01*
X143104201Y-145161800D01*
X143107586Y-145161800D01*
X143107597Y-145161799D01*
X143289111Y-145133049D01*
X143463902Y-145076257D01*
X143463907Y-145076255D01*
X143627646Y-144992826D01*
X143627659Y-144992818D01*
X143776334Y-144884799D01*
X143906299Y-144754834D01*
X144014318Y-144606159D01*
X144014326Y-144606146D01*
X144097755Y-144442407D01*
X144097757Y-144442402D01*
X144154549Y-144267611D01*
X144183299Y-144086097D01*
X144183300Y-144086086D01*
X144183300Y-143092101D01*
X144183299Y-143092100D01*
X143671434Y-143092100D01*
X143676100Y-143068644D01*
X143676100Y-142938556D01*
X143671434Y-142915100D01*
X144183299Y-142915100D01*
X144183300Y-142915099D01*
X144183300Y-141921113D01*
X144183299Y-141921101D01*
X144177621Y-141885251D01*
X144177019Y-141881449D01*
X146979400Y-141881449D01*
X146979400Y-144125750D01*
X147013741Y-144386605D01*
X147081837Y-144640745D01*
X147101677Y-144688642D01*
X147182524Y-144883823D01*
X147182527Y-144883829D01*
X147182529Y-144883832D01*
X147314073Y-145111673D01*
X147314076Y-145111678D01*
X147474244Y-145320413D01*
X147660287Y-145506456D01*
X147869022Y-145666624D01*
X148096877Y-145798176D01*
X148339954Y-145898862D01*
X148594094Y-145966958D01*
X148854948Y-146001300D01*
X148854953Y-146001300D01*
X149118047Y-146001300D01*
X149118052Y-146001300D01*
X149378906Y-145966958D01*
X149633046Y-145898862D01*
X149876123Y-145798176D01*
X150103978Y-145666624D01*
X150312713Y-145506456D01*
X150498756Y-145320413D01*
X150658924Y-145111678D01*
X150790476Y-144883823D01*
X150891162Y-144640746D01*
X150959258Y-144386606D01*
X150993600Y-144125752D01*
X150993600Y-141921102D01*
X152848100Y-141921102D01*
X152848100Y-142915099D01*
X152848101Y-142915100D01*
X153359966Y-142915100D01*
X153355300Y-142938556D01*
X153355300Y-143068644D01*
X153359966Y-143092100D01*
X152848101Y-143092100D01*
X152848100Y-143092101D01*
X152848100Y-144086097D01*
X152876850Y-144267611D01*
X152933642Y-144442402D01*
X152933644Y-144442407D01*
X153017073Y-144606146D01*
X153017081Y-144606159D01*
X153125100Y-144754834D01*
X153255065Y-144884799D01*
X153403740Y-144992818D01*
X153403753Y-144992826D01*
X153567492Y-145076255D01*
X153567497Y-145076257D01*
X153742288Y-145133049D01*
X153923802Y-145161799D01*
X153923814Y-145161800D01*
X153927199Y-145161800D01*
X153927200Y-145161799D01*
X153927200Y-143659334D01*
X153950656Y-143664000D01*
X154080744Y-143664000D01*
X154104200Y-143659334D01*
X154104200Y-145161799D01*
X154104201Y-145161800D01*
X154107586Y-145161800D01*
X154107597Y-145161799D01*
X154289111Y-145133049D01*
X154463902Y-145076257D01*
X154463907Y-145076255D01*
X154627646Y-144992826D01*
X154627659Y-144992818D01*
X154776334Y-144884799D01*
X154906299Y-144754834D01*
X155014318Y-144606159D01*
X155014326Y-144606146D01*
X155097755Y-144442407D01*
X155097757Y-144442402D01*
X155154549Y-144267611D01*
X155183299Y-144086097D01*
X155183300Y-144086086D01*
X155183300Y-143092101D01*
X155183299Y-143092100D01*
X154671434Y-143092100D01*
X154676100Y-143068644D01*
X154676100Y-142938556D01*
X154671434Y-142915100D01*
X155183299Y-142915100D01*
X155183300Y-142915099D01*
X155183300Y-141921113D01*
X155183299Y-141921102D01*
X158815100Y-141921102D01*
X158815100Y-142915099D01*
X158815101Y-142915100D01*
X159326966Y-142915100D01*
X159322300Y-142938556D01*
X159322300Y-143068644D01*
X159326966Y-143092100D01*
X158815101Y-143092100D01*
X158815100Y-143092101D01*
X158815100Y-144086097D01*
X158843850Y-144267611D01*
X158900642Y-144442402D01*
X158900644Y-144442407D01*
X158984073Y-144606146D01*
X158984081Y-144606159D01*
X159092100Y-144754834D01*
X159222065Y-144884799D01*
X159370740Y-144992818D01*
X159370753Y-144992826D01*
X159534492Y-145076255D01*
X159534497Y-145076257D01*
X159709288Y-145133049D01*
X159890802Y-145161799D01*
X159890814Y-145161800D01*
X159894199Y-145161800D01*
X159894200Y-145161799D01*
X159894200Y-143659334D01*
X159917656Y-143664000D01*
X160047744Y-143664000D01*
X160071200Y-143659334D01*
X160071200Y-145161799D01*
X160071201Y-145161800D01*
X160074586Y-145161800D01*
X160074597Y-145161799D01*
X160256111Y-145133049D01*
X160430902Y-145076257D01*
X160430907Y-145076255D01*
X160594646Y-144992826D01*
X160594659Y-144992818D01*
X160743334Y-144884799D01*
X160873299Y-144754834D01*
X160981318Y-144606159D01*
X160981326Y-144606146D01*
X161064755Y-144442407D01*
X161064757Y-144442402D01*
X161121549Y-144267611D01*
X161150299Y-144086097D01*
X161150300Y-144086086D01*
X161150300Y-143092101D01*
X161150299Y-143092100D01*
X160638434Y-143092100D01*
X160643100Y-143068644D01*
X160643100Y-142938556D01*
X160638434Y-142915100D01*
X161150299Y-142915100D01*
X161150300Y-142915099D01*
X161150300Y-141921113D01*
X161150299Y-141921101D01*
X161144621Y-141885251D01*
X161144019Y-141881449D01*
X163004800Y-141881449D01*
X163004800Y-144125750D01*
X163039141Y-144386605D01*
X163107237Y-144640745D01*
X163127077Y-144688642D01*
X163207924Y-144883823D01*
X163207927Y-144883829D01*
X163207929Y-144883832D01*
X163339473Y-145111673D01*
X163339476Y-145111678D01*
X163499644Y-145320413D01*
X163685687Y-145506456D01*
X163894422Y-145666624D01*
X164122277Y-145798176D01*
X164365354Y-145898862D01*
X164619494Y-145966958D01*
X164880348Y-146001300D01*
X164880353Y-146001300D01*
X165143447Y-146001300D01*
X165143452Y-146001300D01*
X165404306Y-145966958D01*
X165658446Y-145898862D01*
X165901523Y-145798176D01*
X166129378Y-145666624D01*
X166338113Y-145506456D01*
X166524156Y-145320413D01*
X166684324Y-145111678D01*
X166815876Y-144883823D01*
X166916562Y-144640746D01*
X166984658Y-144386606D01*
X167019000Y-144125752D01*
X167019000Y-141881449D01*
X167983200Y-141881449D01*
X167983200Y-144125750D01*
X168017541Y-144386605D01*
X168085637Y-144640745D01*
X168105477Y-144688642D01*
X168186324Y-144883823D01*
X168186327Y-144883829D01*
X168186329Y-144883832D01*
X168317873Y-145111673D01*
X168317876Y-145111678D01*
X168478044Y-145320413D01*
X168664087Y-145506456D01*
X168872822Y-145666624D01*
X169100677Y-145798176D01*
X169343754Y-145898862D01*
X169597894Y-145966958D01*
X169858748Y-146001300D01*
X169858753Y-146001300D01*
X170121847Y-146001300D01*
X170121852Y-146001300D01*
X170382706Y-145966958D01*
X170636846Y-145898862D01*
X170879923Y-145798176D01*
X171107778Y-145666624D01*
X171316513Y-145506456D01*
X171502556Y-145320413D01*
X171662724Y-145111678D01*
X171794276Y-144883823D01*
X171894962Y-144640746D01*
X171963058Y-144386606D01*
X171997400Y-144125752D01*
X171997400Y-141881449D01*
X173012400Y-141881449D01*
X173012400Y-144125750D01*
X173046741Y-144386605D01*
X173114837Y-144640745D01*
X173134677Y-144688642D01*
X173215524Y-144883823D01*
X173215527Y-144883829D01*
X173215529Y-144883832D01*
X173347073Y-145111673D01*
X173347076Y-145111678D01*
X173507244Y-145320413D01*
X173693287Y-145506456D01*
X173902022Y-145666624D01*
X174129877Y-145798176D01*
X174372954Y-145898862D01*
X174627094Y-145966958D01*
X174887948Y-146001300D01*
X174887953Y-146001300D01*
X175151047Y-146001300D01*
X175151052Y-146001300D01*
X175411906Y-145966958D01*
X175666046Y-145898862D01*
X175909123Y-145798176D01*
X176136978Y-145666624D01*
X176345713Y-145506456D01*
X176531756Y-145320413D01*
X176691924Y-145111678D01*
X176823476Y-144883823D01*
X176924162Y-144640746D01*
X176992258Y-144386606D01*
X177026600Y-144125752D01*
X177026600Y-142982101D01*
X179522099Y-142982101D01*
X179522099Y-143226664D01*
X179532370Y-143278293D01*
X179532370Y-143278294D01*
X179561609Y-143322055D01*
X179561611Y-143322057D01*
X180032644Y-143793091D01*
X180032646Y-143793093D01*
X180076405Y-143822330D01*
X180128032Y-143832599D01*
X180128033Y-143832600D01*
X180372599Y-143832600D01*
X180372600Y-143832599D01*
X180372600Y-143395806D01*
X180394220Y-143401600D01*
X180527980Y-143401600D01*
X180549600Y-143395806D01*
X180549600Y-143832599D01*
X180549601Y-143832600D01*
X180794164Y-143832600D01*
X180845793Y-143822329D01*
X180845794Y-143822329D01*
X180889555Y-143793090D01*
X180889557Y-143793088D01*
X181360591Y-143322055D01*
X181360593Y-143322053D01*
X181389830Y-143278294D01*
X181400099Y-143226667D01*
X181400100Y-143226667D01*
X181400100Y-142982101D01*
X181400099Y-142982100D01*
X180963307Y-142982100D01*
X180969100Y-142960480D01*
X180969100Y-142826720D01*
X180963307Y-142805100D01*
X181400100Y-142805100D01*
X181400101Y-142805099D01*
X181400101Y-142560535D01*
X181389829Y-142508906D01*
X181389829Y-142508905D01*
X181360590Y-142465144D01*
X181360588Y-142465142D01*
X180889555Y-141994108D01*
X180889553Y-141994106D01*
X180845794Y-141964869D01*
X180794167Y-141954600D01*
X180794166Y-141954599D01*
X180549600Y-141954599D01*
X180549600Y-142391393D01*
X180527980Y-142385600D01*
X180394220Y-142385600D01*
X180372600Y-142391393D01*
X180372600Y-141954600D01*
X180372599Y-141954599D01*
X180128035Y-141954599D01*
X180076406Y-141964870D01*
X180076405Y-141964870D01*
X180032644Y-141994109D01*
X180032642Y-141994111D01*
X179561608Y-142465144D01*
X179561606Y-142465146D01*
X179532369Y-142508905D01*
X179522100Y-142560532D01*
X179522100Y-142805099D01*
X179522101Y-142805100D01*
X179958893Y-142805100D01*
X179953100Y-142826720D01*
X179953100Y-142960480D01*
X179958893Y-142982100D01*
X179522100Y-142982100D01*
X179522099Y-142982101D01*
X177026600Y-142982101D01*
X177026600Y-141881448D01*
X176992258Y-141620594D01*
X176924162Y-141366454D01*
X176823476Y-141123377D01*
X176691924Y-140895522D01*
X176531756Y-140686787D01*
X176345713Y-140500744D01*
X176136978Y-140340576D01*
X175909123Y-140209024D01*
X175909116Y-140209021D01*
X175666045Y-140108337D01*
X175411905Y-140040241D01*
X175211743Y-140013890D01*
X175151052Y-140005900D01*
X174887948Y-140005900D01*
X174857602Y-140009895D01*
X174627094Y-140040241D01*
X174372954Y-140108337D01*
X174129883Y-140209021D01*
X174129867Y-140209029D01*
X173902026Y-140340573D01*
X173693291Y-140500740D01*
X173507240Y-140686791D01*
X173347073Y-140895526D01*
X173215529Y-141123367D01*
X173215521Y-141123383D01*
X173114837Y-141366454D01*
X173046741Y-141620594D01*
X173012400Y-141881449D01*
X171997400Y-141881449D01*
X171997400Y-141881448D01*
X171963058Y-141620594D01*
X171894962Y-141366454D01*
X171794276Y-141123377D01*
X171662724Y-140895522D01*
X171502556Y-140686787D01*
X171316513Y-140500744D01*
X171107778Y-140340576D01*
X170879923Y-140209024D01*
X170879916Y-140209021D01*
X170636845Y-140108337D01*
X170382705Y-140040241D01*
X170182543Y-140013890D01*
X170121852Y-140005900D01*
X169858748Y-140005900D01*
X169828402Y-140009895D01*
X169597894Y-140040241D01*
X169343754Y-140108337D01*
X169100683Y-140209021D01*
X169100667Y-140209029D01*
X168872826Y-140340573D01*
X168664091Y-140500740D01*
X168478040Y-140686791D01*
X168317873Y-140895526D01*
X168186329Y-141123367D01*
X168186321Y-141123383D01*
X168085637Y-141366454D01*
X168017541Y-141620594D01*
X167983200Y-141881449D01*
X167019000Y-141881449D01*
X167019000Y-141881448D01*
X166984658Y-141620594D01*
X166916562Y-141366454D01*
X166815876Y-141123377D01*
X166684324Y-140895522D01*
X166524156Y-140686787D01*
X166338113Y-140500744D01*
X166129378Y-140340576D01*
X165901523Y-140209024D01*
X165901516Y-140209021D01*
X165658445Y-140108337D01*
X165404305Y-140040241D01*
X165204143Y-140013890D01*
X165143452Y-140005900D01*
X164880348Y-140005900D01*
X164850002Y-140009895D01*
X164619494Y-140040241D01*
X164365354Y-140108337D01*
X164122283Y-140209021D01*
X164122267Y-140209029D01*
X163894426Y-140340573D01*
X163685691Y-140500740D01*
X163499640Y-140686791D01*
X163339473Y-140895526D01*
X163207929Y-141123367D01*
X163207921Y-141123383D01*
X163107237Y-141366454D01*
X163039141Y-141620594D01*
X163004800Y-141881449D01*
X161144019Y-141881449D01*
X161121549Y-141739587D01*
X161064757Y-141564797D01*
X161064755Y-141564792D01*
X160981326Y-141401053D01*
X160981318Y-141401040D01*
X160873299Y-141252365D01*
X160743334Y-141122400D01*
X160594659Y-141014381D01*
X160594646Y-141014373D01*
X160430907Y-140930944D01*
X160430902Y-140930942D01*
X160256111Y-140874150D01*
X160074597Y-140845400D01*
X160071201Y-140845400D01*
X160071200Y-140845401D01*
X160071200Y-142347865D01*
X160047744Y-142343200D01*
X159917656Y-142343200D01*
X159894200Y-142347865D01*
X159894200Y-140845401D01*
X159894199Y-140845400D01*
X159890802Y-140845400D01*
X159709288Y-140874150D01*
X159534497Y-140930942D01*
X159534492Y-140930944D01*
X159370753Y-141014373D01*
X159370740Y-141014381D01*
X159222065Y-141122400D01*
X159092100Y-141252365D01*
X158984081Y-141401040D01*
X158984073Y-141401053D01*
X158900644Y-141564792D01*
X158900642Y-141564797D01*
X158843850Y-141739588D01*
X158815100Y-141921102D01*
X155183299Y-141921102D01*
X155154549Y-141739588D01*
X155097757Y-141564797D01*
X155097755Y-141564792D01*
X155014326Y-141401053D01*
X155014318Y-141401040D01*
X154906299Y-141252365D01*
X154776334Y-141122400D01*
X154627659Y-141014381D01*
X154627646Y-141014373D01*
X154463907Y-140930944D01*
X154463902Y-140930942D01*
X154289111Y-140874150D01*
X154107597Y-140845400D01*
X154104201Y-140845400D01*
X154104200Y-140845401D01*
X154104200Y-142347865D01*
X154080744Y-142343200D01*
X153950656Y-142343200D01*
X153927200Y-142347865D01*
X153927200Y-140845401D01*
X153927199Y-140845400D01*
X153923802Y-140845400D01*
X153742288Y-140874150D01*
X153567497Y-140930942D01*
X153567492Y-140930944D01*
X153403753Y-141014373D01*
X153403740Y-141014381D01*
X153255065Y-141122400D01*
X153125100Y-141252365D01*
X153017081Y-141401040D01*
X153017073Y-141401053D01*
X152933644Y-141564792D01*
X152933642Y-141564797D01*
X152876850Y-141739588D01*
X152848100Y-141921102D01*
X150993600Y-141921102D01*
X150993600Y-141881448D01*
X150959258Y-141620594D01*
X150891162Y-141366454D01*
X150790476Y-141123377D01*
X150658924Y-140895522D01*
X150498756Y-140686787D01*
X150312713Y-140500744D01*
X150103978Y-140340576D01*
X149876123Y-140209024D01*
X149876116Y-140209021D01*
X149633045Y-140108337D01*
X149378905Y-140040241D01*
X149178743Y-140013890D01*
X149118052Y-140005900D01*
X148854948Y-140005900D01*
X148824602Y-140009895D01*
X148594094Y-140040241D01*
X148339954Y-140108337D01*
X148096883Y-140209021D01*
X148096867Y-140209029D01*
X147869026Y-140340573D01*
X147660291Y-140500740D01*
X147474240Y-140686791D01*
X147314073Y-140895526D01*
X147182529Y-141123367D01*
X147182521Y-141123383D01*
X147081837Y-141366454D01*
X147013741Y-141620594D01*
X146979400Y-141881449D01*
X144177019Y-141881449D01*
X144154549Y-141739587D01*
X144097757Y-141564797D01*
X144097755Y-141564792D01*
X144014326Y-141401053D01*
X144014318Y-141401040D01*
X143906299Y-141252365D01*
X143776334Y-141122400D01*
X143627659Y-141014381D01*
X143627646Y-141014373D01*
X143463907Y-140930944D01*
X143463902Y-140930942D01*
X143289111Y-140874150D01*
X143107597Y-140845400D01*
X143104201Y-140845400D01*
X143104200Y-140845401D01*
X143104200Y-142347865D01*
X143080744Y-142343200D01*
X142950656Y-142343200D01*
X142927200Y-142347865D01*
X142927200Y-140845401D01*
X142927199Y-140845400D01*
X142923802Y-140845400D01*
X142742288Y-140874150D01*
X142567497Y-140930942D01*
X142567492Y-140930944D01*
X142403753Y-141014373D01*
X142403740Y-141014381D01*
X142255065Y-141122400D01*
X142125100Y-141252365D01*
X142017081Y-141401040D01*
X142017073Y-141401053D01*
X141933644Y-141564792D01*
X141933642Y-141564797D01*
X141876850Y-141739588D01*
X141848100Y-141921102D01*
X139993600Y-141921102D01*
X139993600Y-141881448D01*
X139959258Y-141620594D01*
X139891162Y-141366454D01*
X139790476Y-141123377D01*
X139658924Y-140895522D01*
X139498756Y-140686787D01*
X139312713Y-140500744D01*
X139103978Y-140340576D01*
X138876123Y-140209024D01*
X138876116Y-140209021D01*
X138633045Y-140108337D01*
X138378905Y-140040241D01*
X138178743Y-140013890D01*
X138118052Y-140005900D01*
X137854948Y-140005900D01*
X137824602Y-140009895D01*
X137594094Y-140040241D01*
X137339954Y-140108337D01*
X137096883Y-140209021D01*
X137096867Y-140209029D01*
X136869026Y-140340573D01*
X136660291Y-140500740D01*
X136474240Y-140686791D01*
X136314073Y-140895526D01*
X136182529Y-141123367D01*
X136182521Y-141123383D01*
X136081837Y-141366454D01*
X136013741Y-141620594D01*
X135979400Y-141881449D01*
X133177019Y-141881449D01*
X133154549Y-141739587D01*
X133097757Y-141564797D01*
X133097755Y-141564792D01*
X133014326Y-141401053D01*
X133014318Y-141401040D01*
X132906299Y-141252365D01*
X132776334Y-141122400D01*
X132627659Y-141014381D01*
X132627646Y-141014373D01*
X132463907Y-140930944D01*
X132463902Y-140930942D01*
X132289111Y-140874150D01*
X132107597Y-140845400D01*
X132104201Y-140845400D01*
X132104200Y-140845401D01*
X132104200Y-142347865D01*
X132080744Y-142343200D01*
X131950656Y-142343200D01*
X131927200Y-142347865D01*
X131927200Y-140845401D01*
X131927199Y-140845400D01*
X131923802Y-140845400D01*
X131742288Y-140874150D01*
X131567497Y-140930942D01*
X131567492Y-140930944D01*
X131403753Y-141014373D01*
X131403740Y-141014381D01*
X131255065Y-141122400D01*
X131125100Y-141252365D01*
X131017081Y-141401040D01*
X131017073Y-141401053D01*
X130933644Y-141564792D01*
X130933642Y-141564797D01*
X130876850Y-141739588D01*
X130848100Y-141921102D01*
X128993600Y-141921102D01*
X128993600Y-141881448D01*
X128959258Y-141620594D01*
X128891162Y-141366454D01*
X128790476Y-141123377D01*
X128658924Y-140895522D01*
X128498756Y-140686787D01*
X128312713Y-140500744D01*
X128103978Y-140340576D01*
X127876123Y-140209024D01*
X127876116Y-140209021D01*
X127633045Y-140108337D01*
X127378905Y-140040241D01*
X127178743Y-140013890D01*
X127118052Y-140005900D01*
X126854948Y-140005900D01*
X126824602Y-140009895D01*
X126594094Y-140040241D01*
X126339954Y-140108337D01*
X126096883Y-140209021D01*
X126096867Y-140209029D01*
X125869026Y-140340573D01*
X125660291Y-140500740D01*
X125474240Y-140686791D01*
X125314073Y-140895526D01*
X125182529Y-141123367D01*
X125182521Y-141123383D01*
X125081837Y-141366454D01*
X125013741Y-141620594D01*
X124979400Y-141881449D01*
X114437600Y-141881449D01*
X114437600Y-137598873D01*
X140984000Y-137598873D01*
X140984000Y-137915099D01*
X140984001Y-137915100D01*
X141564077Y-137915100D01*
X141554700Y-137950096D01*
X141554700Y-138057104D01*
X141564077Y-138092100D01*
X140984001Y-138092100D01*
X140984000Y-138092101D01*
X140984000Y-138408326D01*
X141556374Y-138980700D01*
X141872599Y-138980700D01*
X141872600Y-138980699D01*
X141872600Y-138400623D01*
X141907596Y-138410000D01*
X142014604Y-138410000D01*
X142049600Y-138400623D01*
X142049600Y-138980699D01*
X142049601Y-138980700D01*
X142365827Y-138980700D01*
X142938200Y-138408326D01*
X142938200Y-138092101D01*
X142938199Y-138092100D01*
X142358123Y-138092100D01*
X142367500Y-138057104D01*
X142367500Y-137950096D01*
X142358123Y-137915100D01*
X142938199Y-137915100D01*
X142938200Y-137915099D01*
X142938200Y-137598873D01*
X142365826Y-137026500D01*
X142049601Y-137026500D01*
X142049600Y-137026501D01*
X142049600Y-137606576D01*
X142014604Y-137597200D01*
X141907596Y-137597200D01*
X141872600Y-137606576D01*
X141872600Y-137026501D01*
X141872599Y-137026500D01*
X141556373Y-137026500D01*
X140984000Y-137598873D01*
X114437600Y-137598873D01*
X114437600Y-135083691D01*
X136123800Y-135083691D01*
X136123800Y-135303508D01*
X136152491Y-135521448D01*
X136209385Y-135733778D01*
X136209386Y-135733781D01*
X136293501Y-135936853D01*
X136293505Y-135936862D01*
X136293507Y-135936865D01*
X136403417Y-136127235D01*
X136537235Y-136301629D01*
X136692671Y-136457065D01*
X136867065Y-136590883D01*
X137057435Y-136700793D01*
X137057441Y-136700795D01*
X137057446Y-136700798D01*
X137260518Y-136784913D01*
X137260521Y-136784914D01*
X137472851Y-136841808D01*
X137690790Y-136870500D01*
X137690795Y-136870500D01*
X139231405Y-136870500D01*
X139231410Y-136870500D01*
X139449349Y-136841808D01*
X139661678Y-136784914D01*
X139661681Y-136784913D01*
X139864753Y-136700798D01*
X139864753Y-136700797D01*
X139864765Y-136700793D01*
X140055135Y-136590883D01*
X140229529Y-136457065D01*
X140384965Y-136301629D01*
X140518783Y-136127235D01*
X140628693Y-135936865D01*
X140712814Y-135733778D01*
X140769708Y-135521449D01*
X140798400Y-135303510D01*
X140798400Y-135083691D01*
X143743800Y-135083691D01*
X143743800Y-135303508D01*
X143772491Y-135521448D01*
X143829385Y-135733778D01*
X143829386Y-135733781D01*
X143913501Y-135936853D01*
X143913505Y-135936862D01*
X143913507Y-135936865D01*
X144023417Y-136127235D01*
X144157235Y-136301629D01*
X144312671Y-136457065D01*
X144487065Y-136590883D01*
X144677435Y-136700793D01*
X144677441Y-136700795D01*
X144677446Y-136700798D01*
X144880518Y-136784913D01*
X144880521Y-136784914D01*
X145092851Y-136841808D01*
X145310790Y-136870500D01*
X145530901Y-136870500D01*
X145552645Y-136879506D01*
X145561651Y-136901250D01*
X145552645Y-136922993D01*
X145451429Y-137024209D01*
X145340190Y-137190695D01*
X145263564Y-137375685D01*
X145263563Y-137375687D01*
X145224500Y-137572069D01*
X145224500Y-138435129D01*
X145224501Y-138435130D01*
X145263562Y-138631512D01*
X145263563Y-138631514D01*
X145340189Y-138816505D01*
X145451433Y-138982993D01*
X146061707Y-139593268D01*
X146228195Y-139704510D01*
X146413186Y-139781136D01*
X146609571Y-139820200D01*
X147472629Y-139820199D01*
X147669014Y-139781137D01*
X147854005Y-139704511D01*
X148020493Y-139593267D01*
X148630768Y-138982993D01*
X148742010Y-138816505D01*
X148818636Y-138631514D01*
X148857700Y-138435129D01*
X148857699Y-137572071D01*
X148818637Y-137375686D01*
X148742011Y-137190695D01*
X148630767Y-137024207D01*
X148020493Y-136413932D01*
X147975017Y-136383546D01*
X147961942Y-136363977D01*
X147966533Y-136340894D01*
X147970351Y-136336242D01*
X148004965Y-136301629D01*
X148138783Y-136127235D01*
X148248693Y-135936865D01*
X148332814Y-135733778D01*
X148389708Y-135521449D01*
X148418400Y-135303510D01*
X148418400Y-135083690D01*
X148389708Y-134865751D01*
X148332814Y-134653422D01*
X148332814Y-134653421D01*
X148332813Y-134653418D01*
X148248698Y-134450346D01*
X148248695Y-134450341D01*
X148248693Y-134450335D01*
X148138783Y-134259965D01*
X148004965Y-134085571D01*
X147849529Y-133930135D01*
X147675135Y-133796317D01*
X147675130Y-133796314D01*
X147484774Y-133686412D01*
X147484770Y-133686410D01*
X147484765Y-133686407D01*
X147484762Y-133686405D01*
X147484753Y-133686401D01*
X147281681Y-133602286D01*
X147281678Y-133602285D01*
X147069348Y-133545391D01*
X146902116Y-133523375D01*
X146851410Y-133516700D01*
X145310790Y-133516700D01*
X145285436Y-133520037D01*
X145092851Y-133545391D01*
X144880521Y-133602285D01*
X144880518Y-133602286D01*
X144677446Y-133686401D01*
X144677425Y-133686412D01*
X144487069Y-133796314D01*
X144312675Y-133930131D01*
X144157231Y-134085575D01*
X144023414Y-134259969D01*
X143913512Y-134450325D01*
X143913501Y-134450346D01*
X143829386Y-134653418D01*
X143829385Y-134653421D01*
X143772491Y-134865751D01*
X143743800Y-135083691D01*
X140798400Y-135083691D01*
X140798400Y-135083690D01*
X140769708Y-134865751D01*
X140712814Y-134653422D01*
X140712814Y-134653421D01*
X140712813Y-134653418D01*
X140628698Y-134450346D01*
X140628695Y-134450341D01*
X140628693Y-134450335D01*
X140518783Y-134259965D01*
X140384965Y-134085571D01*
X140229529Y-133930135D01*
X140055135Y-133796317D01*
X140055130Y-133796314D01*
X139864774Y-133686412D01*
X139864770Y-133686410D01*
X139864765Y-133686407D01*
X139864762Y-133686405D01*
X139864753Y-133686401D01*
X139661681Y-133602286D01*
X139661678Y-133602285D01*
X139449348Y-133545391D01*
X139282116Y-133523375D01*
X139231410Y-133516700D01*
X137690790Y-133516700D01*
X137665436Y-133520037D01*
X137472851Y-133545391D01*
X137260521Y-133602285D01*
X137260518Y-133602286D01*
X137057446Y-133686401D01*
X137057425Y-133686412D01*
X136867069Y-133796314D01*
X136692675Y-133930131D01*
X136537231Y-134085575D01*
X136403414Y-134259969D01*
X136293512Y-134450325D01*
X136293501Y-134450346D01*
X136209386Y-134653418D01*
X136209385Y-134653421D01*
X136152491Y-134865751D01*
X136123800Y-135083691D01*
X114437600Y-135083691D01*
X114437600Y-128495032D01*
X119662600Y-128495032D01*
X119662600Y-130252167D01*
X119693030Y-130483312D01*
X119753370Y-130708506D01*
X119829406Y-130892072D01*
X119842589Y-130923898D01*
X119959158Y-131125802D01*
X120101084Y-131310763D01*
X120265937Y-131475616D01*
X120450898Y-131617542D01*
X120652802Y-131734111D01*
X120868193Y-131823329D01*
X121093387Y-131883669D01*
X121324531Y-131914100D01*
X121324536Y-131914100D01*
X121557664Y-131914100D01*
X121557669Y-131914100D01*
X121788813Y-131883669D01*
X122014007Y-131823329D01*
X122229398Y-131734111D01*
X122431302Y-131617542D01*
X122616263Y-131475616D01*
X122689357Y-131402521D01*
X122711100Y-131393516D01*
X122732842Y-131402521D01*
X122805937Y-131475616D01*
X122990898Y-131617542D01*
X123192802Y-131734111D01*
X123408193Y-131823329D01*
X123633387Y-131883669D01*
X123864531Y-131914100D01*
X123864536Y-131914100D01*
X124097664Y-131914100D01*
X124097669Y-131914100D01*
X124328813Y-131883669D01*
X124554007Y-131823329D01*
X124769398Y-131734111D01*
X124971302Y-131617542D01*
X125156263Y-131475616D01*
X125229357Y-131402521D01*
X125251100Y-131393516D01*
X125272842Y-131402521D01*
X125345937Y-131475616D01*
X125530898Y-131617542D01*
X125732802Y-131734111D01*
X125948193Y-131823329D01*
X126173387Y-131883669D01*
X126404531Y-131914100D01*
X126404536Y-131914100D01*
X126637664Y-131914100D01*
X126637669Y-131914100D01*
X126868813Y-131883669D01*
X127094007Y-131823329D01*
X127309398Y-131734111D01*
X127511302Y-131617542D01*
X127696263Y-131475616D01*
X127731945Y-131439934D01*
X133824200Y-131439934D01*
X133824200Y-132187264D01*
X133824201Y-132187265D01*
X133863262Y-132383647D01*
X133863263Y-132383649D01*
X133939889Y-132568640D01*
X134051133Y-132735128D01*
X134579572Y-133263568D01*
X134746060Y-133374810D01*
X134931051Y-133451436D01*
X135127436Y-133490500D01*
X135874764Y-133490499D01*
X136071149Y-133451437D01*
X136256140Y-133374811D01*
X136422628Y-133263567D01*
X136951068Y-132735128D01*
X137062310Y-132568640D01*
X137138936Y-132383649D01*
X137178000Y-132187264D01*
X137177999Y-131760096D01*
X137177999Y-131466738D01*
X138663700Y-131466738D01*
X138663700Y-131725099D01*
X138663701Y-131725100D01*
X139104077Y-131725100D01*
X139094700Y-131760096D01*
X139094700Y-131867104D01*
X139104077Y-131902100D01*
X138663701Y-131902100D01*
X138663700Y-131902101D01*
X138663700Y-132160461D01*
X139154239Y-132651000D01*
X139412599Y-132651000D01*
X139412600Y-132650999D01*
X139412600Y-132210623D01*
X139447596Y-132220000D01*
X139554604Y-132220000D01*
X139589600Y-132210623D01*
X139589600Y-132650999D01*
X139589601Y-132651000D01*
X139847962Y-132651000D01*
X140338500Y-132160461D01*
X140338500Y-131902101D01*
X140338499Y-131902100D01*
X139898123Y-131902100D01*
X139907500Y-131867104D01*
X139907500Y-131760096D01*
X139898123Y-131725100D01*
X140338499Y-131725100D01*
X140338500Y-131725099D01*
X140338500Y-131466738D01*
X139847961Y-130976200D01*
X139589601Y-130976200D01*
X139589600Y-130976201D01*
X139589600Y-131416576D01*
X139554604Y-131407200D01*
X139447596Y-131407200D01*
X139412600Y-131416576D01*
X139412600Y-130976201D01*
X139412599Y-130976200D01*
X139154238Y-130976200D01*
X138663700Y-131466738D01*
X137177999Y-131466738D01*
X137177999Y-131460621D01*
X137177999Y-131439935D01*
X137177998Y-131439934D01*
X137138937Y-131243551D01*
X137062311Y-131058560D01*
X136951067Y-130892072D01*
X136422628Y-130363632D01*
X136256140Y-130252390D01*
X136071149Y-130175764D01*
X136071147Y-130175763D01*
X135874765Y-130136700D01*
X135127435Y-130136700D01*
X135127434Y-130136701D01*
X134931052Y-130175762D01*
X134931050Y-130175763D01*
X134746060Y-130252389D01*
X134579572Y-130363633D01*
X134051129Y-130892075D01*
X133939890Y-131058560D01*
X133863264Y-131243550D01*
X133863263Y-131243552D01*
X133824200Y-131439934D01*
X127731945Y-131439934D01*
X127861116Y-131310763D01*
X128003042Y-131125802D01*
X128119611Y-130923898D01*
X128208829Y-130708507D01*
X128269169Y-130483313D01*
X128299600Y-130252169D01*
X128299600Y-128495031D01*
X128269169Y-128263887D01*
X128208829Y-128038693D01*
X128119611Y-127823302D01*
X128003042Y-127621398D01*
X127861116Y-127436437D01*
X127696263Y-127271584D01*
X127511302Y-127129658D01*
X127511297Y-127129655D01*
X127309407Y-127013094D01*
X127309404Y-127013092D01*
X127309398Y-127013089D01*
X127309391Y-127013086D01*
X127094006Y-126923870D01*
X126868812Y-126863530D01*
X126691448Y-126840180D01*
X126637669Y-126833100D01*
X126404531Y-126833100D01*
X126377641Y-126836640D01*
X126173387Y-126863530D01*
X125948193Y-126923870D01*
X125732808Y-127013086D01*
X125732792Y-127013094D01*
X125530902Y-127129655D01*
X125345937Y-127271583D01*
X125272843Y-127344677D01*
X125251100Y-127353683D01*
X125229357Y-127344677D01*
X125156262Y-127271583D01*
X125093986Y-127223797D01*
X124971302Y-127129658D01*
X124971297Y-127129655D01*
X124769407Y-127013094D01*
X124769404Y-127013092D01*
X124769398Y-127013089D01*
X124769391Y-127013086D01*
X124554006Y-126923870D01*
X124328812Y-126863530D01*
X124151448Y-126840180D01*
X124097669Y-126833100D01*
X123864531Y-126833100D01*
X123837641Y-126836640D01*
X123633387Y-126863530D01*
X123408193Y-126923870D01*
X123192808Y-127013086D01*
X123192792Y-127013094D01*
X122990902Y-127129655D01*
X122805937Y-127271583D01*
X122732843Y-127344677D01*
X122711100Y-127353683D01*
X122689357Y-127344677D01*
X122616262Y-127271583D01*
X122553986Y-127223797D01*
X122431302Y-127129658D01*
X122431297Y-127129655D01*
X122229407Y-127013094D01*
X122229404Y-127013092D01*
X122229398Y-127013089D01*
X122229391Y-127013086D01*
X122014006Y-126923870D01*
X121788812Y-126863530D01*
X121611448Y-126840180D01*
X121557669Y-126833100D01*
X121324531Y-126833100D01*
X121297641Y-126836640D01*
X121093387Y-126863530D01*
X120868193Y-126923870D01*
X120652808Y-127013086D01*
X120652792Y-127013094D01*
X120450902Y-127129655D01*
X120265941Y-127271580D01*
X120101080Y-127436441D01*
X119959155Y-127621402D01*
X119842594Y-127823292D01*
X119842586Y-127823308D01*
X119753370Y-128038693D01*
X119693030Y-128263887D01*
X119662600Y-128495032D01*
X114437600Y-128495032D01*
X114437600Y-124142816D01*
X114446606Y-124121072D01*
X114468350Y-124112066D01*
X114472349Y-124112328D01*
X114622531Y-124132100D01*
X114622536Y-124132100D01*
X116379664Y-124132100D01*
X116379669Y-124132100D01*
X116610813Y-124101669D01*
X116836007Y-124041329D01*
X117051398Y-123952111D01*
X117253302Y-123835542D01*
X117399070Y-123723690D01*
X119723800Y-123723690D01*
X119723800Y-123943510D01*
X119724933Y-123952113D01*
X119752491Y-124161448D01*
X119809385Y-124373778D01*
X119809386Y-124373781D01*
X119893501Y-124576853D01*
X119893512Y-124576874D01*
X119927125Y-124635094D01*
X120003417Y-124767235D01*
X120137235Y-124941629D01*
X120292671Y-125097065D01*
X120467065Y-125230883D01*
X120657435Y-125340793D01*
X120657441Y-125340795D01*
X120657446Y-125340798D01*
X120860518Y-125424913D01*
X120860521Y-125424914D01*
X121072851Y-125481808D01*
X121290790Y-125510500D01*
X121290795Y-125510500D01*
X122831405Y-125510500D01*
X122831410Y-125510500D01*
X123049349Y-125481808D01*
X123261678Y-125424914D01*
X123261681Y-125424913D01*
X123464753Y-125340798D01*
X123464753Y-125340797D01*
X123464765Y-125340793D01*
X123655135Y-125230883D01*
X123829529Y-125097065D01*
X123984965Y-124941629D01*
X124118783Y-124767235D01*
X124228693Y-124576865D01*
X124241531Y-124545871D01*
X124312813Y-124373781D01*
X124312814Y-124373778D01*
X124369708Y-124161449D01*
X124398400Y-123943510D01*
X124398400Y-123723690D01*
X127343800Y-123723690D01*
X127343800Y-123943510D01*
X127344933Y-123952113D01*
X127372491Y-124161448D01*
X127429385Y-124373778D01*
X127429386Y-124373781D01*
X127513501Y-124576853D01*
X127513512Y-124576874D01*
X127547125Y-124635094D01*
X127623417Y-124767235D01*
X127757235Y-124941629D01*
X127912671Y-125097065D01*
X128087065Y-125230883D01*
X128277435Y-125340793D01*
X128277441Y-125340795D01*
X128277446Y-125340798D01*
X128480518Y-125424913D01*
X128480521Y-125424914D01*
X128692851Y-125481808D01*
X128910790Y-125510500D01*
X128910795Y-125510500D01*
X130451405Y-125510500D01*
X130451410Y-125510500D01*
X130669349Y-125481808D01*
X130881678Y-125424914D01*
X130881681Y-125424913D01*
X131084753Y-125340798D01*
X131084753Y-125340797D01*
X131084765Y-125340793D01*
X131275135Y-125230883D01*
X131449529Y-125097065D01*
X131604965Y-124941629D01*
X131738783Y-124767235D01*
X131848693Y-124576865D01*
X131861531Y-124545871D01*
X131932813Y-124373781D01*
X131932814Y-124373778D01*
X131989708Y-124161449D01*
X132018400Y-123943510D01*
X132018400Y-123819934D01*
X133824200Y-123819934D01*
X133824200Y-124567264D01*
X133824201Y-124567265D01*
X133863262Y-124763647D01*
X133863263Y-124763649D01*
X133939889Y-124948640D01*
X134051133Y-125115128D01*
X134579572Y-125643568D01*
X134746060Y-125754810D01*
X134931051Y-125831436D01*
X135127436Y-125870500D01*
X135874764Y-125870499D01*
X136071149Y-125831437D01*
X136256140Y-125754811D01*
X136422628Y-125643567D01*
X136951068Y-125115128D01*
X137062310Y-124948640D01*
X137138936Y-124763649D01*
X137178000Y-124567264D01*
X137177999Y-123819936D01*
X137177999Y-123819934D01*
X137824200Y-123819934D01*
X137824200Y-124567264D01*
X137824201Y-124567265D01*
X137863262Y-124763647D01*
X137863263Y-124763649D01*
X137939889Y-124948640D01*
X138051133Y-125115128D01*
X138579572Y-125643568D01*
X138746060Y-125754810D01*
X138931051Y-125831436D01*
X139127436Y-125870500D01*
X139874764Y-125870499D01*
X140071149Y-125831437D01*
X140256140Y-125754811D01*
X140422628Y-125643567D01*
X140951068Y-125115128D01*
X141062310Y-124948640D01*
X141138936Y-124763649D01*
X141178000Y-124567264D01*
X141177999Y-123819936D01*
X141138937Y-123623551D01*
X141062311Y-123438560D01*
X140951067Y-123272072D01*
X140422628Y-122743632D01*
X140395603Y-122725575D01*
X140359291Y-122701312D01*
X140256140Y-122632390D01*
X140071149Y-122555764D01*
X140071147Y-122555763D01*
X139874765Y-122516700D01*
X139127435Y-122516700D01*
X139127434Y-122516701D01*
X138931052Y-122555762D01*
X138931050Y-122555763D01*
X138746060Y-122632389D01*
X138579572Y-122743633D01*
X138051129Y-123272075D01*
X137939890Y-123438560D01*
X137863264Y-123623550D01*
X137863263Y-123623552D01*
X137824200Y-123819934D01*
X137177999Y-123819934D01*
X137138937Y-123623551D01*
X137062311Y-123438560D01*
X136951067Y-123272072D01*
X136422628Y-122743632D01*
X136395603Y-122725575D01*
X136359291Y-122701312D01*
X136256140Y-122632390D01*
X136071149Y-122555764D01*
X136071147Y-122555763D01*
X135874765Y-122516700D01*
X135127435Y-122516700D01*
X135127434Y-122516701D01*
X134931052Y-122555762D01*
X134931050Y-122555763D01*
X134746060Y-122632389D01*
X134579572Y-122743633D01*
X134051129Y-123272075D01*
X133939890Y-123438560D01*
X133863264Y-123623550D01*
X133863263Y-123623552D01*
X133824200Y-123819934D01*
X132018400Y-123819934D01*
X132018400Y-123723690D01*
X131989708Y-123505751D01*
X131971704Y-123438560D01*
X131932814Y-123293421D01*
X131932813Y-123293418D01*
X131848698Y-123090346D01*
X131848695Y-123090341D01*
X131848693Y-123090335D01*
X131738783Y-122899965D01*
X131604965Y-122725571D01*
X131449529Y-122570135D01*
X131430800Y-122555764D01*
X131379893Y-122516701D01*
X131275135Y-122436317D01*
X131084765Y-122326407D01*
X131084762Y-122326405D01*
X131084753Y-122326401D01*
X130881681Y-122242286D01*
X130881678Y-122242285D01*
X130669348Y-122185391D01*
X130502116Y-122163375D01*
X130451410Y-122156700D01*
X128910790Y-122156700D01*
X128885436Y-122160037D01*
X128692851Y-122185391D01*
X128480521Y-122242285D01*
X128480518Y-122242286D01*
X128277446Y-122326401D01*
X128277425Y-122326412D01*
X128087069Y-122436314D01*
X127912675Y-122570131D01*
X127757231Y-122725575D01*
X127623414Y-122899969D01*
X127513512Y-123090325D01*
X127513501Y-123090346D01*
X127429386Y-123293418D01*
X127429385Y-123293421D01*
X127372491Y-123505751D01*
X127347759Y-123693616D01*
X127343800Y-123723690D01*
X124398400Y-123723690D01*
X124369708Y-123505751D01*
X124351704Y-123438560D01*
X124312814Y-123293421D01*
X124312813Y-123293418D01*
X124228698Y-123090346D01*
X124228695Y-123090341D01*
X124228693Y-123090335D01*
X124118783Y-122899965D01*
X123984965Y-122725571D01*
X123829529Y-122570135D01*
X123810800Y-122555764D01*
X123759893Y-122516701D01*
X123655135Y-122436317D01*
X123464765Y-122326407D01*
X123464762Y-122326405D01*
X123464753Y-122326401D01*
X123261681Y-122242286D01*
X123261678Y-122242285D01*
X123049348Y-122185391D01*
X122882116Y-122163375D01*
X122831410Y-122156700D01*
X121290790Y-122156700D01*
X121265436Y-122160037D01*
X121072851Y-122185391D01*
X120860521Y-122242285D01*
X120860518Y-122242286D01*
X120657446Y-122326401D01*
X120657425Y-122326412D01*
X120467069Y-122436314D01*
X120292675Y-122570131D01*
X120137231Y-122725575D01*
X120003414Y-122899969D01*
X119893512Y-123090325D01*
X119893501Y-123090346D01*
X119809386Y-123293418D01*
X119809385Y-123293421D01*
X119752491Y-123505751D01*
X119727759Y-123693616D01*
X119723800Y-123723690D01*
X117399070Y-123723690D01*
X117438263Y-123693616D01*
X117603116Y-123528763D01*
X117745042Y-123343802D01*
X117861611Y-123141898D01*
X117950829Y-122926507D01*
X118011169Y-122701313D01*
X118041600Y-122470169D01*
X118041600Y-122237031D01*
X118011169Y-122005887D01*
X117950829Y-121780693D01*
X117861611Y-121565302D01*
X117745042Y-121363398D01*
X117603116Y-121178437D01*
X117530021Y-121105342D01*
X117521016Y-121083600D01*
X117530021Y-121061857D01*
X117603116Y-120988763D01*
X117745042Y-120803802D01*
X117861611Y-120601898D01*
X117950829Y-120386507D01*
X118011169Y-120161313D01*
X118020281Y-120092101D01*
X118022487Y-120075349D01*
X118027964Y-120033740D01*
X118041600Y-119930169D01*
X118041600Y-119697031D01*
X118028677Y-119598873D01*
X122984000Y-119598873D01*
X122984000Y-119915099D01*
X122984001Y-119915100D01*
X123564077Y-119915100D01*
X123554700Y-119950096D01*
X123554700Y-120057104D01*
X123564077Y-120092100D01*
X122984001Y-120092100D01*
X122984000Y-120092101D01*
X122984000Y-120408326D01*
X123556374Y-120980700D01*
X123872599Y-120980700D01*
X123872600Y-120980699D01*
X123872600Y-120400623D01*
X123907596Y-120410000D01*
X124014604Y-120410000D01*
X124049600Y-120400623D01*
X124049600Y-120980699D01*
X124049601Y-120980700D01*
X124365827Y-120980700D01*
X124938200Y-120408326D01*
X124938200Y-120092101D01*
X124938199Y-120092100D01*
X124358123Y-120092100D01*
X124367500Y-120057104D01*
X124367500Y-119950096D01*
X124358123Y-119915100D01*
X124938199Y-119915100D01*
X124938200Y-119915099D01*
X124938200Y-119598873D01*
X124931631Y-119592304D01*
X124911396Y-119572069D01*
X127224500Y-119572069D01*
X127224500Y-120435129D01*
X127224501Y-120435130D01*
X127263562Y-120631512D01*
X127263563Y-120631514D01*
X127340189Y-120816505D01*
X127451433Y-120982993D01*
X128061707Y-121593268D01*
X128228195Y-121704510D01*
X128413186Y-121781136D01*
X128609571Y-121820200D01*
X129472629Y-121820199D01*
X129669014Y-121781137D01*
X129854005Y-121704511D01*
X130020493Y-121593267D01*
X130630768Y-120982993D01*
X130742010Y-120816505D01*
X130818636Y-120631514D01*
X130857700Y-120435129D01*
X130857699Y-119950096D01*
X130857699Y-119598873D01*
X133984000Y-119598873D01*
X133984000Y-119915099D01*
X133984001Y-119915100D01*
X134564077Y-119915100D01*
X134554700Y-119950096D01*
X134554700Y-120057104D01*
X134564077Y-120092100D01*
X133984001Y-120092100D01*
X133984000Y-120092101D01*
X133984000Y-120408326D01*
X134556374Y-120980700D01*
X134872599Y-120980700D01*
X134872600Y-120980699D01*
X134872600Y-120400623D01*
X134907596Y-120410000D01*
X135014604Y-120410000D01*
X135049600Y-120400623D01*
X135049600Y-120980699D01*
X135049601Y-120980700D01*
X135365827Y-120980700D01*
X135938200Y-120408326D01*
X135938200Y-120092101D01*
X135938199Y-120092100D01*
X135358123Y-120092100D01*
X135367500Y-120057104D01*
X135367500Y-119950096D01*
X135358123Y-119915100D01*
X135938199Y-119915100D01*
X135938200Y-119915099D01*
X135938200Y-119598873D01*
X135931631Y-119592304D01*
X135911396Y-119572069D01*
X138224500Y-119572069D01*
X138224500Y-120435129D01*
X138224501Y-120435130D01*
X138263562Y-120631512D01*
X138263563Y-120631514D01*
X138340189Y-120816505D01*
X138451433Y-120982993D01*
X139061707Y-121593268D01*
X139228195Y-121704510D01*
X139413186Y-121781136D01*
X139609571Y-121820200D01*
X140472629Y-121820199D01*
X140669014Y-121781137D01*
X140854005Y-121704511D01*
X141020493Y-121593267D01*
X141630768Y-120982993D01*
X141742010Y-120816505D01*
X141818636Y-120631514D01*
X141857700Y-120435129D01*
X141857699Y-119572071D01*
X141818637Y-119375686D01*
X141742011Y-119190695D01*
X141630767Y-119024207D01*
X141020493Y-118413932D01*
X140854005Y-118302690D01*
X140669014Y-118226064D01*
X140669012Y-118226063D01*
X140472630Y-118187000D01*
X139609570Y-118187000D01*
X139609569Y-118187001D01*
X139413187Y-118226062D01*
X139413185Y-118226063D01*
X139228195Y-118302689D01*
X139061707Y-118413933D01*
X138451429Y-119024210D01*
X138340190Y-119190695D01*
X138263564Y-119375685D01*
X138263563Y-119375687D01*
X138224500Y-119572069D01*
X135911396Y-119572069D01*
X135365826Y-119026500D01*
X135049601Y-119026500D01*
X135049600Y-119026501D01*
X135049600Y-119606576D01*
X135014604Y-119597200D01*
X134907596Y-119597200D01*
X134872600Y-119606576D01*
X134872600Y-119026501D01*
X134872599Y-119026500D01*
X134556373Y-119026500D01*
X133984000Y-119598873D01*
X130857699Y-119598873D01*
X130857699Y-119592756D01*
X130857699Y-119572070D01*
X130857698Y-119572069D01*
X130818637Y-119375686D01*
X130742011Y-119190695D01*
X130630767Y-119024207D01*
X130020493Y-118413932D01*
X129854005Y-118302690D01*
X129669014Y-118226064D01*
X129669012Y-118226063D01*
X129472630Y-118187000D01*
X128609570Y-118187000D01*
X128609569Y-118187001D01*
X128413187Y-118226062D01*
X128413185Y-118226063D01*
X128228195Y-118302689D01*
X128061707Y-118413933D01*
X127451429Y-119024210D01*
X127340190Y-119190695D01*
X127263564Y-119375685D01*
X127263563Y-119375687D01*
X127224500Y-119572069D01*
X124911396Y-119572069D01*
X124365826Y-119026500D01*
X124049601Y-119026500D01*
X124049600Y-119026501D01*
X124049600Y-119606576D01*
X124014604Y-119597200D01*
X123907596Y-119597200D01*
X123872600Y-119606576D01*
X123872600Y-119026501D01*
X123872599Y-119026500D01*
X123556373Y-119026500D01*
X122984000Y-119598873D01*
X118028677Y-119598873D01*
X118011169Y-119465887D01*
X117950829Y-119240693D01*
X117861611Y-119025302D01*
X117745042Y-118823398D01*
X117603116Y-118638437D01*
X117530021Y-118565342D01*
X117521016Y-118543600D01*
X117530021Y-118521857D01*
X117603116Y-118448763D01*
X117745042Y-118263802D01*
X117861611Y-118061898D01*
X117950829Y-117846507D01*
X118011169Y-117621313D01*
X118041600Y-117390169D01*
X118041600Y-117157031D01*
X118011169Y-116925887D01*
X117950829Y-116700693D01*
X117861611Y-116485302D01*
X117745042Y-116283398D01*
X117603116Y-116098437D01*
X117530021Y-116025342D01*
X117521016Y-116003600D01*
X117530021Y-115981857D01*
X117603116Y-115908763D01*
X117745042Y-115723802D01*
X117861611Y-115521898D01*
X117950829Y-115306507D01*
X118011169Y-115081313D01*
X118011169Y-115081312D01*
X118011955Y-115075347D01*
X118011955Y-115075346D01*
X118028444Y-114950096D01*
X118041600Y-114850169D01*
X118041600Y-114617031D01*
X118039209Y-114598873D01*
X126984000Y-114598873D01*
X126984000Y-114915099D01*
X126984001Y-114915100D01*
X127564077Y-114915100D01*
X127554700Y-114950096D01*
X127554700Y-115057104D01*
X127564077Y-115092100D01*
X126984001Y-115092100D01*
X126984000Y-115092101D01*
X126984000Y-115408326D01*
X127556374Y-115980700D01*
X127872599Y-115980700D01*
X127872600Y-115980699D01*
X127872600Y-115400623D01*
X127907596Y-115410000D01*
X128014604Y-115410000D01*
X128049600Y-115400623D01*
X128049600Y-115980699D01*
X128049601Y-115980700D01*
X128365827Y-115980700D01*
X128938200Y-115408326D01*
X128938200Y-115092101D01*
X128938199Y-115092100D01*
X128358123Y-115092100D01*
X128367500Y-115057104D01*
X128367500Y-114950096D01*
X128358123Y-114915100D01*
X128938199Y-114915100D01*
X128938200Y-114915099D01*
X128938200Y-114598873D01*
X128931631Y-114592304D01*
X128911396Y-114572069D01*
X131224500Y-114572069D01*
X131224500Y-115435129D01*
X131224501Y-115435130D01*
X131263562Y-115631512D01*
X131263563Y-115631514D01*
X131340189Y-115816505D01*
X131451433Y-115982993D01*
X132061707Y-116593268D01*
X132228195Y-116704510D01*
X132413186Y-116781136D01*
X132609571Y-116820200D01*
X133472629Y-116820199D01*
X133669014Y-116781137D01*
X133854005Y-116704511D01*
X134020493Y-116593267D01*
X134630768Y-115982993D01*
X134742010Y-115816505D01*
X134818636Y-115631514D01*
X134857700Y-115435129D01*
X134857699Y-114572071D01*
X134818637Y-114375686D01*
X134742011Y-114190695D01*
X134630767Y-114024207D01*
X134020493Y-113413932D01*
X133990780Y-113394079D01*
X133910239Y-113340264D01*
X133854005Y-113302690D01*
X133669014Y-113226064D01*
X133669012Y-113226063D01*
X133472630Y-113187000D01*
X132609570Y-113187000D01*
X132609569Y-113187001D01*
X132413187Y-113226062D01*
X132413185Y-113226063D01*
X132228195Y-113302689D01*
X132061707Y-113413933D01*
X131451429Y-114024210D01*
X131340190Y-114190695D01*
X131263564Y-114375685D01*
X131263563Y-114375687D01*
X131224500Y-114572069D01*
X128911396Y-114572069D01*
X128365826Y-114026500D01*
X128049601Y-114026500D01*
X128049600Y-114026501D01*
X128049600Y-114606576D01*
X128014604Y-114597200D01*
X127907596Y-114597200D01*
X127872600Y-114606576D01*
X127872600Y-114026501D01*
X127872599Y-114026500D01*
X127556373Y-114026500D01*
X126984000Y-114598873D01*
X118039209Y-114598873D01*
X118011169Y-114385887D01*
X117950829Y-114160693D01*
X117861611Y-113945302D01*
X117745042Y-113743398D01*
X117603116Y-113558437D01*
X117530021Y-113485342D01*
X117521016Y-113463600D01*
X117530021Y-113441857D01*
X117603116Y-113368763D01*
X117745042Y-113183802D01*
X117861611Y-112981898D01*
X117950829Y-112766507D01*
X118011169Y-112541313D01*
X118041600Y-112310169D01*
X118041600Y-112077031D01*
X118011169Y-111845887D01*
X117950829Y-111620693D01*
X117861611Y-111405302D01*
X117745042Y-111203398D01*
X117603116Y-111018437D01*
X117530021Y-110945342D01*
X117521016Y-110923600D01*
X117530021Y-110901857D01*
X117603116Y-110828763D01*
X117745042Y-110643802D01*
X117861611Y-110441898D01*
X117950829Y-110226507D01*
X118011169Y-110001313D01*
X118041600Y-109770169D01*
X118041600Y-109537031D01*
X118011169Y-109305887D01*
X117950829Y-109080693D01*
X117861611Y-108865302D01*
X117745042Y-108663398D01*
X117603116Y-108478437D01*
X117438263Y-108313584D01*
X117253302Y-108171658D01*
X117051398Y-108055089D01*
X117051391Y-108055086D01*
X116836006Y-107965870D01*
X116610812Y-107905530D01*
X116420951Y-107880535D01*
X116379669Y-107875100D01*
X114622531Y-107875100D01*
X114622530Y-107875100D01*
X114472363Y-107894869D01*
X114449630Y-107888777D01*
X114437863Y-107868395D01*
X114437600Y-107864382D01*
X114437600Y-105638034D01*
X129722600Y-105638034D01*
X129722600Y-106369171D01*
X129737307Y-106518498D01*
X129737308Y-106518500D01*
X129795432Y-106710111D01*
X129795434Y-106710115D01*
X129795435Y-106710117D01*
X129889818Y-106886695D01*
X129889820Y-106886698D01*
X129889822Y-106886701D01*
X129985014Y-107002693D01*
X130502005Y-107519684D01*
X130618000Y-107614878D01*
X130618002Y-107614879D01*
X130618005Y-107614881D01*
X130716695Y-107667632D01*
X130794589Y-107709267D01*
X130897177Y-107740386D01*
X130909994Y-107748068D01*
X137241406Y-114079480D01*
X137241405Y-114079480D01*
X137425220Y-114263294D01*
X137425223Y-114263297D01*
X137571591Y-114369639D01*
X137635525Y-114416090D01*
X137635530Y-114416092D01*
X137635534Y-114416095D01*
X137867139Y-114534103D01*
X137867144Y-114534105D01*
X138114373Y-114614435D01*
X138305531Y-114644711D01*
X138371117Y-114655099D01*
X138371118Y-114655099D01*
X138371124Y-114655100D01*
X142804288Y-114655100D01*
X142826032Y-114664106D01*
X143840594Y-115678668D01*
X143849600Y-115700412D01*
X143849600Y-122133582D01*
X143890264Y-122390324D01*
X143970594Y-122637555D01*
X143970596Y-122637560D01*
X144088604Y-122869165D01*
X144088612Y-122869178D01*
X144241401Y-123079474D01*
X144241403Y-123079476D01*
X144241406Y-123079480D01*
X144981860Y-123819934D01*
X145578227Y-124416301D01*
X145587233Y-124438045D01*
X145578227Y-124459789D01*
X145560497Y-124468532D01*
X145431387Y-124485530D01*
X145206193Y-124545870D01*
X144990808Y-124635086D01*
X144990792Y-124635094D01*
X144788902Y-124751655D01*
X144603941Y-124893580D01*
X144439080Y-125058441D01*
X144297155Y-125243402D01*
X144180594Y-125445292D01*
X144180586Y-125445308D01*
X144091370Y-125660693D01*
X144031030Y-125885887D01*
X144000600Y-126117032D01*
X144000600Y-126350167D01*
X144031030Y-126581312D01*
X144091370Y-126806506D01*
X144139984Y-126923870D01*
X144180589Y-127021898D01*
X144297158Y-127223802D01*
X144333822Y-127271583D01*
X144439083Y-127408762D01*
X144512177Y-127481857D01*
X144521183Y-127503600D01*
X144512177Y-127525343D01*
X144439083Y-127598437D01*
X144297155Y-127783402D01*
X144180594Y-127985292D01*
X144180586Y-127985308D01*
X144091370Y-128200693D01*
X144031030Y-128425887D01*
X144000600Y-128657032D01*
X144000600Y-128890167D01*
X144031030Y-129121312D01*
X144091370Y-129346506D01*
X144180586Y-129561891D01*
X144180589Y-129561898D01*
X144180592Y-129561904D01*
X144180594Y-129561907D01*
X144297155Y-129763797D01*
X144297158Y-129763802D01*
X144326162Y-129801600D01*
X144439083Y-129948762D01*
X144512177Y-130021857D01*
X144521183Y-130043600D01*
X144512177Y-130065343D01*
X144439083Y-130138437D01*
X144297155Y-130323402D01*
X144180594Y-130525292D01*
X144180586Y-130525308D01*
X144091370Y-130740693D01*
X144031030Y-130965887D01*
X144008543Y-131136700D01*
X144000600Y-131197031D01*
X144000600Y-131430169D01*
X144006583Y-131475616D01*
X144031030Y-131661312D01*
X144091370Y-131886506D01*
X144162638Y-132058560D01*
X144180589Y-132101898D01*
X144180592Y-132101904D01*
X144180594Y-132101907D01*
X144262372Y-132243551D01*
X144297158Y-132303802D01*
X144439084Y-132488763D01*
X144603937Y-132653616D01*
X144788898Y-132795542D01*
X144990802Y-132912111D01*
X145206193Y-133001329D01*
X145431387Y-133061669D01*
X145662531Y-133092100D01*
X145662536Y-133092100D01*
X147419664Y-133092100D01*
X147419669Y-133092100D01*
X147650813Y-133061669D01*
X147876007Y-133001329D01*
X148091398Y-132912111D01*
X148293302Y-132795542D01*
X148478263Y-132653616D01*
X148643116Y-132488763D01*
X148680584Y-132439934D01*
X168824200Y-132439934D01*
X168824200Y-133187264D01*
X168824201Y-133187265D01*
X168863262Y-133383647D01*
X168863263Y-133383649D01*
X168939889Y-133568640D01*
X169051133Y-133735128D01*
X169579572Y-134263568D01*
X169746060Y-134374810D01*
X169931051Y-134451436D01*
X170127436Y-134490500D01*
X170874764Y-134490499D01*
X171071149Y-134451437D01*
X171256140Y-134374811D01*
X171422628Y-134263567D01*
X171951068Y-133735128D01*
X172062310Y-133568640D01*
X172138936Y-133383649D01*
X172178000Y-133187264D01*
X172177999Y-132795544D01*
X172177999Y-132466738D01*
X173663700Y-132466738D01*
X173663700Y-132725099D01*
X173663701Y-132725100D01*
X174104077Y-132725100D01*
X174094700Y-132760096D01*
X174094700Y-132867104D01*
X174104077Y-132902100D01*
X173663701Y-132902100D01*
X173663700Y-132902101D01*
X173663700Y-133160461D01*
X174154239Y-133651000D01*
X174412599Y-133651000D01*
X174412600Y-133650999D01*
X174412600Y-133210623D01*
X174447596Y-133220000D01*
X174554604Y-133220000D01*
X174589600Y-133210623D01*
X174589600Y-133650999D01*
X174589601Y-133651000D01*
X174847962Y-133651000D01*
X175338500Y-133160461D01*
X175338500Y-132902101D01*
X175338499Y-132902100D01*
X174898123Y-132902100D01*
X174907500Y-132867104D01*
X174907500Y-132760096D01*
X174898123Y-132725100D01*
X175338499Y-132725100D01*
X175338500Y-132725099D01*
X175338500Y-132466738D01*
X174847961Y-131976200D01*
X174589601Y-131976200D01*
X174589600Y-131976201D01*
X174589600Y-132416576D01*
X174554604Y-132407200D01*
X174447596Y-132407200D01*
X174412600Y-132416576D01*
X174412600Y-131976201D01*
X174412599Y-131976200D01*
X174154238Y-131976200D01*
X173663700Y-132466738D01*
X172177999Y-132466738D01*
X172177999Y-132460621D01*
X172177999Y-132439935D01*
X172177998Y-132439934D01*
X172138937Y-132243551D01*
X172062311Y-132058560D01*
X171951067Y-131892072D01*
X171422628Y-131363632D01*
X171256140Y-131252390D01*
X171071149Y-131175764D01*
X171071147Y-131175763D01*
X170874765Y-131136700D01*
X170127435Y-131136700D01*
X170127434Y-131136701D01*
X169931052Y-131175762D01*
X169931050Y-131175763D01*
X169746060Y-131252389D01*
X169579572Y-131363633D01*
X169051129Y-131892075D01*
X168939890Y-132058560D01*
X168863264Y-132243550D01*
X168863263Y-132243552D01*
X168824200Y-132439934D01*
X148680584Y-132439934D01*
X148785042Y-132303802D01*
X148901611Y-132101898D01*
X148990829Y-131886507D01*
X149051169Y-131661313D01*
X149081600Y-131430169D01*
X149081600Y-131197031D01*
X149051169Y-130965887D01*
X148990829Y-130740693D01*
X148901611Y-130525302D01*
X148785042Y-130323398D01*
X148643116Y-130138437D01*
X148570021Y-130065342D01*
X148561016Y-130043600D01*
X148570021Y-130021857D01*
X148643116Y-129948763D01*
X148785042Y-129763802D01*
X148901611Y-129561898D01*
X148990829Y-129346507D01*
X149051169Y-129121313D01*
X149081600Y-128890169D01*
X149081600Y-128657031D01*
X149060272Y-128495032D01*
X155232600Y-128495032D01*
X155232600Y-130252167D01*
X155263030Y-130483312D01*
X155323370Y-130708506D01*
X155399406Y-130892072D01*
X155412589Y-130923898D01*
X155529158Y-131125802D01*
X155671084Y-131310763D01*
X155835937Y-131475616D01*
X156020898Y-131617542D01*
X156222802Y-131734111D01*
X156438193Y-131823329D01*
X156663387Y-131883669D01*
X156894531Y-131914100D01*
X156894536Y-131914100D01*
X157127664Y-131914100D01*
X157127669Y-131914100D01*
X157358813Y-131883669D01*
X157584007Y-131823329D01*
X157799398Y-131734111D01*
X158001302Y-131617542D01*
X158186263Y-131475616D01*
X158259357Y-131402521D01*
X158281100Y-131393516D01*
X158302842Y-131402521D01*
X158375937Y-131475616D01*
X158560898Y-131617542D01*
X158762802Y-131734111D01*
X158978193Y-131823329D01*
X159203387Y-131883669D01*
X159434531Y-131914100D01*
X159434536Y-131914100D01*
X159667664Y-131914100D01*
X159667669Y-131914100D01*
X159898813Y-131883669D01*
X160124007Y-131823329D01*
X160339398Y-131734111D01*
X160541302Y-131617542D01*
X160726263Y-131475616D01*
X160799357Y-131402521D01*
X160821100Y-131393516D01*
X160842842Y-131402521D01*
X160915937Y-131475616D01*
X161100898Y-131617542D01*
X161302802Y-131734111D01*
X161518193Y-131823329D01*
X161743387Y-131883669D01*
X161974531Y-131914100D01*
X161974536Y-131914100D01*
X162207664Y-131914100D01*
X162207669Y-131914100D01*
X162438813Y-131883669D01*
X162664007Y-131823329D01*
X162879398Y-131734111D01*
X163081302Y-131617542D01*
X163266263Y-131475616D01*
X163431116Y-131310763D01*
X163573042Y-131125802D01*
X163689611Y-130923898D01*
X163778829Y-130708507D01*
X163839169Y-130483313D01*
X163869600Y-130252169D01*
X163869600Y-129382101D01*
X171522099Y-129382101D01*
X171522099Y-129626664D01*
X171532370Y-129678293D01*
X171532370Y-129678294D01*
X171561609Y-129722055D01*
X171561611Y-129722057D01*
X172032644Y-130193091D01*
X172032646Y-130193093D01*
X172076405Y-130222330D01*
X172128032Y-130232599D01*
X172128033Y-130232600D01*
X172372599Y-130232600D01*
X172372600Y-130232599D01*
X172372600Y-129795806D01*
X172394220Y-129801600D01*
X172527980Y-129801600D01*
X172549600Y-129795806D01*
X172549600Y-130232599D01*
X172549601Y-130232600D01*
X172794164Y-130232600D01*
X172845793Y-130222329D01*
X172845794Y-130222329D01*
X172889555Y-130193090D01*
X172889557Y-130193088D01*
X173360591Y-129722055D01*
X173360593Y-129722053D01*
X173389830Y-129678294D01*
X173400099Y-129626667D01*
X173400100Y-129626667D01*
X173400100Y-129382101D01*
X173400099Y-129382100D01*
X172963307Y-129382100D01*
X172969100Y-129360480D01*
X172969100Y-129226720D01*
X172963307Y-129205100D01*
X173400100Y-129205100D01*
X173400101Y-129205099D01*
X173400101Y-128960535D01*
X173389829Y-128908906D01*
X173389829Y-128908905D01*
X173360590Y-128865144D01*
X173360588Y-128865142D01*
X172889555Y-128394108D01*
X172889553Y-128394106D01*
X172845794Y-128364869D01*
X172794167Y-128354600D01*
X172794166Y-128354599D01*
X172549600Y-128354599D01*
X172549600Y-128791393D01*
X172527980Y-128785600D01*
X172394220Y-128785600D01*
X172372600Y-128791393D01*
X172372600Y-128354600D01*
X172372599Y-128354599D01*
X172128035Y-128354599D01*
X172076406Y-128364870D01*
X172076405Y-128364870D01*
X172032644Y-128394109D01*
X172032642Y-128394111D01*
X171561608Y-128865144D01*
X171561606Y-128865146D01*
X171532369Y-128908905D01*
X171522100Y-128960532D01*
X171522100Y-129205099D01*
X171522101Y-129205100D01*
X171958893Y-129205100D01*
X171953100Y-129226720D01*
X171953100Y-129360480D01*
X171958893Y-129382100D01*
X171522100Y-129382100D01*
X171522099Y-129382101D01*
X163869600Y-129382101D01*
X163869600Y-128495031D01*
X163839169Y-128263887D01*
X163778829Y-128038693D01*
X163689611Y-127823302D01*
X163573042Y-127621398D01*
X163431116Y-127436437D01*
X163266263Y-127271584D01*
X163081302Y-127129658D01*
X163081297Y-127129655D01*
X162879407Y-127013094D01*
X162879404Y-127013092D01*
X162879398Y-127013089D01*
X162879391Y-127013086D01*
X162664006Y-126923870D01*
X162438812Y-126863530D01*
X162261448Y-126840180D01*
X162207669Y-126833100D01*
X161974531Y-126833100D01*
X161947641Y-126836640D01*
X161743387Y-126863530D01*
X161518193Y-126923870D01*
X161302808Y-127013086D01*
X161302792Y-127013094D01*
X161100902Y-127129655D01*
X160915937Y-127271583D01*
X160842843Y-127344677D01*
X160821100Y-127353683D01*
X160799357Y-127344677D01*
X160726262Y-127271583D01*
X160663986Y-127223797D01*
X160541302Y-127129658D01*
X160541297Y-127129655D01*
X160339407Y-127013094D01*
X160339404Y-127013092D01*
X160339398Y-127013089D01*
X160339391Y-127013086D01*
X160124006Y-126923870D01*
X159898812Y-126863530D01*
X159721448Y-126840180D01*
X159667669Y-126833100D01*
X159434531Y-126833100D01*
X159407641Y-126836640D01*
X159203387Y-126863530D01*
X158978193Y-126923870D01*
X158762808Y-127013086D01*
X158762792Y-127013094D01*
X158560902Y-127129655D01*
X158375937Y-127271583D01*
X158302843Y-127344677D01*
X158281100Y-127353683D01*
X158259357Y-127344677D01*
X158186262Y-127271583D01*
X158123986Y-127223797D01*
X158001302Y-127129658D01*
X158001297Y-127129655D01*
X157799407Y-127013094D01*
X157799404Y-127013092D01*
X157799398Y-127013089D01*
X157799391Y-127013086D01*
X157584006Y-126923870D01*
X157358812Y-126863530D01*
X157181448Y-126840180D01*
X157127669Y-126833100D01*
X156894531Y-126833100D01*
X156867641Y-126836640D01*
X156663387Y-126863530D01*
X156438193Y-126923870D01*
X156222808Y-127013086D01*
X156222792Y-127013094D01*
X156020902Y-127129655D01*
X155835941Y-127271580D01*
X155671080Y-127436441D01*
X155529155Y-127621402D01*
X155412594Y-127823292D01*
X155412586Y-127823308D01*
X155323370Y-128038693D01*
X155263030Y-128263887D01*
X155232600Y-128495032D01*
X149060272Y-128495032D01*
X149051169Y-128425887D01*
X148990829Y-128200693D01*
X148901611Y-127985302D01*
X148785042Y-127783398D01*
X148643116Y-127598437D01*
X148570021Y-127525342D01*
X148561016Y-127503600D01*
X148570021Y-127481857D01*
X148643116Y-127408763D01*
X148785042Y-127223802D01*
X148901611Y-127021898D01*
X148990829Y-126806507D01*
X149051169Y-126581313D01*
X149081600Y-126350169D01*
X149081600Y-126117031D01*
X149051169Y-125885887D01*
X149018416Y-125763649D01*
X148999703Y-125693809D01*
X149002775Y-125670475D01*
X149021446Y-125656148D01*
X149029405Y-125655100D01*
X159631070Y-125655100D01*
X159631076Y-125655100D01*
X159887827Y-125614435D01*
X160135056Y-125534105D01*
X160366675Y-125416090D01*
X160576980Y-125263294D01*
X161020340Y-124819934D01*
X168824200Y-124819934D01*
X168824200Y-125567264D01*
X168824201Y-125567265D01*
X168863262Y-125763647D01*
X168863263Y-125763649D01*
X168939889Y-125948640D01*
X169051133Y-126115128D01*
X169579572Y-126643568D01*
X169746060Y-126754810D01*
X169931051Y-126831436D01*
X170127436Y-126870500D01*
X170874764Y-126870499D01*
X171071149Y-126831437D01*
X171256140Y-126754811D01*
X171422628Y-126643567D01*
X171951068Y-126115128D01*
X172062310Y-125948640D01*
X172138936Y-125763649D01*
X172178000Y-125567264D01*
X172177999Y-124819936D01*
X172177999Y-124819934D01*
X172824200Y-124819934D01*
X172824200Y-125567264D01*
X172824201Y-125567265D01*
X172863262Y-125763647D01*
X172863263Y-125763649D01*
X172939889Y-125948640D01*
X173051133Y-126115128D01*
X173579572Y-126643568D01*
X173746060Y-126754810D01*
X173931051Y-126831436D01*
X174127436Y-126870500D01*
X174874764Y-126870499D01*
X175071149Y-126831437D01*
X175256140Y-126754811D01*
X175422628Y-126643567D01*
X175951068Y-126115128D01*
X176062310Y-125948640D01*
X176138936Y-125763649D01*
X176178000Y-125567264D01*
X176177999Y-124819936D01*
X176138937Y-124623551D01*
X176062311Y-124438560D01*
X175951067Y-124272072D01*
X175422628Y-123743632D01*
X175256140Y-123632390D01*
X175071149Y-123555764D01*
X175071147Y-123555763D01*
X174874765Y-123516700D01*
X174127435Y-123516700D01*
X174127434Y-123516701D01*
X173931052Y-123555762D01*
X173931050Y-123555763D01*
X173746060Y-123632389D01*
X173579572Y-123743633D01*
X173051129Y-124272075D01*
X172939890Y-124438560D01*
X172863264Y-124623550D01*
X172863263Y-124623552D01*
X172824200Y-124819934D01*
X172177999Y-124819934D01*
X172138937Y-124623551D01*
X172062311Y-124438560D01*
X171951067Y-124272072D01*
X171422628Y-123743632D01*
X171256140Y-123632390D01*
X171071149Y-123555764D01*
X171071147Y-123555763D01*
X170874765Y-123516700D01*
X170127435Y-123516700D01*
X170127434Y-123516701D01*
X169931052Y-123555762D01*
X169931050Y-123555763D01*
X169746060Y-123632389D01*
X169579572Y-123743633D01*
X169051129Y-124272075D01*
X168939890Y-124438560D01*
X168863264Y-124623550D01*
X168863263Y-124623552D01*
X168824200Y-124819934D01*
X161020340Y-124819934D01*
X162760794Y-123079480D01*
X162913590Y-122869175D01*
X163031605Y-122637556D01*
X163111935Y-122390327D01*
X163152600Y-122133576D01*
X163152600Y-121873624D01*
X163152600Y-117819151D01*
X163156230Y-117804658D01*
X163206767Y-117710111D01*
X163264892Y-117518500D01*
X163279600Y-117369165D01*
X163279600Y-116638029D01*
X163264892Y-116488700D01*
X163206768Y-116297089D01*
X163165133Y-116219196D01*
X163112381Y-116120504D01*
X163112379Y-116120501D01*
X163112378Y-116120499D01*
X163017186Y-116004507D01*
X162500195Y-115487516D01*
X162384200Y-115392322D01*
X162384198Y-115392321D01*
X162384197Y-115392320D01*
X162384194Y-115392318D01*
X162207617Y-115297936D01*
X162207615Y-115297935D01*
X162207611Y-115297933D01*
X162140211Y-115277487D01*
X162015998Y-115239807D01*
X161866665Y-115225100D01*
X161135529Y-115225100D01*
X160986201Y-115239807D01*
X160794592Y-115297931D01*
X160794589Y-115297932D01*
X160794587Y-115297932D01*
X160794582Y-115297935D01*
X160618004Y-115392318D01*
X160618001Y-115392320D01*
X160502009Y-115487512D01*
X159985014Y-116004507D01*
X159889820Y-116120502D01*
X159889818Y-116120505D01*
X159795436Y-116297082D01*
X159795432Y-116297092D01*
X159737307Y-116488701D01*
X159722600Y-116638034D01*
X159722600Y-117369171D01*
X159737307Y-117518498D01*
X159737308Y-117518500D01*
X159795432Y-117710111D01*
X159845969Y-117804658D01*
X159849600Y-117819153D01*
X159849600Y-121306788D01*
X159840594Y-121328532D01*
X158826032Y-122343094D01*
X158804288Y-122352100D01*
X148197912Y-122352100D01*
X148176168Y-122343094D01*
X147161606Y-121328532D01*
X147152600Y-121306788D01*
X147152600Y-114873629D01*
X147152599Y-114873617D01*
X147133664Y-114754064D01*
X147111960Y-114617032D01*
X147960600Y-114617032D01*
X147960600Y-114850167D01*
X147991030Y-115081312D01*
X148051370Y-115306506D01*
X148126347Y-115487516D01*
X148140589Y-115521898D01*
X148140592Y-115521904D01*
X148140594Y-115521907D01*
X148240460Y-115694881D01*
X148257158Y-115723802D01*
X148328291Y-115816504D01*
X148399083Y-115908762D01*
X148472177Y-115981857D01*
X148481183Y-116003600D01*
X148472177Y-116025343D01*
X148399083Y-116098437D01*
X148257155Y-116283402D01*
X148140594Y-116485292D01*
X148140586Y-116485308D01*
X148051370Y-116700693D01*
X147991030Y-116925887D01*
X147960600Y-117157032D01*
X147960600Y-117390167D01*
X147991030Y-117621312D01*
X148051370Y-117846506D01*
X148057777Y-117861973D01*
X148140589Y-118061898D01*
X148140592Y-118061904D01*
X148140594Y-118061907D01*
X148244242Y-118241431D01*
X148257158Y-118263802D01*
X148368201Y-118408515D01*
X148399083Y-118448762D01*
X148472177Y-118521857D01*
X148481183Y-118543600D01*
X148472177Y-118565343D01*
X148399083Y-118638437D01*
X148257155Y-118823402D01*
X148140594Y-119025292D01*
X148140586Y-119025308D01*
X148051370Y-119240693D01*
X147991030Y-119465887D01*
X147973743Y-119597200D01*
X147960600Y-119697031D01*
X147960600Y-119930169D01*
X147967680Y-119983948D01*
X147991030Y-120161312D01*
X148051370Y-120386506D01*
X148071511Y-120435130D01*
X148140589Y-120601898D01*
X148140592Y-120601904D01*
X148140594Y-120601907D01*
X148157688Y-120631514D01*
X148257158Y-120803802D01*
X148375896Y-120958544D01*
X148394656Y-120982993D01*
X148399084Y-120988763D01*
X148563937Y-121153616D01*
X148748898Y-121295542D01*
X148950802Y-121412111D01*
X149166193Y-121501329D01*
X149391387Y-121561669D01*
X149622531Y-121592100D01*
X149622536Y-121592100D01*
X151379664Y-121592100D01*
X151379669Y-121592100D01*
X151610813Y-121561669D01*
X151836007Y-121501329D01*
X152051398Y-121412111D01*
X152253302Y-121295542D01*
X152438263Y-121153616D01*
X152603116Y-120988763D01*
X152745042Y-120803802D01*
X152861611Y-120601898D01*
X152950829Y-120386507D01*
X153011169Y-120161313D01*
X153041600Y-119930169D01*
X153041600Y-119697031D01*
X153011169Y-119465887D01*
X152950829Y-119240693D01*
X152861611Y-119025302D01*
X152745042Y-118823398D01*
X152603116Y-118638437D01*
X152530021Y-118565342D01*
X152521016Y-118543600D01*
X152530021Y-118521857D01*
X152603116Y-118448763D01*
X152745042Y-118263802D01*
X152861611Y-118061898D01*
X152950829Y-117846507D01*
X153011169Y-117621313D01*
X153041600Y-117390169D01*
X153041600Y-117157031D01*
X153011169Y-116925887D01*
X152950829Y-116700693D01*
X152861611Y-116485302D01*
X152745042Y-116283398D01*
X152603116Y-116098437D01*
X152530021Y-116025342D01*
X152521016Y-116003600D01*
X152530021Y-115981857D01*
X152603116Y-115908763D01*
X152745042Y-115723802D01*
X152861611Y-115521898D01*
X152950829Y-115306507D01*
X153011169Y-115081313D01*
X153041600Y-114850169D01*
X153041600Y-114617031D01*
X153011169Y-114385887D01*
X152950829Y-114160693D01*
X152861611Y-113945302D01*
X152745042Y-113743398D01*
X152603116Y-113558437D01*
X152438263Y-113393584D01*
X152253302Y-113251658D01*
X152208970Y-113226063D01*
X152051407Y-113135094D01*
X152051404Y-113135092D01*
X152051398Y-113135089D01*
X152051391Y-113135086D01*
X151836006Y-113045870D01*
X151788595Y-113033166D01*
X151769924Y-113018839D01*
X151766852Y-112995505D01*
X151779470Y-112977896D01*
X151861676Y-112922968D01*
X151992468Y-112792176D01*
X152095231Y-112638382D01*
X152095232Y-112638379D01*
X152166012Y-112467500D01*
X152166014Y-112467494D01*
X152202099Y-112286084D01*
X152202100Y-112286084D01*
X152202100Y-112282101D01*
X152202099Y-112282100D01*
X151003307Y-112282100D01*
X151009100Y-112260480D01*
X151009100Y-112126720D01*
X151003307Y-112105100D01*
X152202099Y-112105100D01*
X152202100Y-112105099D01*
X152202100Y-112101116D01*
X152202099Y-112101115D01*
X152166014Y-111919705D01*
X152166012Y-111919699D01*
X152095232Y-111748820D01*
X152095231Y-111748817D01*
X151992468Y-111595023D01*
X151861676Y-111464231D01*
X151707882Y-111361468D01*
X151707879Y-111361467D01*
X151537000Y-111290687D01*
X151536994Y-111290685D01*
X151355584Y-111254600D01*
X150589601Y-111254600D01*
X150589600Y-111254601D01*
X150589600Y-111691393D01*
X150567980Y-111685600D01*
X150434220Y-111685600D01*
X150412600Y-111691393D01*
X150412600Y-111254601D01*
X150412599Y-111254600D01*
X149646616Y-111254600D01*
X149465205Y-111290685D01*
X149465199Y-111290687D01*
X149294320Y-111361467D01*
X149294317Y-111361468D01*
X149140523Y-111464231D01*
X149009731Y-111595023D01*
X148906968Y-111748817D01*
X148906967Y-111748820D01*
X148836187Y-111919699D01*
X148836185Y-111919705D01*
X148800100Y-112101115D01*
X148800100Y-112105099D01*
X148800101Y-112105100D01*
X149998893Y-112105100D01*
X149993100Y-112126720D01*
X149993100Y-112260480D01*
X149998893Y-112282100D01*
X148800101Y-112282100D01*
X148800100Y-112282101D01*
X148800100Y-112286084D01*
X148836185Y-112467494D01*
X148836187Y-112467500D01*
X148906967Y-112638379D01*
X148906968Y-112638382D01*
X149009731Y-112792176D01*
X149140523Y-112922968D01*
X149222728Y-112977896D01*
X149235803Y-112997465D01*
X149231212Y-113020548D01*
X149213603Y-113033166D01*
X149166199Y-113045868D01*
X149166182Y-113045874D01*
X148950808Y-113135086D01*
X148950792Y-113135094D01*
X148748902Y-113251655D01*
X148563941Y-113393580D01*
X148399080Y-113558441D01*
X148257155Y-113743402D01*
X148140594Y-113945292D01*
X148140586Y-113945308D01*
X148051370Y-114160693D01*
X147991030Y-114385887D01*
X147960600Y-114617032D01*
X147111960Y-114617032D01*
X147111935Y-114616873D01*
X147031605Y-114369644D01*
X147031603Y-114369639D01*
X146913595Y-114138034D01*
X146913592Y-114138030D01*
X146913590Y-114138025D01*
X146897906Y-114116438D01*
X146760797Y-113927723D01*
X146760794Y-113927720D01*
X146576980Y-113743905D01*
X146576980Y-113743906D01*
X144576980Y-111743906D01*
X144576976Y-111743903D01*
X144576974Y-111743901D01*
X144366678Y-111591112D01*
X144366665Y-111591104D01*
X144135060Y-111473096D01*
X144135055Y-111473094D01*
X143887824Y-111392764D01*
X143631082Y-111352100D01*
X143631076Y-111352100D01*
X139197912Y-111352100D01*
X139176168Y-111343094D01*
X136135175Y-108302101D01*
X141522099Y-108302101D01*
X141522099Y-108546664D01*
X141532370Y-108598293D01*
X141532370Y-108598294D01*
X141561609Y-108642055D01*
X141561611Y-108642057D01*
X142032644Y-109113091D01*
X142032646Y-109113093D01*
X142076405Y-109142330D01*
X142128032Y-109152599D01*
X142128033Y-109152600D01*
X142372599Y-109152600D01*
X142372600Y-109152599D01*
X142372600Y-108715806D01*
X142394220Y-108721600D01*
X142527980Y-108721600D01*
X142549600Y-108715806D01*
X142549600Y-109152599D01*
X142549601Y-109152600D01*
X142794164Y-109152600D01*
X142845793Y-109142329D01*
X142845794Y-109142329D01*
X142889555Y-109113090D01*
X142889557Y-109113088D01*
X143360591Y-108642055D01*
X143360593Y-108642053D01*
X143389830Y-108598294D01*
X143400099Y-108546667D01*
X143400100Y-108546667D01*
X143400100Y-108302101D01*
X143400099Y-108302100D01*
X142963307Y-108302100D01*
X142969100Y-108280480D01*
X142969100Y-108146720D01*
X142963307Y-108125100D01*
X143400100Y-108125100D01*
X143400101Y-108125099D01*
X143400101Y-107880535D01*
X143389829Y-107828906D01*
X143389829Y-107828905D01*
X143360590Y-107785144D01*
X143360588Y-107785142D01*
X142889555Y-107314108D01*
X142889553Y-107314106D01*
X142845794Y-107284869D01*
X142794167Y-107274600D01*
X142794166Y-107274599D01*
X142549600Y-107274599D01*
X142549600Y-107711393D01*
X142527980Y-107705600D01*
X142394220Y-107705600D01*
X142372600Y-107711393D01*
X142372600Y-107274600D01*
X142372599Y-107274599D01*
X142128035Y-107274599D01*
X142076406Y-107284870D01*
X142076405Y-107284870D01*
X142032644Y-107314109D01*
X142032642Y-107314111D01*
X141561608Y-107785144D01*
X141561606Y-107785146D01*
X141532369Y-107828905D01*
X141522100Y-107880532D01*
X141522100Y-108125099D01*
X141522101Y-108125100D01*
X141958893Y-108125100D01*
X141953100Y-108146720D01*
X141953100Y-108280480D01*
X141958893Y-108302100D01*
X141522100Y-108302100D01*
X141522099Y-108302101D01*
X136135175Y-108302101D01*
X133245568Y-105412494D01*
X133237886Y-105399676D01*
X133206768Y-105297089D01*
X133165133Y-105219196D01*
X133112381Y-105120504D01*
X133112379Y-105120501D01*
X133112378Y-105120499D01*
X133017186Y-105004507D01*
X132500195Y-104487516D01*
X132384200Y-104392322D01*
X132384198Y-104392321D01*
X132384197Y-104392320D01*
X132384194Y-104392318D01*
X132207617Y-104297936D01*
X132207615Y-104297935D01*
X132207611Y-104297933D01*
X132140211Y-104277487D01*
X132015998Y-104239807D01*
X131866665Y-104225100D01*
X131135529Y-104225100D01*
X130986201Y-104239807D01*
X130794592Y-104297931D01*
X130794589Y-104297932D01*
X130794587Y-104297932D01*
X130794582Y-104297935D01*
X130618004Y-104392318D01*
X130618001Y-104392320D01*
X130502009Y-104487512D01*
X129985014Y-105004507D01*
X129889820Y-105120502D01*
X129889818Y-105120505D01*
X129795436Y-105297082D01*
X129795432Y-105297092D01*
X129737307Y-105488701D01*
X129722600Y-105638034D01*
X114437600Y-105638034D01*
X114437600Y-99125032D01*
X124372600Y-99125032D01*
X124372600Y-100882167D01*
X124403030Y-101113312D01*
X124463370Y-101338506D01*
X124470683Y-101356160D01*
X124552589Y-101553898D01*
X124552592Y-101553904D01*
X124552594Y-101553907D01*
X124669155Y-101755797D01*
X124669158Y-101755802D01*
X124811084Y-101940763D01*
X124975937Y-102105616D01*
X125160898Y-102247542D01*
X125362802Y-102364111D01*
X125578193Y-102453329D01*
X125803387Y-102513669D01*
X126034531Y-102544100D01*
X126034536Y-102544100D01*
X126267664Y-102544100D01*
X126267669Y-102544100D01*
X126498813Y-102513669D01*
X126724007Y-102453329D01*
X126939398Y-102364111D01*
X127141302Y-102247542D01*
X127326263Y-102105616D01*
X127399357Y-102032521D01*
X127421100Y-102023516D01*
X127442842Y-102032521D01*
X127515937Y-102105616D01*
X127700898Y-102247542D01*
X127902802Y-102364111D01*
X128118193Y-102453329D01*
X128343387Y-102513669D01*
X128574531Y-102544100D01*
X128574536Y-102544100D01*
X128807664Y-102544100D01*
X128807669Y-102544100D01*
X129038813Y-102513669D01*
X129264007Y-102453329D01*
X129479398Y-102364111D01*
X129681302Y-102247542D01*
X129866263Y-102105616D01*
X129939357Y-102032521D01*
X129961100Y-102023516D01*
X129982842Y-102032521D01*
X130055937Y-102105616D01*
X130240898Y-102247542D01*
X130442802Y-102364111D01*
X130658193Y-102453329D01*
X130883387Y-102513669D01*
X131114531Y-102544100D01*
X131114536Y-102544100D01*
X131347664Y-102544100D01*
X131347669Y-102544100D01*
X131578813Y-102513669D01*
X131804007Y-102453329D01*
X132019398Y-102364111D01*
X132221302Y-102247542D01*
X132406263Y-102105616D01*
X132479357Y-102032521D01*
X132501100Y-102023516D01*
X132522842Y-102032521D01*
X132595937Y-102105616D01*
X132780898Y-102247542D01*
X132982802Y-102364111D01*
X133198193Y-102453329D01*
X133423387Y-102513669D01*
X133654531Y-102544100D01*
X133654536Y-102544100D01*
X133887664Y-102544100D01*
X133887669Y-102544100D01*
X134118813Y-102513669D01*
X134344007Y-102453329D01*
X134559398Y-102364111D01*
X134761302Y-102247542D01*
X134946263Y-102105616D01*
X135019357Y-102032521D01*
X135041100Y-102023516D01*
X135062842Y-102032521D01*
X135135937Y-102105616D01*
X135320898Y-102247542D01*
X135522802Y-102364111D01*
X135738193Y-102453329D01*
X135963387Y-102513669D01*
X136194531Y-102544100D01*
X136194536Y-102544100D01*
X136427664Y-102544100D01*
X136427669Y-102544100D01*
X136658813Y-102513669D01*
X136884007Y-102453329D01*
X137099398Y-102364111D01*
X137301302Y-102247542D01*
X137486263Y-102105616D01*
X137651116Y-101940763D01*
X137793042Y-101755802D01*
X137909611Y-101553898D01*
X137998829Y-101338507D01*
X137998830Y-101338505D01*
X137998830Y-101338504D01*
X138001870Y-101327155D01*
X138011532Y-101291094D01*
X138025858Y-101272424D01*
X138049192Y-101269352D01*
X138066802Y-101281970D01*
X138121731Y-101364176D01*
X138252523Y-101494968D01*
X138406317Y-101597731D01*
X138406320Y-101597732D01*
X138577199Y-101668512D01*
X138577205Y-101668514D01*
X138758615Y-101704599D01*
X138758616Y-101704600D01*
X138762599Y-101704600D01*
X138762600Y-101704599D01*
X138762600Y-100505806D01*
X138784220Y-100511600D01*
X138917980Y-100511600D01*
X138939600Y-100505806D01*
X138939600Y-101704599D01*
X138939601Y-101704600D01*
X138943584Y-101704600D01*
X138943584Y-101704599D01*
X139124994Y-101668514D01*
X139125000Y-101668512D01*
X139295879Y-101597732D01*
X139295882Y-101597731D01*
X139449676Y-101494968D01*
X139580468Y-101364176D01*
X139683231Y-101210382D01*
X139683232Y-101210379D01*
X139754012Y-101039500D01*
X139754014Y-101039494D01*
X139790099Y-100858084D01*
X139790100Y-100858084D01*
X139790100Y-100092101D01*
X139790099Y-100092100D01*
X139353307Y-100092100D01*
X139359100Y-100070480D01*
X139359100Y-99936720D01*
X139353307Y-99915100D01*
X139790099Y-99915100D01*
X139790100Y-99915099D01*
X139790100Y-99149116D01*
X139790099Y-99149115D01*
X139754014Y-98967705D01*
X139754012Y-98967699D01*
X139683232Y-98796820D01*
X139683231Y-98796817D01*
X139580468Y-98643023D01*
X139449676Y-98512231D01*
X139295882Y-98409468D01*
X139295879Y-98409467D01*
X139125000Y-98338687D01*
X139124994Y-98338685D01*
X138943584Y-98302600D01*
X138939601Y-98302600D01*
X138939600Y-98302601D01*
X138939600Y-99501393D01*
X138917980Y-99495600D01*
X138784220Y-99495600D01*
X138762600Y-99501393D01*
X138762600Y-98302601D01*
X138762599Y-98302600D01*
X138758616Y-98302600D01*
X138577205Y-98338685D01*
X138577199Y-98338687D01*
X138406320Y-98409467D01*
X138406317Y-98409468D01*
X138252523Y-98512231D01*
X138121728Y-98643026D01*
X138066801Y-98725228D01*
X138047232Y-98738303D01*
X138024150Y-98733711D01*
X138011532Y-98716102D01*
X137998830Y-98668695D01*
X137998830Y-98668694D01*
X137909613Y-98453308D01*
X137909611Y-98453302D01*
X137793042Y-98251398D01*
X137651116Y-98066437D01*
X137486263Y-97901584D01*
X137301302Y-97759658D01*
X137099398Y-97643089D01*
X137099391Y-97643086D01*
X136884006Y-97553870D01*
X136658812Y-97493530D01*
X136481448Y-97470180D01*
X136427669Y-97463100D01*
X136194531Y-97463100D01*
X136167641Y-97466640D01*
X135963387Y-97493530D01*
X135738193Y-97553870D01*
X135522808Y-97643086D01*
X135522792Y-97643094D01*
X135320902Y-97759655D01*
X135135937Y-97901583D01*
X135062843Y-97974677D01*
X135041100Y-97983683D01*
X135019357Y-97974677D01*
X134946262Y-97901583D01*
X134906015Y-97870701D01*
X134761302Y-97759658D01*
X134559398Y-97643089D01*
X134559391Y-97643086D01*
X134344006Y-97553870D01*
X134118812Y-97493530D01*
X133941448Y-97470180D01*
X133887669Y-97463100D01*
X133654531Y-97463100D01*
X133627641Y-97466640D01*
X133423387Y-97493530D01*
X133198193Y-97553870D01*
X132982808Y-97643086D01*
X132982792Y-97643094D01*
X132780902Y-97759655D01*
X132595937Y-97901583D01*
X132522843Y-97974677D01*
X132501100Y-97983683D01*
X132479357Y-97974677D01*
X132406262Y-97901583D01*
X132366015Y-97870701D01*
X132221302Y-97759658D01*
X132019398Y-97643089D01*
X132019391Y-97643086D01*
X131804006Y-97553870D01*
X131578812Y-97493530D01*
X131401448Y-97470180D01*
X131347669Y-97463100D01*
X131114531Y-97463100D01*
X131087641Y-97466640D01*
X130883387Y-97493530D01*
X130658193Y-97553870D01*
X130442808Y-97643086D01*
X130442792Y-97643094D01*
X130240902Y-97759655D01*
X130055937Y-97901583D01*
X129982843Y-97974677D01*
X129961100Y-97983683D01*
X129939357Y-97974677D01*
X129866262Y-97901583D01*
X129826015Y-97870701D01*
X129681302Y-97759658D01*
X129479398Y-97643089D01*
X129479391Y-97643086D01*
X129264006Y-97553870D01*
X129038812Y-97493530D01*
X128861448Y-97470180D01*
X128807669Y-97463100D01*
X128574531Y-97463100D01*
X128547641Y-97466640D01*
X128343387Y-97493530D01*
X128118193Y-97553870D01*
X127902808Y-97643086D01*
X127902792Y-97643094D01*
X127700902Y-97759655D01*
X127515937Y-97901583D01*
X127442843Y-97974677D01*
X127421100Y-97983683D01*
X127399357Y-97974677D01*
X127326262Y-97901583D01*
X127286015Y-97870701D01*
X127141302Y-97759658D01*
X126939398Y-97643089D01*
X126939391Y-97643086D01*
X126724006Y-97553870D01*
X126498812Y-97493530D01*
X126321448Y-97470180D01*
X126267669Y-97463100D01*
X126034531Y-97463100D01*
X126007641Y-97466640D01*
X125803387Y-97493530D01*
X125578193Y-97553870D01*
X125362808Y-97643086D01*
X125362792Y-97643094D01*
X125160902Y-97759655D01*
X124975941Y-97901580D01*
X124811080Y-98066441D01*
X124669155Y-98251402D01*
X124552594Y-98453292D01*
X124552586Y-98453308D01*
X124463370Y-98668693D01*
X124403030Y-98893887D01*
X124372600Y-99125032D01*
X114437600Y-99125032D01*
X114437600Y-81293714D01*
X153599400Y-81293714D01*
X153599400Y-81553485D01*
X153633307Y-81811039D01*
X153700539Y-82061957D01*
X153700545Y-82061973D01*
X153799951Y-82301957D01*
X153799954Y-82301964D01*
X153929841Y-82526936D01*
X154087982Y-82733029D01*
X154271671Y-82916718D01*
X154477764Y-83074859D01*
X154552206Y-83117838D01*
X154685747Y-83194938D01*
X154700074Y-83213609D01*
X154697002Y-83236943D01*
X154695249Y-83239642D01*
X154604205Y-83364953D01*
X154604197Y-83364966D01*
X154522583Y-83525142D01*
X154522581Y-83525147D01*
X154467024Y-83696136D01*
X154438900Y-83873700D01*
X154438900Y-83875099D01*
X154438901Y-83875100D01*
X155087176Y-83875100D01*
X155081100Y-83897774D01*
X155081100Y-84029426D01*
X155087176Y-84052100D01*
X154438901Y-84052100D01*
X154438900Y-84052101D01*
X154438900Y-84053499D01*
X154467024Y-84231063D01*
X154522581Y-84402052D01*
X154522583Y-84402057D01*
X154604197Y-84562233D01*
X154604205Y-84562246D01*
X154695249Y-84687558D01*
X154700743Y-84710442D01*
X154688446Y-84730509D01*
X154685747Y-84732262D01*
X154477768Y-84852338D01*
X154271675Y-85010478D01*
X154087978Y-85194175D01*
X153929838Y-85400268D01*
X153799959Y-85625226D01*
X153799951Y-85625242D01*
X153700545Y-85865226D01*
X153700539Y-85865242D01*
X153633307Y-86116160D01*
X153599400Y-86373714D01*
X153599400Y-86633485D01*
X153633307Y-86891039D01*
X153700539Y-87141957D01*
X153700545Y-87141973D01*
X153799951Y-87381957D01*
X153799954Y-87381964D01*
X153929841Y-87606936D01*
X154007778Y-87708505D01*
X154043363Y-87754881D01*
X154049454Y-87777614D01*
X154043363Y-87792319D01*
X153929838Y-87940268D01*
X153799959Y-88165226D01*
X153799951Y-88165242D01*
X153700545Y-88405226D01*
X153700539Y-88405242D01*
X153633307Y-88656160D01*
X153599400Y-88913714D01*
X153599400Y-89173485D01*
X153633307Y-89431039D01*
X153700539Y-89681957D01*
X153700545Y-89681973D01*
X153799951Y-89921957D01*
X153799954Y-89921964D01*
X153929841Y-90146936D01*
X154007778Y-90248505D01*
X154043363Y-90294881D01*
X154049454Y-90317614D01*
X154043363Y-90332319D01*
X153929838Y-90480268D01*
X153799959Y-90705226D01*
X153799951Y-90705242D01*
X153700545Y-90945226D01*
X153700539Y-90945242D01*
X153633307Y-91196160D01*
X153599400Y-91453714D01*
X153599400Y-91713485D01*
X153633307Y-91971039D01*
X153700539Y-92221957D01*
X153700545Y-92221973D01*
X153799951Y-92461957D01*
X153799954Y-92461964D01*
X153929841Y-92686936D01*
X154007778Y-92788505D01*
X154043363Y-92834881D01*
X154049454Y-92857614D01*
X154043363Y-92872319D01*
X153929838Y-93020268D01*
X153799959Y-93245226D01*
X153799951Y-93245242D01*
X153700545Y-93485226D01*
X153700539Y-93485242D01*
X153633307Y-93736160D01*
X153599400Y-93993714D01*
X153599400Y-94253485D01*
X153633307Y-94511039D01*
X153700539Y-94761957D01*
X153700545Y-94761973D01*
X153799951Y-95001957D01*
X153799954Y-95001964D01*
X153929841Y-95226936D01*
X154007778Y-95328505D01*
X154043363Y-95374881D01*
X154049454Y-95397614D01*
X154043363Y-95412319D01*
X153929838Y-95560268D01*
X153799959Y-95785226D01*
X153799951Y-95785242D01*
X153700545Y-96025226D01*
X153700539Y-96025242D01*
X153633307Y-96276160D01*
X153599400Y-96533714D01*
X153599400Y-96793485D01*
X153633307Y-97051039D01*
X153700539Y-97301957D01*
X153700545Y-97301973D01*
X153767287Y-97463100D01*
X153799954Y-97541964D01*
X153799957Y-97541970D01*
X153799959Y-97541973D01*
X153858338Y-97643089D01*
X153929841Y-97766936D01*
X154007778Y-97868505D01*
X154043363Y-97914881D01*
X154049454Y-97937614D01*
X154043363Y-97952319D01*
X153929838Y-98100268D01*
X153799959Y-98325226D01*
X153799951Y-98325242D01*
X153700545Y-98565226D01*
X153700539Y-98565242D01*
X153633307Y-98816160D01*
X153599400Y-99073714D01*
X153599400Y-99333485D01*
X153633307Y-99591039D01*
X153700539Y-99841957D01*
X153700545Y-99841973D01*
X153795197Y-100070480D01*
X153799954Y-100081964D01*
X153799957Y-100081970D01*
X153799959Y-100081973D01*
X153929838Y-100306931D01*
X153929841Y-100306936D01*
X154007778Y-100408505D01*
X154043363Y-100454881D01*
X154049454Y-100477614D01*
X154043363Y-100492319D01*
X153929838Y-100640268D01*
X153799959Y-100865226D01*
X153799951Y-100865242D01*
X153700545Y-101105226D01*
X153700539Y-101105242D01*
X153633307Y-101356160D01*
X153599400Y-101613714D01*
X153599400Y-101873485D01*
X153633307Y-102131039D01*
X153700539Y-102381957D01*
X153700545Y-102381973D01*
X153799951Y-102621957D01*
X153799954Y-102621964D01*
X153929841Y-102846936D01*
X154007778Y-102948505D01*
X154043363Y-102994881D01*
X154049454Y-103017614D01*
X154043363Y-103032319D01*
X153929838Y-103180268D01*
X153799959Y-103405226D01*
X153799951Y-103405242D01*
X153700545Y-103645226D01*
X153700539Y-103645242D01*
X153633307Y-103896160D01*
X153599400Y-104153714D01*
X153599400Y-104413485D01*
X153633307Y-104671039D01*
X153700539Y-104921957D01*
X153700545Y-104921973D01*
X153782781Y-105120505D01*
X153799954Y-105161964D01*
X153929841Y-105386936D01*
X154007778Y-105488505D01*
X154043363Y-105534881D01*
X154049454Y-105557614D01*
X154043363Y-105572319D01*
X153929838Y-105720268D01*
X153799959Y-105945226D01*
X153799951Y-105945242D01*
X153700545Y-106185226D01*
X153700539Y-106185242D01*
X153633307Y-106436160D01*
X153599400Y-106693714D01*
X153599400Y-106953485D01*
X153633307Y-107211039D01*
X153700539Y-107461957D01*
X153700545Y-107461973D01*
X153799951Y-107701957D01*
X153799954Y-107701964D01*
X153799957Y-107701970D01*
X153799959Y-107701973D01*
X153917482Y-107905530D01*
X153929841Y-107926936D01*
X153959717Y-107965871D01*
X154043363Y-108074881D01*
X154049454Y-108097614D01*
X154043363Y-108112319D01*
X153929838Y-108260268D01*
X153799959Y-108485226D01*
X153799951Y-108485242D01*
X153700545Y-108725226D01*
X153700539Y-108725242D01*
X153633307Y-108976160D01*
X153599400Y-109233714D01*
X153599400Y-109493485D01*
X153633307Y-109751039D01*
X153700539Y-110001957D01*
X153700545Y-110001973D01*
X153793551Y-110226506D01*
X153799954Y-110241964D01*
X153799957Y-110241970D01*
X153799959Y-110241973D01*
X153929838Y-110466931D01*
X153929841Y-110466936D01*
X154007778Y-110568505D01*
X154043363Y-110614881D01*
X154049454Y-110637614D01*
X154043363Y-110652319D01*
X153929838Y-110800268D01*
X153799959Y-111025226D01*
X153799951Y-111025242D01*
X153700545Y-111265226D01*
X153700539Y-111265242D01*
X153633307Y-111516160D01*
X153599400Y-111773714D01*
X153599400Y-112033485D01*
X153633307Y-112291039D01*
X153700539Y-112541957D01*
X153700545Y-112541973D01*
X153752326Y-112666981D01*
X153799954Y-112781964D01*
X153799957Y-112781970D01*
X153799959Y-112781973D01*
X153917483Y-112985531D01*
X153929841Y-113006936D01*
X154007778Y-113108505D01*
X154043363Y-113154881D01*
X154049454Y-113177614D01*
X154043363Y-113192319D01*
X153929838Y-113340268D01*
X153799959Y-113565226D01*
X153799951Y-113565242D01*
X153700545Y-113805226D01*
X153700539Y-113805242D01*
X153633307Y-114056160D01*
X153606038Y-114263294D01*
X153599400Y-114313713D01*
X153599400Y-114573487D01*
X153602465Y-114596770D01*
X153633307Y-114831039D01*
X153700539Y-115081957D01*
X153700545Y-115081973D01*
X153790000Y-115297933D01*
X153799954Y-115321964D01*
X153799957Y-115321970D01*
X153799959Y-115321973D01*
X153929838Y-115546931D01*
X153929841Y-115546936D01*
X153994739Y-115631512D01*
X154043363Y-115694881D01*
X154049454Y-115717614D01*
X154043363Y-115732319D01*
X153929838Y-115880268D01*
X153799959Y-116105226D01*
X153799951Y-116105242D01*
X153700545Y-116345226D01*
X153700539Y-116345242D01*
X153633307Y-116596160D01*
X153599400Y-116853714D01*
X153599400Y-117113485D01*
X153633307Y-117371039D01*
X153700539Y-117621957D01*
X153700545Y-117621973D01*
X153782220Y-117819151D01*
X153799954Y-117861964D01*
X153799957Y-117861970D01*
X153799959Y-117861973D01*
X153929838Y-118086931D01*
X153929841Y-118086936D01*
X154087982Y-118293029D01*
X154271671Y-118476718D01*
X154477764Y-118634859D01*
X154702736Y-118764746D01*
X154814546Y-118811059D01*
X154942726Y-118864154D01*
X154942742Y-118864160D01*
X155193660Y-118931392D01*
X155451213Y-118965300D01*
X155451218Y-118965300D01*
X155710982Y-118965300D01*
X155710987Y-118965300D01*
X155968540Y-118931392D01*
X156070365Y-118904108D01*
X156219457Y-118864160D01*
X156219460Y-118864158D01*
X156219463Y-118864158D01*
X156459464Y-118764746D01*
X156684436Y-118634859D01*
X156890529Y-118476718D01*
X157074218Y-118293029D01*
X157232359Y-118086936D01*
X157362246Y-117861964D01*
X157461658Y-117621963D01*
X157461833Y-117621313D01*
X157528892Y-117371039D01*
X157529139Y-117369165D01*
X157562800Y-117113487D01*
X157562800Y-116853713D01*
X157528892Y-116596160D01*
X157500099Y-116488701D01*
X157461660Y-116345242D01*
X157461654Y-116345226D01*
X157408559Y-116217046D01*
X157362246Y-116105236D01*
X157232359Y-115880264D01*
X157118836Y-115732319D01*
X157112745Y-115709586D01*
X157118836Y-115694881D01*
X157167459Y-115631514D01*
X157232359Y-115546936D01*
X157362246Y-115321964D01*
X157461658Y-115081963D01*
X157461833Y-115081313D01*
X157517482Y-114873624D01*
X157528892Y-114831040D01*
X157562800Y-114573487D01*
X157562800Y-114313713D01*
X157528892Y-114056160D01*
X157499188Y-113945302D01*
X157461660Y-113805242D01*
X157461654Y-113805226D01*
X157362248Y-113565242D01*
X157362246Y-113565236D01*
X157232359Y-113340264D01*
X157118836Y-113192319D01*
X157112745Y-113169586D01*
X157118836Y-113154881D01*
X157134025Y-113135086D01*
X157232359Y-113006936D01*
X157362246Y-112781964D01*
X157461658Y-112541963D01*
X157461833Y-112541313D01*
X157528892Y-112291039D01*
X157551232Y-112121350D01*
X157562800Y-112033487D01*
X157562800Y-111773713D01*
X157528892Y-111516160D01*
X157499188Y-111405302D01*
X157461660Y-111265242D01*
X157461654Y-111265226D01*
X157362248Y-111025242D01*
X157362246Y-111025236D01*
X157232359Y-110800264D01*
X157118836Y-110652319D01*
X157112745Y-110629586D01*
X157118836Y-110614881D01*
X157133369Y-110595939D01*
X157232359Y-110466936D01*
X157362246Y-110241964D01*
X157461658Y-110001963D01*
X157461833Y-110001313D01*
X157528892Y-109751039D01*
X157562800Y-109493487D01*
X157562800Y-109233713D01*
X157528892Y-108976160D01*
X157499188Y-108865302D01*
X157461660Y-108725242D01*
X157461654Y-108725226D01*
X157408559Y-108597046D01*
X157362246Y-108485236D01*
X157232359Y-108260264D01*
X157118836Y-108112319D01*
X157112745Y-108089586D01*
X157118836Y-108074881D01*
X157134025Y-108055086D01*
X157232359Y-107926936D01*
X157362246Y-107701964D01*
X157461658Y-107461963D01*
X157528892Y-107211040D01*
X157562800Y-106953487D01*
X157562800Y-106693713D01*
X157528892Y-106436160D01*
X157510943Y-106369171D01*
X157461660Y-106185242D01*
X157461654Y-106185226D01*
X157362248Y-105945242D01*
X157362246Y-105945236D01*
X157232359Y-105720264D01*
X157118836Y-105572319D01*
X157112745Y-105549586D01*
X157118836Y-105534881D01*
X157154272Y-105488700D01*
X157232359Y-105386936D01*
X157362246Y-105161964D01*
X157461658Y-104921963D01*
X157528892Y-104671040D01*
X157562800Y-104413487D01*
X157562800Y-104153713D01*
X157528892Y-103896160D01*
X157461660Y-103645242D01*
X157461654Y-103645226D01*
X157362248Y-103405242D01*
X157362246Y-103405236D01*
X157232359Y-103180264D01*
X157118836Y-103032319D01*
X157112745Y-103009586D01*
X157118836Y-102994881D01*
X157133369Y-102975939D01*
X157232359Y-102846936D01*
X157362246Y-102621964D01*
X157461658Y-102381963D01*
X157466442Y-102364111D01*
X157528892Y-102131039D01*
X157541862Y-102032522D01*
X157562800Y-101873487D01*
X157562800Y-101613713D01*
X157528892Y-101356160D01*
X157505632Y-101269352D01*
X157461660Y-101105242D01*
X157461654Y-101105226D01*
X157408559Y-100977046D01*
X157362246Y-100865236D01*
X157232359Y-100640264D01*
X157118836Y-100492319D01*
X157112745Y-100469586D01*
X157118836Y-100454881D01*
X157153196Y-100410102D01*
X157232359Y-100306936D01*
X157362246Y-100081964D01*
X157461658Y-99841963D01*
X157528892Y-99591040D01*
X157562800Y-99333487D01*
X157562800Y-99073713D01*
X157528892Y-98816160D01*
X157523709Y-98796817D01*
X157461660Y-98565242D01*
X157461654Y-98565226D01*
X157397136Y-98409467D01*
X157362246Y-98325236D01*
X157232359Y-98100264D01*
X157118836Y-97952319D01*
X157112745Y-97929586D01*
X157118836Y-97914881D01*
X157133369Y-97895939D01*
X157232359Y-97766936D01*
X157362246Y-97541964D01*
X157461658Y-97301963D01*
X157528892Y-97051040D01*
X157562800Y-96793487D01*
X157562800Y-96533713D01*
X157528892Y-96276160D01*
X157461660Y-96025242D01*
X157461654Y-96025226D01*
X157362248Y-95785242D01*
X157362246Y-95785236D01*
X157232359Y-95560264D01*
X157118836Y-95412319D01*
X157112745Y-95389586D01*
X157118836Y-95374881D01*
X157133369Y-95355939D01*
X157232359Y-95226936D01*
X157362246Y-95001964D01*
X157461658Y-94761963D01*
X157528892Y-94511040D01*
X157562800Y-94253487D01*
X157562800Y-93993713D01*
X157528892Y-93736160D01*
X157461660Y-93485242D01*
X157461654Y-93485226D01*
X157362248Y-93245242D01*
X157362246Y-93245236D01*
X157232359Y-93020264D01*
X157118836Y-92872319D01*
X157112745Y-92849586D01*
X157118836Y-92834881D01*
X157133369Y-92815939D01*
X157232359Y-92686936D01*
X157362246Y-92461964D01*
X157461658Y-92221963D01*
X157528892Y-91971040D01*
X157562800Y-91713487D01*
X157562800Y-91453713D01*
X157528892Y-91196160D01*
X157461660Y-90945242D01*
X157461654Y-90945226D01*
X157362248Y-90705242D01*
X157362246Y-90705236D01*
X157232359Y-90480264D01*
X157118836Y-90332319D01*
X157112745Y-90309586D01*
X157118836Y-90294881D01*
X157133369Y-90275939D01*
X157232359Y-90146936D01*
X157362246Y-89921964D01*
X157461658Y-89681963D01*
X157528892Y-89431040D01*
X157562800Y-89173487D01*
X157562800Y-88913713D01*
X157528892Y-88656160D01*
X157461660Y-88405242D01*
X157461654Y-88405226D01*
X157362248Y-88165242D01*
X157362246Y-88165236D01*
X157232359Y-87940264D01*
X157118836Y-87792319D01*
X157112745Y-87769586D01*
X157118836Y-87754881D01*
X157133369Y-87735939D01*
X157232359Y-87606936D01*
X157362246Y-87381964D01*
X157461658Y-87141963D01*
X157528892Y-86891040D01*
X157562800Y-86633487D01*
X157562800Y-86373713D01*
X157528892Y-86116160D01*
X157461660Y-85865242D01*
X157461654Y-85865226D01*
X157362248Y-85625242D01*
X157362246Y-85625236D01*
X157232359Y-85400264D01*
X157074218Y-85194171D01*
X156890529Y-85010482D01*
X156684436Y-84852341D01*
X156684431Y-84852338D01*
X156476452Y-84732261D01*
X156462125Y-84713590D01*
X156465197Y-84690256D01*
X156466950Y-84687556D01*
X156557998Y-84562239D01*
X156558002Y-84562233D01*
X156639616Y-84402057D01*
X156639618Y-84402052D01*
X156695175Y-84231063D01*
X156723299Y-84053499D01*
X156723300Y-84053487D01*
X156723300Y-84052101D01*
X156723299Y-84052100D01*
X156075024Y-84052100D01*
X156081100Y-84029426D01*
X156081100Y-83897774D01*
X156075024Y-83875100D01*
X156723299Y-83875100D01*
X156723300Y-83875099D01*
X156723300Y-83873712D01*
X156723299Y-83873700D01*
X156695175Y-83696136D01*
X156639618Y-83525147D01*
X156639616Y-83525142D01*
X156558002Y-83364966D01*
X156557994Y-83364953D01*
X156466950Y-83239642D01*
X156461456Y-83216758D01*
X156473753Y-83196691D01*
X156476452Y-83194938D01*
X156684436Y-83074859D01*
X156890529Y-82916718D01*
X157074218Y-82733029D01*
X157232359Y-82526936D01*
X157362246Y-82301964D01*
X157461658Y-82061963D01*
X157528892Y-81811040D01*
X157562800Y-81553487D01*
X157562800Y-81293713D01*
X157528892Y-81036160D01*
X157461660Y-80785242D01*
X157461654Y-80785226D01*
X157362248Y-80545242D01*
X157362246Y-80545236D01*
X157232359Y-80320264D01*
X157074218Y-80114171D01*
X156890529Y-79930482D01*
X156684436Y-79772341D01*
X156459464Y-79642454D01*
X156459457Y-79642451D01*
X156219473Y-79543045D01*
X156219457Y-79543039D01*
X155968539Y-79475807D01*
X155770911Y-79449789D01*
X155710987Y-79441900D01*
X155451213Y-79441900D01*
X155421250Y-79445844D01*
X155193660Y-79475807D01*
X154942742Y-79543039D01*
X154942726Y-79543045D01*
X154702742Y-79642451D01*
X154702726Y-79642459D01*
X154477768Y-79772338D01*
X154271675Y-79930478D01*
X154087978Y-80114175D01*
X153929838Y-80320268D01*
X153799959Y-80545226D01*
X153799951Y-80545242D01*
X153700545Y-80785226D01*
X153700539Y-80785242D01*
X153633307Y-81036160D01*
X153599400Y-81293714D01*
X114437600Y-81293714D01*
X114437600Y-73062101D01*
X132522099Y-73062101D01*
X132522099Y-73306664D01*
X132532370Y-73358293D01*
X132532370Y-73358294D01*
X132561609Y-73402055D01*
X132561611Y-73402057D01*
X133032644Y-73873091D01*
X133032646Y-73873093D01*
X133076405Y-73902330D01*
X133128032Y-73912599D01*
X133128033Y-73912600D01*
X133372599Y-73912600D01*
X133372600Y-73912599D01*
X133372600Y-73475806D01*
X133394220Y-73481600D01*
X133527980Y-73481600D01*
X133549600Y-73475806D01*
X133549600Y-73912599D01*
X133549601Y-73912600D01*
X133794164Y-73912600D01*
X133845793Y-73902329D01*
X133845794Y-73902329D01*
X133889555Y-73873090D01*
X133889557Y-73873088D01*
X134360591Y-73402055D01*
X134360593Y-73402053D01*
X134389830Y-73358294D01*
X134400099Y-73306667D01*
X134400100Y-73306667D01*
X134400100Y-73062101D01*
X134400099Y-73062100D01*
X133963307Y-73062100D01*
X133969100Y-73040480D01*
X133969100Y-72906720D01*
X133963307Y-72885100D01*
X134400100Y-72885100D01*
X134400101Y-72885099D01*
X134400101Y-72640535D01*
X134389829Y-72588906D01*
X134389829Y-72588905D01*
X134360590Y-72545144D01*
X134360588Y-72545142D01*
X133889555Y-72074108D01*
X133889553Y-72074106D01*
X133845794Y-72044869D01*
X133794167Y-72034600D01*
X133794166Y-72034599D01*
X133549600Y-72034599D01*
X133549600Y-72471393D01*
X133527980Y-72465600D01*
X133394220Y-72465600D01*
X133372600Y-72471393D01*
X133372600Y-72034600D01*
X133372599Y-72034599D01*
X133128035Y-72034599D01*
X133076406Y-72044870D01*
X133076405Y-72044870D01*
X133032644Y-72074109D01*
X133032642Y-72074111D01*
X132561608Y-72545144D01*
X132561606Y-72545146D01*
X132532369Y-72588905D01*
X132522100Y-72640532D01*
X132522100Y-72885099D01*
X132522101Y-72885100D01*
X132958893Y-72885100D01*
X132953100Y-72906720D01*
X132953100Y-73040480D01*
X132958893Y-73062100D01*
X132522100Y-73062100D01*
X132522099Y-73062101D01*
X114437600Y-73062101D01*
X114437600Y-66222101D01*
X159522099Y-66222101D01*
X159522099Y-66466664D01*
X159532370Y-66518293D01*
X159532370Y-66518294D01*
X159561609Y-66562055D01*
X159561611Y-66562057D01*
X160032644Y-67033091D01*
X160032646Y-67033093D01*
X160076405Y-67062330D01*
X160128032Y-67072599D01*
X160128033Y-67072600D01*
X160372599Y-67072600D01*
X160372600Y-67072599D01*
X160372600Y-66635806D01*
X160394220Y-66641600D01*
X160527980Y-66641600D01*
X160549600Y-66635806D01*
X160549600Y-67072599D01*
X160549601Y-67072600D01*
X160794164Y-67072600D01*
X160845793Y-67062329D01*
X160845794Y-67062329D01*
X160889555Y-67033090D01*
X160889557Y-67033088D01*
X161360591Y-66562055D01*
X161360593Y-66562053D01*
X161389830Y-66518294D01*
X161400099Y-66466667D01*
X161400100Y-66466667D01*
X161400100Y-66222101D01*
X161400099Y-66222100D01*
X160963307Y-66222100D01*
X160969100Y-66200480D01*
X160969100Y-66066720D01*
X160963307Y-66045100D01*
X161400100Y-66045100D01*
X161400101Y-66045099D01*
X161400101Y-65800535D01*
X161389829Y-65748906D01*
X161389829Y-65748905D01*
X161360590Y-65705144D01*
X161360588Y-65705142D01*
X160889555Y-65234108D01*
X160889553Y-65234106D01*
X160845794Y-65204869D01*
X160794167Y-65194600D01*
X160794166Y-65194599D01*
X160549600Y-65194599D01*
X160549600Y-65631393D01*
X160527980Y-65625600D01*
X160394220Y-65625600D01*
X160372600Y-65631393D01*
X160372600Y-65194600D01*
X160372599Y-65194599D01*
X160128035Y-65194599D01*
X160076406Y-65204870D01*
X160076405Y-65204870D01*
X160032644Y-65234109D01*
X160032642Y-65234111D01*
X159561608Y-65705144D01*
X159561606Y-65705146D01*
X159532369Y-65748905D01*
X159522100Y-65800532D01*
X159522100Y-66045099D01*
X159522101Y-66045100D01*
X159958893Y-66045100D01*
X159953100Y-66066720D01*
X159953100Y-66200480D01*
X159958893Y-66222100D01*
X159522100Y-66222100D01*
X159522099Y-66222101D01*
X114437600Y-66222101D01*
X114437600Y-64416950D01*
X114437642Y-64415341D01*
X114452716Y-64127695D01*
X114456480Y-64055863D01*
X114456814Y-64052697D01*
X114484245Y-63879504D01*
X121424400Y-63879504D01*
X121424400Y-64127695D01*
X121463223Y-64372808D01*
X121539914Y-64608842D01*
X121539916Y-64608847D01*
X121652580Y-64829961D01*
X121652588Y-64829974D01*
X121798456Y-65030745D01*
X121798458Y-65030747D01*
X121798461Y-65030751D01*
X121973949Y-65206239D01*
X121973952Y-65206241D01*
X121973954Y-65206243D01*
X122128543Y-65318558D01*
X122174729Y-65352114D01*
X122174734Y-65352116D01*
X122174738Y-65352119D01*
X122395852Y-65464783D01*
X122395857Y-65464785D01*
X122631889Y-65541476D01*
X122814380Y-65570380D01*
X122877004Y-65580299D01*
X122877005Y-65580299D01*
X122877011Y-65580300D01*
X122877017Y-65580300D01*
X123125183Y-65580300D01*
X123125189Y-65580300D01*
X123370311Y-65541476D01*
X123606343Y-65464785D01*
X123827471Y-65352114D01*
X124028251Y-65206239D01*
X124203739Y-65030751D01*
X124349614Y-64829971D01*
X124462285Y-64608843D01*
X124538976Y-64372811D01*
X124577800Y-64127689D01*
X124577800Y-63879511D01*
X124577799Y-63879504D01*
X140924400Y-63879504D01*
X140924400Y-64127695D01*
X140963223Y-64372808D01*
X141039914Y-64608842D01*
X141039916Y-64608847D01*
X141152580Y-64829961D01*
X141152588Y-64829974D01*
X141298456Y-65030745D01*
X141298458Y-65030747D01*
X141298461Y-65030751D01*
X141473949Y-65206239D01*
X141473952Y-65206241D01*
X141473954Y-65206243D01*
X141628543Y-65318558D01*
X141674729Y-65352114D01*
X141674734Y-65352116D01*
X141674738Y-65352119D01*
X141895852Y-65464783D01*
X141895857Y-65464785D01*
X142131889Y-65541476D01*
X142314380Y-65570380D01*
X142377004Y-65580299D01*
X142377005Y-65580299D01*
X142377011Y-65580300D01*
X142377017Y-65580300D01*
X142625183Y-65580300D01*
X142625189Y-65580300D01*
X142870311Y-65541476D01*
X143106343Y-65464785D01*
X143327471Y-65352114D01*
X143528251Y-65206239D01*
X143703739Y-65030751D01*
X143849614Y-64829971D01*
X143962285Y-64608843D01*
X144038976Y-64372811D01*
X144077800Y-64127689D01*
X144077800Y-63879511D01*
X144077799Y-63879504D01*
X177924400Y-63879504D01*
X177924400Y-64127695D01*
X177963223Y-64372808D01*
X178039914Y-64608842D01*
X178039916Y-64608847D01*
X178152580Y-64829961D01*
X178152588Y-64829974D01*
X178298456Y-65030745D01*
X178298458Y-65030747D01*
X178298461Y-65030751D01*
X178473949Y-65206239D01*
X178473952Y-65206241D01*
X178473954Y-65206243D01*
X178628543Y-65318558D01*
X178674729Y-65352114D01*
X178674734Y-65352116D01*
X178674738Y-65352119D01*
X178895852Y-65464783D01*
X178895857Y-65464785D01*
X179131889Y-65541476D01*
X179314380Y-65570380D01*
X179377004Y-65580299D01*
X179377005Y-65580299D01*
X179377011Y-65580300D01*
X179377017Y-65580300D01*
X179625183Y-65580300D01*
X179625189Y-65580300D01*
X179870311Y-65541476D01*
X180106343Y-65464785D01*
X180327471Y-65352114D01*
X180528251Y-65206239D01*
X180703739Y-65030751D01*
X180849614Y-64829971D01*
X180962285Y-64608843D01*
X181038976Y-64372811D01*
X181077800Y-64127689D01*
X181077800Y-63879511D01*
X181038976Y-63634389D01*
X180962285Y-63398357D01*
X180962283Y-63398352D01*
X180849619Y-63177238D01*
X180849616Y-63177234D01*
X180849614Y-63177229D01*
X180724306Y-63004757D01*
X180703743Y-62976454D01*
X180703741Y-62976452D01*
X180703739Y-62976449D01*
X180528251Y-62800961D01*
X180528247Y-62800958D01*
X180528245Y-62800956D01*
X180327474Y-62655088D01*
X180327461Y-62655080D01*
X180106347Y-62542416D01*
X180106342Y-62542414D01*
X179870308Y-62465723D01*
X179625195Y-62426900D01*
X179625189Y-62426900D01*
X179377011Y-62426900D01*
X179377004Y-62426900D01*
X179131891Y-62465723D01*
X178895857Y-62542414D01*
X178895852Y-62542416D01*
X178674738Y-62655080D01*
X178674725Y-62655088D01*
X178473954Y-62800956D01*
X178298456Y-62976454D01*
X178152588Y-63177225D01*
X178152580Y-63177238D01*
X178039916Y-63398352D01*
X178039914Y-63398357D01*
X177963223Y-63634391D01*
X177924400Y-63879504D01*
X144077799Y-63879504D01*
X144038976Y-63634389D01*
X143962285Y-63398357D01*
X143962283Y-63398352D01*
X143849619Y-63177238D01*
X143849616Y-63177234D01*
X143849614Y-63177229D01*
X143724306Y-63004757D01*
X143703743Y-62976454D01*
X143703741Y-62976452D01*
X143703739Y-62976449D01*
X143528251Y-62800961D01*
X143528247Y-62800958D01*
X143528245Y-62800956D01*
X143327474Y-62655088D01*
X143327461Y-62655080D01*
X143106347Y-62542416D01*
X143106342Y-62542414D01*
X142870308Y-62465723D01*
X142625195Y-62426900D01*
X142625189Y-62426900D01*
X142377011Y-62426900D01*
X142377004Y-62426900D01*
X142131891Y-62465723D01*
X141895857Y-62542414D01*
X141895852Y-62542416D01*
X141674738Y-62655080D01*
X141674725Y-62655088D01*
X141473954Y-62800956D01*
X141298456Y-62976454D01*
X141152588Y-63177225D01*
X141152580Y-63177238D01*
X141039916Y-63398352D01*
X141039914Y-63398357D01*
X140963223Y-63634391D01*
X140924400Y-63879504D01*
X124577799Y-63879504D01*
X124538976Y-63634389D01*
X124462285Y-63398357D01*
X124462283Y-63398352D01*
X124349619Y-63177238D01*
X124349616Y-63177234D01*
X124349614Y-63177229D01*
X124224306Y-63004757D01*
X124203743Y-62976454D01*
X124203741Y-62976452D01*
X124203739Y-62976449D01*
X124028251Y-62800961D01*
X124028247Y-62800958D01*
X124028245Y-62800956D01*
X123827474Y-62655088D01*
X123827461Y-62655080D01*
X123606347Y-62542416D01*
X123606342Y-62542414D01*
X123370308Y-62465723D01*
X123125195Y-62426900D01*
X123125189Y-62426900D01*
X122877011Y-62426900D01*
X122877004Y-62426900D01*
X122631891Y-62465723D01*
X122395857Y-62542414D01*
X122395852Y-62542416D01*
X122174738Y-62655080D01*
X122174725Y-62655088D01*
X121973954Y-62800956D01*
X121798456Y-62976454D01*
X121652588Y-63177225D01*
X121652580Y-63177238D01*
X121539916Y-63398352D01*
X121539914Y-63398357D01*
X121463223Y-63634391D01*
X121424400Y-63879504D01*
X114484245Y-63879504D01*
X114513259Y-63696320D01*
X114513927Y-63693178D01*
X114607313Y-63344657D01*
X114608298Y-63341622D01*
X114737614Y-63004744D01*
X114738919Y-63001817D01*
X114902724Y-62680330D01*
X114904311Y-62677580D01*
X115100840Y-62374952D01*
X115102720Y-62372364D01*
X115329793Y-62091953D01*
X115331927Y-62089582D01*
X115587082Y-61834427D01*
X115589453Y-61832293D01*
X115869864Y-61605220D01*
X115872460Y-61603335D01*
X116175080Y-61406811D01*
X116177830Y-61405224D01*
X116499327Y-61241413D01*
X116502244Y-61240114D01*
X116839122Y-61110798D01*
X116842157Y-61109813D01*
X117191509Y-61016204D01*
X117196242Y-61015327D01*
X117910380Y-60940268D01*
X117913594Y-60940100D01*
X179087748Y-60940100D01*
X179089357Y-60940142D01*
G37*
%TD.AperFunction*%
%TA.AperFunction,Conductor*%
G36*
X182552569Y-82681431D02*
G01*
X182564337Y-82701813D01*
X182564600Y-82705827D01*
X182564600Y-85221371D01*
X182555594Y-85243115D01*
X182533850Y-85252121D01*
X182512106Y-85243115D01*
X182509455Y-85240091D01*
X182474222Y-85194176D01*
X182474221Y-85194175D01*
X182474218Y-85194171D01*
X182290529Y-85010482D01*
X182084436Y-84852341D01*
X182084431Y-84852338D01*
X181876452Y-84732261D01*
X181862125Y-84713590D01*
X181865197Y-84690256D01*
X181866950Y-84687556D01*
X181957998Y-84562239D01*
X181958002Y-84562233D01*
X182039616Y-84402057D01*
X182039618Y-84402052D01*
X182095175Y-84231063D01*
X182123299Y-84053499D01*
X182123300Y-84053487D01*
X182123300Y-84052101D01*
X182123299Y-84052100D01*
X181475024Y-84052100D01*
X181481100Y-84029426D01*
X181481100Y-83897774D01*
X181475024Y-83875100D01*
X182123299Y-83875100D01*
X182123300Y-83875099D01*
X182123300Y-83873712D01*
X182123299Y-83873700D01*
X182095175Y-83696136D01*
X182039618Y-83525147D01*
X182039616Y-83525142D01*
X181958002Y-83364966D01*
X181957994Y-83364953D01*
X181866950Y-83239642D01*
X181861456Y-83216758D01*
X181873753Y-83196691D01*
X181876452Y-83194938D01*
X182084436Y-83074859D01*
X182290529Y-82916718D01*
X182474218Y-82733029D01*
X182509454Y-82687107D01*
X182529836Y-82675340D01*
X182552569Y-82681431D01*
G37*
%TD.AperFunction*%
%TD*%
M02*
