%TF.GenerationSoftware,KiCad,Pcbnew,9.0.2*%
%TF.CreationDate,2025-06-17T11:42:23-05:00*%
%TF.ProjectId,board1,626f6172-6431-42e6-9b69-6361645f7063,rev?*%
%TF.SameCoordinates,Original*%
%TF.FileFunction,Soldermask,Top*%
%TF.FilePolarity,Negative*%
%FSLAX46Y46*%
G04 Gerber Fmt 4.6, Leading zero omitted, Abs format (unit mm)*
G04 Created by KiCad (PCBNEW 9.0.2) date 2025-06-17 11:42:23*
%MOMM*%
%LPD*%
G01*
G04 APERTURE LIST*
G04 Aperture macros list*
%AMFreePoly0*
4,1,25,0.375350,0.844196,0.387473,0.833842,0.833842,0.387473,0.862349,0.331525,0.863600,0.315631,0.863600,-0.315631,0.844196,-0.375350,0.833842,-0.387473,0.387473,-0.833842,0.331525,-0.862349,0.315631,-0.863600,-0.315631,-0.863600,-0.375350,-0.844196,-0.387473,-0.833842,-0.833842,-0.387473,-0.862349,-0.331525,-0.863600,-0.315631,-0.863600,0.315631,-0.844196,0.375350,-0.833842,0.387473,
-0.387473,0.833842,-0.331525,0.862349,-0.315631,0.863600,0.315631,0.863600,0.375350,0.844196,0.375350,0.844196,$1*%
%AMFreePoly1*
4,1,25,0.333266,0.742596,0.345389,0.732242,0.732242,0.345389,0.760749,0.289441,0.762000,0.273547,0.762000,-0.273547,0.742596,-0.333266,0.732242,-0.345389,0.345389,-0.732242,0.289441,-0.760749,0.273547,-0.762000,-0.273547,-0.762000,-0.333266,-0.742596,-0.345389,-0.732242,-0.732242,-0.345389,-0.760749,-0.289441,-0.762000,-0.273547,-0.762000,0.273547,-0.742596,0.333266,-0.732242,0.345389,
-0.345389,0.732242,-0.289441,0.760749,-0.273547,0.762000,0.273547,0.762000,0.333266,0.742596,0.333266,0.742596,$1*%
G04 Aperture macros list end*
%ADD10O,3.251200X1.727200*%
%ADD11FreePoly0,0.000000*%
%ADD12FreePoly1,180.000000*%
%ADD13O,5.203200X2.703200*%
%ADD14O,4.703200X2.453200*%
%ADD15O,2.453200X4.703200*%
%ADD16O,2.844800X1.524000*%
%ADD17FreePoly1,90.000000*%
%ADD18FreePoly1,270.000000*%
%ADD19C,1.879600*%
%ADD20O,4.165600X2.184400*%
%ADD21O,1.727200X3.251200*%
%ADD22C,3.302000*%
%ADD23O,1.879600X3.556000*%
G04 APERTURE END LIST*
D10*
%TO.C,REG5V0*%
X129541100Y-97543600D03*
X129541100Y-95003600D03*
X129541100Y-92463600D03*
%TD*%
%TO.C,REG9V0*%
X129541100Y-112043600D03*
X129541100Y-109503600D03*
X129541100Y-106963600D03*
%TD*%
%TO.C,I2C_OUT0*%
X127821100Y-75433600D03*
X127821100Y-77973600D03*
X127821100Y-80513600D03*
X127821100Y-83053600D03*
%TD*%
D11*
%TO.C,VMIC2*%
X179081100Y-79383600D03*
%TD*%
%TO.C,GND1*%
X130101100Y-125023600D03*
%TD*%
D12*
%TO.C,R4*%
X149511100Y-136703600D03*
X141891100Y-136703600D03*
%TD*%
D10*
%TO.C,PWR_BNK0*%
X116001100Y-81733600D03*
X116001100Y-84273600D03*
%TD*%
D13*
%TO.C,UNK12_V0*%
X120201100Y-137603600D03*
D14*
X120201100Y-143603600D03*
D15*
X124901100Y-140603600D03*
%TD*%
D12*
%TO.C,C2*%
X127871100Y-118003600D03*
X125331100Y-118003600D03*
%TD*%
D11*
%TO.C,VCC1*%
X166881100Y-67423600D03*
%TD*%
D10*
%TO.C,_0*%
X133801100Y-123853600D03*
X133801100Y-126393600D03*
X133801100Y-128933600D03*
X133801100Y-131473600D03*
X133801100Y-134013600D03*
X133801100Y-136553600D03*
X133801100Y-139093600D03*
X133801100Y-141633600D03*
%TD*%
D16*
%TO.C,PIC0*%
X180981100Y-117493600D03*
X180981100Y-114953600D03*
X180981100Y-112413600D03*
X180981100Y-109873600D03*
X180981100Y-107333600D03*
X180981100Y-104793600D03*
X180981100Y-102253600D03*
X180981100Y-99713600D03*
X180981100Y-97173600D03*
X173361100Y-97173600D03*
X173361100Y-99713600D03*
X173361100Y-102253600D03*
X173361100Y-104793600D03*
X173361100Y-107333600D03*
X173361100Y-109873600D03*
X173361100Y-112413600D03*
X173361100Y-114953600D03*
X173361100Y-117493600D03*
%TD*%
D11*
%TO.C,UNK3V32*%
X158681100Y-77663600D03*
%TD*%
D12*
%TO.C,C4*%
X130671100Y-87603600D03*
X128131100Y-87603600D03*
%TD*%
D11*
%TO.C,D0_1*%
X155101100Y-100003600D03*
%TD*%
D17*
%TO.C,R3*%
X135941100Y-85633600D03*
X135941100Y-78013600D03*
%TD*%
D11*
%TO.C,GND5*%
X128201100Y-148303600D03*
%TD*%
D10*
%TO.C,.0*%
X162241100Y-67453600D03*
X162241100Y-69993600D03*
X162241100Y-72533600D03*
X162241100Y-75073600D03*
X162241100Y-77613600D03*
X162241100Y-80153600D03*
X162241100Y-82693600D03*
X162241100Y-85233600D03*
X162241100Y-87773600D03*
X162241100Y-90313600D03*
X162241100Y-92853600D03*
X162241100Y-95393600D03*
X162241100Y-97933600D03*
X162241100Y-100473600D03*
X162241100Y-103013600D03*
X162241100Y-105553600D03*
X162241100Y-108093600D03*
X162241100Y-110633600D03*
X162241100Y-113173600D03*
X162241100Y-115713600D03*
%TD*%
D17*
%TO.C,R2*%
X139441100Y-77233600D03*
X139441100Y-69613600D03*
%TD*%
D11*
%TO.C,VCC2*%
X169761100Y-102883600D03*
%TD*%
D10*
%TO.C,V+0*%
X173001100Y-131093600D03*
X173001100Y-133633600D03*
X173001100Y-136173600D03*
X173001100Y-138713600D03*
%TD*%
D18*
%TO.C,R1*%
X181701100Y-74493600D03*
X181701100Y-82113600D03*
%TD*%
D10*
%TO.C,LORA0*%
X158801100Y-123853600D03*
X158801100Y-126393600D03*
X158801100Y-128933600D03*
X158801100Y-131473600D03*
X158801100Y-134013600D03*
X158801100Y-136553600D03*
X158801100Y-139093600D03*
X158801100Y-141633600D03*
%TD*%
D11*
%TO.C,GND2*%
X174501100Y-125703600D03*
%TD*%
D19*
%TO.C,D2*%
X115221100Y-113203600D03*
X125381100Y-113203600D03*
%TD*%
D11*
%TO.C,GND4*%
X153201100Y-74703600D03*
%TD*%
%TO.C,D0_2*%
X153101100Y-140103600D03*
%TD*%
%TO.C,VMIC1*%
X173041100Y-122383600D03*
%TD*%
D10*
%TO.C,RX0*%
X180001100Y-139093600D03*
X180001100Y-141633600D03*
X180001100Y-144173600D03*
X180001100Y-146713600D03*
%TD*%
D11*
%TO.C,UNK3V1*%
X135001100Y-147703600D03*
%TD*%
D10*
%TO.C,V_BAT0*%
X116001100Y-93733600D03*
X116001100Y-96273600D03*
%TD*%
D12*
%TO.C,C1*%
X124771100Y-107003600D03*
X122231100Y-107003600D03*
%TD*%
D10*
%TO.C,A0*%
X180001100Y-123963600D03*
X180001100Y-126503600D03*
X180001100Y-129043600D03*
%TD*%
D20*
%TO.C,V_IN0*%
X120801100Y-120174400D03*
X120801100Y-125203600D03*
%TD*%
D10*
%TO.C,TEST0*%
X133941100Y-70553600D03*
X133941100Y-73093600D03*
%TD*%
D12*
%TO.C,C3*%
X124771100Y-97503600D03*
X122231100Y-97503600D03*
%TD*%
D11*
%TO.C,UNK3V31*%
X130281100Y-128923600D03*
%TD*%
D21*
%TO.C,TMP0*%
X143861100Y-147703600D03*
X146401100Y-147703600D03*
X148941100Y-147703600D03*
%TD*%
D11*
%TO.C,GND3*%
X162601100Y-147703600D03*
%TD*%
D19*
%TO.C,D1*%
X115221100Y-132203600D03*
X125381100Y-132203600D03*
%TD*%
D21*
%TO.C,V_SEL0*%
X121541100Y-72903600D03*
X119001100Y-72903600D03*
X116461100Y-72903600D03*
%TD*%
D10*
%TO.C,BMS0*%
X116001100Y-104733600D03*
X116001100Y-107273600D03*
%TD*%
D22*
%TO.C,Q1*%
X172611100Y-88629600D03*
D23*
X175151100Y-71103600D03*
X172611100Y-71103600D03*
X170071100Y-71103600D03*
%TD*%
D10*
%TO.C,PI_PICO0*%
X144241100Y-67453600D03*
X144241100Y-69993600D03*
X144241100Y-72533600D03*
X144241100Y-75073600D03*
X144241100Y-77613600D03*
X144241100Y-80153600D03*
X144241100Y-82693600D03*
X144241100Y-85233600D03*
X144241100Y-87773600D03*
X144241100Y-90313600D03*
X144241100Y-92853600D03*
X144241100Y-95393600D03*
X144241100Y-97933600D03*
X144241100Y-100473600D03*
X144241100Y-103013600D03*
X144241100Y-105553600D03*
X144241100Y-108093600D03*
X144241100Y-110633600D03*
X144241100Y-113173600D03*
X144241100Y-115713600D03*
%TD*%
M02*
