M48
; DRILL file {KiCad 9.0.2} date 2025-06-17T11:42:30-0500
; FORMAT={-:-/ absolute / metric / decimal}
; #@! TF.CreationDate,2025-06-17T11:42:30-05:00
; #@! TF.GenerationSoftware,Kicad,Pcbnew,9.0.2
; #@! TF.FileFunction,Plated,1,2,PTH
FMAT,2
METRIC
; #@! TA.AperFunction,Plated,PTH,ComponentDrill
T1C0.813
; #@! TA.AperFunction,Plated,PTH,ComponentDrill
T2C1.000
; #@! TA.AperFunction,Plated,PTH,ComponentDrill
T3C1.016
; #@! TA.AperFunction,Plated,PTH,ComponentDrill
T4C1.118
; #@! TA.AperFunction,Plated,PTH,ComponentDrill
T5C1.321
%
G90
G05
T1
X122.231Y-97.504
X122.231Y-107.004
X124.771Y-97.504
X124.771Y-107.004
X125.331Y-118.004
X127.871Y-118.004
X128.131Y-87.604
X130.671Y-87.604
X135.941Y-78.014
X135.941Y-85.634
X139.441Y-69.614
X139.441Y-77.234
X141.891Y-136.704
X149.511Y-136.704
X173.361Y-97.174
X173.361Y-99.714
X173.361Y-102.254
X173.361Y-104.794
X173.361Y-107.334
X173.361Y-109.874
X173.361Y-112.414
X173.361Y-114.954
X173.361Y-117.494
X180.981Y-97.174
X180.981Y-99.714
X180.981Y-102.254
X180.981Y-104.794
X180.981Y-107.334
X180.981Y-109.874
X180.981Y-112.414
X180.981Y-114.954
X180.981Y-117.494
X181.701Y-74.494
X181.701Y-82.114
T2
X120.201Y-137.604
X120.201Y-143.604
X124.901Y-140.604
T3
X116.001Y-81.734
X116.001Y-84.274
X116.001Y-93.734
X116.001Y-96.274
X116.001Y-104.734
X116.001Y-107.274
X116.461Y-72.904
X119.001Y-72.904
X121.541Y-72.904
X127.821Y-75.434
X127.821Y-77.974
X127.821Y-80.514
X127.821Y-83.054
X128.201Y-148.304
X129.541Y-92.464
X129.541Y-95.004
X129.541Y-97.544
X129.541Y-106.964
X129.541Y-109.504
X129.541Y-112.044
X130.101Y-125.024
X130.281Y-128.924
X133.801Y-123.854
X133.801Y-126.394
X133.801Y-128.934
X133.801Y-131.474
X133.801Y-134.014
X133.801Y-136.554
X133.801Y-139.094
X133.801Y-141.634
X133.941Y-70.554
X133.941Y-73.094
X135.001Y-147.704
X143.861Y-147.704
X144.241Y-67.454
X144.241Y-69.994
X144.241Y-72.534
X144.241Y-75.074
X144.241Y-77.614
X144.241Y-80.154
X144.241Y-82.694
X144.241Y-85.234
X144.241Y-87.774
X144.241Y-90.314
X144.241Y-92.854
X144.241Y-95.394
X144.241Y-97.934
X144.241Y-100.474
X144.241Y-103.014
X144.241Y-105.554
X144.241Y-108.094
X144.241Y-110.634
X144.241Y-113.174
X144.241Y-115.714
X146.401Y-147.704
X148.941Y-147.704
X153.101Y-140.104
X153.201Y-74.704
X155.101Y-100.004
X158.681Y-77.664
X158.801Y-123.854
X158.801Y-126.394
X158.801Y-128.934
X158.801Y-131.474
X158.801Y-134.014
X158.801Y-136.554
X158.801Y-139.094
X158.801Y-141.634
X162.241Y-67.454
X162.241Y-69.994
X162.241Y-72.534
X162.241Y-75.074
X162.241Y-77.614
X162.241Y-80.154
X162.241Y-82.694
X162.241Y-85.234
X162.241Y-87.774
X162.241Y-90.314
X162.241Y-92.854
X162.241Y-95.394
X162.241Y-97.934
X162.241Y-100.474
X162.241Y-103.014
X162.241Y-105.554
X162.241Y-108.094
X162.241Y-110.634
X162.241Y-113.174
X162.241Y-115.714
X162.601Y-147.704
X166.881Y-67.424
X169.761Y-102.884
X173.001Y-131.094
X173.001Y-133.634
X173.001Y-136.174
X173.001Y-138.714
X173.041Y-122.384
X174.501Y-125.704
X179.081Y-79.384
X180.001Y-123.964
X180.001Y-126.504
X180.001Y-129.044
X180.001Y-139.094
X180.001Y-141.634
X180.001Y-144.174
X180.001Y-146.714
T4
X115.221Y-113.204
X115.221Y-132.204
X125.381Y-113.204
X125.381Y-132.204
X170.071Y-71.104
X172.611Y-71.104
X175.151Y-71.104
T5
X120.801Y-120.174
X120.801Y-125.204
M30
