%TF.GenerationSoftware,KiCad,Pcbnew,9.0.2*%
%TF.CreationDate,2025-06-17T11:42:23-05:00*%
%TF.ProjectId,board1,626f6172-6431-42e6-9b69-6361645f7063,rev?*%
%TF.SameCoordinates,Original*%
%TF.FileFunction,Copper,L2,Bot*%
%TF.FilePolarity,Positive*%
%FSLAX46Y46*%
G04 Gerber Fmt 4.6, Leading zero omitted, Abs format (unit mm)*
G04 Created by KiCad (PCBNEW 9.0.2) date 2025-06-17 11:42:23*
%MOMM*%
%LPD*%
G01*
G04 APERTURE LIST*
G04 Aperture macros list*
%AMOutline5P*
0 Free polygon, 5 corners , with rotation*
0 The origin of the aperture is its center*
0 number of corners: always 5*
0 $1 to $10 corner X, Y*
0 $11 Rotation angle, in degrees counterclockwise*
0 create outline with 5 corners*
4,1,5,$1,$2,$3,$4,$5,$6,$7,$8,$9,$10,$1,$2,$11*%
%AMOutline6P*
0 Free polygon, 6 corners , with rotation*
0 The origin of the aperture is its center*
0 number of corners: always 6*
0 $1 to $12 corner X, Y*
0 $13 Rotation angle, in degrees counterclockwise*
0 create outline with 6 corners*
4,1,6,$1,$2,$3,$4,$5,$6,$7,$8,$9,$10,$11,$12,$1,$2,$13*%
%AMOutline7P*
0 Free polygon, 7 corners , with rotation*
0 The origin of the aperture is its center*
0 number of corners: always 7*
0 $1 to $14 corner X, Y*
0 $15 Rotation angle, in degrees counterclockwise*
0 create outline with 7 corners*
4,1,7,$1,$2,$3,$4,$5,$6,$7,$8,$9,$10,$11,$12,$13,$14,$1,$2,$15*%
%AMOutline8P*
0 Free polygon, 8 corners , with rotation*
0 The origin of the aperture is its center*
0 number of corners: always 8*
0 $1 to $16 corner X, Y*
0 $17 Rotation angle, in degrees counterclockwise*
0 create outline with 8 corners*
4,1,8,$1,$2,$3,$4,$5,$6,$7,$8,$9,$10,$11,$12,$13,$14,$15,$16,$1,$2,$17*%
G04 Aperture macros list end*
%TA.AperFunction,ComponentPad*%
%ADD10O,3.048000X1.524000*%
%TD*%
%TA.AperFunction,ComponentPad*%
%ADD11Outline8P,-0.762000X0.315631X-0.315631X0.762000X0.315631X0.762000X0.762000X0.315631X0.762000X-0.315631X0.315631X-0.762000X-0.315631X-0.762000X-0.762000X-0.315631X0.000000*%
%TD*%
%TA.AperFunction,ComponentPad*%
%ADD12Outline8P,-0.660400X0.273547X-0.273547X0.660400X0.273547X0.660400X0.660400X0.273547X0.660400X-0.273547X0.273547X-0.660400X-0.273547X-0.660400X-0.660400X-0.273547X180.000000*%
%TD*%
%TA.AperFunction,ComponentPad*%
%ADD13O,5.000000X2.500000*%
%TD*%
%TA.AperFunction,ComponentPad*%
%ADD14O,4.500000X2.250000*%
%TD*%
%TA.AperFunction,ComponentPad*%
%ADD15O,2.250000X4.500000*%
%TD*%
%TA.AperFunction,ComponentPad*%
%ADD16O,2.641600X1.320800*%
%TD*%
%TA.AperFunction,ComponentPad*%
%ADD17Outline8P,-0.660400X0.273547X-0.273547X0.660400X0.273547X0.660400X0.660400X0.273547X0.660400X-0.273547X0.273547X-0.660400X-0.273547X-0.660400X-0.660400X-0.273547X90.000000*%
%TD*%
%TA.AperFunction,ComponentPad*%
%ADD18Outline8P,-0.660400X0.273547X-0.273547X0.660400X0.273547X0.660400X0.660400X0.273547X0.660400X-0.273547X0.273547X-0.660400X-0.273547X-0.660400X-0.660400X-0.273547X270.000000*%
%TD*%
%TA.AperFunction,ComponentPad*%
%ADD19C,1.676400*%
%TD*%
%TA.AperFunction,ComponentPad*%
%ADD20O,3.962400X1.981200*%
%TD*%
%TA.AperFunction,ComponentPad*%
%ADD21O,1.524000X3.048000*%
%TD*%
%TA.AperFunction,ComponentPad*%
%ADD22O,1.676400X3.352800*%
%TD*%
%TA.AperFunction,Conductor*%
%ADD23C,0.609600*%
%TD*%
%TA.AperFunction,Conductor*%
%ADD24C,1.270000*%
%TD*%
G04 APERTURE END LIST*
D10*
%TO.P,REG5V0,1*%
%TO.N,VBAT*%
X129541100Y-97543600D03*
%TO.P,REG5V0,2*%
%TO.N,GND*%
X129541100Y-95003600D03*
%TO.P,REG5V0,3*%
%TO.N,V_REG*%
X129541100Y-92463600D03*
%TD*%
%TO.P,REG9V0,1*%
%TO.N,V_IN*%
X129541100Y-112043600D03*
%TO.P,REG9V0,2*%
%TO.N,GND*%
X129541100Y-109503600D03*
%TO.P,REG9V0,3*%
%TO.N,V_9V*%
X129541100Y-106963600D03*
%TD*%
%TO.P,I2C_OUT0,1*%
%TO.N,VCC*%
X127821100Y-75433600D03*
%TO.P,I2C_OUT0,2*%
%TO.N,GND*%
X127821100Y-77973600D03*
%TO.P,I2C_OUT0,3*%
%TO.N,SDA_OUT*%
X127821100Y-80513600D03*
%TO.P,I2C_OUT0,4*%
%TO.N,SCL_OUT*%
X127821100Y-83053600D03*
%TD*%
D11*
%TO.P,VMIC2,1*%
%TO.N,VMIC*%
X179081100Y-79383600D03*
%TD*%
%TO.P,GND1,1*%
%TO.N,GND*%
X130101100Y-125023600D03*
%TD*%
D12*
%TO.P,R4,1*%
%TO.N,D0*%
X149511100Y-136703600D03*
%TO.P,R4,2*%
%TO.N,3V3*%
X141891100Y-136703600D03*
%TD*%
D10*
%TO.P,PWR_BNK0,1*%
%TO.N,V_PWR*%
X116001100Y-81733600D03*
%TO.P,PWR_BNK0,2*%
%TO.N,GND*%
X116001100Y-84273600D03*
%TD*%
D13*
%TO.P,UNK12_V0,1*%
%TO.N,N$3*%
X120201100Y-137603600D03*
D14*
%TO.P,UNK12_V0,2*%
%TO.N,GND*%
X120201100Y-143603600D03*
D15*
%TO.P,UNK12_V0,3*%
X124901100Y-140603600D03*
%TD*%
D12*
%TO.P,C2,1*%
%TO.N,V_IN*%
X127871100Y-118003600D03*
%TO.P,C2,2*%
%TO.N,GND*%
X125331100Y-118003600D03*
%TD*%
D11*
%TO.P,VCC1,1*%
%TO.N,VCC*%
X166881100Y-67423600D03*
%TD*%
D10*
%TO.P,_0,1*%
%TO.N,GND*%
X133801100Y-123853600D03*
%TO.P,_0,2*%
X133801100Y-126393600D03*
%TO.P,_0,3*%
%TO.N,3V3*%
X133801100Y-128933600D03*
%TO.P,_0,4*%
%TO.N,DRST*%
X133801100Y-131473600D03*
%TO.P,_0,5*%
%TO.N,DIO0*%
X133801100Y-134013600D03*
%TO.P,_0,6*%
%TO.N,N/C*%
X133801100Y-136553600D03*
%TO.P,_0,7*%
X133801100Y-139093600D03*
%TO.P,_0,8*%
X133801100Y-141633600D03*
%TD*%
D16*
%TO.P,PIC0,1*%
%TO.N,N/C*%
X180981100Y-117493600D03*
%TO.P,PIC0,2*%
X180981100Y-114953600D03*
%TO.P,PIC0,3*%
X180981100Y-112413600D03*
%TO.P,PIC0,4*%
X180981100Y-109873600D03*
%TO.P,PIC0,5*%
%TO.N,GND*%
X180981100Y-107333600D03*
%TO.P,PIC0,6*%
%TO.N,TRIGGER*%
X180981100Y-104793600D03*
%TO.P,PIC0,7*%
%TO.N,N/C*%
X180981100Y-102253600D03*
%TO.P,PIC0,8*%
X180981100Y-99713600D03*
%TO.P,PIC0,9*%
X180981100Y-97173600D03*
%TO.P,PIC0,10*%
X173361100Y-97173600D03*
%TO.P,PIC0,11*%
X173361100Y-99713600D03*
%TO.P,PIC0,12*%
X173361100Y-102253600D03*
%TO.P,PIC0,13*%
X173361100Y-104793600D03*
%TO.P,PIC0,14*%
%TO.N,VCC*%
X173361100Y-107333600D03*
%TO.P,PIC0,15*%
%TO.N,N/C*%
X173361100Y-109873600D03*
%TO.P,PIC0,16*%
%TO.N,ACK*%
X173361100Y-112413600D03*
%TO.P,PIC0,17*%
%TO.N,N/C*%
X173361100Y-114953600D03*
%TO.P,PIC0,18*%
X173361100Y-117493600D03*
%TD*%
D11*
%TO.P,UNK3V32,1*%
%TO.N,3V3*%
X158681100Y-77663600D03*
%TD*%
D12*
%TO.P,C4,1*%
%TO.N,V_REG*%
X130671100Y-87603600D03*
%TO.P,C4,2*%
%TO.N,GND*%
X128131100Y-87603600D03*
%TD*%
D11*
%TO.P,D0_1,1*%
%TO.N,D0*%
X155101100Y-100003600D03*
%TD*%
D17*
%TO.P,R3,1*%
%TO.N,SCL_OUT*%
X135941100Y-85633600D03*
%TO.P,R3,2*%
%TO.N,VCC2*%
X135941100Y-78013600D03*
%TD*%
D11*
%TO.P,GND5,1*%
%TO.N,GND*%
X128201100Y-148303600D03*
%TD*%
D10*
%TO.P,.0,1*%
%TO.N,N/C*%
X162241100Y-67453600D03*
%TO.P,.0,2*%
%TO.N,VMIC*%
X162241100Y-69993600D03*
%TO.P,.0,3*%
%TO.N,GND*%
X162241100Y-72533600D03*
%TO.P,.0,4*%
%TO.N,N/C*%
X162241100Y-75073600D03*
%TO.P,.0,5*%
%TO.N,3V3*%
X162241100Y-77613600D03*
%TO.P,.0,6*%
%TO.N,N/C*%
X162241100Y-80153600D03*
%TO.P,.0,7*%
%TO.N,ACK*%
X162241100Y-82693600D03*
%TO.P,.0,8*%
%TO.N,N/C*%
X162241100Y-85233600D03*
%TO.P,.0,9*%
X162241100Y-87773600D03*
%TO.P,.0,10*%
%TO.N,A0*%
X162241100Y-90313600D03*
%TO.P,.0,11*%
%TO.N,N/C*%
X162241100Y-92853600D03*
%TO.P,.0,12*%
%TO.N,D0*%
X162241100Y-95393600D03*
%TO.P,.0,13*%
%TO.N,N/C*%
X162241100Y-97933600D03*
%TO.P,.0,14*%
X162241100Y-100473600D03*
%TO.P,.0,15*%
X162241100Y-103013600D03*
%TO.P,.0,16*%
%TO.N,SCL*%
X162241100Y-105553600D03*
%TO.P,.0,17*%
%TO.N,SDA*%
X162241100Y-108093600D03*
%TO.P,.0,18*%
%TO.N,N/C*%
X162241100Y-110633600D03*
%TO.P,.0,19*%
%TO.N,RX*%
X162241100Y-113173600D03*
%TO.P,.0,20*%
%TO.N,TX*%
X162241100Y-115713600D03*
%TD*%
D17*
%TO.P,R2,1*%
%TO.N,SDA_OUT*%
X139441100Y-77233600D03*
%TO.P,R2,2*%
%TO.N,VCC2*%
X139441100Y-69613600D03*
%TD*%
D11*
%TO.P,VCC2,1*%
%TO.N,VCC*%
X169761100Y-102883600D03*
%TD*%
D10*
%TO.P,V+0,1*%
%TO.N,VMIC*%
X173001100Y-131093600D03*
%TO.P,V+0,2*%
%TO.N,GND*%
X173001100Y-133633600D03*
%TO.P,V+0,3*%
%TO.N,SCL*%
X173001100Y-136173600D03*
%TO.P,V+0,4*%
%TO.N,SDA*%
X173001100Y-138713600D03*
%TD*%
D18*
%TO.P,R1,1*%
%TO.N,N$4*%
X181701100Y-74493600D03*
%TO.P,R1,2*%
%TO.N,TRIGGER*%
X181701100Y-82113600D03*
%TD*%
D10*
%TO.P,LORA0,1*%
%TO.N,N/C*%
X158801100Y-123853600D03*
%TO.P,LORA0,2*%
%TO.N,DCS*%
X158801100Y-126393600D03*
%TO.P,LORA0,3*%
%TO.N,DMOSI*%
X158801100Y-128933600D03*
%TO.P,LORA0,4*%
%TO.N,DMISO*%
X158801100Y-131473600D03*
%TO.P,LORA0,5*%
%TO.N,DSCK*%
X158801100Y-134013600D03*
%TO.P,LORA0,6*%
%TO.N,N$10*%
X158801100Y-136553600D03*
%TO.P,LORA0,7*%
%TO.N,N$11*%
X158801100Y-139093600D03*
%TO.P,LORA0,8*%
%TO.N,GND*%
X158801100Y-141633600D03*
%TD*%
D11*
%TO.P,GND2,1*%
%TO.N,GND*%
X174501100Y-125703600D03*
%TD*%
D19*
%TO.P,D2,A*%
%TO.N,N$5*%
X115221100Y-113203600D03*
%TO.P,D2,C*%
%TO.N,V_IN*%
X125381100Y-113203600D03*
%TD*%
D11*
%TO.P,GND4,1*%
%TO.N,GND*%
X153201100Y-74703600D03*
%TD*%
%TO.P,D0_2,1*%
%TO.N,D0*%
X153101100Y-140103600D03*
%TD*%
%TO.P,VMIC1,1*%
%TO.N,VMIC*%
X173041100Y-122383600D03*
%TD*%
D10*
%TO.P,RX0,1*%
%TO.N,VMIC*%
X180001100Y-139093600D03*
%TO.P,RX0,2*%
%TO.N,GND*%
X180001100Y-141633600D03*
%TO.P,RX0,3*%
%TO.N,RX*%
X180001100Y-144173600D03*
%TO.P,RX0,4*%
%TO.N,TX*%
X180001100Y-146713600D03*
%TD*%
D11*
%TO.P,UNK3V1,1*%
%TO.N,3V3*%
X135001100Y-147703600D03*
%TD*%
D10*
%TO.P,V_BAT0,1*%
%TO.N,VBAT*%
X116001100Y-93733600D03*
%TO.P,V_BAT0,2*%
%TO.N,GND*%
X116001100Y-96273600D03*
%TD*%
D12*
%TO.P,C1,1*%
%TO.N,V_9V*%
X124771100Y-107003600D03*
%TO.P,C1,2*%
%TO.N,GND*%
X122231100Y-107003600D03*
%TD*%
D10*
%TO.P,A0,1*%
%TO.N,VMIC*%
X180001100Y-123963600D03*
%TO.P,A0,2*%
%TO.N,GND*%
X180001100Y-126503600D03*
%TO.P,A0,3*%
%TO.N,A0*%
X180001100Y-129043600D03*
%TD*%
D20*
%TO.P,V_IN0,1*%
%TO.N,N$5*%
X120801100Y-120174400D03*
%TO.P,V_IN0,2*%
%TO.N,GND*%
X120801100Y-125203600D03*
%TD*%
D10*
%TO.P,TEST0,1*%
%TO.N,VCC*%
X133941100Y-70553600D03*
%TO.P,TEST0,2*%
%TO.N,VCC2*%
X133941100Y-73093600D03*
%TD*%
D12*
%TO.P,C3,1*%
%TO.N,VBAT*%
X124771100Y-97503600D03*
%TO.P,C3,2*%
%TO.N,GND*%
X122231100Y-97503600D03*
%TD*%
D11*
%TO.P,UNK3V31,1*%
%TO.N,3V3*%
X130281100Y-128923600D03*
%TD*%
D21*
%TO.P,TMP0,1*%
%TO.N,3V3*%
X143861100Y-147703600D03*
%TO.P,TMP0,2*%
%TO.N,D0*%
X146401100Y-147703600D03*
%TO.P,TMP0,3*%
%TO.N,GND*%
X148941100Y-147703600D03*
%TD*%
D11*
%TO.P,GND3,1*%
%TO.N,GND*%
X162601100Y-147703600D03*
%TD*%
D19*
%TO.P,D1,A*%
%TO.N,N$3*%
X115221100Y-132203600D03*
%TO.P,D1,C*%
%TO.N,V_IN*%
X125381100Y-132203600D03*
%TD*%
D21*
%TO.P,V_SEL0,1*%
%TO.N,V_REG*%
X121541100Y-72903600D03*
%TO.P,V_SEL0,2*%
%TO.N,VCC*%
X119001100Y-72903600D03*
%TO.P,V_SEL0,3*%
%TO.N,V_PWR*%
X116461100Y-72903600D03*
%TD*%
D10*
%TO.P,BMS0,1*%
%TO.N,V_9V*%
X116001100Y-104733600D03*
%TO.P,BMS0,2*%
%TO.N,GND*%
X116001100Y-107273600D03*
%TD*%
D22*
%TO.P,Q1,1*%
%TO.N,N$4*%
X175151100Y-71103600D03*
%TO.P,Q1,2*%
%TO.N,VMIC*%
X172611100Y-71103600D03*
%TO.P,Q1,3*%
%TO.N,VCC*%
X170071100Y-71103600D03*
%TD*%
D10*
%TO.P,PI_PICO0,1*%
%TO.N,N/C*%
X144241100Y-67453600D03*
%TO.P,PI_PICO0,2*%
X144241100Y-69993600D03*
%TO.P,PI_PICO0,3*%
X144241100Y-72533600D03*
%TO.P,PI_PICO0,4*%
X144241100Y-75073600D03*
%TO.P,PI_PICO0,5*%
X144241100Y-77613600D03*
%TO.P,PI_PICO0,6*%
%TO.N,SDA_OUT*%
X144241100Y-80153600D03*
%TO.P,PI_PICO0,7*%
%TO.N,SCL_OUT*%
X144241100Y-82693600D03*
%TO.P,PI_PICO0,8*%
%TO.N,GND*%
X144241100Y-85233600D03*
%TO.P,PI_PICO0,9*%
%TO.N,N/C*%
X144241100Y-87773600D03*
%TO.P,PI_PICO0,10*%
X144241100Y-90313600D03*
%TO.P,PI_PICO0,11*%
%TO.N,DIO0*%
X144241100Y-92853600D03*
%TO.P,PI_PICO0,12*%
%TO.N,DRST*%
X144241100Y-95393600D03*
%TO.P,PI_PICO0,13*%
%TO.N,N/C*%
X144241100Y-97933600D03*
%TO.P,PI_PICO0,14*%
%TO.N,DSCK*%
X144241100Y-100473600D03*
%TO.P,PI_PICO0,15*%
%TO.N,DMOSI*%
X144241100Y-103013600D03*
%TO.P,PI_PICO0,16*%
%TO.N,DMISO*%
X144241100Y-105553600D03*
%TO.P,PI_PICO0,17*%
%TO.N,DCS*%
X144241100Y-108093600D03*
%TO.P,PI_PICO0,18*%
%TO.N,N/C*%
X144241100Y-110633600D03*
%TO.P,PI_PICO0,19*%
X144241100Y-113173600D03*
%TO.P,PI_PICO0,20*%
X144241100Y-115713600D03*
%TD*%
D23*
%TO.N,SCL_OUT*%
X135941100Y-84463600D02*
X135941100Y-85633600D01*
X144241100Y-82693600D02*
X144191100Y-82743600D01*
X135941100Y-84743600D02*
X135941100Y-85633600D01*
X127821100Y-83053600D02*
X134251100Y-83053600D01*
X136651100Y-83753600D02*
X135941100Y-84463600D01*
X144191100Y-82743600D02*
X137661100Y-82743600D01*
X134251100Y-83053600D02*
X135941100Y-84743600D01*
X137661100Y-82743600D02*
X136651100Y-83753600D01*
%TO.N,SDA_OUT*%
X137811100Y-80513600D02*
X139441100Y-78883600D01*
X127821100Y-80513600D02*
X137811100Y-80513600D01*
X139441100Y-78883600D02*
X139441100Y-77233600D01*
X140711100Y-80153600D02*
X139441100Y-78883600D01*
X144241100Y-80153600D02*
X140711100Y-80153600D01*
D24*
%TO.N,VCC*%
X166881100Y-67423600D02*
X168731100Y-65573600D01*
X168731100Y-65573600D02*
X169051100Y-65573600D01*
X171231100Y-107333600D02*
X169761100Y-105863600D01*
X169761100Y-105863600D02*
X169761100Y-102883600D01*
X119001100Y-72903600D02*
X119128100Y-72776600D01*
X119128100Y-71142100D02*
X121466600Y-68803600D01*
X119128100Y-72776600D02*
X119128100Y-71142100D01*
X129551100Y-68803600D02*
X131301100Y-70553600D01*
X169051100Y-65573600D02*
X170071100Y-66593600D01*
X133941100Y-70553600D02*
X133941100Y-67003600D01*
X127821100Y-75433600D02*
X127821100Y-73343600D01*
X167001100Y-63523600D02*
X169051100Y-65573600D01*
X133941100Y-67003600D02*
X137421100Y-63523600D01*
X131301100Y-70553600D02*
X133941100Y-70553600D01*
X130611100Y-70553600D02*
X131301100Y-70553600D01*
X127821100Y-73343600D02*
X130611100Y-70553600D01*
X173361100Y-107333600D02*
X171231100Y-107333600D01*
X121466600Y-68803600D02*
X129551100Y-68803600D01*
X170071100Y-66593600D02*
X170071100Y-71103600D01*
X137421100Y-63523600D02*
X167001100Y-63523600D01*
%TO.N,VMIC*%
X183010100Y-133663600D02*
X183350100Y-134003600D01*
X162241100Y-69993600D02*
X164671100Y-69993600D01*
X180001100Y-123963600D02*
X180128100Y-124090600D01*
X164671100Y-69993600D02*
X166661100Y-71983600D01*
X172611100Y-76013600D02*
X172611100Y-73213600D01*
X167401100Y-75683600D02*
X170141100Y-75683600D01*
X170141100Y-75683600D02*
X172611100Y-73213600D01*
X178501100Y-122463600D02*
X173121100Y-122463600D01*
X178501100Y-122463600D02*
X180001100Y-123963600D01*
X180128100Y-124090600D02*
X181762600Y-124090600D01*
X172611100Y-72913600D02*
X172611100Y-71103600D01*
X172611100Y-73213600D02*
X172611100Y-72913600D01*
X179081100Y-79383600D02*
X175981100Y-79383600D01*
X166661100Y-74943600D02*
X167401100Y-75683600D01*
X176242600Y-131220600D02*
X178685600Y-133663600D01*
X175981100Y-79383600D02*
X172611100Y-76013600D01*
X181762600Y-124090600D02*
X183350100Y-125678100D01*
X173128100Y-131220600D02*
X176242600Y-131220600D01*
X166661100Y-71983600D02*
X166661100Y-74943600D01*
X183350100Y-125678100D02*
X183350100Y-134003600D01*
X183350100Y-137383600D02*
X181640100Y-139093600D01*
X178685600Y-133663600D02*
X183010100Y-133663600D01*
X173041100Y-122383600D02*
X173121100Y-122463600D01*
X183350100Y-134003600D02*
X183350100Y-137383600D01*
X181640100Y-139093600D02*
X180001100Y-139093600D01*
X173001100Y-131093600D02*
X173128100Y-131220600D01*
D23*
%TO.N,N$4*%
X181701100Y-73183600D02*
X181701100Y-74493600D01*
X175151100Y-71103600D02*
X179621100Y-71103600D01*
X179621100Y-71103600D02*
X181701100Y-73183600D01*
%TO.N,TRIGGER*%
X179481100Y-104793600D02*
X178180300Y-103492800D01*
X181701100Y-87082800D02*
X181701100Y-82113600D01*
X178180300Y-90603600D02*
X181701100Y-87082800D01*
X180981100Y-104793600D02*
X179481100Y-104793600D01*
X178180300Y-90603600D02*
X178180300Y-103492800D01*
%TO.N,ACK*%
X166901100Y-93563600D02*
X167841100Y-94503600D01*
X166901100Y-86186075D02*
X166901100Y-93563600D01*
X174153343Y-94503600D02*
X176081100Y-96431357D01*
X176081100Y-96431357D02*
X176081100Y-111183600D01*
X167841100Y-94503600D02*
X174153343Y-94503600D01*
X162698300Y-83150800D02*
X163865825Y-83150800D01*
X176081100Y-111183600D02*
X174851100Y-112413600D01*
X174851100Y-112413600D02*
X173361100Y-112413600D01*
X163865825Y-83150800D02*
X166901100Y-86186075D01*
X162241100Y-82693600D02*
X162698300Y-83150800D01*
%TO.N,DCS*%
X147085900Y-123948400D02*
X149531100Y-126393600D01*
X147085900Y-109770875D02*
X147085900Y-123948400D01*
X144241100Y-108093600D02*
X144698300Y-108550800D01*
X144698300Y-108550800D02*
X145865825Y-108550800D01*
X145865825Y-108550800D02*
X147085900Y-109770875D01*
X149531100Y-126393600D02*
X158801100Y-126393600D01*
%TO.N,DMOSI*%
X140701100Y-105386075D02*
X140701100Y-125403600D01*
X140701100Y-125403600D02*
X144231100Y-128933600D01*
X144231100Y-128933600D02*
X158801100Y-128933600D01*
X142616375Y-103470800D02*
X140701100Y-105386075D01*
X144241100Y-103013600D02*
X143783900Y-103470800D01*
X143783900Y-103470800D02*
X142616375Y-103470800D01*
%TO.N,DMISO*%
X153188300Y-121770800D02*
X160425825Y-121770800D01*
X144698300Y-106010800D02*
X145865825Y-106010800D01*
X145865825Y-106010800D02*
X149141100Y-109286075D01*
X149141100Y-109286075D02*
X149141100Y-117723600D01*
X161645900Y-122990875D02*
X161645900Y-129796325D01*
X161645900Y-129796325D02*
X159968625Y-131473600D01*
X160425825Y-121770800D02*
X161645900Y-122990875D01*
X144241100Y-105553600D02*
X144698300Y-106010800D01*
X159968625Y-131473600D02*
X158801100Y-131473600D01*
X149141100Y-117723600D02*
X153188300Y-121770800D01*
%TO.N,DSCK*%
X143783900Y-100930800D02*
X142616375Y-100930800D01*
X142616375Y-100930800D02*
X138701100Y-104846075D01*
X144731100Y-134013600D02*
X158801100Y-134013600D01*
X138701100Y-104846075D02*
X138701100Y-127983600D01*
X144241100Y-100473600D02*
X143783900Y-100930800D01*
X138701100Y-127983600D02*
X144731100Y-134013600D01*
%TO.N,3V3*%
X133791100Y-128923600D02*
X133801100Y-128933600D01*
X162241100Y-77613600D02*
X162191100Y-77663600D01*
X130281100Y-128923600D02*
X133791100Y-128923600D01*
X140301100Y-146003600D02*
X142001100Y-147703600D01*
X140301100Y-138293600D02*
X140301100Y-145703600D01*
X140301100Y-145703600D02*
X140301100Y-146003600D01*
X141891100Y-136703600D02*
X140301100Y-138293600D01*
X135001100Y-147703600D02*
X137001100Y-145703600D01*
X137001100Y-145703600D02*
X140301100Y-145703600D01*
X142001100Y-147703600D02*
X143861100Y-147703600D01*
X162191100Y-77663600D02*
X158681100Y-77663600D01*
%TO.N,DRST*%
X144241100Y-95393600D02*
X143783900Y-95850800D01*
X135231100Y-131473600D02*
X133801100Y-131473600D01*
X143783900Y-95850800D02*
X142616375Y-95850800D01*
X136961100Y-101506075D02*
X136961100Y-129743600D01*
X142616375Y-95850800D02*
X136961100Y-101506075D01*
X136961100Y-129743600D02*
X135231100Y-131473600D01*
%TO.N,DIO0*%
X134981100Y-115743600D02*
X127601100Y-123123600D01*
X127601100Y-123123600D02*
X127601100Y-130223600D01*
X134981100Y-98663600D02*
X134981100Y-115743600D01*
X127601100Y-130223600D02*
X131391100Y-134013600D01*
X140791100Y-92853600D02*
X134981100Y-98663600D01*
X144241100Y-92853600D02*
X140791100Y-92853600D01*
X131391100Y-134013600D02*
X133801100Y-134013600D01*
%TO.N,RX*%
X165105900Y-141068400D02*
X168211100Y-144173600D01*
X164005825Y-113630800D02*
X165105900Y-114730875D01*
X162698300Y-113630800D02*
X164005825Y-113630800D01*
X168211100Y-144173600D02*
X180001100Y-144173600D01*
X162241100Y-113173600D02*
X162698300Y-113630800D01*
X165105900Y-114730875D02*
X165105900Y-141068400D01*
%TO.N,TX*%
X180001100Y-146713600D02*
X179891100Y-146703600D01*
X163271500Y-144294000D02*
X165681100Y-146703600D01*
X162241100Y-115713600D02*
X162241100Y-121287125D01*
X162241100Y-121287125D02*
X163271500Y-122317525D01*
X163271500Y-122317525D02*
X163271500Y-144294000D01*
X179891100Y-146703600D02*
X165681100Y-146703600D01*
%TO.N,SCL*%
X162698300Y-106010800D02*
X163865825Y-106010800D01*
X163865825Y-106010800D02*
X168961100Y-111106075D01*
X168961100Y-111106075D02*
X168961100Y-133343600D01*
X168961100Y-133343600D02*
X171791100Y-136173600D01*
X171791100Y-136173600D02*
X173001100Y-136173600D01*
X162241100Y-105553600D02*
X162698300Y-106010800D01*
%TO.N,SDA*%
X163865825Y-108550800D02*
X167221100Y-111906075D01*
X167221100Y-111906075D02*
X167221100Y-136583600D01*
X167221100Y-136583600D02*
X169351100Y-138713600D01*
X169351100Y-138713600D02*
X173001100Y-138713600D01*
X162241100Y-108093600D02*
X162698300Y-108550800D01*
X162698300Y-108550800D02*
X163865825Y-108550800D01*
%TO.N,A0*%
X162698300Y-90770800D02*
X163865825Y-90770800D01*
X165085900Y-104931925D02*
X170586700Y-110432725D01*
X162241100Y-90313600D02*
X162698300Y-90770800D01*
X170586700Y-125709200D02*
X173921100Y-129043600D01*
X165085900Y-91990875D02*
X165085900Y-104931925D01*
X173921100Y-129043600D02*
X180001100Y-129043600D01*
X170586700Y-110432725D02*
X170586700Y-125709200D01*
X163865825Y-90770800D02*
X165085900Y-91990875D01*
D24*
%TO.N,VCC2*%
X133941100Y-73093600D02*
X135941100Y-75093600D01*
X139441100Y-71923600D02*
X139441100Y-69613600D01*
X138271100Y-73093600D02*
X139441100Y-71923600D01*
X133941100Y-73093600D02*
X138271100Y-73093600D01*
X135941100Y-75093600D02*
X135941100Y-78013600D01*
%TO.N,V_IN*%
X127871100Y-120087675D02*
X125645300Y-122313475D01*
X127871100Y-118003600D02*
X129541100Y-116333600D01*
X126541100Y-112043600D02*
X129541100Y-112043600D01*
X125645300Y-131939400D02*
X125381100Y-132203600D01*
X129541100Y-116333600D02*
X129541100Y-112043600D01*
X127871100Y-118003600D02*
X127871100Y-120087675D01*
X125381100Y-113203600D02*
X126541100Y-112043600D01*
X125645300Y-122313475D02*
X125645300Y-131939400D01*
%TO.N,V_9V*%
X124771100Y-107003600D02*
X129501100Y-107003600D01*
X126901100Y-103503600D02*
X129541100Y-106143600D01*
X116001100Y-104733600D02*
X117431100Y-103503600D01*
X117431100Y-103503600D02*
X126901100Y-103503600D01*
X129541100Y-106143600D02*
X129541100Y-106963600D01*
X129501100Y-107003600D02*
X129541100Y-106963600D01*
%TO.N,N$3*%
X115221100Y-132203600D02*
X115221100Y-136123600D01*
X115221100Y-136123600D02*
X116701100Y-137603600D01*
X116701100Y-137603600D02*
X120201100Y-137603600D01*
%TO.N,N$5*%
X115221100Y-117323600D02*
X118071900Y-120174400D01*
X115221100Y-113203600D02*
X115221100Y-117323600D01*
X118071900Y-120174400D02*
X120801100Y-120174400D01*
%TO.N,VBAT*%
X116001100Y-93733600D02*
X122331100Y-93733600D01*
X124811100Y-97543600D02*
X124771100Y-97503600D01*
X124811100Y-96213600D02*
X124811100Y-97543600D01*
X129541100Y-97543600D02*
X124811100Y-97543600D01*
X122331100Y-93733600D02*
X124811100Y-96213600D01*
%TO.N,V_REG*%
X125961100Y-92463600D02*
X121541100Y-88043600D01*
X129541100Y-92463600D02*
X125961100Y-92463600D01*
X121541100Y-88043600D02*
X121541100Y-72903600D01*
X129541100Y-92463600D02*
X130671100Y-91333600D01*
X130671100Y-91333600D02*
X130671100Y-87603600D01*
%TO.N,V_PWR*%
X116001100Y-73363600D02*
X116461100Y-72903600D01*
X116001100Y-81733600D02*
X116001100Y-73363600D01*
D23*
%TO.N,D0*%
X146401100Y-139813600D02*
X146401100Y-147703600D01*
X153101100Y-137893600D02*
X151911100Y-136703600D01*
X156211100Y-95393600D02*
X162241100Y-95393600D01*
X155101100Y-100003600D02*
X155101100Y-96503600D01*
X149511100Y-136703600D02*
X146401100Y-139813600D01*
X149511100Y-136703600D02*
X151911100Y-136703600D01*
X155101100Y-96503600D02*
X156211100Y-95393600D01*
X153101100Y-140103600D02*
X153101100Y-137893600D01*
%TD*%
%TA.AperFunction,Conductor*%
%TO.N,GND*%
G36*
X180589357Y-59440142D02*
G01*
X180598308Y-59440611D01*
X180948833Y-59458980D01*
X180952003Y-59459314D01*
X181308375Y-59515758D01*
X181311518Y-59516426D01*
X181660037Y-59609811D01*
X181663082Y-59610800D01*
X181999947Y-59740111D01*
X182002878Y-59741417D01*
X182324360Y-59905220D01*
X182327126Y-59906817D01*
X182629738Y-60103335D01*
X182632342Y-60105227D01*
X182912734Y-60332285D01*
X182915126Y-60334438D01*
X183170261Y-60589573D01*
X183172414Y-60591965D01*
X183399472Y-60872357D01*
X183401364Y-60874961D01*
X183597876Y-61177561D01*
X183599485Y-61180349D01*
X183763280Y-61501817D01*
X183764590Y-61504757D01*
X183893896Y-61841609D01*
X183894890Y-61844670D01*
X183988272Y-62193178D01*
X183988941Y-62196327D01*
X184045383Y-62552681D01*
X184045720Y-62555882D01*
X184064558Y-62915342D01*
X184064600Y-62916951D01*
X184064600Y-123982788D01*
X184055594Y-124004532D01*
X184033850Y-124013538D01*
X184012106Y-124004532D01*
X183454672Y-123447098D01*
X182838480Y-122830906D01*
X182838476Y-122830903D01*
X182838474Y-122830901D01*
X182628178Y-122678112D01*
X182628165Y-122678104D01*
X182396560Y-122560096D01*
X182396555Y-122560094D01*
X182149324Y-122479764D01*
X181892582Y-122439100D01*
X181892576Y-122439100D01*
X181687828Y-122439100D01*
X181672453Y-122434980D01*
X181551407Y-122365093D01*
X181551391Y-122365086D01*
X181336006Y-122275870D01*
X181110812Y-122215530D01*
X180933448Y-122192180D01*
X180879669Y-122185100D01*
X180879667Y-122185100D01*
X180570912Y-122185100D01*
X180549168Y-122176094D01*
X180077977Y-121704903D01*
X179576980Y-121203906D01*
X179576976Y-121203903D01*
X179576974Y-121203901D01*
X179366678Y-121051112D01*
X179366665Y-121051104D01*
X179135060Y-120933096D01*
X179135055Y-120933094D01*
X178887824Y-120852764D01*
X178631082Y-120812100D01*
X178631076Y-120812100D01*
X173983673Y-120812100D01*
X173964166Y-120805120D01*
X173924203Y-120772324D01*
X173924194Y-120772318D01*
X173747617Y-120677936D01*
X173747615Y-120677935D01*
X173747611Y-120677933D01*
X173680211Y-120657487D01*
X173555998Y-120619807D01*
X173406665Y-120605100D01*
X172675529Y-120605100D01*
X172526201Y-120619807D01*
X172334592Y-120677931D01*
X172334589Y-120677932D01*
X172334587Y-120677932D01*
X172334582Y-120677935D01*
X172158004Y-120772318D01*
X172158001Y-120772320D01*
X172042003Y-120867517D01*
X171960493Y-120949027D01*
X171938750Y-120958033D01*
X171917006Y-120949026D01*
X171908000Y-120927283D01*
X171908000Y-119025512D01*
X171917006Y-119003768D01*
X171938750Y-118994762D01*
X171954126Y-118998882D01*
X171957435Y-119000793D01*
X171957440Y-119000795D01*
X171957446Y-119000798D01*
X172160518Y-119084913D01*
X172160521Y-119084914D01*
X172372851Y-119141808D01*
X172590790Y-119170500D01*
X172590795Y-119170500D01*
X174131405Y-119170500D01*
X174131410Y-119170500D01*
X174349349Y-119141808D01*
X174561678Y-119084914D01*
X174561681Y-119084913D01*
X174764753Y-119000798D01*
X174764753Y-119000797D01*
X174764765Y-119000793D01*
X174955135Y-118890883D01*
X175129529Y-118757065D01*
X175284965Y-118601629D01*
X175418783Y-118427235D01*
X175528693Y-118236865D01*
X175588656Y-118092101D01*
X175612813Y-118033781D01*
X175612814Y-118033778D01*
X175644614Y-117915099D01*
X175669708Y-117821449D01*
X175698400Y-117603510D01*
X175698400Y-117383690D01*
X175669708Y-117165751D01*
X175624488Y-116996988D01*
X175612814Y-116953421D01*
X175612813Y-116953418D01*
X175528698Y-116750346D01*
X175528695Y-116750341D01*
X175528693Y-116750335D01*
X175418783Y-116559965D01*
X175284965Y-116385571D01*
X175144736Y-116245342D01*
X175135731Y-116223600D01*
X175144736Y-116201857D01*
X175284965Y-116061629D01*
X175418783Y-115887235D01*
X175528693Y-115696865D01*
X175570045Y-115597032D01*
X175612813Y-115493781D01*
X175612814Y-115493778D01*
X175669708Y-115281449D01*
X175698400Y-115063510D01*
X175698400Y-114843690D01*
X175669708Y-114625751D01*
X175646311Y-114538434D01*
X175612814Y-114413421D01*
X175612813Y-114413418D01*
X175528698Y-114210346D01*
X175528695Y-114210341D01*
X175528693Y-114210335D01*
X175418783Y-114019965D01*
X175284965Y-113845571D01*
X175240441Y-113801047D01*
X175181838Y-113742443D01*
X175172832Y-113720700D01*
X175181839Y-113698956D01*
X175194076Y-113691456D01*
X175358303Y-113638097D01*
X175543612Y-113543677D01*
X175711869Y-113421432D01*
X177088932Y-112044369D01*
X177211177Y-111876112D01*
X177305597Y-111690803D01*
X177369865Y-111493005D01*
X177399552Y-111305571D01*
X177402400Y-111287589D01*
X177402400Y-104657738D01*
X177411406Y-104635994D01*
X177433150Y-104626988D01*
X177454892Y-104635993D01*
X178620331Y-105801432D01*
X178620334Y-105801434D01*
X178620336Y-105801436D01*
X178706545Y-105864069D01*
X178770727Y-105910700D01*
X178788588Y-105923677D01*
X178788593Y-105923679D01*
X178788597Y-105923682D01*
X178973892Y-106018095D01*
X178973897Y-106018097D01*
X179171695Y-106082365D01*
X179257163Y-106095901D01*
X179271067Y-106101873D01*
X179387065Y-106190883D01*
X179387070Y-106190886D01*
X179387073Y-106190888D01*
X179429779Y-106215544D01*
X179577435Y-106300793D01*
X179577441Y-106300795D01*
X179577446Y-106300798D01*
X179780518Y-106384913D01*
X179780521Y-106384914D01*
X179886686Y-106413361D01*
X179992851Y-106441808D01*
X180120386Y-106458598D01*
X180140768Y-106470365D01*
X180146860Y-106493098D01*
X180135093Y-106513480D01*
X180122372Y-106519244D01*
X180076440Y-106528380D01*
X180076438Y-106528381D01*
X179924042Y-106591506D01*
X179786889Y-106683149D01*
X179670249Y-106799789D01*
X179578606Y-106936942D01*
X179515481Y-107089338D01*
X179515480Y-107089340D01*
X179484498Y-107245099D01*
X179484499Y-107245100D01*
X180584077Y-107245100D01*
X180574700Y-107280096D01*
X180574700Y-107387104D01*
X180584077Y-107422100D01*
X179484498Y-107422100D01*
X179515480Y-107577859D01*
X179515481Y-107577861D01*
X179578606Y-107730257D01*
X179670249Y-107867410D01*
X179786889Y-107984050D01*
X179924042Y-108075693D01*
X180076438Y-108138818D01*
X180076440Y-108138819D01*
X180122372Y-108147955D01*
X180141941Y-108161030D01*
X180146532Y-108184113D01*
X180133457Y-108203682D01*
X180120387Y-108208601D01*
X179992851Y-108225391D01*
X179780521Y-108282285D01*
X179780518Y-108282286D01*
X179577446Y-108366401D01*
X179577425Y-108366412D01*
X179387069Y-108476314D01*
X179212675Y-108610131D01*
X179057231Y-108765575D01*
X178923414Y-108939969D01*
X178813512Y-109130325D01*
X178813501Y-109130346D01*
X178729386Y-109333418D01*
X178729385Y-109333421D01*
X178672491Y-109545751D01*
X178643800Y-109763691D01*
X178643800Y-109983508D01*
X178672491Y-110201448D01*
X178729385Y-110413778D01*
X178729386Y-110413781D01*
X178813501Y-110616853D01*
X178813505Y-110616862D01*
X178813507Y-110616865D01*
X178923417Y-110807235D01*
X179035372Y-110953138D01*
X179056992Y-110981313D01*
X179057235Y-110981629D01*
X179197463Y-111121857D01*
X179206469Y-111143600D01*
X179197463Y-111165342D01*
X179107514Y-111255292D01*
X179057231Y-111305575D01*
X178923414Y-111479969D01*
X178813512Y-111670325D01*
X178813501Y-111670346D01*
X178729386Y-111873418D01*
X178729385Y-111873421D01*
X178672491Y-112085751D01*
X178643800Y-112303691D01*
X178643800Y-112523508D01*
X178672491Y-112741448D01*
X178729385Y-112953778D01*
X178729386Y-112953781D01*
X178813501Y-113156853D01*
X178813512Y-113156874D01*
X178910674Y-113325163D01*
X178923417Y-113347235D01*
X178951336Y-113383619D01*
X179056992Y-113521313D01*
X179057235Y-113521629D01*
X179197463Y-113661857D01*
X179206469Y-113683600D01*
X179197463Y-113705342D01*
X179123735Y-113779071D01*
X179057231Y-113845575D01*
X178923414Y-114019969D01*
X178813512Y-114210325D01*
X178813501Y-114210346D01*
X178729386Y-114413418D01*
X178729385Y-114413421D01*
X178672491Y-114625751D01*
X178643800Y-114843691D01*
X178643800Y-115063508D01*
X178672491Y-115281448D01*
X178729385Y-115493778D01*
X178729386Y-115493781D01*
X178813501Y-115696853D01*
X178813505Y-115696862D01*
X178813507Y-115696865D01*
X178923417Y-115887235D01*
X179035372Y-116033138D01*
X179056992Y-116061313D01*
X179057235Y-116061629D01*
X179197463Y-116201857D01*
X179206469Y-116223600D01*
X179197463Y-116245342D01*
X179057235Y-116385571D01*
X179057231Y-116385575D01*
X178923414Y-116559969D01*
X178813512Y-116750325D01*
X178813501Y-116750346D01*
X178729386Y-116953418D01*
X178729385Y-116953421D01*
X178672491Y-117165751D01*
X178653224Y-117312105D01*
X178643800Y-117383690D01*
X178643800Y-117603510D01*
X178650475Y-117654216D01*
X178672491Y-117821448D01*
X178729385Y-118033778D01*
X178729386Y-118033781D01*
X178813501Y-118236853D01*
X178813512Y-118236874D01*
X178887569Y-118365144D01*
X178923417Y-118427235D01*
X179057235Y-118601629D01*
X179212671Y-118757065D01*
X179387065Y-118890883D01*
X179577435Y-119000793D01*
X179577441Y-119000795D01*
X179577446Y-119000798D01*
X179780518Y-119084913D01*
X179780521Y-119084914D01*
X179992851Y-119141808D01*
X180210790Y-119170500D01*
X180210795Y-119170500D01*
X181751405Y-119170500D01*
X181751410Y-119170500D01*
X181969349Y-119141808D01*
X182181678Y-119084914D01*
X182181681Y-119084913D01*
X182384753Y-119000798D01*
X182384753Y-119000797D01*
X182384765Y-119000793D01*
X182575135Y-118890883D01*
X182749529Y-118757065D01*
X182904965Y-118601629D01*
X183038783Y-118427235D01*
X183148693Y-118236865D01*
X183208656Y-118092101D01*
X183232813Y-118033781D01*
X183232814Y-118033778D01*
X183264614Y-117915099D01*
X183289708Y-117821449D01*
X183318400Y-117603510D01*
X183318400Y-117383690D01*
X183289708Y-117165751D01*
X183244488Y-116996988D01*
X183232814Y-116953421D01*
X183232813Y-116953418D01*
X183148698Y-116750346D01*
X183148695Y-116750341D01*
X183148693Y-116750335D01*
X183038783Y-116559965D01*
X182904965Y-116385571D01*
X182764736Y-116245342D01*
X182755731Y-116223600D01*
X182764736Y-116201857D01*
X182904965Y-116061629D01*
X183038783Y-115887235D01*
X183148693Y-115696865D01*
X183190045Y-115597032D01*
X183232813Y-115493781D01*
X183232814Y-115493778D01*
X183289708Y-115281449D01*
X183318400Y-115063510D01*
X183318400Y-114843690D01*
X183289708Y-114625751D01*
X183266311Y-114538434D01*
X183232814Y-114413421D01*
X183232813Y-114413418D01*
X183148698Y-114210346D01*
X183148695Y-114210341D01*
X183148693Y-114210335D01*
X183038783Y-114019965D01*
X182904965Y-113845571D01*
X182764736Y-113705342D01*
X182755731Y-113683600D01*
X182764736Y-113661857D01*
X182904965Y-113521629D01*
X183038783Y-113347235D01*
X183148693Y-113156865D01*
X183190045Y-113057032D01*
X183232813Y-112953781D01*
X183232814Y-112953778D01*
X183263036Y-112840990D01*
X183289708Y-112741449D01*
X183318400Y-112523510D01*
X183318400Y-112303690D01*
X183289708Y-112085751D01*
X183246727Y-111925344D01*
X183232814Y-111873421D01*
X183232813Y-111873418D01*
X183148698Y-111670346D01*
X183148695Y-111670341D01*
X183148693Y-111670335D01*
X183038783Y-111479965D01*
X182904965Y-111305571D01*
X182764736Y-111165342D01*
X182755731Y-111143600D01*
X182764736Y-111121857D01*
X182904965Y-110981629D01*
X183038783Y-110807235D01*
X183148693Y-110616865D01*
X183190045Y-110517032D01*
X183232813Y-110413781D01*
X183232814Y-110413778D01*
X183248330Y-110355871D01*
X183289708Y-110201449D01*
X183318400Y-109983510D01*
X183318400Y-109763690D01*
X183289708Y-109545751D01*
X183253632Y-109411115D01*
X183232814Y-109333421D01*
X183232813Y-109333418D01*
X183148698Y-109130346D01*
X183148695Y-109130341D01*
X183148693Y-109130335D01*
X183038783Y-108939965D01*
X182904965Y-108765571D01*
X182749529Y-108610135D01*
X182575135Y-108476317D01*
X182514506Y-108441313D01*
X182384774Y-108366412D01*
X182384770Y-108366410D01*
X182384765Y-108366407D01*
X182384762Y-108366405D01*
X182384753Y-108366401D01*
X182181681Y-108282286D01*
X182181678Y-108282285D01*
X181969348Y-108225391D01*
X181841812Y-108208601D01*
X181821430Y-108196833D01*
X181815339Y-108174100D01*
X181827107Y-108153718D01*
X181839827Y-108147955D01*
X181885759Y-108138818D01*
X181885761Y-108138818D01*
X182038157Y-108075693D01*
X182175310Y-107984050D01*
X182291950Y-107867410D01*
X182383593Y-107730257D01*
X182446718Y-107577861D01*
X182446719Y-107577859D01*
X182477701Y-107422100D01*
X181378123Y-107422100D01*
X181387500Y-107387104D01*
X181387500Y-107280096D01*
X181378123Y-107245100D01*
X182477701Y-107245100D01*
X182477701Y-107245099D01*
X182446719Y-107089340D01*
X182446718Y-107089338D01*
X182383593Y-106936942D01*
X182291950Y-106799789D01*
X182175310Y-106683149D01*
X182038157Y-106591506D01*
X181885761Y-106528381D01*
X181885759Y-106528380D01*
X181839827Y-106519244D01*
X181820258Y-106506169D01*
X181815667Y-106483086D01*
X181828742Y-106463517D01*
X181841811Y-106458598D01*
X181969349Y-106441808D01*
X182181678Y-106384914D01*
X182181681Y-106384913D01*
X182384753Y-106300798D01*
X182384753Y-106300797D01*
X182384765Y-106300793D01*
X182575135Y-106190883D01*
X182749529Y-106057065D01*
X182904965Y-105901629D01*
X183038783Y-105727235D01*
X183148693Y-105536865D01*
X183190045Y-105437032D01*
X183232813Y-105333781D01*
X183232814Y-105333778D01*
X183236144Y-105321350D01*
X183289708Y-105121449D01*
X183318400Y-104903510D01*
X183318400Y-104683690D01*
X183289708Y-104465751D01*
X183246727Y-104305344D01*
X183232814Y-104253421D01*
X183232813Y-104253418D01*
X183148698Y-104050346D01*
X183148695Y-104050341D01*
X183148693Y-104050335D01*
X183038783Y-103859965D01*
X182904965Y-103685571D01*
X182764736Y-103545342D01*
X182755731Y-103523600D01*
X182764736Y-103501857D01*
X182904965Y-103361629D01*
X183038783Y-103187235D01*
X183148693Y-102996865D01*
X183190045Y-102897032D01*
X183232813Y-102793781D01*
X183232814Y-102793778D01*
X183289708Y-102581449D01*
X183318400Y-102363510D01*
X183318400Y-102143690D01*
X183289708Y-101925751D01*
X183269950Y-101852013D01*
X183232814Y-101713421D01*
X183232813Y-101713418D01*
X183148698Y-101510346D01*
X183148695Y-101510341D01*
X183148693Y-101510335D01*
X183038783Y-101319965D01*
X182904965Y-101145571D01*
X182764736Y-101005342D01*
X182755731Y-100983600D01*
X182764736Y-100961857D01*
X182904965Y-100821629D01*
X183038783Y-100647235D01*
X183148693Y-100456865D01*
X183190045Y-100357032D01*
X183232813Y-100253781D01*
X183232814Y-100253778D01*
X183241346Y-100221936D01*
X183289708Y-100041449D01*
X183318400Y-99823510D01*
X183318400Y-99603690D01*
X183289708Y-99385751D01*
X183246727Y-99225344D01*
X183232814Y-99173421D01*
X183232813Y-99173418D01*
X183148698Y-98970346D01*
X183148695Y-98970341D01*
X183148693Y-98970335D01*
X183038783Y-98779965D01*
X182904965Y-98605571D01*
X182764736Y-98465342D01*
X182755731Y-98443600D01*
X182764736Y-98421857D01*
X182904965Y-98281629D01*
X183038783Y-98107235D01*
X183148693Y-97916865D01*
X183166386Y-97874150D01*
X183232813Y-97713781D01*
X183232814Y-97713778D01*
X183247180Y-97660164D01*
X183289708Y-97501449D01*
X183318400Y-97283510D01*
X183318400Y-97063690D01*
X183289708Y-96845751D01*
X183262886Y-96745650D01*
X183232814Y-96633421D01*
X183232813Y-96633418D01*
X183148698Y-96430346D01*
X183148695Y-96430341D01*
X183148693Y-96430335D01*
X183038783Y-96239965D01*
X182904965Y-96065571D01*
X182749529Y-95910135D01*
X182726025Y-95892100D01*
X182678523Y-95855650D01*
X182575135Y-95776317D01*
X182514506Y-95741313D01*
X182384774Y-95666412D01*
X182384770Y-95666410D01*
X182384765Y-95666407D01*
X182384762Y-95666405D01*
X182384753Y-95666401D01*
X182181681Y-95582286D01*
X182181678Y-95582285D01*
X181969348Y-95525391D01*
X181802116Y-95503375D01*
X181751410Y-95496700D01*
X180210790Y-95496700D01*
X180185436Y-95500037D01*
X179992851Y-95525391D01*
X179780522Y-95582285D01*
X179577439Y-95666405D01*
X179577421Y-95666414D01*
X179547725Y-95683559D01*
X179524391Y-95686631D01*
X179505720Y-95672304D01*
X179501600Y-95656929D01*
X179501600Y-91163637D01*
X179510605Y-91141894D01*
X182708931Y-87943569D01*
X182831177Y-87775312D01*
X182925597Y-87590004D01*
X182989865Y-87392205D01*
X183022400Y-87186789D01*
X183022400Y-86978812D01*
X183022400Y-83176532D01*
X183031405Y-83154789D01*
X183151068Y-83035128D01*
X183262310Y-82868640D01*
X183338936Y-82683649D01*
X183378000Y-82487264D01*
X183377999Y-81739936D01*
X183338937Y-81543551D01*
X183262311Y-81358560D01*
X183151067Y-81192072D01*
X182622628Y-80663632D01*
X182456140Y-80552390D01*
X182271149Y-80475764D01*
X182271147Y-80475763D01*
X182074765Y-80436700D01*
X181327435Y-80436700D01*
X181327434Y-80436701D01*
X181131052Y-80475762D01*
X181131050Y-80475763D01*
X180946060Y-80552389D01*
X180779572Y-80663633D01*
X180251129Y-81192075D01*
X180139890Y-81358560D01*
X180063264Y-81543550D01*
X180063263Y-81543552D01*
X180024200Y-81739934D01*
X180024200Y-82487264D01*
X180024201Y-82487265D01*
X180063262Y-82683647D01*
X180063263Y-82683649D01*
X180139889Y-82868640D01*
X180251133Y-83035128D01*
X180370794Y-83154789D01*
X180379800Y-83176532D01*
X180379800Y-86522761D01*
X180370794Y-86544505D01*
X177172463Y-89742836D01*
X177097379Y-89846183D01*
X177050225Y-89911084D01*
X177050217Y-89911097D01*
X176955804Y-90096392D01*
X176955802Y-90096397D01*
X176891534Y-90294197D01*
X176859000Y-90499604D01*
X176859000Y-95266418D01*
X176849994Y-95288162D01*
X176828250Y-95297168D01*
X176806506Y-95288162D01*
X175921742Y-94403398D01*
X175014112Y-93495768D01*
X175014108Y-93495765D01*
X175014106Y-93495763D01*
X174845858Y-93373525D01*
X174845845Y-93373517D01*
X174660550Y-93279104D01*
X174660545Y-93279102D01*
X174462745Y-93214834D01*
X174257338Y-93182300D01*
X174257332Y-93182300D01*
X168401139Y-93182300D01*
X168379395Y-93173294D01*
X168231406Y-93025305D01*
X168222400Y-93003561D01*
X168222400Y-88629600D01*
X168420100Y-88629600D01*
X168440280Y-89040387D01*
X168440281Y-89040395D01*
X168500628Y-89447219D01*
X168500632Y-89447239D01*
X168600560Y-89846175D01*
X168600568Y-89846201D01*
X168739115Y-90233410D01*
X168739120Y-90233424D01*
X168865013Y-90499604D01*
X168914968Y-90605224D01*
X169126411Y-90957995D01*
X169308582Y-91203624D01*
X169371417Y-91288347D01*
X169647599Y-91593068D01*
X169647605Y-91593074D01*
X169647615Y-91593085D01*
X169647625Y-91593094D01*
X169647631Y-91593100D01*
X169952352Y-91869282D01*
X169952358Y-91869287D01*
X170282705Y-92114289D01*
X170635476Y-92325732D01*
X171007274Y-92501579D01*
X171129256Y-92545225D01*
X171394498Y-92640131D01*
X171394513Y-92640135D01*
X171394517Y-92640137D01*
X171394519Y-92640137D01*
X171394524Y-92640139D01*
X171781340Y-92737031D01*
X171793476Y-92740071D01*
X172200310Y-92800419D01*
X172611100Y-92820600D01*
X173021890Y-92800419D01*
X173428724Y-92740071D01*
X173827683Y-92640137D01*
X173827692Y-92640133D01*
X173827701Y-92640131D01*
X173995282Y-92580169D01*
X174214926Y-92501579D01*
X174586724Y-92325732D01*
X174939495Y-92114289D01*
X175269842Y-91869287D01*
X175574585Y-91593085D01*
X175850787Y-91288342D01*
X176095789Y-90957995D01*
X176307232Y-90605224D01*
X176483079Y-90233426D01*
X176578806Y-89965887D01*
X176621631Y-89846201D01*
X176621639Y-89846175D01*
X176642481Y-89762968D01*
X176721571Y-89447224D01*
X176781919Y-89040390D01*
X176802100Y-88629600D01*
X176781919Y-88218810D01*
X176721571Y-87811976D01*
X176665970Y-87590003D01*
X176621639Y-87413024D01*
X176621631Y-87412998D01*
X176485862Y-87033552D01*
X176483079Y-87025774D01*
X176307232Y-86653976D01*
X176095789Y-86301205D01*
X175850787Y-85970858D01*
X175850782Y-85970852D01*
X175574600Y-85666131D01*
X175574594Y-85666125D01*
X175574585Y-85666115D01*
X175574574Y-85666105D01*
X175574568Y-85666099D01*
X175269847Y-85389917D01*
X175216253Y-85350169D01*
X174939495Y-85144911D01*
X174586724Y-84933468D01*
X174561800Y-84921680D01*
X174214924Y-84757620D01*
X174214910Y-84757615D01*
X173827701Y-84619068D01*
X173827675Y-84619060D01*
X173428739Y-84519132D01*
X173428719Y-84519128D01*
X173021895Y-84458781D01*
X173021887Y-84458780D01*
X172611100Y-84438600D01*
X172200312Y-84458780D01*
X172200304Y-84458781D01*
X171793480Y-84519128D01*
X171793460Y-84519132D01*
X171394524Y-84619060D01*
X171394498Y-84619068D01*
X171007289Y-84757615D01*
X171007275Y-84757620D01*
X170635479Y-84933466D01*
X170282714Y-85144905D01*
X170282709Y-85144908D01*
X169952352Y-85389917D01*
X169647631Y-85666099D01*
X169647599Y-85666131D01*
X169371417Y-85970852D01*
X169126408Y-86301209D01*
X169126405Y-86301214D01*
X168914966Y-86653979D01*
X168739120Y-87025775D01*
X168739115Y-87025789D01*
X168600568Y-87412998D01*
X168600560Y-87413024D01*
X168500632Y-87811960D01*
X168500628Y-87811980D01*
X168440281Y-88218804D01*
X168440280Y-88218812D01*
X168420100Y-88629600D01*
X168222400Y-88629600D01*
X168222400Y-86082091D01*
X168222399Y-86082079D01*
X168189865Y-85876672D01*
X168189865Y-85876670D01*
X168167068Y-85806507D01*
X168125597Y-85678871D01*
X168125595Y-85678866D01*
X168031182Y-85493572D01*
X168031179Y-85493568D01*
X168031177Y-85493563D01*
X167926994Y-85350167D01*
X167908935Y-85325311D01*
X167908933Y-85325309D01*
X167908931Y-85325306D01*
X164726594Y-82142968D01*
X164726590Y-82142965D01*
X164726588Y-82142963D01*
X164695646Y-82120483D01*
X164685311Y-82107373D01*
X164601615Y-81905311D01*
X164601604Y-81905288D01*
X164485044Y-81703402D01*
X164485042Y-81703398D01*
X164343116Y-81518437D01*
X164270021Y-81445342D01*
X164261016Y-81423600D01*
X164270021Y-81401857D01*
X164343116Y-81328763D01*
X164485042Y-81143802D01*
X164601611Y-80941898D01*
X164690829Y-80726507D01*
X164751169Y-80501313D01*
X164781600Y-80270169D01*
X164781600Y-80037031D01*
X164751169Y-79805887D01*
X164690829Y-79580693D01*
X164601611Y-79365302D01*
X164485042Y-79163398D01*
X164343116Y-78978437D01*
X164270021Y-78905342D01*
X164261016Y-78883600D01*
X164270021Y-78861857D01*
X164343116Y-78788763D01*
X164485042Y-78603802D01*
X164601611Y-78401898D01*
X164690829Y-78186507D01*
X164751169Y-77961313D01*
X164781600Y-77730169D01*
X164781600Y-77497031D01*
X164751169Y-77265887D01*
X164690829Y-77040693D01*
X164601611Y-76825302D01*
X164485042Y-76623398D01*
X164343116Y-76438437D01*
X164270021Y-76365342D01*
X164261016Y-76343600D01*
X164270021Y-76321857D01*
X164343116Y-76248763D01*
X164485042Y-76063802D01*
X164601611Y-75861898D01*
X164690829Y-75646507D01*
X164751169Y-75421313D01*
X164781600Y-75190169D01*
X164781600Y-74957031D01*
X164751169Y-74725887D01*
X164690829Y-74500693D01*
X164601611Y-74285302D01*
X164485042Y-74083398D01*
X164343116Y-73898437D01*
X164178263Y-73733584D01*
X163993302Y-73591658D01*
X163959373Y-73572069D01*
X163791407Y-73475094D01*
X163791404Y-73475092D01*
X163791398Y-73475089D01*
X163791391Y-73475086D01*
X163576006Y-73385870D01*
X163528595Y-73373166D01*
X163509924Y-73358839D01*
X163506852Y-73335505D01*
X163519470Y-73317896D01*
X163601676Y-73262968D01*
X163732468Y-73132176D01*
X163835231Y-72978382D01*
X163835232Y-72978379D01*
X163906012Y-72807500D01*
X163906014Y-72807494D01*
X163942099Y-72626084D01*
X163942100Y-72626084D01*
X163942100Y-72622101D01*
X163942099Y-72622100D01*
X162743307Y-72622100D01*
X162749100Y-72600480D01*
X162749100Y-72466720D01*
X162743307Y-72445100D01*
X163942099Y-72445100D01*
X163942100Y-72445099D01*
X163942100Y-72441116D01*
X163942099Y-72441115D01*
X163906014Y-72259705D01*
X163906012Y-72259699D01*
X163835232Y-72088820D01*
X163835231Y-72088817D01*
X163732468Y-71935023D01*
X163601676Y-71804231D01*
X163519470Y-71749302D01*
X163506395Y-71729733D01*
X163510986Y-71706650D01*
X163528594Y-71694032D01*
X163564655Y-71684370D01*
X163576004Y-71681330D01*
X163576005Y-71681330D01*
X163657819Y-71647441D01*
X163669587Y-71645100D01*
X163974288Y-71645100D01*
X163996032Y-71654106D01*
X165000594Y-72658668D01*
X165009600Y-72680412D01*
X165009600Y-75073582D01*
X165050264Y-75330324D01*
X165130594Y-75577555D01*
X165130596Y-75577560D01*
X165248604Y-75809165D01*
X165248612Y-75809178D01*
X165401401Y-76019474D01*
X165401403Y-76019476D01*
X165401406Y-76019480D01*
X166325220Y-76943294D01*
X166325223Y-76943296D01*
X166325225Y-76943298D01*
X166340993Y-76954754D01*
X166535525Y-77096090D01*
X166535530Y-77096092D01*
X166535534Y-77096095D01*
X166767139Y-77214103D01*
X166767144Y-77214105D01*
X167014373Y-77294435D01*
X167205531Y-77324711D01*
X167271117Y-77335099D01*
X167271118Y-77335099D01*
X167271124Y-77335100D01*
X167271130Y-77335100D01*
X170271070Y-77335100D01*
X170271076Y-77335100D01*
X170527827Y-77294435D01*
X170775056Y-77214105D01*
X171006675Y-77096090D01*
X171210570Y-76947950D01*
X171233454Y-76942457D01*
X171253521Y-76954754D01*
X171351401Y-77089474D01*
X171351403Y-77089476D01*
X171351406Y-77089480D01*
X174905220Y-80643294D01*
X174905223Y-80643296D01*
X174905225Y-80643298D01*
X175043001Y-80743398D01*
X175115525Y-80796090D01*
X175115530Y-80796092D01*
X175115534Y-80796095D01*
X175347139Y-80914103D01*
X175347144Y-80914105D01*
X175594373Y-80994435D01*
X175785531Y-81024711D01*
X175851117Y-81035099D01*
X175851118Y-81035099D01*
X175851124Y-81035100D01*
X176111076Y-81035100D01*
X178265548Y-81035100D01*
X178280043Y-81038731D01*
X178374589Y-81089267D01*
X178566200Y-81147392D01*
X178715535Y-81162100D01*
X179446671Y-81162100D01*
X179596000Y-81147392D01*
X179787611Y-81089268D01*
X179964201Y-80994878D01*
X180080193Y-80899686D01*
X180597184Y-80382695D01*
X180692378Y-80266700D01*
X180786767Y-80090111D01*
X180844892Y-79898500D01*
X180859600Y-79749165D01*
X180859600Y-79018029D01*
X180844892Y-78868700D01*
X180786768Y-78677089D01*
X180736822Y-78583647D01*
X180692381Y-78500504D01*
X180692379Y-78500501D01*
X180692378Y-78500499D01*
X180597186Y-78384507D01*
X180080195Y-77867516D01*
X179964200Y-77772322D01*
X179964198Y-77772321D01*
X179964197Y-77772320D01*
X179964194Y-77772318D01*
X179787617Y-77677936D01*
X179787615Y-77677935D01*
X179787611Y-77677933D01*
X179662353Y-77639936D01*
X179595998Y-77619807D01*
X179446665Y-77605100D01*
X178715529Y-77605100D01*
X178566201Y-77619807D01*
X178374592Y-77677931D01*
X178374589Y-77677932D01*
X178374587Y-77677932D01*
X178374582Y-77677935D01*
X178280041Y-77728469D01*
X178265546Y-77732100D01*
X176677912Y-77732100D01*
X176656168Y-77723094D01*
X174271606Y-75338532D01*
X174262600Y-75316788D01*
X174262600Y-73623707D01*
X174271606Y-73601963D01*
X174293350Y-73592957D01*
X174308722Y-73597076D01*
X174329027Y-73608799D01*
X174433671Y-73652144D01*
X174553636Y-73701836D01*
X174553652Y-73701842D01*
X174749561Y-73754335D01*
X174788490Y-73764766D01*
X175029537Y-73796500D01*
X175029542Y-73796500D01*
X175272658Y-73796500D01*
X175272663Y-73796500D01*
X175513710Y-73764766D01*
X175630098Y-73733580D01*
X175748547Y-73701842D01*
X175748550Y-73701840D01*
X175748553Y-73701840D01*
X175973173Y-73608799D01*
X176183727Y-73487236D01*
X176376613Y-73339230D01*
X176548530Y-73167313D01*
X176696536Y-72974427D01*
X176818099Y-72763873D01*
X176911140Y-72539253D01*
X176924044Y-72491097D01*
X176935674Y-72447691D01*
X176950001Y-72429020D01*
X176965376Y-72424900D01*
X179061061Y-72424900D01*
X179082805Y-72433906D01*
X179655880Y-73006981D01*
X180221207Y-73572307D01*
X180230213Y-73594051D01*
X180225031Y-73611134D01*
X180139891Y-73738557D01*
X180139888Y-73738563D01*
X180063264Y-73923550D01*
X180063263Y-73923552D01*
X180024200Y-74119934D01*
X180024200Y-74867264D01*
X180024201Y-74867265D01*
X180063262Y-75063647D01*
X180063263Y-75063649D01*
X180139889Y-75248640D01*
X180251133Y-75415128D01*
X180779572Y-75943568D01*
X180946060Y-76054810D01*
X181131051Y-76131436D01*
X181327436Y-76170500D01*
X182074764Y-76170499D01*
X182271149Y-76131437D01*
X182456140Y-76054811D01*
X182622628Y-75943567D01*
X183151068Y-75415128D01*
X183262310Y-75248640D01*
X183338936Y-75063649D01*
X183378000Y-74867264D01*
X183377999Y-74119936D01*
X183338937Y-73923551D01*
X183262311Y-73738560D01*
X183151067Y-73572072D01*
X183031406Y-73452410D01*
X183022400Y-73430667D01*
X183022400Y-73079616D01*
X183022399Y-73079604D01*
X183005740Y-72974427D01*
X182989865Y-72874195D01*
X182957188Y-72773624D01*
X182925597Y-72676396D01*
X182925595Y-72676391D01*
X182831182Y-72491097D01*
X182831179Y-72491093D01*
X182831177Y-72491088D01*
X182734968Y-72358668D01*
X182708935Y-72322836D01*
X182708933Y-72322834D01*
X182708931Y-72322831D01*
X180481869Y-70095768D01*
X180481865Y-70095765D01*
X180481863Y-70095763D01*
X180313615Y-69973525D01*
X180313602Y-69973517D01*
X180128307Y-69879104D01*
X180128302Y-69879102D01*
X179930502Y-69814834D01*
X179725095Y-69782300D01*
X179725089Y-69782300D01*
X176965376Y-69782300D01*
X176943632Y-69773294D01*
X176935674Y-69759509D01*
X176911142Y-69667952D01*
X176911136Y-69667936D01*
X176818101Y-69443333D01*
X176818099Y-69443327D01*
X176700671Y-69239935D01*
X176696538Y-69232776D01*
X176681808Y-69213580D01*
X176548530Y-69039887D01*
X176376613Y-68867970D01*
X176183727Y-68719964D01*
X176135422Y-68692075D01*
X175973182Y-68598406D01*
X175973176Y-68598403D01*
X175973173Y-68598401D01*
X175973166Y-68598398D01*
X175748563Y-68505363D01*
X175748547Y-68505357D01*
X175513709Y-68442433D01*
X175328745Y-68418083D01*
X175272663Y-68410700D01*
X175029537Y-68410700D01*
X175001495Y-68414391D01*
X174788490Y-68442433D01*
X174553652Y-68505357D01*
X174553636Y-68505363D01*
X174329033Y-68598398D01*
X174329017Y-68598406D01*
X174118477Y-68719961D01*
X174118473Y-68719963D01*
X174118473Y-68719964D01*
X174105976Y-68729552D01*
X173925587Y-68867969D01*
X173902843Y-68890713D01*
X173881099Y-68899719D01*
X173859357Y-68890713D01*
X173836612Y-68867969D01*
X173772060Y-68818437D01*
X173643727Y-68719964D01*
X173595422Y-68692075D01*
X173433182Y-68598406D01*
X173433176Y-68598403D01*
X173433173Y-68598401D01*
X173433166Y-68598398D01*
X173208563Y-68505363D01*
X173208547Y-68505357D01*
X172973709Y-68442433D01*
X172788745Y-68418083D01*
X172732663Y-68410700D01*
X172489537Y-68410700D01*
X172461495Y-68414391D01*
X172248490Y-68442433D01*
X172013652Y-68505357D01*
X172013636Y-68505363D01*
X171789033Y-68598398D01*
X171789021Y-68598403D01*
X171768724Y-68610122D01*
X171745390Y-68613193D01*
X171726719Y-68598865D01*
X171722600Y-68583491D01*
X171722600Y-66463629D01*
X171722599Y-66463617D01*
X171693270Y-66278441D01*
X171681935Y-66206873D01*
X171601605Y-65959644D01*
X171601603Y-65959639D01*
X171483595Y-65728034D01*
X171483592Y-65728030D01*
X171483590Y-65728025D01*
X171445138Y-65675100D01*
X171330797Y-65517723D01*
X171330794Y-65517720D01*
X171146980Y-65333905D01*
X171146980Y-65333906D01*
X169202129Y-63389055D01*
X169181393Y-63368319D01*
X177937100Y-63368319D01*
X177937100Y-63638880D01*
X177972414Y-63907129D01*
X178042441Y-64168474D01*
X178145979Y-64418436D01*
X178145986Y-64418452D01*
X178238786Y-64579184D01*
X178281264Y-64652758D01*
X178445973Y-64867410D01*
X178637290Y-65058727D01*
X178851942Y-65223436D01*
X178880538Y-65239946D01*
X179086247Y-65358713D01*
X179086252Y-65358715D01*
X179086257Y-65358718D01*
X179336225Y-65462258D01*
X179597570Y-65532285D01*
X179865818Y-65567600D01*
X179865823Y-65567600D01*
X180136377Y-65567600D01*
X180136382Y-65567600D01*
X180404630Y-65532285D01*
X180665975Y-65462258D01*
X180915943Y-65358718D01*
X181150258Y-65223436D01*
X181364910Y-65058727D01*
X181556227Y-64867410D01*
X181720936Y-64652758D01*
X181856218Y-64418443D01*
X181959758Y-64168475D01*
X182029785Y-63907130D01*
X182065100Y-63638882D01*
X182065100Y-63368318D01*
X182029785Y-63100070D01*
X181959758Y-62838725D01*
X181856218Y-62588757D01*
X181856215Y-62588752D01*
X181856213Y-62588747D01*
X181720938Y-62354446D01*
X181720936Y-62354442D01*
X181556227Y-62139790D01*
X181364910Y-61948473D01*
X181150258Y-61783764D01*
X181086467Y-61746934D01*
X180915952Y-61648486D01*
X180915936Y-61648479D01*
X180665974Y-61544941D01*
X180404629Y-61474914D01*
X180198793Y-61447816D01*
X180136382Y-61439600D01*
X179865818Y-61439600D01*
X179834612Y-61443708D01*
X179597570Y-61474914D01*
X179336225Y-61544941D01*
X179086263Y-61648479D01*
X179086247Y-61648486D01*
X178851946Y-61783761D01*
X178637294Y-61948469D01*
X178445969Y-62139794D01*
X178281261Y-62354446D01*
X178145986Y-62588747D01*
X178145979Y-62588763D01*
X178042441Y-62838725D01*
X177972414Y-63100070D01*
X177937100Y-63368319D01*
X169181393Y-63368319D01*
X168651799Y-62838725D01*
X168076980Y-62263906D01*
X168076976Y-62263903D01*
X168076974Y-62263901D01*
X167866678Y-62111112D01*
X167866665Y-62111104D01*
X167635060Y-61993096D01*
X167635055Y-61993094D01*
X167387824Y-61912764D01*
X167131082Y-61872100D01*
X167131076Y-61872100D01*
X137291124Y-61872100D01*
X137291117Y-61872100D01*
X137034375Y-61912764D01*
X136787144Y-61993094D01*
X136787139Y-61993096D01*
X136555534Y-62111104D01*
X136555521Y-62111112D01*
X136345225Y-62263901D01*
X132865220Y-65743906D01*
X132865219Y-65743905D01*
X132681405Y-65927720D01*
X132681402Y-65927723D01*
X132528612Y-66138021D01*
X132528604Y-66138034D01*
X132410596Y-66369639D01*
X132410594Y-66369644D01*
X132330264Y-66616875D01*
X132289600Y-66873617D01*
X132289600Y-68871350D01*
X132280594Y-68893094D01*
X132258850Y-68902100D01*
X131997912Y-68902100D01*
X131976168Y-68893094D01*
X131324965Y-68241891D01*
X130626980Y-67543906D01*
X130626976Y-67543903D01*
X130626974Y-67543901D01*
X130416678Y-67391112D01*
X130416665Y-67391104D01*
X130185060Y-67273096D01*
X130185055Y-67273094D01*
X129937824Y-67192764D01*
X129681082Y-67152100D01*
X129681076Y-67152100D01*
X121596576Y-67152100D01*
X121336624Y-67152100D01*
X121336617Y-67152100D01*
X121079874Y-67192764D01*
X120832644Y-67273094D01*
X120832639Y-67273096D01*
X120601034Y-67391104D01*
X120601021Y-67391112D01*
X120390723Y-67543902D01*
X120390720Y-67543905D01*
X120206905Y-67727719D01*
X120206906Y-67727720D01*
X120206903Y-67727723D01*
X118052220Y-69882405D01*
X118052220Y-69882406D01*
X118052219Y-69882405D01*
X117868405Y-70066220D01*
X117868402Y-70066223D01*
X117715612Y-70276521D01*
X117715604Y-70276534D01*
X117597596Y-70508139D01*
X117597594Y-70508144D01*
X117542439Y-70677892D01*
X117527154Y-70695789D01*
X117503692Y-70697635D01*
X117494475Y-70692786D01*
X117451302Y-70659658D01*
X117451297Y-70659655D01*
X117249407Y-70543094D01*
X117249404Y-70543092D01*
X117249398Y-70543089D01*
X117249391Y-70543086D01*
X117034006Y-70453870D01*
X116808812Y-70393530D01*
X116631448Y-70370180D01*
X116577669Y-70363100D01*
X116344531Y-70363100D01*
X116317641Y-70366640D01*
X116113387Y-70393530D01*
X115888193Y-70453870D01*
X115672808Y-70543086D01*
X115672792Y-70543094D01*
X115470902Y-70659655D01*
X115285941Y-70801580D01*
X115121080Y-70966441D01*
X114979155Y-71151402D01*
X114862594Y-71353292D01*
X114862586Y-71353308D01*
X114773370Y-71568693D01*
X114713030Y-71793887D01*
X114682600Y-72025032D01*
X114682600Y-72358668D01*
X114676727Y-72376742D01*
X114588612Y-72498021D01*
X114588604Y-72498034D01*
X114470596Y-72729639D01*
X114470594Y-72729644D01*
X114390264Y-72976875D01*
X114349600Y-73233617D01*
X114349600Y-80175763D01*
X114340594Y-80197507D01*
X114334225Y-80202393D01*
X114248902Y-80251655D01*
X114063941Y-80393580D01*
X113899080Y-80558441D01*
X113757155Y-80743402D01*
X113640594Y-80945292D01*
X113640586Y-80945308D01*
X113551370Y-81160693D01*
X113491030Y-81385887D01*
X113470274Y-81543550D01*
X113460600Y-81617031D01*
X113460600Y-81850169D01*
X113462638Y-81865650D01*
X113491030Y-82081312D01*
X113551370Y-82306506D01*
X113640586Y-82521891D01*
X113640589Y-82521898D01*
X113640592Y-82521904D01*
X113640594Y-82521907D01*
X113733976Y-82683649D01*
X113757158Y-82723802D01*
X113899084Y-82908763D01*
X114063937Y-83073616D01*
X114248898Y-83215542D01*
X114450802Y-83332111D01*
X114609935Y-83398026D01*
X114666195Y-83421330D01*
X114713602Y-83434032D01*
X114732274Y-83448359D01*
X114735346Y-83471692D01*
X114722728Y-83489301D01*
X114640526Y-83544228D01*
X114509731Y-83675023D01*
X114406968Y-83828817D01*
X114406967Y-83828820D01*
X114336187Y-83999699D01*
X114336185Y-83999705D01*
X114300100Y-84181115D01*
X114300100Y-84185099D01*
X114300101Y-84185100D01*
X115498893Y-84185100D01*
X115493100Y-84206720D01*
X115493100Y-84340480D01*
X115498893Y-84362100D01*
X114300101Y-84362100D01*
X114300100Y-84362101D01*
X114300100Y-84366084D01*
X114336185Y-84547494D01*
X114336187Y-84547500D01*
X114406967Y-84718379D01*
X114406968Y-84718382D01*
X114509731Y-84872176D01*
X114640523Y-85002968D01*
X114794317Y-85105731D01*
X114794320Y-85105732D01*
X114965199Y-85176512D01*
X114965205Y-85176514D01*
X115146615Y-85212599D01*
X115146616Y-85212600D01*
X115912599Y-85212600D01*
X115912600Y-85212599D01*
X115912600Y-84775806D01*
X115934220Y-84781600D01*
X116067980Y-84781600D01*
X116089600Y-84775806D01*
X116089600Y-85212599D01*
X116089601Y-85212600D01*
X116855584Y-85212600D01*
X116855584Y-85212599D01*
X117036994Y-85176514D01*
X117037000Y-85176512D01*
X117207879Y-85105732D01*
X117207882Y-85105731D01*
X117361676Y-85002968D01*
X117492468Y-84872176D01*
X117595231Y-84718382D01*
X117595232Y-84718379D01*
X117666012Y-84547500D01*
X117666014Y-84547494D01*
X117702099Y-84366084D01*
X117702100Y-84366084D01*
X117702100Y-84362101D01*
X117702099Y-84362100D01*
X116503307Y-84362100D01*
X116509100Y-84340480D01*
X116509100Y-84206720D01*
X116503307Y-84185100D01*
X117702099Y-84185100D01*
X117702100Y-84185099D01*
X117702100Y-84181116D01*
X117702099Y-84181115D01*
X117666014Y-83999705D01*
X117666012Y-83999699D01*
X117595232Y-83828820D01*
X117595231Y-83828817D01*
X117492468Y-83675023D01*
X117361676Y-83544231D01*
X117279470Y-83489302D01*
X117266395Y-83469733D01*
X117270986Y-83446650D01*
X117288594Y-83434032D01*
X117324655Y-83424370D01*
X117336004Y-83421330D01*
X117336005Y-83421330D01*
X117384332Y-83401312D01*
X117551398Y-83332111D01*
X117753302Y-83215542D01*
X117938263Y-83073616D01*
X118103116Y-82908763D01*
X118245042Y-82723802D01*
X118361611Y-82521898D01*
X118450829Y-82306507D01*
X118511169Y-82081313D01*
X118541600Y-81850169D01*
X118541600Y-81617031D01*
X118511169Y-81385887D01*
X118450829Y-81160693D01*
X118361611Y-80945302D01*
X118245042Y-80743398D01*
X118103116Y-80558437D01*
X117938263Y-80393584D01*
X117753302Y-80251658D01*
X117753297Y-80251655D01*
X117667975Y-80202393D01*
X117653648Y-80183721D01*
X117652600Y-80175763D01*
X117652600Y-75002017D01*
X117661606Y-74980274D01*
X117709356Y-74932523D01*
X117731100Y-74923516D01*
X117752843Y-74932522D01*
X117825937Y-75005616D01*
X118010898Y-75147542D01*
X118212802Y-75264111D01*
X118428193Y-75353329D01*
X118653387Y-75413669D01*
X118884531Y-75444100D01*
X118884536Y-75444100D01*
X119117664Y-75444100D01*
X119117669Y-75444100D01*
X119348813Y-75413669D01*
X119574007Y-75353329D01*
X119789398Y-75264111D01*
X119789409Y-75264105D01*
X119816196Y-75248639D01*
X119843475Y-75232888D01*
X119866808Y-75229817D01*
X119885480Y-75244144D01*
X119889600Y-75259519D01*
X119889600Y-88173582D01*
X119930264Y-88430324D01*
X120010594Y-88677555D01*
X120010596Y-88677560D01*
X120128604Y-88909165D01*
X120128612Y-88909178D01*
X120281401Y-89119474D01*
X120281403Y-89119476D01*
X120281406Y-89119480D01*
X124701406Y-93539480D01*
X124701405Y-93539480D01*
X124885220Y-93723294D01*
X124885223Y-93723297D01*
X125059845Y-93850167D01*
X125095525Y-93876090D01*
X125095530Y-93876092D01*
X125095534Y-93876095D01*
X125327139Y-93994103D01*
X125327144Y-93994105D01*
X125574373Y-94074435D01*
X125747504Y-94101856D01*
X125831117Y-94115099D01*
X125831118Y-94115099D01*
X125831124Y-94115100D01*
X128112613Y-94115100D01*
X128124381Y-94117441D01*
X128206195Y-94151330D01*
X128253602Y-94164032D01*
X128272274Y-94178359D01*
X128275346Y-94201692D01*
X128262728Y-94219301D01*
X128180526Y-94274228D01*
X128049731Y-94405023D01*
X127946968Y-94558817D01*
X127946967Y-94558820D01*
X127876187Y-94729699D01*
X127876185Y-94729705D01*
X127840100Y-94911115D01*
X127840100Y-94915099D01*
X127840101Y-94915100D01*
X129038893Y-94915100D01*
X129033100Y-94936720D01*
X129033100Y-95070480D01*
X129038893Y-95092100D01*
X127840101Y-95092100D01*
X127840100Y-95092101D01*
X127840100Y-95096084D01*
X127876185Y-95277494D01*
X127876187Y-95277500D01*
X127946967Y-95448379D01*
X127946968Y-95448382D01*
X128049731Y-95602176D01*
X128180523Y-95732968D01*
X128262728Y-95787896D01*
X128275803Y-95807465D01*
X128271212Y-95830548D01*
X128253603Y-95843166D01*
X128206199Y-95855868D01*
X128206183Y-95855874D01*
X128124381Y-95889759D01*
X128112613Y-95892100D01*
X126458529Y-95892100D01*
X126436785Y-95883094D01*
X126428158Y-95866161D01*
X126421935Y-95826874D01*
X126421293Y-95824899D01*
X126341605Y-95579644D01*
X126341603Y-95579639D01*
X126223595Y-95348034D01*
X126223592Y-95348030D01*
X126223590Y-95348025D01*
X126180097Y-95288162D01*
X126070797Y-95137723D01*
X126070794Y-95137720D01*
X125886980Y-94953905D01*
X125886980Y-94953906D01*
X123406980Y-92473906D01*
X123406976Y-92473903D01*
X123406974Y-92473901D01*
X123196678Y-92321112D01*
X123196665Y-92321104D01*
X122965060Y-92203096D01*
X122965055Y-92203094D01*
X122717824Y-92122764D01*
X122461082Y-92082100D01*
X122461076Y-92082100D01*
X117429587Y-92082100D01*
X117417819Y-92079759D01*
X117336016Y-92045874D01*
X117336001Y-92045868D01*
X117110812Y-91985530D01*
X116933448Y-91962180D01*
X116879669Y-91955100D01*
X115122531Y-91955100D01*
X115095641Y-91958640D01*
X114891387Y-91985530D01*
X114666193Y-92045870D01*
X114450808Y-92135086D01*
X114450792Y-92135094D01*
X114248902Y-92251655D01*
X114063941Y-92393580D01*
X113899080Y-92558441D01*
X113757155Y-92743402D01*
X113640594Y-92945292D01*
X113640586Y-92945308D01*
X113551370Y-93160693D01*
X113491030Y-93385887D01*
X113460600Y-93617032D01*
X113460600Y-93850167D01*
X113491030Y-94081312D01*
X113551370Y-94306506D01*
X113629696Y-94495600D01*
X113640589Y-94521898D01*
X113640592Y-94521904D01*
X113640594Y-94521907D01*
X113738612Y-94691680D01*
X113757158Y-94723802D01*
X113899084Y-94908763D01*
X114063937Y-95073616D01*
X114248898Y-95215542D01*
X114450802Y-95332111D01*
X114578729Y-95385100D01*
X114666195Y-95421330D01*
X114713602Y-95434032D01*
X114732274Y-95448359D01*
X114735346Y-95471692D01*
X114722728Y-95489301D01*
X114640526Y-95544228D01*
X114509731Y-95675023D01*
X114406968Y-95828817D01*
X114406967Y-95828820D01*
X114336187Y-95999699D01*
X114336185Y-95999705D01*
X114300100Y-96181115D01*
X114300100Y-96185099D01*
X114300101Y-96185100D01*
X115498893Y-96185100D01*
X115493100Y-96206720D01*
X115493100Y-96340480D01*
X115498893Y-96362100D01*
X114300101Y-96362100D01*
X114300100Y-96362101D01*
X114300100Y-96366084D01*
X114336185Y-96547494D01*
X114336187Y-96547500D01*
X114406967Y-96718379D01*
X114406968Y-96718382D01*
X114509731Y-96872176D01*
X114640523Y-97002968D01*
X114794317Y-97105731D01*
X114794320Y-97105732D01*
X114965199Y-97176512D01*
X114965205Y-97176514D01*
X115146615Y-97212599D01*
X115146616Y-97212600D01*
X115912599Y-97212600D01*
X115912600Y-97212599D01*
X115912600Y-96775806D01*
X115934220Y-96781600D01*
X116067980Y-96781600D01*
X116089600Y-96775806D01*
X116089600Y-97212599D01*
X116089601Y-97212600D01*
X116855584Y-97212600D01*
X116855584Y-97212599D01*
X117036994Y-97176514D01*
X117037000Y-97176512D01*
X117168094Y-97122212D01*
X117207880Y-97105732D01*
X117207882Y-97105731D01*
X117361676Y-97002968D01*
X117492468Y-96872176D01*
X117595231Y-96718382D01*
X117595232Y-96718379D01*
X117666012Y-96547500D01*
X117666014Y-96547494D01*
X117702099Y-96366084D01*
X117702100Y-96366084D01*
X117702100Y-96362101D01*
X117702099Y-96362100D01*
X116503307Y-96362100D01*
X116509100Y-96340480D01*
X116509100Y-96206720D01*
X116503307Y-96185100D01*
X117702099Y-96185100D01*
X117702100Y-96185099D01*
X117702100Y-96181116D01*
X117702099Y-96181115D01*
X117666014Y-95999705D01*
X117666012Y-95999699D01*
X117595232Y-95828820D01*
X117595231Y-95828817D01*
X117492468Y-95675023D01*
X117361676Y-95544231D01*
X117279470Y-95489302D01*
X117266395Y-95469733D01*
X117270986Y-95446650D01*
X117288594Y-95434032D01*
X117324655Y-95424370D01*
X117336004Y-95421330D01*
X117336005Y-95421330D01*
X117417819Y-95387441D01*
X117429587Y-95385100D01*
X121634288Y-95385100D01*
X121656032Y-95394106D01*
X123136956Y-96875030D01*
X123145962Y-96896774D01*
X123143622Y-96908540D01*
X123133265Y-96933546D01*
X123133264Y-96933550D01*
X123096712Y-97117302D01*
X123083637Y-97136871D01*
X123060554Y-97141462D01*
X123044809Y-97133047D01*
X122577961Y-96666200D01*
X122319601Y-96666200D01*
X122319600Y-96666201D01*
X122319600Y-97106576D01*
X122284604Y-97097200D01*
X122177596Y-97097200D01*
X122142600Y-97106576D01*
X122142600Y-96666201D01*
X122142599Y-96666200D01*
X121884238Y-96666200D01*
X121393700Y-97156738D01*
X121393700Y-97415099D01*
X121393701Y-97415100D01*
X121834077Y-97415100D01*
X121824700Y-97450096D01*
X121824700Y-97557104D01*
X121834077Y-97592100D01*
X121393701Y-97592100D01*
X121393700Y-97592101D01*
X121393700Y-97850461D01*
X121884239Y-98341000D01*
X122142599Y-98341000D01*
X122142600Y-98340999D01*
X122142600Y-97900623D01*
X122177596Y-97910000D01*
X122284604Y-97910000D01*
X122319600Y-97900623D01*
X122319600Y-98340999D01*
X122319601Y-98341000D01*
X122577963Y-98341000D01*
X123044810Y-97874151D01*
X123066554Y-97865144D01*
X123088297Y-97874150D01*
X123096713Y-97889895D01*
X123133262Y-98073647D01*
X123133263Y-98073649D01*
X123209889Y-98258640D01*
X123321133Y-98425128D01*
X123849572Y-98953568D01*
X124016060Y-99064810D01*
X124201051Y-99141436D01*
X124397436Y-99180500D01*
X124586515Y-99180499D01*
X124591325Y-99180878D01*
X124681117Y-99195100D01*
X124681118Y-99195100D01*
X124681124Y-99195101D01*
X124681130Y-99195101D01*
X124942334Y-99195101D01*
X124942358Y-99195100D01*
X128112613Y-99195100D01*
X128124380Y-99197440D01*
X128139250Y-99203600D01*
X128206183Y-99231325D01*
X128206198Y-99231331D01*
X128431387Y-99291669D01*
X128662531Y-99322100D01*
X128662536Y-99322100D01*
X130419664Y-99322100D01*
X130419669Y-99322100D01*
X130650813Y-99291669D01*
X130876007Y-99231329D01*
X131091398Y-99142111D01*
X131293302Y-99025542D01*
X131478263Y-98883616D01*
X131643116Y-98718763D01*
X131785042Y-98533802D01*
X131901611Y-98331898D01*
X131990829Y-98116507D01*
X132051169Y-97891313D01*
X132081600Y-97660169D01*
X132081600Y-97427031D01*
X132051169Y-97195887D01*
X131990829Y-96970693D01*
X131901611Y-96755302D01*
X131785042Y-96553398D01*
X131643116Y-96368437D01*
X131478263Y-96203584D01*
X131293302Y-96061658D01*
X131185986Y-95999699D01*
X131091407Y-95945094D01*
X131091404Y-95945092D01*
X131091398Y-95945089D01*
X131007012Y-95910135D01*
X130876006Y-95855870D01*
X130828595Y-95843166D01*
X130809924Y-95828839D01*
X130806852Y-95805505D01*
X130819470Y-95787896D01*
X130901676Y-95732968D01*
X131032468Y-95602176D01*
X131135231Y-95448382D01*
X131135232Y-95448379D01*
X131206012Y-95277500D01*
X131206014Y-95277494D01*
X131242099Y-95096084D01*
X131242100Y-95096084D01*
X131242100Y-95092101D01*
X131242099Y-95092100D01*
X130043307Y-95092100D01*
X130049100Y-95070480D01*
X130049100Y-94936720D01*
X130043307Y-94915100D01*
X131242099Y-94915100D01*
X131242100Y-94915099D01*
X131242100Y-94911116D01*
X131242099Y-94911115D01*
X131206014Y-94729705D01*
X131206012Y-94729699D01*
X131135232Y-94558820D01*
X131135231Y-94558817D01*
X131032468Y-94405023D01*
X130901676Y-94274231D01*
X130819470Y-94219302D01*
X130806395Y-94199733D01*
X130810986Y-94176650D01*
X130828594Y-94164032D01*
X130864655Y-94154370D01*
X130876004Y-94151330D01*
X130876005Y-94151330D01*
X130910507Y-94137038D01*
X131091398Y-94062111D01*
X131293302Y-93945542D01*
X131478263Y-93803616D01*
X131643116Y-93638763D01*
X131785042Y-93453802D01*
X131901611Y-93251898D01*
X131990829Y-93036507D01*
X132051169Y-92811313D01*
X132081600Y-92580169D01*
X132081600Y-92347031D01*
X132067026Y-92236337D01*
X132072637Y-92214249D01*
X132083590Y-92199175D01*
X132201605Y-91967556D01*
X132219620Y-91912111D01*
X132281935Y-91720328D01*
X132322600Y-91463576D01*
X132322600Y-91203624D01*
X132322600Y-88107983D01*
X132323191Y-88101984D01*
X132345487Y-87989895D01*
X132348000Y-87977264D01*
X132347999Y-87229936D01*
X132308937Y-87033551D01*
X132232311Y-86848560D01*
X132121067Y-86682072D01*
X131592628Y-86153632D01*
X131426140Y-86042390D01*
X131241149Y-85965764D01*
X131241147Y-85965763D01*
X131044765Y-85926700D01*
X130297435Y-85926700D01*
X130297434Y-85926701D01*
X130101052Y-85965762D01*
X130101050Y-85965763D01*
X129916060Y-86042389D01*
X129749572Y-86153633D01*
X129221129Y-86682075D01*
X129109890Y-86848560D01*
X129033264Y-87033550D01*
X129033263Y-87033552D01*
X128996712Y-87217302D01*
X128983637Y-87236871D01*
X128960554Y-87241462D01*
X128944809Y-87233047D01*
X128477961Y-86766200D01*
X128219601Y-86766200D01*
X128219600Y-86766201D01*
X128219600Y-87206576D01*
X128184604Y-87197200D01*
X128077596Y-87197200D01*
X128042600Y-87206576D01*
X128042600Y-86766201D01*
X128042599Y-86766200D01*
X127784238Y-86766200D01*
X127293700Y-87256738D01*
X127293700Y-87515099D01*
X127293701Y-87515100D01*
X127734077Y-87515100D01*
X127724700Y-87550096D01*
X127724700Y-87657104D01*
X127734077Y-87692100D01*
X127293701Y-87692100D01*
X127293700Y-87692101D01*
X127293700Y-87950461D01*
X127784239Y-88441000D01*
X128042599Y-88441000D01*
X128042600Y-88440999D01*
X128042600Y-88000623D01*
X128077596Y-88010000D01*
X128184604Y-88010000D01*
X128219600Y-88000623D01*
X128219600Y-88440999D01*
X128219601Y-88441000D01*
X128477963Y-88441000D01*
X128944810Y-87974151D01*
X128966554Y-87965144D01*
X128988297Y-87974150D01*
X128996713Y-87989895D01*
X129019009Y-88101985D01*
X129019600Y-88107984D01*
X129019600Y-90636788D01*
X129010594Y-90658532D01*
X128993032Y-90676094D01*
X128971288Y-90685100D01*
X128662531Y-90685100D01*
X128635641Y-90688640D01*
X128431387Y-90715530D01*
X128206198Y-90775868D01*
X128206183Y-90775874D01*
X128124381Y-90809759D01*
X128112613Y-90812100D01*
X126657912Y-90812100D01*
X126636168Y-90803094D01*
X123201606Y-87368532D01*
X123192600Y-87346788D01*
X123192600Y-74332087D01*
X123194941Y-74320319D01*
X123195527Y-74318905D01*
X123228829Y-74238507D01*
X123289169Y-74013313D01*
X123319600Y-73782169D01*
X123319600Y-72025031D01*
X123289169Y-71793887D01*
X123228829Y-71568693D01*
X123139611Y-71353302D01*
X123023042Y-71151398D01*
X122881116Y-70966437D01*
X122716263Y-70801584D01*
X122531302Y-70659658D01*
X122531297Y-70659655D01*
X122329407Y-70543094D01*
X122329404Y-70543092D01*
X122329398Y-70543089D01*
X122329391Y-70543086D01*
X122259797Y-70514259D01*
X122243156Y-70497617D01*
X122243156Y-70474082D01*
X122259798Y-70457441D01*
X122271565Y-70455100D01*
X128299788Y-70455100D01*
X128321532Y-70464106D01*
X128330538Y-70485850D01*
X128321532Y-70507594D01*
X126745220Y-72083906D01*
X126745219Y-72083905D01*
X126561405Y-72267720D01*
X126561402Y-72267723D01*
X126408612Y-72478021D01*
X126408604Y-72478034D01*
X126290596Y-72709639D01*
X126290594Y-72709644D01*
X126210264Y-72956875D01*
X126169600Y-73213617D01*
X126169600Y-73875763D01*
X126160594Y-73897507D01*
X126154225Y-73902393D01*
X126068902Y-73951655D01*
X125883941Y-74093580D01*
X125719080Y-74258441D01*
X125577155Y-74443402D01*
X125460594Y-74645292D01*
X125460586Y-74645308D01*
X125371370Y-74860693D01*
X125311030Y-75085887D01*
X125290196Y-75244144D01*
X125280600Y-75317031D01*
X125280600Y-75550169D01*
X125286603Y-75595763D01*
X125311030Y-75781312D01*
X125371370Y-76006506D01*
X125429777Y-76147512D01*
X125460589Y-76221898D01*
X125460592Y-76221904D01*
X125460594Y-76221907D01*
X125518300Y-76321857D01*
X125577158Y-76423802D01*
X125719084Y-76608763D01*
X125883937Y-76773616D01*
X126068898Y-76915542D01*
X126270802Y-77032111D01*
X126409288Y-77089474D01*
X126486195Y-77121330D01*
X126533602Y-77134032D01*
X126552274Y-77148359D01*
X126555346Y-77171692D01*
X126542728Y-77189301D01*
X126460526Y-77244228D01*
X126329731Y-77375023D01*
X126226968Y-77528817D01*
X126226967Y-77528820D01*
X126156187Y-77699699D01*
X126156185Y-77699705D01*
X126120100Y-77881115D01*
X126120100Y-77885099D01*
X126120101Y-77885100D01*
X127318893Y-77885100D01*
X127313100Y-77906720D01*
X127313100Y-78040480D01*
X127318893Y-78062100D01*
X126120101Y-78062100D01*
X126120100Y-78062101D01*
X126120100Y-78066084D01*
X126156185Y-78247494D01*
X126156187Y-78247500D01*
X126226967Y-78418379D01*
X126226968Y-78418382D01*
X126329731Y-78572176D01*
X126460523Y-78702968D01*
X126542728Y-78757896D01*
X126555803Y-78777465D01*
X126551212Y-78800548D01*
X126533603Y-78813166D01*
X126486199Y-78825868D01*
X126486182Y-78825874D01*
X126270808Y-78915086D01*
X126270792Y-78915094D01*
X126068902Y-79031655D01*
X125883941Y-79173580D01*
X125719080Y-79338441D01*
X125577155Y-79523402D01*
X125460594Y-79725292D01*
X125460586Y-79725308D01*
X125371370Y-79940693D01*
X125311030Y-80165887D01*
X125284140Y-80370141D01*
X125280600Y-80397031D01*
X125280600Y-80630169D01*
X125285005Y-80663629D01*
X125311030Y-80861312D01*
X125371370Y-81086506D01*
X125453044Y-81283682D01*
X125460589Y-81301898D01*
X125460592Y-81301904D01*
X125460594Y-81301907D01*
X125518300Y-81401857D01*
X125577158Y-81503802D01*
X125664042Y-81617031D01*
X125719083Y-81688762D01*
X125792177Y-81761857D01*
X125801183Y-81783600D01*
X125792177Y-81805343D01*
X125719083Y-81878437D01*
X125577155Y-82063402D01*
X125460594Y-82265292D01*
X125460586Y-82265308D01*
X125371370Y-82480693D01*
X125311030Y-82705887D01*
X125280600Y-82937032D01*
X125280600Y-83170167D01*
X125311030Y-83401312D01*
X125371370Y-83626506D01*
X125391467Y-83675023D01*
X125460589Y-83841898D01*
X125460592Y-83841904D01*
X125460594Y-83841907D01*
X125476099Y-83868762D01*
X125577158Y-84043802D01*
X125719084Y-84228763D01*
X125883937Y-84393616D01*
X126068898Y-84535542D01*
X126270802Y-84652111D01*
X126486193Y-84741329D01*
X126711387Y-84801669D01*
X126942531Y-84832100D01*
X126942536Y-84832100D01*
X128699664Y-84832100D01*
X128699669Y-84832100D01*
X128930813Y-84801669D01*
X129156007Y-84741329D01*
X129371398Y-84652111D01*
X129573302Y-84535542D01*
X129758263Y-84393616D01*
X129763118Y-84388760D01*
X129767975Y-84383905D01*
X129789717Y-84374900D01*
X133691061Y-84374900D01*
X133712805Y-84383906D01*
X134314857Y-84985958D01*
X134323863Y-85007702D01*
X134321523Y-85019469D01*
X134303263Y-85063553D01*
X134264200Y-85259934D01*
X134264200Y-86007264D01*
X134264201Y-86007265D01*
X134303262Y-86203647D01*
X134303263Y-86203649D01*
X134379889Y-86388640D01*
X134491133Y-86555128D01*
X135019572Y-87083568D01*
X135186060Y-87194810D01*
X135371051Y-87271436D01*
X135567436Y-87310500D01*
X136314764Y-87310499D01*
X136511149Y-87271437D01*
X136696140Y-87194811D01*
X136862628Y-87083567D01*
X137391068Y-86555128D01*
X137502310Y-86388640D01*
X137578936Y-86203649D01*
X137618000Y-86007264D01*
X137617999Y-85259936D01*
X137578937Y-85063551D01*
X137502311Y-84878560D01*
X137473244Y-84835058D01*
X137468653Y-84811975D01*
X137477067Y-84796232D01*
X137658932Y-84614369D01*
X138199395Y-84073906D01*
X138221139Y-84064900D01*
X142334269Y-84064900D01*
X142352987Y-84071253D01*
X142488898Y-84175542D01*
X142690802Y-84292111D01*
X142807575Y-84340480D01*
X142906195Y-84381330D01*
X142946090Y-84392019D01*
X142952060Y-84393619D01*
X142953602Y-84394032D01*
X142972274Y-84408359D01*
X142975346Y-84431692D01*
X142962728Y-84449301D01*
X142880526Y-84504228D01*
X142749731Y-84635023D01*
X142646968Y-84788817D01*
X142646967Y-84788820D01*
X142576187Y-84959699D01*
X142576185Y-84959705D01*
X142540100Y-85141115D01*
X142540100Y-85145099D01*
X142540101Y-85145100D01*
X143738893Y-85145100D01*
X143733100Y-85166720D01*
X143733100Y-85300480D01*
X143738893Y-85322100D01*
X142540101Y-85322100D01*
X142540100Y-85322101D01*
X142540100Y-85326084D01*
X142576185Y-85507494D01*
X142576187Y-85507500D01*
X142646967Y-85678379D01*
X142646968Y-85678382D01*
X142749731Y-85832176D01*
X142880523Y-85962968D01*
X142962728Y-86017896D01*
X142975803Y-86037465D01*
X142971212Y-86060548D01*
X142953603Y-86073166D01*
X142906199Y-86085868D01*
X142906182Y-86085874D01*
X142690808Y-86175086D01*
X142690792Y-86175094D01*
X142488902Y-86291655D01*
X142303941Y-86433580D01*
X142139080Y-86598441D01*
X141997155Y-86783402D01*
X141880594Y-86985292D01*
X141880586Y-86985308D01*
X141791370Y-87200693D01*
X141731030Y-87425887D01*
X141700600Y-87657032D01*
X141700600Y-87890167D01*
X141731030Y-88121312D01*
X141791370Y-88346506D01*
X141826089Y-88430324D01*
X141880589Y-88561898D01*
X141880592Y-88561904D01*
X141880594Y-88561907D01*
X141947363Y-88677555D01*
X141997158Y-88763802D01*
X142108201Y-88908515D01*
X142139083Y-88948762D01*
X142212177Y-89021857D01*
X142221183Y-89043600D01*
X142212177Y-89065343D01*
X142139083Y-89138437D01*
X141997155Y-89323402D01*
X141880594Y-89525292D01*
X141880586Y-89525308D01*
X141791370Y-89740693D01*
X141731030Y-89965887D01*
X141700600Y-90197032D01*
X141700600Y-90430167D01*
X141731030Y-90661312D01*
X141791370Y-90886506D01*
X141820978Y-90957985D01*
X141880589Y-91101898D01*
X141997158Y-91303802D01*
X142107769Y-91447953D01*
X142134532Y-91482831D01*
X142140623Y-91505564D01*
X142128855Y-91525946D01*
X142110136Y-91532300D01*
X140687104Y-91532300D01*
X140577057Y-91549731D01*
X140481697Y-91564834D01*
X140283897Y-91629102D01*
X140283892Y-91629104D01*
X140098597Y-91723517D01*
X140098584Y-91723525D01*
X139930336Y-91845763D01*
X133973263Y-97802836D01*
X133895406Y-97910000D01*
X133880637Y-97930328D01*
X133851023Y-97971088D01*
X133851021Y-97971091D01*
X133851017Y-97971097D01*
X133756604Y-98156392D01*
X133756602Y-98156397D01*
X133692334Y-98354197D01*
X133659800Y-98559604D01*
X133659800Y-115183561D01*
X133650794Y-115205305D01*
X129575094Y-119281005D01*
X129553350Y-119290011D01*
X129531606Y-119281005D01*
X129522600Y-119259261D01*
X129522600Y-118700411D01*
X129531605Y-118678668D01*
X130800794Y-117409480D01*
X130953590Y-117199175D01*
X131071605Y-116967556D01*
X131151935Y-116720327D01*
X131192600Y-116463576D01*
X131192600Y-116203624D01*
X131192600Y-113601435D01*
X131201606Y-113579691D01*
X131207973Y-113574806D01*
X131293302Y-113525542D01*
X131478263Y-113383616D01*
X131643116Y-113218763D01*
X131785042Y-113033802D01*
X131901611Y-112831898D01*
X131990829Y-112616507D01*
X132051169Y-112391313D01*
X132081600Y-112160169D01*
X132081600Y-111927031D01*
X132051169Y-111695887D01*
X131990829Y-111470693D01*
X131901611Y-111255302D01*
X131785042Y-111053398D01*
X131643116Y-110868437D01*
X131478263Y-110703584D01*
X131293302Y-110561658D01*
X131293297Y-110561655D01*
X131091407Y-110445094D01*
X131091404Y-110445092D01*
X131091398Y-110445089D01*
X131091391Y-110445086D01*
X130876006Y-110355870D01*
X130828595Y-110343166D01*
X130809924Y-110328839D01*
X130806852Y-110305505D01*
X130819470Y-110287896D01*
X130901676Y-110232968D01*
X131032468Y-110102176D01*
X131135231Y-109948382D01*
X131135232Y-109948379D01*
X131206012Y-109777500D01*
X131206014Y-109777494D01*
X131242099Y-109596084D01*
X131242100Y-109596084D01*
X131242100Y-109592101D01*
X131242099Y-109592100D01*
X130043307Y-109592100D01*
X130049100Y-109570480D01*
X130049100Y-109436720D01*
X130043307Y-109415100D01*
X131242099Y-109415100D01*
X131242100Y-109415099D01*
X131242100Y-109411116D01*
X131242099Y-109411115D01*
X131206014Y-109229705D01*
X131206012Y-109229699D01*
X131135232Y-109058820D01*
X131135231Y-109058817D01*
X131032468Y-108905023D01*
X130901676Y-108774231D01*
X130819470Y-108719302D01*
X130806395Y-108699733D01*
X130810986Y-108676650D01*
X130828594Y-108664032D01*
X130864655Y-108654370D01*
X130876004Y-108651330D01*
X130876005Y-108651330D01*
X130910507Y-108637038D01*
X131091398Y-108562111D01*
X131293302Y-108445542D01*
X131478263Y-108303616D01*
X131643116Y-108138763D01*
X131785042Y-107953802D01*
X131901611Y-107751898D01*
X131990829Y-107536507D01*
X132051169Y-107311313D01*
X132081600Y-107080169D01*
X132081600Y-106847031D01*
X132051169Y-106615887D01*
X131990829Y-106390693D01*
X131901611Y-106175302D01*
X131785042Y-105973398D01*
X131643116Y-105788437D01*
X131478263Y-105623584D01*
X131293302Y-105481658D01*
X131225286Y-105442389D01*
X131091407Y-105365094D01*
X131091404Y-105365092D01*
X131091398Y-105365089D01*
X131091391Y-105365086D01*
X130983432Y-105320367D01*
X130967802Y-105305918D01*
X130953590Y-105278025D01*
X130867273Y-105159220D01*
X130800797Y-105067723D01*
X130800794Y-105067720D01*
X130616980Y-104883905D01*
X130616980Y-104883906D01*
X127976980Y-102243906D01*
X127976976Y-102243903D01*
X127976974Y-102243901D01*
X127766678Y-102091112D01*
X127766665Y-102091104D01*
X127535060Y-101973096D01*
X127535055Y-101973094D01*
X127287824Y-101892764D01*
X127031082Y-101852100D01*
X127031076Y-101852100D01*
X117494252Y-101852100D01*
X117491947Y-101852013D01*
X117488704Y-101851769D01*
X117425317Y-101847002D01*
X117425313Y-101847002D01*
X117364570Y-101851997D01*
X117362050Y-101852100D01*
X117301117Y-101852100D01*
X117235144Y-101862549D01*
X117232854Y-101862825D01*
X117166235Y-101868303D01*
X117107025Y-101882736D01*
X117104554Y-101883232D01*
X117044374Y-101892764D01*
X116980821Y-101913413D01*
X116978602Y-101914043D01*
X116913682Y-101929870D01*
X116913679Y-101929871D01*
X116857467Y-101953384D01*
X116855104Y-101954261D01*
X116797145Y-101973094D01*
X116737599Y-102003433D01*
X116735506Y-102004402D01*
X116673867Y-102030187D01*
X116673863Y-102030189D01*
X116622009Y-102062213D01*
X116619812Y-102063448D01*
X116565534Y-102091104D01*
X116565530Y-102091106D01*
X116511463Y-102130388D01*
X116509547Y-102131672D01*
X116452700Y-102166781D01*
X116452695Y-102166785D01*
X116406492Y-102206526D01*
X116404515Y-102208090D01*
X116355219Y-102243906D01*
X116307974Y-102291150D01*
X116306283Y-102292719D01*
X115544846Y-102947663D01*
X115524794Y-102955100D01*
X115122531Y-102955100D01*
X115095641Y-102958640D01*
X114891387Y-102985530D01*
X114666193Y-103045870D01*
X114450808Y-103135086D01*
X114450792Y-103135094D01*
X114248902Y-103251655D01*
X114063941Y-103393580D01*
X113899080Y-103558441D01*
X113757155Y-103743402D01*
X113640594Y-103945292D01*
X113640586Y-103945308D01*
X113551370Y-104160693D01*
X113491030Y-104385887D01*
X113467661Y-104563398D01*
X113460600Y-104617031D01*
X113460600Y-104850169D01*
X113465042Y-104883906D01*
X113491030Y-105081312D01*
X113551370Y-105306506D01*
X113605436Y-105437031D01*
X113640589Y-105521898D01*
X113757158Y-105723802D01*
X113899084Y-105908763D01*
X114063937Y-106073616D01*
X114248898Y-106215542D01*
X114450802Y-106332111D01*
X114578277Y-106384913D01*
X114666195Y-106421330D01*
X114706090Y-106432019D01*
X114711810Y-106433552D01*
X114713602Y-106434032D01*
X114732274Y-106448359D01*
X114735346Y-106471692D01*
X114722728Y-106489301D01*
X114640526Y-106544228D01*
X114509731Y-106675023D01*
X114406968Y-106828817D01*
X114406967Y-106828820D01*
X114336187Y-106999699D01*
X114336185Y-106999705D01*
X114300100Y-107181115D01*
X114300100Y-107185099D01*
X114300101Y-107185100D01*
X115498893Y-107185100D01*
X115493100Y-107206720D01*
X115493100Y-107340480D01*
X115498893Y-107362100D01*
X114300101Y-107362100D01*
X114300100Y-107362101D01*
X114300100Y-107366084D01*
X114336185Y-107547494D01*
X114336187Y-107547500D01*
X114406967Y-107718379D01*
X114406968Y-107718382D01*
X114509731Y-107872176D01*
X114640523Y-108002968D01*
X114794317Y-108105731D01*
X114794320Y-108105732D01*
X114965199Y-108176512D01*
X114965205Y-108176514D01*
X115146615Y-108212599D01*
X115146616Y-108212600D01*
X115912599Y-108212600D01*
X115912600Y-108212599D01*
X115912600Y-107775806D01*
X115934220Y-107781600D01*
X116067980Y-107781600D01*
X116089600Y-107775806D01*
X116089600Y-108212599D01*
X116089601Y-108212600D01*
X116855584Y-108212600D01*
X116855584Y-108212599D01*
X117036994Y-108176514D01*
X117037000Y-108176512D01*
X117207879Y-108105732D01*
X117207882Y-108105731D01*
X117361676Y-108002968D01*
X117492468Y-107872176D01*
X117595231Y-107718382D01*
X117595232Y-107718379D01*
X117666012Y-107547500D01*
X117666014Y-107547494D01*
X117702099Y-107366084D01*
X117702100Y-107366084D01*
X117702100Y-107362101D01*
X117702099Y-107362100D01*
X116503307Y-107362100D01*
X116509100Y-107340480D01*
X116509100Y-107206720D01*
X116503307Y-107185100D01*
X117702099Y-107185100D01*
X117702100Y-107185099D01*
X117702100Y-107181116D01*
X117702099Y-107181115D01*
X117683053Y-107085362D01*
X117666014Y-106999705D01*
X117666012Y-106999699D01*
X117595232Y-106828820D01*
X117595231Y-106828817D01*
X117492468Y-106675023D01*
X117361676Y-106544231D01*
X117279470Y-106489302D01*
X117266395Y-106469733D01*
X117270986Y-106446650D01*
X117288594Y-106434032D01*
X117324655Y-106424370D01*
X117336004Y-106421330D01*
X117336005Y-106421330D01*
X117370507Y-106407038D01*
X117551398Y-106332111D01*
X117753302Y-106215542D01*
X117938263Y-106073616D01*
X118103116Y-105908763D01*
X118245042Y-105723802D01*
X118361611Y-105521898D01*
X118450829Y-105306507D01*
X118450830Y-105306505D01*
X118450830Y-105306504D01*
X118485291Y-105177892D01*
X118499618Y-105159220D01*
X118514993Y-105155100D01*
X126204288Y-105155100D01*
X126226032Y-105164106D01*
X126361532Y-105299606D01*
X126370538Y-105321350D01*
X126361532Y-105343094D01*
X126339788Y-105352100D01*
X125275484Y-105352100D01*
X125269485Y-105351509D01*
X125144765Y-105326700D01*
X124397435Y-105326700D01*
X124397434Y-105326701D01*
X124201052Y-105365762D01*
X124201050Y-105365763D01*
X124016060Y-105442389D01*
X123849572Y-105553633D01*
X123321129Y-106082075D01*
X123209890Y-106248560D01*
X123133264Y-106433550D01*
X123133263Y-106433552D01*
X123096712Y-106617302D01*
X123083637Y-106636871D01*
X123060554Y-106641462D01*
X123044809Y-106633047D01*
X122577961Y-106166200D01*
X122319601Y-106166200D01*
X122319600Y-106166201D01*
X122319600Y-106606576D01*
X122284604Y-106597200D01*
X122177596Y-106597200D01*
X122142600Y-106606576D01*
X122142600Y-106166201D01*
X122142599Y-106166200D01*
X121884238Y-106166200D01*
X121393700Y-106656738D01*
X121393700Y-106915099D01*
X121393701Y-106915100D01*
X121834077Y-106915100D01*
X121824700Y-106950096D01*
X121824700Y-107057104D01*
X121834077Y-107092100D01*
X121393701Y-107092100D01*
X121393700Y-107092101D01*
X121393700Y-107350461D01*
X121884239Y-107841000D01*
X122142599Y-107841000D01*
X122142600Y-107840999D01*
X122142600Y-107400623D01*
X122177596Y-107410000D01*
X122284604Y-107410000D01*
X122319600Y-107400623D01*
X122319600Y-107840999D01*
X122319601Y-107841000D01*
X122577963Y-107841000D01*
X123044810Y-107374151D01*
X123066554Y-107365144D01*
X123088297Y-107374150D01*
X123096713Y-107389895D01*
X123133262Y-107573647D01*
X123133263Y-107573649D01*
X123209889Y-107758640D01*
X123321133Y-107925128D01*
X123849572Y-108453568D01*
X124016060Y-108564810D01*
X124201051Y-108641436D01*
X124397436Y-108680500D01*
X125144764Y-108680499D01*
X125269487Y-108655691D01*
X125275486Y-108655100D01*
X128216220Y-108655100D01*
X128224178Y-108656148D01*
X128253603Y-108664032D01*
X128272275Y-108678359D01*
X128275347Y-108701692D01*
X128262729Y-108719301D01*
X128180526Y-108774228D01*
X128049731Y-108905023D01*
X127946968Y-109058817D01*
X127946967Y-109058820D01*
X127876187Y-109229699D01*
X127876185Y-109229705D01*
X127840100Y-109411115D01*
X127840100Y-109415099D01*
X127840101Y-109415100D01*
X129038893Y-109415100D01*
X129033100Y-109436720D01*
X129033100Y-109570480D01*
X129038893Y-109592100D01*
X127840101Y-109592100D01*
X127840100Y-109592101D01*
X127840100Y-109596084D01*
X127876185Y-109777494D01*
X127876187Y-109777500D01*
X127946967Y-109948379D01*
X127946968Y-109948382D01*
X128049731Y-110102176D01*
X128180523Y-110232968D01*
X128262728Y-110287896D01*
X128275803Y-110307465D01*
X128271212Y-110330548D01*
X128253603Y-110343166D01*
X128206199Y-110355868D01*
X128206183Y-110355874D01*
X128124381Y-110389759D01*
X128112613Y-110392100D01*
X126411117Y-110392100D01*
X126154375Y-110432764D01*
X125907144Y-110513094D01*
X125907139Y-110513096D01*
X125675534Y-110631104D01*
X125675521Y-110631112D01*
X125465223Y-110783902D01*
X125465220Y-110783905D01*
X124819412Y-111429711D01*
X124805629Y-111437669D01*
X124783649Y-111443559D01*
X124559033Y-111536598D01*
X124559017Y-111536606D01*
X124348477Y-111658161D01*
X124155591Y-111806166D01*
X123983666Y-111978091D01*
X123835661Y-112170977D01*
X123714106Y-112381517D01*
X123714098Y-112381533D01*
X123621063Y-112606136D01*
X123621057Y-112606152D01*
X123558133Y-112840990D01*
X123526400Y-113082038D01*
X123526400Y-113325161D01*
X123558133Y-113566209D01*
X123621057Y-113801047D01*
X123621063Y-113801063D01*
X123687684Y-113961898D01*
X123714101Y-114025673D01*
X123714102Y-114025675D01*
X123714106Y-114025682D01*
X123820715Y-114210335D01*
X123835664Y-114236227D01*
X123983670Y-114429113D01*
X124155587Y-114601030D01*
X124348473Y-114749036D01*
X124559027Y-114870599D01*
X124663671Y-114913944D01*
X124783636Y-114963636D01*
X124783652Y-114963642D01*
X125018490Y-115026566D01*
X125259537Y-115058300D01*
X125259542Y-115058300D01*
X125502658Y-115058300D01*
X125502663Y-115058300D01*
X125743710Y-115026566D01*
X125839012Y-115001029D01*
X125978547Y-114963642D01*
X125978550Y-114963640D01*
X125978553Y-114963640D01*
X126203173Y-114870599D01*
X126413727Y-114749036D01*
X126606613Y-114601030D01*
X126778530Y-114429113D01*
X126926536Y-114236227D01*
X127048099Y-114025673D01*
X127141140Y-113801053D01*
X127147030Y-113779066D01*
X127154986Y-113765286D01*
X127216168Y-113704106D01*
X127237911Y-113695100D01*
X127858850Y-113695100D01*
X127880594Y-113704106D01*
X127889600Y-113725850D01*
X127889600Y-115636787D01*
X127880594Y-115658531D01*
X127059966Y-116479158D01*
X127055306Y-116482981D01*
X126949575Y-116553630D01*
X126421129Y-117082075D01*
X126309890Y-117248560D01*
X126233264Y-117433550D01*
X126233263Y-117433552D01*
X126196712Y-117617302D01*
X126183637Y-117636871D01*
X126160554Y-117641462D01*
X126144809Y-117633047D01*
X125677961Y-117166200D01*
X125419601Y-117166200D01*
X125419600Y-117166201D01*
X125419600Y-117606576D01*
X125384604Y-117597200D01*
X125277596Y-117597200D01*
X125242600Y-117606576D01*
X125242600Y-117166201D01*
X125242599Y-117166200D01*
X124984238Y-117166200D01*
X124493700Y-117656738D01*
X124493700Y-117915099D01*
X124493701Y-117915100D01*
X124934077Y-117915100D01*
X124924700Y-117950096D01*
X124924700Y-118057104D01*
X124934077Y-118092100D01*
X124493701Y-118092100D01*
X124493700Y-118092101D01*
X124493700Y-118350461D01*
X124984239Y-118841000D01*
X125242599Y-118841000D01*
X125242600Y-118840999D01*
X125242600Y-118400623D01*
X125277596Y-118410000D01*
X125384604Y-118410000D01*
X125419600Y-118400623D01*
X125419600Y-118840999D01*
X125419601Y-118841000D01*
X125677963Y-118841000D01*
X126144810Y-118374151D01*
X126166554Y-118365144D01*
X126188297Y-118374150D01*
X126196713Y-118389895D01*
X126212628Y-118469907D01*
X126219006Y-118501973D01*
X126219009Y-118501985D01*
X126219600Y-118507984D01*
X126219600Y-119390863D01*
X126210594Y-119412607D01*
X124569420Y-121053781D01*
X124569419Y-121053780D01*
X124385605Y-121237595D01*
X124385602Y-121237598D01*
X124232812Y-121447896D01*
X124232804Y-121447909D01*
X124114796Y-121679514D01*
X124114794Y-121679519D01*
X124034464Y-121926750D01*
X123993800Y-122183492D01*
X123993800Y-130955219D01*
X123984799Y-130976957D01*
X123983670Y-130978085D01*
X123835661Y-131170977D01*
X123714106Y-131381517D01*
X123714098Y-131381533D01*
X123621063Y-131606136D01*
X123621057Y-131606152D01*
X123558133Y-131840990D01*
X123526400Y-132082038D01*
X123526400Y-132325161D01*
X123558133Y-132566209D01*
X123621057Y-132801047D01*
X123621063Y-132801063D01*
X123713159Y-133023398D01*
X123714101Y-133025673D01*
X123835664Y-133236227D01*
X123983670Y-133429113D01*
X124155587Y-133601030D01*
X124348473Y-133749036D01*
X124559027Y-133870599D01*
X124622842Y-133897032D01*
X124783636Y-133963636D01*
X124783652Y-133963642D01*
X125018490Y-134026566D01*
X125259537Y-134058300D01*
X125259542Y-134058300D01*
X125502658Y-134058300D01*
X125502663Y-134058300D01*
X125743710Y-134026566D01*
X125839012Y-134001029D01*
X125978547Y-133963642D01*
X125978550Y-133963640D01*
X125978553Y-133963640D01*
X126203173Y-133870599D01*
X126413727Y-133749036D01*
X126606613Y-133601030D01*
X126778530Y-133429113D01*
X126926536Y-133236227D01*
X127048099Y-133025673D01*
X127141140Y-132801053D01*
X127143022Y-132794032D01*
X127170331Y-132692111D01*
X127204066Y-132566210D01*
X127221366Y-132434793D01*
X127222606Y-132429316D01*
X127256135Y-132326127D01*
X127296800Y-132069376D01*
X127296800Y-131862137D01*
X127305806Y-131840393D01*
X127327550Y-131831387D01*
X127349292Y-131840392D01*
X130530331Y-135021431D01*
X130530334Y-135021433D01*
X130530336Y-135021435D01*
X130605569Y-135076095D01*
X130698588Y-135143677D01*
X130698593Y-135143679D01*
X130698597Y-135143682D01*
X130883891Y-135238095D01*
X130883896Y-135238097D01*
X131058520Y-135294835D01*
X131081695Y-135302365D01*
X131218961Y-135324106D01*
X131287104Y-135334899D01*
X131287105Y-135334899D01*
X131287111Y-135334900D01*
X131670136Y-135334900D01*
X131691880Y-135343906D01*
X131700886Y-135365650D01*
X131694532Y-135384369D01*
X131557155Y-135563402D01*
X131440594Y-135765292D01*
X131440586Y-135765308D01*
X131351370Y-135980693D01*
X131291030Y-136205887D01*
X131260600Y-136437032D01*
X131260600Y-136670167D01*
X131291030Y-136901312D01*
X131351370Y-137126506D01*
X131382267Y-137201097D01*
X131440589Y-137341898D01*
X131440592Y-137341904D01*
X131440594Y-137341907D01*
X131554063Y-137538441D01*
X131557158Y-137543802D01*
X131668201Y-137688515D01*
X131699083Y-137728762D01*
X131772177Y-137801857D01*
X131781183Y-137823600D01*
X131772177Y-137845343D01*
X131699083Y-137918437D01*
X131557155Y-138103402D01*
X131440594Y-138305292D01*
X131440586Y-138305308D01*
X131351370Y-138520693D01*
X131291030Y-138745887D01*
X131268276Y-138918726D01*
X131260600Y-138977031D01*
X131260600Y-139210169D01*
X131261961Y-139220504D01*
X131291030Y-139441312D01*
X131351370Y-139666506D01*
X131419638Y-139831318D01*
X131440589Y-139881898D01*
X131440592Y-139881904D01*
X131440594Y-139881907D01*
X131539730Y-140053616D01*
X131557158Y-140083802D01*
X131642901Y-140195544D01*
X131699083Y-140268762D01*
X131772177Y-140341857D01*
X131781183Y-140363600D01*
X131772177Y-140385343D01*
X131699083Y-140458437D01*
X131557155Y-140643402D01*
X131440594Y-140845292D01*
X131440586Y-140845308D01*
X131351370Y-141060693D01*
X131291030Y-141285887D01*
X131260600Y-141517032D01*
X131260600Y-141750167D01*
X131291030Y-141981312D01*
X131351370Y-142206506D01*
X131436075Y-142411000D01*
X131440589Y-142421898D01*
X131440592Y-142421904D01*
X131440594Y-142421907D01*
X131530016Y-142576790D01*
X131557158Y-142623802D01*
X131699084Y-142808763D01*
X131863937Y-142973616D01*
X132048898Y-143115542D01*
X132250802Y-143232111D01*
X132466193Y-143321329D01*
X132691387Y-143381669D01*
X132922531Y-143412100D01*
X132922536Y-143412100D01*
X134679664Y-143412100D01*
X134679669Y-143412100D01*
X134910813Y-143381669D01*
X135136007Y-143321329D01*
X135351398Y-143232111D01*
X135553302Y-143115542D01*
X135738263Y-142973616D01*
X135903116Y-142808763D01*
X136045042Y-142623802D01*
X136161611Y-142421898D01*
X136250829Y-142206507D01*
X136311169Y-141981313D01*
X136341600Y-141750169D01*
X136341600Y-141517031D01*
X136311169Y-141285887D01*
X136250829Y-141060693D01*
X136161611Y-140845302D01*
X136045042Y-140643398D01*
X135903116Y-140458437D01*
X135830021Y-140385342D01*
X135821016Y-140363600D01*
X135830021Y-140341857D01*
X135903116Y-140268763D01*
X136045042Y-140083802D01*
X136161611Y-139881898D01*
X136250829Y-139666507D01*
X136311169Y-139441313D01*
X136341600Y-139210169D01*
X136341600Y-138977031D01*
X136311169Y-138745887D01*
X136250829Y-138520693D01*
X136161611Y-138305302D01*
X136045042Y-138103398D01*
X135903116Y-137918437D01*
X135830021Y-137845342D01*
X135821016Y-137823600D01*
X135830021Y-137801857D01*
X135903116Y-137728763D01*
X136045042Y-137543802D01*
X136161611Y-137341898D01*
X136250829Y-137126507D01*
X136311169Y-136901313D01*
X136341600Y-136670169D01*
X136341600Y-136437031D01*
X136311169Y-136205887D01*
X136250829Y-135980693D01*
X136161611Y-135765302D01*
X136045042Y-135563398D01*
X135903116Y-135378437D01*
X135830021Y-135305342D01*
X135821016Y-135283600D01*
X135830021Y-135261857D01*
X135903116Y-135188763D01*
X136045042Y-135003802D01*
X136161611Y-134801898D01*
X136250829Y-134586507D01*
X136311169Y-134361313D01*
X136341600Y-134130169D01*
X136341600Y-133897031D01*
X136311169Y-133665887D01*
X136250829Y-133440693D01*
X136161611Y-133225302D01*
X136045042Y-133023398D01*
X135903116Y-132838437D01*
X135830021Y-132765342D01*
X135821016Y-132743600D01*
X135830021Y-132721857D01*
X135903116Y-132648763D01*
X135952764Y-132584058D01*
X135959076Y-132577909D01*
X136091869Y-132481432D01*
X137968931Y-130604369D01*
X138091177Y-130436112D01*
X138117925Y-130383616D01*
X138185597Y-130250803D01*
X138232734Y-130105730D01*
X138249865Y-130053006D01*
X138255454Y-130017720D01*
X138282400Y-129847589D01*
X138282400Y-129507738D01*
X138291406Y-129485994D01*
X138313150Y-129476988D01*
X138334892Y-129485993D01*
X143870331Y-135021432D01*
X143870334Y-135021434D01*
X143870336Y-135021436D01*
X144034611Y-135140789D01*
X144034612Y-135140789D01*
X144036412Y-135142096D01*
X144038588Y-135143677D01*
X144038592Y-135143679D01*
X144223892Y-135238095D01*
X144223897Y-135238097D01*
X144421695Y-135302365D01*
X144558961Y-135324106D01*
X144627104Y-135334899D01*
X144627105Y-135334899D01*
X144627111Y-135334900D01*
X144627112Y-135334900D01*
X144835089Y-135334900D01*
X148434067Y-135334900D01*
X148455811Y-135343906D01*
X148464817Y-135365650D01*
X148455811Y-135387393D01*
X148242511Y-135600693D01*
X148061129Y-135782075D01*
X147949890Y-135948560D01*
X147873264Y-136133550D01*
X147873263Y-136133552D01*
X147834200Y-136329934D01*
X147834200Y-136499161D01*
X147825194Y-136520905D01*
X145393263Y-138952836D01*
X145314452Y-139061313D01*
X145271025Y-139121084D01*
X145271017Y-139121097D01*
X145176604Y-139306392D01*
X145176602Y-139306397D01*
X145112334Y-139504197D01*
X145079800Y-139709604D01*
X145079800Y-145572636D01*
X145070794Y-145594380D01*
X145049050Y-145603386D01*
X145030331Y-145597032D01*
X144995453Y-145570269D01*
X144851302Y-145459658D01*
X144701715Y-145373294D01*
X144649407Y-145343094D01*
X144649404Y-145343092D01*
X144649398Y-145343089D01*
X144646885Y-145342048D01*
X144434006Y-145253870D01*
X144208812Y-145193530D01*
X144031448Y-145170180D01*
X143977669Y-145163100D01*
X143744531Y-145163100D01*
X143717641Y-145166640D01*
X143513387Y-145193530D01*
X143288193Y-145253870D01*
X143072808Y-145343086D01*
X143072792Y-145343094D01*
X142870902Y-145459655D01*
X142685941Y-145601580D01*
X142521080Y-145766441D01*
X142379155Y-145951402D01*
X142303421Y-146082577D01*
X142284750Y-146096904D01*
X142261416Y-146093832D01*
X142255047Y-146088946D01*
X141631406Y-145465305D01*
X141622400Y-145443561D01*
X141622400Y-138853638D01*
X141631405Y-138831895D01*
X142073795Y-138389504D01*
X142095539Y-138380499D01*
X142264765Y-138380499D01*
X142264765Y-138380498D01*
X142461149Y-138341437D01*
X142646140Y-138264811D01*
X142812628Y-138153567D01*
X143341068Y-137625128D01*
X143452310Y-137458640D01*
X143528936Y-137273649D01*
X143568000Y-137077264D01*
X143567999Y-136329936D01*
X143528937Y-136133551D01*
X143452311Y-135948560D01*
X143341067Y-135782072D01*
X142812628Y-135253632D01*
X142646140Y-135142390D01*
X142461149Y-135065764D01*
X142461147Y-135065763D01*
X142264765Y-135026700D01*
X141517435Y-135026700D01*
X141517434Y-135026701D01*
X141321052Y-135065762D01*
X141321050Y-135065763D01*
X141136060Y-135142389D01*
X140969572Y-135253633D01*
X140441129Y-135782075D01*
X140329890Y-135948560D01*
X140253264Y-136133550D01*
X140253263Y-136133552D01*
X140214200Y-136329934D01*
X140214200Y-136499160D01*
X140205194Y-136520904D01*
X139293263Y-137432836D01*
X139183785Y-137583522D01*
X139171025Y-137601084D01*
X139171017Y-137601097D01*
X139076604Y-137786392D01*
X139076602Y-137786397D01*
X139012334Y-137984197D01*
X138979800Y-138189604D01*
X138979800Y-144351550D01*
X138970794Y-144373294D01*
X138949050Y-144382300D01*
X136897104Y-144382300D01*
X136691697Y-144414834D01*
X136493896Y-144479102D01*
X136493891Y-144479104D01*
X136308597Y-144573517D01*
X136308584Y-144573525D01*
X136140336Y-144695764D01*
X134920005Y-145916094D01*
X134898261Y-145925100D01*
X134635529Y-145925100D01*
X134486201Y-145939807D01*
X134294592Y-145997931D01*
X134294589Y-145997932D01*
X134294587Y-145997932D01*
X134294582Y-145997935D01*
X134118004Y-146092318D01*
X134118001Y-146092320D01*
X134002009Y-146187512D01*
X133485014Y-146704507D01*
X133389820Y-146820502D01*
X133389818Y-146820505D01*
X133295436Y-146997082D01*
X133295432Y-146997092D01*
X133237307Y-147188701D01*
X133222600Y-147338034D01*
X133222600Y-148069171D01*
X133237307Y-148218498D01*
X133249978Y-148260268D01*
X133295432Y-148410111D01*
X133295434Y-148410115D01*
X133295435Y-148410117D01*
X133389818Y-148586695D01*
X133389820Y-148586698D01*
X133389822Y-148586701D01*
X133485014Y-148702693D01*
X134002005Y-149219684D01*
X134118000Y-149314878D01*
X134118002Y-149314879D01*
X134118005Y-149314881D01*
X134135109Y-149324023D01*
X134294589Y-149409267D01*
X134486200Y-149467392D01*
X134635535Y-149482100D01*
X135366671Y-149482100D01*
X135516000Y-149467392D01*
X135707611Y-149409268D01*
X135884201Y-149314878D01*
X136000193Y-149219686D01*
X136517184Y-148702695D01*
X136612378Y-148586700D01*
X136706767Y-148410111D01*
X136764892Y-148218500D01*
X136779600Y-148069165D01*
X136779600Y-147806438D01*
X136788606Y-147784694D01*
X137539394Y-147033906D01*
X137561138Y-147024900D01*
X139441061Y-147024900D01*
X139462805Y-147033906D01*
X140993269Y-148564369D01*
X140993268Y-148564369D01*
X141140331Y-148711431D01*
X141140334Y-148711434D01*
X141242886Y-148785942D01*
X141308588Y-148833677D01*
X141308593Y-148833679D01*
X141308597Y-148833682D01*
X141493892Y-148928095D01*
X141493897Y-148928097D01*
X141691695Y-148992365D01*
X141844625Y-149016587D01*
X141897104Y-149024899D01*
X141897105Y-149024899D01*
X141897111Y-149024900D01*
X142147188Y-149024900D01*
X142168932Y-149033906D01*
X142175597Y-149043882D01*
X142241544Y-149203091D01*
X142262589Y-149253898D01*
X142262592Y-149253904D01*
X142262594Y-149253907D01*
X142352289Y-149409263D01*
X142379158Y-149455802D01*
X142521084Y-149640763D01*
X142685937Y-149805616D01*
X142870898Y-149947542D01*
X143072802Y-150064111D01*
X143288193Y-150153329D01*
X143513387Y-150213669D01*
X143744531Y-150244100D01*
X143744536Y-150244100D01*
X143977664Y-150244100D01*
X143977669Y-150244100D01*
X144208813Y-150213669D01*
X144434007Y-150153329D01*
X144649398Y-150064111D01*
X144851302Y-149947542D01*
X145036263Y-149805616D01*
X145109357Y-149732521D01*
X145131100Y-149723516D01*
X145152842Y-149732521D01*
X145225937Y-149805616D01*
X145410898Y-149947542D01*
X145612802Y-150064111D01*
X145828193Y-150153329D01*
X146053387Y-150213669D01*
X146284531Y-150244100D01*
X146284536Y-150244100D01*
X146517664Y-150244100D01*
X146517669Y-150244100D01*
X146748813Y-150213669D01*
X146974007Y-150153329D01*
X147189398Y-150064111D01*
X147391302Y-149947542D01*
X147576263Y-149805616D01*
X147741116Y-149640763D01*
X147883042Y-149455802D01*
X147999611Y-149253898D01*
X148088829Y-149038507D01*
X148101532Y-148991094D01*
X148115858Y-148972424D01*
X148139192Y-148969352D01*
X148156802Y-148981970D01*
X148211731Y-149064176D01*
X148342523Y-149194968D01*
X148496317Y-149297731D01*
X148496320Y-149297732D01*
X148667199Y-149368512D01*
X148667205Y-149368514D01*
X148848615Y-149404599D01*
X148848616Y-149404600D01*
X148852599Y-149404600D01*
X148852600Y-149404599D01*
X148852600Y-148205806D01*
X148874220Y-148211600D01*
X149007980Y-148211600D01*
X149029600Y-148205806D01*
X149029600Y-149404599D01*
X149029601Y-149404600D01*
X149033584Y-149404600D01*
X149033584Y-149404599D01*
X149214994Y-149368514D01*
X149215000Y-149368512D01*
X149385879Y-149297732D01*
X149385882Y-149297731D01*
X149539676Y-149194968D01*
X149670468Y-149064176D01*
X149773231Y-148910382D01*
X149773232Y-148910379D01*
X149844012Y-148739500D01*
X149844014Y-148739494D01*
X149880099Y-148558084D01*
X149880100Y-148558084D01*
X149880100Y-147792101D01*
X161662099Y-147792101D01*
X161662099Y-148036664D01*
X161672370Y-148088293D01*
X161672370Y-148088294D01*
X161701609Y-148132055D01*
X161701611Y-148132057D01*
X162172644Y-148603091D01*
X162172646Y-148603093D01*
X162216405Y-148632330D01*
X162268032Y-148642599D01*
X162268033Y-148642600D01*
X162512599Y-148642600D01*
X162512600Y-148642599D01*
X162512600Y-148205806D01*
X162534220Y-148211600D01*
X162667980Y-148211600D01*
X162689600Y-148205806D01*
X162689600Y-148642599D01*
X162689601Y-148642600D01*
X162934164Y-148642600D01*
X162985793Y-148632329D01*
X162985794Y-148632329D01*
X163029555Y-148603090D01*
X163029557Y-148603088D01*
X163500591Y-148132055D01*
X163500593Y-148132053D01*
X163529830Y-148088294D01*
X163540099Y-148036667D01*
X163540100Y-148036667D01*
X163540100Y-147792101D01*
X163540099Y-147792100D01*
X163103307Y-147792100D01*
X163109100Y-147770480D01*
X163109100Y-147636720D01*
X163103307Y-147615100D01*
X163540100Y-147615100D01*
X163540101Y-147615099D01*
X163540101Y-147370535D01*
X163529829Y-147318906D01*
X163529829Y-147318905D01*
X163500590Y-147275144D01*
X163500588Y-147275142D01*
X163029555Y-146804108D01*
X163029553Y-146804106D01*
X162985794Y-146774869D01*
X162934167Y-146764600D01*
X162934166Y-146764599D01*
X162689600Y-146764599D01*
X162689600Y-147201393D01*
X162667980Y-147195600D01*
X162534220Y-147195600D01*
X162512600Y-147201393D01*
X162512600Y-146764600D01*
X162512599Y-146764599D01*
X162268035Y-146764599D01*
X162216406Y-146774870D01*
X162216405Y-146774870D01*
X162172644Y-146804109D01*
X162172642Y-146804111D01*
X161701608Y-147275144D01*
X161701606Y-147275146D01*
X161672369Y-147318905D01*
X161662100Y-147370532D01*
X161662100Y-147615099D01*
X161662101Y-147615100D01*
X162098893Y-147615100D01*
X162093100Y-147636720D01*
X162093100Y-147770480D01*
X162098893Y-147792100D01*
X161662100Y-147792100D01*
X161662099Y-147792101D01*
X149880100Y-147792101D01*
X149880099Y-147792100D01*
X149443307Y-147792100D01*
X149449100Y-147770480D01*
X149449100Y-147636720D01*
X149443307Y-147615100D01*
X149880099Y-147615100D01*
X149880100Y-147615099D01*
X149880100Y-146849116D01*
X149880099Y-146849115D01*
X149844014Y-146667705D01*
X149844012Y-146667699D01*
X149773232Y-146496820D01*
X149773231Y-146496817D01*
X149670468Y-146343023D01*
X149539676Y-146212231D01*
X149385882Y-146109468D01*
X149385879Y-146109467D01*
X149215000Y-146038687D01*
X149214994Y-146038685D01*
X149033584Y-146002600D01*
X149029601Y-146002600D01*
X149029600Y-146002601D01*
X149029600Y-147201393D01*
X149007980Y-147195600D01*
X148874220Y-147195600D01*
X148852600Y-147201393D01*
X148852600Y-146002601D01*
X148852599Y-146002600D01*
X148848616Y-146002600D01*
X148667205Y-146038685D01*
X148667199Y-146038687D01*
X148496320Y-146109467D01*
X148496317Y-146109468D01*
X148342523Y-146212231D01*
X148211728Y-146343026D01*
X148156801Y-146425228D01*
X148137232Y-146438303D01*
X148114150Y-146433711D01*
X148101532Y-146416102D01*
X148088830Y-146368695D01*
X148088830Y-146368694D01*
X147999613Y-146153308D01*
X147999611Y-146153302D01*
X147883042Y-145951398D01*
X147741116Y-145766437D01*
X147731405Y-145756725D01*
X147722400Y-145734983D01*
X147722400Y-140373638D01*
X147731406Y-140351894D01*
X149693795Y-138389505D01*
X149715539Y-138380499D01*
X149884765Y-138380499D01*
X149884765Y-138380498D01*
X150081149Y-138341437D01*
X150266140Y-138264811D01*
X150432628Y-138153567D01*
X150492460Y-138093735D01*
X150552290Y-138033906D01*
X150574033Y-138024900D01*
X151351061Y-138024900D01*
X151372805Y-138033906D01*
X151770794Y-138431894D01*
X151779800Y-138453638D01*
X151779800Y-138896983D01*
X151770794Y-138918726D01*
X151585019Y-139104501D01*
X151489820Y-139220502D01*
X151489818Y-139220505D01*
X151395436Y-139397082D01*
X151395432Y-139397092D01*
X151337307Y-139588701D01*
X151322600Y-139738034D01*
X151322600Y-140469171D01*
X151337307Y-140618498D01*
X151359637Y-140692111D01*
X151395432Y-140810111D01*
X151395434Y-140810115D01*
X151395435Y-140810117D01*
X151489818Y-140986695D01*
X151489820Y-140986698D01*
X151489822Y-140986701D01*
X151585014Y-141102693D01*
X152102005Y-141619684D01*
X152218000Y-141714878D01*
X152218002Y-141714879D01*
X152218005Y-141714881D01*
X152316695Y-141767632D01*
X152394589Y-141809267D01*
X152586200Y-141867392D01*
X152735535Y-141882100D01*
X153466671Y-141882100D01*
X153616000Y-141867392D01*
X153807611Y-141809268D01*
X153984201Y-141714878D01*
X154100193Y-141619686D01*
X154617184Y-141102695D01*
X154712378Y-140986700D01*
X154806767Y-140810111D01*
X154864892Y-140618500D01*
X154879600Y-140469165D01*
X154879600Y-139738029D01*
X154864892Y-139588700D01*
X154806768Y-139397089D01*
X154730872Y-139255099D01*
X154712381Y-139220504D01*
X154712379Y-139220501D01*
X154712378Y-139220499D01*
X154617186Y-139104507D01*
X154528766Y-139016087D01*
X154431406Y-138918726D01*
X154422400Y-138896983D01*
X154422400Y-137789616D01*
X154422399Y-137789604D01*
X154396348Y-137625128D01*
X154389865Y-137584195D01*
X154376741Y-137543802D01*
X154325597Y-137386396D01*
X154325595Y-137386391D01*
X154231182Y-137201097D01*
X154231179Y-137201093D01*
X154231177Y-137201088D01*
X154141214Y-137077265D01*
X154108935Y-137032836D01*
X154108933Y-137032834D01*
X154108931Y-137032831D01*
X152771869Y-135695768D01*
X152771865Y-135695765D01*
X152771863Y-135695763D01*
X152603615Y-135573525D01*
X152603602Y-135573517D01*
X152418307Y-135479104D01*
X152418302Y-135479102D01*
X152220502Y-135414834D01*
X152101720Y-135396021D01*
X152081653Y-135383724D01*
X152076159Y-135360840D01*
X152088456Y-135340773D01*
X152106530Y-135334900D01*
X156670136Y-135334900D01*
X156691880Y-135343906D01*
X156700886Y-135365650D01*
X156694532Y-135384369D01*
X156557155Y-135563402D01*
X156440594Y-135765292D01*
X156440586Y-135765308D01*
X156351370Y-135980693D01*
X156291030Y-136205887D01*
X156260600Y-136437032D01*
X156260600Y-136670167D01*
X156291030Y-136901312D01*
X156351370Y-137126506D01*
X156382267Y-137201097D01*
X156440589Y-137341898D01*
X156440592Y-137341904D01*
X156440594Y-137341907D01*
X156554063Y-137538441D01*
X156557158Y-137543802D01*
X156668201Y-137688515D01*
X156699083Y-137728762D01*
X156772177Y-137801857D01*
X156781183Y-137823600D01*
X156772177Y-137845343D01*
X156699083Y-137918437D01*
X156557155Y-138103402D01*
X156440594Y-138305292D01*
X156440586Y-138305308D01*
X156351370Y-138520693D01*
X156291030Y-138745887D01*
X156268276Y-138918726D01*
X156260600Y-138977031D01*
X156260600Y-139210169D01*
X156261961Y-139220504D01*
X156291030Y-139441312D01*
X156351370Y-139666506D01*
X156419638Y-139831318D01*
X156440589Y-139881898D01*
X156440592Y-139881904D01*
X156440594Y-139881907D01*
X156539730Y-140053616D01*
X156557158Y-140083802D01*
X156699084Y-140268763D01*
X156863937Y-140433616D01*
X157048898Y-140575542D01*
X157250802Y-140692111D01*
X157378726Y-140745099D01*
X157466195Y-140781330D01*
X157513602Y-140794032D01*
X157532274Y-140808359D01*
X157535346Y-140831692D01*
X157522728Y-140849301D01*
X157440526Y-140904228D01*
X157309731Y-141035023D01*
X157206968Y-141188817D01*
X157206967Y-141188820D01*
X157136187Y-141359699D01*
X157136185Y-141359705D01*
X157100100Y-141541115D01*
X157100100Y-141545099D01*
X157100101Y-141545100D01*
X158298893Y-141545100D01*
X158293100Y-141566720D01*
X158293100Y-141700480D01*
X158298893Y-141722100D01*
X157100101Y-141722100D01*
X157100100Y-141722101D01*
X157100100Y-141726084D01*
X157136185Y-141907494D01*
X157136187Y-141907500D01*
X157206967Y-142078379D01*
X157206968Y-142078382D01*
X157309731Y-142232176D01*
X157440523Y-142362968D01*
X157594317Y-142465731D01*
X157594320Y-142465732D01*
X157765199Y-142536512D01*
X157765205Y-142536514D01*
X157946615Y-142572599D01*
X157946616Y-142572600D01*
X158712599Y-142572600D01*
X158712600Y-142572599D01*
X158712600Y-142135806D01*
X158734220Y-142141600D01*
X158867980Y-142141600D01*
X158889600Y-142135806D01*
X158889600Y-142572599D01*
X158889601Y-142572600D01*
X159655584Y-142572600D01*
X159655584Y-142572599D01*
X159836994Y-142536514D01*
X159837000Y-142536512D01*
X160007879Y-142465732D01*
X160007882Y-142465731D01*
X160161676Y-142362968D01*
X160292468Y-142232176D01*
X160395231Y-142078382D01*
X160395232Y-142078379D01*
X160466012Y-141907500D01*
X160466014Y-141907494D01*
X160502099Y-141726084D01*
X160502100Y-141726084D01*
X160502100Y-141722101D01*
X160502099Y-141722100D01*
X159303307Y-141722100D01*
X159309100Y-141700480D01*
X159309100Y-141566720D01*
X159303307Y-141545100D01*
X160502099Y-141545100D01*
X160502100Y-141545099D01*
X160502100Y-141541116D01*
X160502099Y-141541115D01*
X160466014Y-141359705D01*
X160466012Y-141359699D01*
X160395232Y-141188820D01*
X160395231Y-141188817D01*
X160292468Y-141035023D01*
X160161676Y-140904231D01*
X160079470Y-140849302D01*
X160066395Y-140829733D01*
X160070986Y-140806650D01*
X160088594Y-140794032D01*
X160124655Y-140784370D01*
X160136004Y-140781330D01*
X160136005Y-140781330D01*
X160170507Y-140767038D01*
X160351398Y-140692111D01*
X160553302Y-140575542D01*
X160738263Y-140433616D01*
X160903116Y-140268763D01*
X161045042Y-140083802D01*
X161161611Y-139881898D01*
X161250829Y-139666507D01*
X161311169Y-139441313D01*
X161341600Y-139210169D01*
X161341600Y-138977031D01*
X161311169Y-138745887D01*
X161250829Y-138520693D01*
X161161611Y-138305302D01*
X161045042Y-138103398D01*
X160903116Y-137918437D01*
X160830021Y-137845342D01*
X160821016Y-137823600D01*
X160830021Y-137801857D01*
X160903116Y-137728763D01*
X161045042Y-137543802D01*
X161161611Y-137341898D01*
X161250829Y-137126507D01*
X161311169Y-136901313D01*
X161341600Y-136670169D01*
X161341600Y-136437031D01*
X161311169Y-136205887D01*
X161250829Y-135980693D01*
X161161611Y-135765302D01*
X161045042Y-135563398D01*
X160903116Y-135378437D01*
X160830021Y-135305342D01*
X160821016Y-135283600D01*
X160830021Y-135261857D01*
X160903116Y-135188763D01*
X161045042Y-135003802D01*
X161161611Y-134801898D01*
X161250829Y-134586507D01*
X161311169Y-134361313D01*
X161341600Y-134130169D01*
X161341600Y-133897031D01*
X161311169Y-133665887D01*
X161250829Y-133440693D01*
X161161611Y-133225302D01*
X161045042Y-133023398D01*
X160903116Y-132838437D01*
X160830021Y-132765342D01*
X160821016Y-132743600D01*
X160830021Y-132721857D01*
X160903116Y-132648763D01*
X161045042Y-132463802D01*
X161119281Y-132335215D01*
X161161604Y-132261911D01*
X161161606Y-132261905D01*
X161161611Y-132261898D01*
X161238949Y-132075186D01*
X161245610Y-132065214D01*
X161897706Y-131413119D01*
X161919450Y-131404113D01*
X161941194Y-131413119D01*
X161950200Y-131434863D01*
X161950200Y-144397995D01*
X161982734Y-144603402D01*
X162047002Y-144801202D01*
X162047004Y-144801207D01*
X162141417Y-144986502D01*
X162141425Y-144986515D01*
X162263663Y-145154763D01*
X162263665Y-145154765D01*
X162263668Y-145154769D01*
X164820331Y-147711432D01*
X164820334Y-147711434D01*
X164820336Y-147711436D01*
X164901604Y-147770480D01*
X164952681Y-147807589D01*
X164988588Y-147833677D01*
X164988593Y-147833679D01*
X164988597Y-147833682D01*
X165173892Y-147928095D01*
X165173897Y-147928097D01*
X165371695Y-147992365D01*
X165517889Y-148015520D01*
X165577104Y-148024899D01*
X165577105Y-148024899D01*
X165577111Y-148024900D01*
X178022483Y-148024900D01*
X178044226Y-148033906D01*
X178063937Y-148053616D01*
X178248898Y-148195542D01*
X178450802Y-148312111D01*
X178666193Y-148401329D01*
X178891387Y-148461669D01*
X179122531Y-148492100D01*
X179122536Y-148492100D01*
X180879664Y-148492100D01*
X180879669Y-148492100D01*
X181110813Y-148461669D01*
X181336007Y-148401329D01*
X181551398Y-148312111D01*
X181753302Y-148195542D01*
X181938263Y-148053616D01*
X182103116Y-147888763D01*
X182245042Y-147703802D01*
X182361611Y-147501898D01*
X182450829Y-147286507D01*
X182511169Y-147061313D01*
X182541600Y-146830169D01*
X182541600Y-146597031D01*
X182511169Y-146365887D01*
X182450829Y-146140693D01*
X182361611Y-145925302D01*
X182245042Y-145723398D01*
X182103116Y-145538437D01*
X182030021Y-145465342D01*
X182021016Y-145443600D01*
X182030021Y-145421857D01*
X182103116Y-145348763D01*
X182245042Y-145163802D01*
X182361611Y-144961898D01*
X182450829Y-144746507D01*
X182511169Y-144521313D01*
X182541600Y-144290169D01*
X182541600Y-144057031D01*
X182511169Y-143825887D01*
X182450829Y-143600693D01*
X182361611Y-143385302D01*
X182245042Y-143183398D01*
X182103116Y-142998437D01*
X181938263Y-142833584D01*
X181753302Y-142691658D01*
X181612706Y-142610485D01*
X181551407Y-142575094D01*
X181551404Y-142575092D01*
X181551398Y-142575089D01*
X181545387Y-142572599D01*
X181336006Y-142485870D01*
X181288595Y-142473166D01*
X181269924Y-142458839D01*
X181266852Y-142435505D01*
X181279470Y-142417896D01*
X181361676Y-142362968D01*
X181492468Y-142232176D01*
X181595231Y-142078382D01*
X181595232Y-142078379D01*
X181666012Y-141907500D01*
X181666014Y-141907494D01*
X181702099Y-141726084D01*
X181702100Y-141726084D01*
X181702100Y-141722101D01*
X181702099Y-141722100D01*
X180503307Y-141722100D01*
X180509100Y-141700480D01*
X180509100Y-141566720D01*
X180503307Y-141545100D01*
X181702099Y-141545100D01*
X181702100Y-141545099D01*
X181702100Y-141541116D01*
X181702099Y-141541115D01*
X181666014Y-141359705D01*
X181666012Y-141359699D01*
X181595232Y-141188820D01*
X181595231Y-141188817D01*
X181492468Y-141035023D01*
X181361676Y-140904231D01*
X181279470Y-140849302D01*
X181266395Y-140829733D01*
X181270986Y-140806650D01*
X181288594Y-140794032D01*
X181324655Y-140784370D01*
X181336004Y-140781330D01*
X181336005Y-140781330D01*
X181417819Y-140747441D01*
X181429587Y-140745100D01*
X181770070Y-140745100D01*
X181770076Y-140745100D01*
X182026827Y-140704435D01*
X182274056Y-140624105D01*
X182505675Y-140506090D01*
X182715980Y-140353294D01*
X184012107Y-139057166D01*
X184033850Y-139048161D01*
X184055594Y-139057167D01*
X184064600Y-139078911D01*
X184064600Y-147090250D01*
X184064558Y-147091859D01*
X184045720Y-147451319D01*
X184045383Y-147454520D01*
X183988941Y-147810873D01*
X183988272Y-147814022D01*
X183894890Y-148162530D01*
X183893896Y-148165591D01*
X183764590Y-148502444D01*
X183763280Y-148505384D01*
X183599485Y-148826851D01*
X183597876Y-148829639D01*
X183401364Y-149132239D01*
X183399472Y-149134843D01*
X183172414Y-149415235D01*
X183170261Y-149417627D01*
X182915126Y-149672762D01*
X182912734Y-149674915D01*
X182632341Y-149901973D01*
X182629737Y-149903865D01*
X182327137Y-150100377D01*
X182324349Y-150101986D01*
X182002882Y-150265781D01*
X181999942Y-150267091D01*
X181663089Y-150396396D01*
X181660028Y-150397390D01*
X181311520Y-150490773D01*
X181308371Y-150491442D01*
X180952019Y-150547883D01*
X180948818Y-150548220D01*
X180589357Y-150567058D01*
X180587748Y-150567100D01*
X116341838Y-150567100D01*
X116340114Y-150567052D01*
X115974405Y-150546513D01*
X115970978Y-150546127D01*
X115608961Y-150484618D01*
X115605599Y-150483850D01*
X115252754Y-150382198D01*
X115249499Y-150381059D01*
X114910249Y-150240536D01*
X114907143Y-150239040D01*
X114585760Y-150061419D01*
X114582840Y-150059584D01*
X114283368Y-149847096D01*
X114280672Y-149844946D01*
X114006872Y-149600263D01*
X114004434Y-149597825D01*
X113835925Y-149409264D01*
X113759749Y-149324023D01*
X113757601Y-149321329D01*
X113753026Y-149314881D01*
X113545110Y-149021851D01*
X113543279Y-149018937D01*
X113528593Y-148992365D01*
X113437117Y-148826851D01*
X113365658Y-148697554D01*
X113364162Y-148694448D01*
X113319529Y-148586695D01*
X113238925Y-148392101D01*
X127262099Y-148392101D01*
X127262099Y-148636664D01*
X127272370Y-148688293D01*
X127272370Y-148688294D01*
X127301609Y-148732055D01*
X127301611Y-148732057D01*
X127772644Y-149203091D01*
X127772646Y-149203093D01*
X127816405Y-149232330D01*
X127868032Y-149242599D01*
X127868033Y-149242600D01*
X128112599Y-149242600D01*
X128112600Y-149242599D01*
X128112600Y-148805806D01*
X128134220Y-148811600D01*
X128267980Y-148811600D01*
X128289600Y-148805806D01*
X128289600Y-149242599D01*
X128289601Y-149242600D01*
X128534164Y-149242600D01*
X128585793Y-149232329D01*
X128585794Y-149232329D01*
X128629555Y-149203090D01*
X128629557Y-149203088D01*
X129100591Y-148732055D01*
X129100593Y-148732053D01*
X129129830Y-148688294D01*
X129140099Y-148636667D01*
X129140100Y-148636667D01*
X129140100Y-148392101D01*
X129140099Y-148392100D01*
X128703307Y-148392100D01*
X128709100Y-148370480D01*
X128709100Y-148236720D01*
X128703307Y-148215100D01*
X129140100Y-148215100D01*
X129140101Y-148215099D01*
X129140101Y-147970535D01*
X129129829Y-147918906D01*
X129129829Y-147918905D01*
X129100590Y-147875144D01*
X129100588Y-147875142D01*
X128629555Y-147404108D01*
X128629553Y-147404106D01*
X128585794Y-147374869D01*
X128534167Y-147364600D01*
X128534166Y-147364599D01*
X128289600Y-147364599D01*
X128289600Y-147801393D01*
X128267980Y-147795600D01*
X128134220Y-147795600D01*
X128112600Y-147801393D01*
X128112600Y-147364600D01*
X128112599Y-147364599D01*
X127868035Y-147364599D01*
X127816406Y-147374870D01*
X127816405Y-147374870D01*
X127772644Y-147404109D01*
X127772642Y-147404111D01*
X127301608Y-147875144D01*
X127301606Y-147875146D01*
X127272369Y-147918905D01*
X127262100Y-147970532D01*
X127262100Y-148215099D01*
X127262101Y-148215100D01*
X127698893Y-148215100D01*
X127693100Y-148236720D01*
X127693100Y-148370480D01*
X127698893Y-148392100D01*
X127262100Y-148392100D01*
X127262099Y-148392101D01*
X113238925Y-148392101D01*
X113223635Y-148355187D01*
X113222504Y-148351955D01*
X113120590Y-147998200D01*
X113119584Y-147993146D01*
X113037793Y-147267225D01*
X113037600Y-147263782D01*
X113037600Y-143501123D01*
X117774100Y-143501123D01*
X117774100Y-143515099D01*
X117774101Y-143515100D01*
X119707176Y-143515100D01*
X119701100Y-143537774D01*
X119701100Y-143669426D01*
X119707176Y-143692100D01*
X117774101Y-143692100D01*
X117774100Y-143692101D01*
X117774100Y-143706076D01*
X117806159Y-143908483D01*
X117869488Y-144103394D01*
X117869490Y-144103399D01*
X117962524Y-144285987D01*
X117962532Y-144286000D01*
X118082985Y-144451790D01*
X118227909Y-144596714D01*
X118393699Y-144717167D01*
X118393712Y-144717175D01*
X118576300Y-144810209D01*
X118576305Y-144810211D01*
X118771216Y-144873540D01*
X118973623Y-144905599D01*
X118973636Y-144905600D01*
X120112599Y-144905600D01*
X120112600Y-144905599D01*
X120112600Y-144097524D01*
X120135274Y-144103600D01*
X120266926Y-144103600D01*
X120289600Y-144097524D01*
X120289600Y-144905599D01*
X120289601Y-144905600D01*
X121428564Y-144905600D01*
X121428576Y-144905599D01*
X121630983Y-144873540D01*
X121825894Y-144810211D01*
X121825899Y-144810209D01*
X122008487Y-144717175D01*
X122008500Y-144717167D01*
X122174290Y-144596714D01*
X122319214Y-144451790D01*
X122439667Y-144286000D01*
X122439675Y-144285987D01*
X122532709Y-144103399D01*
X122532711Y-144103394D01*
X122596040Y-143908483D01*
X122628099Y-143706076D01*
X122628100Y-143706064D01*
X122628100Y-143692101D01*
X122628099Y-143692100D01*
X120695024Y-143692100D01*
X120701100Y-143669426D01*
X120701100Y-143537774D01*
X120695024Y-143515100D01*
X122628099Y-143515100D01*
X122628100Y-143515099D01*
X122628100Y-143501135D01*
X122628099Y-143501123D01*
X122596040Y-143298716D01*
X122532711Y-143103805D01*
X122532709Y-143103800D01*
X122439675Y-142921212D01*
X122439667Y-142921199D01*
X122319214Y-142755409D01*
X122174290Y-142610485D01*
X122008500Y-142490032D01*
X122008487Y-142490024D01*
X121825899Y-142396990D01*
X121825894Y-142396988D01*
X121630983Y-142333659D01*
X121428576Y-142301600D01*
X120289601Y-142301600D01*
X120289600Y-142301601D01*
X120289600Y-143109675D01*
X120266926Y-143103600D01*
X120135274Y-143103600D01*
X120112600Y-143109675D01*
X120112600Y-142301601D01*
X120112599Y-142301600D01*
X118973623Y-142301600D01*
X118771216Y-142333659D01*
X118576305Y-142396988D01*
X118576300Y-142396990D01*
X118393712Y-142490024D01*
X118393699Y-142490032D01*
X118227909Y-142610485D01*
X118082985Y-142755409D01*
X117962532Y-142921199D01*
X117962524Y-142921212D01*
X117869490Y-143103800D01*
X117869488Y-143103805D01*
X117806159Y-143298716D01*
X117774100Y-143501123D01*
X113037600Y-143501123D01*
X113037600Y-132082038D01*
X113366400Y-132082038D01*
X113366400Y-132325161D01*
X113398133Y-132566209D01*
X113461057Y-132801047D01*
X113461063Y-132801063D01*
X113553159Y-133023398D01*
X113554101Y-133025673D01*
X113565480Y-133045382D01*
X113569600Y-133060757D01*
X113569600Y-136253582D01*
X113610264Y-136510324D01*
X113690594Y-136757555D01*
X113690596Y-136757560D01*
X113808604Y-136989165D01*
X113808612Y-136989178D01*
X113961401Y-137199474D01*
X113961403Y-137199476D01*
X113961406Y-137199480D01*
X115441406Y-138679480D01*
X115441405Y-138679480D01*
X115625220Y-138863294D01*
X115625223Y-138863297D01*
X115784200Y-138978800D01*
X115835525Y-139016090D01*
X115835530Y-139016092D01*
X115835534Y-139016095D01*
X116067139Y-139134103D01*
X116067144Y-139134105D01*
X116314373Y-139214435D01*
X116505531Y-139244711D01*
X116571117Y-139255099D01*
X116571118Y-139255099D01*
X116571124Y-139255100D01*
X117384547Y-139255100D01*
X117406290Y-139264106D01*
X117448577Y-139306392D01*
X117453486Y-139311301D01*
X117689198Y-139492169D01*
X117706037Y-139501891D01*
X117946492Y-139640719D01*
X117946497Y-139640721D01*
X117946502Y-139640724D01*
X118220994Y-139754422D01*
X118507979Y-139831319D01*
X118802546Y-139870100D01*
X118802551Y-139870100D01*
X121599649Y-139870100D01*
X121599654Y-139870100D01*
X121894221Y-139831319D01*
X122181206Y-139754422D01*
X122455698Y-139640724D01*
X122713002Y-139492169D01*
X122864236Y-139376123D01*
X123599100Y-139376123D01*
X123599100Y-140515099D01*
X123599101Y-140515100D01*
X124407176Y-140515100D01*
X124401100Y-140537774D01*
X124401100Y-140669426D01*
X124407176Y-140692100D01*
X123599101Y-140692100D01*
X123599100Y-140692101D01*
X123599100Y-141831076D01*
X123631159Y-142033483D01*
X123694488Y-142228394D01*
X123694490Y-142228399D01*
X123787524Y-142410987D01*
X123787532Y-142411000D01*
X123907985Y-142576790D01*
X124052909Y-142721714D01*
X124218699Y-142842167D01*
X124218712Y-142842175D01*
X124401300Y-142935209D01*
X124401305Y-142935211D01*
X124596216Y-142998540D01*
X124798623Y-143030599D01*
X124798636Y-143030600D01*
X124812599Y-143030600D01*
X124812600Y-143030599D01*
X124812600Y-141097524D01*
X124835274Y-141103600D01*
X124966926Y-141103600D01*
X124989600Y-141097524D01*
X124989600Y-143030599D01*
X124989601Y-143030600D01*
X125003564Y-143030600D01*
X125003576Y-143030599D01*
X125205983Y-142998540D01*
X125400894Y-142935211D01*
X125400899Y-142935209D01*
X125583487Y-142842175D01*
X125583500Y-142842167D01*
X125749290Y-142721714D01*
X125894214Y-142576790D01*
X126014667Y-142411000D01*
X126014675Y-142410987D01*
X126107709Y-142228399D01*
X126107711Y-142228394D01*
X126171040Y-142033483D01*
X126203099Y-141831076D01*
X126203100Y-141831064D01*
X126203100Y-140692101D01*
X126203099Y-140692100D01*
X125395024Y-140692100D01*
X125401100Y-140669426D01*
X125401100Y-140537774D01*
X125395024Y-140515100D01*
X126203099Y-140515100D01*
X126203100Y-140515099D01*
X126203100Y-139376135D01*
X126203099Y-139376123D01*
X126171040Y-139173716D01*
X126107711Y-138978805D01*
X126107709Y-138978800D01*
X126014675Y-138796212D01*
X126014667Y-138796199D01*
X125894214Y-138630409D01*
X125749290Y-138485485D01*
X125583500Y-138365032D01*
X125583487Y-138365024D01*
X125400899Y-138271990D01*
X125400894Y-138271988D01*
X125205983Y-138208659D01*
X125003576Y-138176600D01*
X124989601Y-138176600D01*
X124989600Y-138176601D01*
X124989600Y-140109675D01*
X124966926Y-140103600D01*
X124835274Y-140103600D01*
X124812600Y-140109675D01*
X124812600Y-138176601D01*
X124812599Y-138176600D01*
X124798623Y-138176600D01*
X124596216Y-138208659D01*
X124401305Y-138271988D01*
X124401300Y-138271990D01*
X124218712Y-138365024D01*
X124218699Y-138365032D01*
X124052909Y-138485485D01*
X123907985Y-138630409D01*
X123787532Y-138796199D01*
X123787524Y-138796212D01*
X123694490Y-138978800D01*
X123694488Y-138978805D01*
X123631159Y-139173716D01*
X123599100Y-139376123D01*
X122864236Y-139376123D01*
X122948714Y-139311301D01*
X123158801Y-139101214D01*
X123339669Y-138865502D01*
X123461310Y-138654814D01*
X123488219Y-138608207D01*
X123488219Y-138608205D01*
X123488224Y-138608198D01*
X123601922Y-138333706D01*
X123678819Y-138046721D01*
X123717600Y-137752154D01*
X123717600Y-137455046D01*
X123678819Y-137160479D01*
X123601922Y-136873494D01*
X123488224Y-136599002D01*
X123488221Y-136598997D01*
X123488219Y-136598992D01*
X123339671Y-136341702D01*
X123339669Y-136341698D01*
X123158801Y-136105986D01*
X122948714Y-135895899D01*
X122713002Y-135715031D01*
X122679629Y-135695763D01*
X122455707Y-135566480D01*
X122455691Y-135566473D01*
X122181205Y-135452777D01*
X121894220Y-135375880D01*
X121651350Y-135343906D01*
X121599654Y-135337100D01*
X118802546Y-135337100D01*
X118774647Y-135340773D01*
X118507979Y-135375880D01*
X118220994Y-135452777D01*
X117946508Y-135566473D01*
X117946492Y-135566480D01*
X117689202Y-135715028D01*
X117453486Y-135895898D01*
X117412972Y-135936411D01*
X117391228Y-135945417D01*
X117369485Y-135936411D01*
X116881606Y-135448532D01*
X116872600Y-135426788D01*
X116872600Y-133060757D01*
X116876719Y-133045382D01*
X116888099Y-133025673D01*
X116981140Y-132801053D01*
X116983022Y-132794032D01*
X117023535Y-132642831D01*
X117044066Y-132566210D01*
X117075800Y-132325163D01*
X117075800Y-132082037D01*
X117044066Y-131840990D01*
X117029841Y-131787900D01*
X116981142Y-131606152D01*
X116981136Y-131606136D01*
X116912863Y-131441312D01*
X116888099Y-131381527D01*
X116766536Y-131170973D01*
X116618530Y-130978087D01*
X116446613Y-130806170D01*
X116253727Y-130658164D01*
X116225926Y-130642113D01*
X116043182Y-130536606D01*
X116043179Y-130536604D01*
X116043173Y-130536601D01*
X116039016Y-130534879D01*
X115818563Y-130443563D01*
X115818547Y-130443557D01*
X115583709Y-130380633D01*
X115398745Y-130356283D01*
X115342663Y-130348900D01*
X115099537Y-130348900D01*
X115071495Y-130352591D01*
X114858490Y-130380633D01*
X114623652Y-130443557D01*
X114623636Y-130443563D01*
X114399033Y-130536598D01*
X114399017Y-130536606D01*
X114188477Y-130658161D01*
X113995591Y-130806166D01*
X113823666Y-130978091D01*
X113675661Y-131170977D01*
X113554106Y-131381517D01*
X113554098Y-131381533D01*
X113461063Y-131606136D01*
X113461057Y-131606152D01*
X113398133Y-131840990D01*
X113366400Y-132082038D01*
X113037600Y-132082038D01*
X113037600Y-125111702D01*
X118642900Y-125111702D01*
X118642900Y-125115099D01*
X118642901Y-125115100D01*
X120145366Y-125115100D01*
X120140700Y-125138556D01*
X120140700Y-125268644D01*
X120145366Y-125292100D01*
X118642901Y-125292100D01*
X118642900Y-125292101D01*
X118642900Y-125295497D01*
X118671650Y-125477011D01*
X118728442Y-125651802D01*
X118728444Y-125651807D01*
X118811873Y-125815546D01*
X118811881Y-125815559D01*
X118919900Y-125964234D01*
X119049865Y-126094199D01*
X119198540Y-126202218D01*
X119198553Y-126202226D01*
X119362292Y-126285655D01*
X119362297Y-126285657D01*
X119537088Y-126342449D01*
X119718602Y-126371199D01*
X119718614Y-126371200D01*
X120712599Y-126371200D01*
X120712600Y-126371199D01*
X120712600Y-125859334D01*
X120736056Y-125864000D01*
X120866144Y-125864000D01*
X120889600Y-125859334D01*
X120889600Y-126371199D01*
X120889601Y-126371200D01*
X121883586Y-126371200D01*
X121883597Y-126371199D01*
X122065111Y-126342449D01*
X122239902Y-126285657D01*
X122239907Y-126285655D01*
X122403646Y-126202226D01*
X122403659Y-126202218D01*
X122552334Y-126094199D01*
X122682299Y-125964234D01*
X122790318Y-125815559D01*
X122790326Y-125815546D01*
X122873755Y-125651807D01*
X122873757Y-125651802D01*
X122930549Y-125477011D01*
X122959299Y-125295497D01*
X122959300Y-125295486D01*
X122959300Y-125292101D01*
X122959299Y-125292100D01*
X121456834Y-125292100D01*
X121461500Y-125268644D01*
X121461500Y-125138556D01*
X121456834Y-125115100D01*
X122959299Y-125115100D01*
X122959300Y-125115099D01*
X122959300Y-125111713D01*
X122959299Y-125111702D01*
X122930549Y-124930188D01*
X122873757Y-124755397D01*
X122873755Y-124755392D01*
X122790326Y-124591653D01*
X122790318Y-124591640D01*
X122682299Y-124442965D01*
X122552334Y-124313000D01*
X122403659Y-124204981D01*
X122403646Y-124204973D01*
X122239907Y-124121544D01*
X122239902Y-124121542D01*
X122065111Y-124064750D01*
X121883597Y-124036000D01*
X120889601Y-124036000D01*
X120889600Y-124036001D01*
X120889600Y-124547865D01*
X120866144Y-124543200D01*
X120736056Y-124543200D01*
X120712600Y-124547865D01*
X120712600Y-124036001D01*
X120712599Y-124036000D01*
X119718602Y-124036000D01*
X119537088Y-124064750D01*
X119362297Y-124121542D01*
X119362292Y-124121544D01*
X119198553Y-124204973D01*
X119198540Y-124204981D01*
X119049865Y-124313000D01*
X118919900Y-124442965D01*
X118811881Y-124591640D01*
X118811873Y-124591653D01*
X118728444Y-124755392D01*
X118728442Y-124755397D01*
X118671650Y-124930188D01*
X118642900Y-125111702D01*
X113037600Y-125111702D01*
X113037600Y-113082038D01*
X113366400Y-113082038D01*
X113366400Y-113325161D01*
X113398133Y-113566209D01*
X113461057Y-113801047D01*
X113461063Y-113801063D01*
X113527684Y-113961898D01*
X113554101Y-114025673D01*
X113565480Y-114045382D01*
X113569600Y-114060757D01*
X113569600Y-117453582D01*
X113610264Y-117710324D01*
X113690594Y-117957555D01*
X113690596Y-117957560D01*
X113808604Y-118189165D01*
X113808612Y-118189178D01*
X113961401Y-118399474D01*
X113961403Y-118399476D01*
X113961406Y-118399480D01*
X116812206Y-121250280D01*
X116812205Y-121250280D01*
X116996020Y-121434094D01*
X116996023Y-121434097D01*
X117087568Y-121500608D01*
X117206325Y-121586890D01*
X117206330Y-121586892D01*
X117206334Y-121586895D01*
X117437939Y-121704903D01*
X117437944Y-121704905D01*
X117685173Y-121785235D01*
X117876331Y-121815511D01*
X117941917Y-121825899D01*
X117941918Y-121825899D01*
X117941924Y-121825900D01*
X118655315Y-121825900D01*
X118674035Y-121832255D01*
X118693019Y-121846823D01*
X118831458Y-121926750D01*
X118920877Y-121978376D01*
X119163954Y-122079062D01*
X119418094Y-122147158D01*
X119678948Y-122181500D01*
X119678953Y-122181500D01*
X121923247Y-122181500D01*
X121923252Y-122181500D01*
X122184106Y-122147158D01*
X122438246Y-122079062D01*
X122681323Y-121978376D01*
X122909178Y-121846824D01*
X123117913Y-121686656D01*
X123303956Y-121500613D01*
X123464124Y-121291878D01*
X123595676Y-121064023D01*
X123696362Y-120820946D01*
X123764458Y-120566806D01*
X123798800Y-120305952D01*
X123798800Y-120042848D01*
X123764458Y-119781994D01*
X123696362Y-119527854D01*
X123595676Y-119284777D01*
X123464124Y-119056922D01*
X123303956Y-118848187D01*
X123117913Y-118662144D01*
X122909178Y-118501976D01*
X122882532Y-118486592D01*
X122681332Y-118370429D01*
X122681329Y-118370427D01*
X122681323Y-118370424D01*
X122668576Y-118365144D01*
X122438245Y-118269737D01*
X122184105Y-118201641D01*
X121983943Y-118175290D01*
X121923252Y-118167300D01*
X119678948Y-118167300D01*
X119648602Y-118171295D01*
X119418094Y-118201641D01*
X119163954Y-118269737D01*
X118920883Y-118370421D01*
X118920867Y-118370429D01*
X118740100Y-118474793D01*
X118716766Y-118477865D01*
X118702981Y-118469907D01*
X116881606Y-116648532D01*
X116872600Y-116626788D01*
X116872600Y-114060757D01*
X116876719Y-114045382D01*
X116888099Y-114025673D01*
X116981140Y-113801053D01*
X116990725Y-113765284D01*
X117044066Y-113566209D01*
X117047033Y-113543674D01*
X117075800Y-113325163D01*
X117075800Y-113082037D01*
X117044066Y-112840990D01*
X117017394Y-112741448D01*
X116981142Y-112606152D01*
X116981136Y-112606136D01*
X116920044Y-112458648D01*
X116888099Y-112381527D01*
X116766536Y-112170973D01*
X116618530Y-111978087D01*
X116446613Y-111806170D01*
X116253727Y-111658164D01*
X116194210Y-111623802D01*
X116043182Y-111536606D01*
X116043179Y-111536604D01*
X116043173Y-111536601D01*
X116043166Y-111536598D01*
X115818563Y-111443563D01*
X115818547Y-111443557D01*
X115583709Y-111380633D01*
X115398745Y-111356283D01*
X115342663Y-111348900D01*
X115099537Y-111348900D01*
X115071495Y-111352591D01*
X114858490Y-111380633D01*
X114623652Y-111443557D01*
X114623636Y-111443563D01*
X114399033Y-111536598D01*
X114399017Y-111536606D01*
X114188477Y-111658161D01*
X113995591Y-111806166D01*
X113823666Y-111978091D01*
X113675661Y-112170977D01*
X113554106Y-112381517D01*
X113554098Y-112381533D01*
X113461063Y-112606136D01*
X113461057Y-112606152D01*
X113398133Y-112840990D01*
X113366400Y-113082038D01*
X113037600Y-113082038D01*
X113037600Y-63368319D01*
X114937100Y-63368319D01*
X114937100Y-63638880D01*
X114972414Y-63907129D01*
X115042441Y-64168474D01*
X115145979Y-64418436D01*
X115145986Y-64418452D01*
X115238786Y-64579184D01*
X115281264Y-64652758D01*
X115445973Y-64867410D01*
X115637290Y-65058727D01*
X115851942Y-65223436D01*
X115880538Y-65239946D01*
X116086247Y-65358713D01*
X116086252Y-65358715D01*
X116086257Y-65358718D01*
X116336225Y-65462258D01*
X116597570Y-65532285D01*
X116865818Y-65567600D01*
X116865823Y-65567600D01*
X117136377Y-65567600D01*
X117136382Y-65567600D01*
X117404630Y-65532285D01*
X117665975Y-65462258D01*
X117915943Y-65358718D01*
X118150258Y-65223436D01*
X118364910Y-65058727D01*
X118556227Y-64867410D01*
X118720936Y-64652758D01*
X118856218Y-64418443D01*
X118959758Y-64168475D01*
X119029785Y-63907130D01*
X119065100Y-63638882D01*
X119065100Y-63368318D01*
X119029785Y-63100070D01*
X118959758Y-62838725D01*
X118856218Y-62588757D01*
X118856215Y-62588752D01*
X118856213Y-62588747D01*
X118720938Y-62354446D01*
X118720936Y-62354442D01*
X118556227Y-62139790D01*
X118364910Y-61948473D01*
X118150258Y-61783764D01*
X118086467Y-61746934D01*
X117915952Y-61648486D01*
X117915936Y-61648479D01*
X117665974Y-61544941D01*
X117404629Y-61474914D01*
X117198793Y-61447816D01*
X117136382Y-61439600D01*
X116865818Y-61439600D01*
X116834612Y-61443708D01*
X116597570Y-61474914D01*
X116336225Y-61544941D01*
X116086263Y-61648479D01*
X116086247Y-61648486D01*
X115851946Y-61783761D01*
X115637294Y-61948469D01*
X115445969Y-62139794D01*
X115281261Y-62354446D01*
X115145986Y-62588747D01*
X115145979Y-62588763D01*
X115042441Y-62838725D01*
X114972414Y-63100070D01*
X114937100Y-63368319D01*
X113037600Y-63368319D01*
X113037600Y-62744341D01*
X113037648Y-62742617D01*
X113058186Y-62376908D01*
X113058572Y-62373481D01*
X113070460Y-62303514D01*
X113120083Y-62011451D01*
X113120846Y-62008112D01*
X113222508Y-61655233D01*
X113223631Y-61652025D01*
X113364167Y-61312740D01*
X113365653Y-61309655D01*
X113543285Y-60988254D01*
X113545100Y-60985364D01*
X113757617Y-60685850D01*
X113759745Y-60683182D01*
X114004443Y-60409365D01*
X114006864Y-60406944D01*
X114280681Y-60162246D01*
X114283349Y-60160118D01*
X114582863Y-59947601D01*
X114585753Y-59945786D01*
X114907154Y-59768154D01*
X114910239Y-59766668D01*
X115249524Y-59626132D01*
X115252732Y-59625009D01*
X115606501Y-59523090D01*
X115611547Y-59522086D01*
X116337474Y-59440292D01*
X116340917Y-59440100D01*
X180587748Y-59440100D01*
X180589357Y-59440142D01*
G37*
%TD.AperFunction*%
%TA.AperFunction,Conductor*%
G36*
X175567532Y-132881106D02*
G01*
X177425906Y-134739480D01*
X177425905Y-134739480D01*
X177609720Y-134923294D01*
X177609723Y-134923297D01*
X177752047Y-135026701D01*
X177820025Y-135076090D01*
X177820030Y-135076092D01*
X177820034Y-135076095D01*
X178051639Y-135194103D01*
X178051644Y-135194105D01*
X178298873Y-135274435D01*
X178427675Y-135294835D01*
X178555617Y-135315099D01*
X178555618Y-135315099D01*
X178555624Y-135315100D01*
X181667850Y-135315100D01*
X181689594Y-135324106D01*
X181698600Y-135345850D01*
X181698600Y-136686787D01*
X181689594Y-136708531D01*
X181070089Y-137328035D01*
X181048345Y-137337041D01*
X181044331Y-137336778D01*
X180940694Y-137323134D01*
X180879669Y-137315100D01*
X179122531Y-137315100D01*
X179095641Y-137318640D01*
X178891387Y-137345530D01*
X178666193Y-137405870D01*
X178450808Y-137495086D01*
X178450792Y-137495094D01*
X178248902Y-137611655D01*
X178063941Y-137753580D01*
X177899080Y-137918441D01*
X177757155Y-138103402D01*
X177640594Y-138305292D01*
X177640586Y-138305308D01*
X177551370Y-138520693D01*
X177491030Y-138745887D01*
X177468276Y-138918726D01*
X177460600Y-138977031D01*
X177460600Y-139210169D01*
X177461961Y-139220504D01*
X177491030Y-139441312D01*
X177551370Y-139666506D01*
X177619638Y-139831318D01*
X177640589Y-139881898D01*
X177640592Y-139881904D01*
X177640594Y-139881907D01*
X177739730Y-140053616D01*
X177757158Y-140083802D01*
X177899084Y-140268763D01*
X178063937Y-140433616D01*
X178248898Y-140575542D01*
X178450802Y-140692111D01*
X178578726Y-140745099D01*
X178666195Y-140781330D01*
X178713602Y-140794032D01*
X178732274Y-140808359D01*
X178735346Y-140831692D01*
X178722728Y-140849301D01*
X178640526Y-140904228D01*
X178509731Y-141035023D01*
X178406968Y-141188817D01*
X178406967Y-141188820D01*
X178336187Y-141359699D01*
X178336185Y-141359705D01*
X178300100Y-141541115D01*
X178300100Y-141545099D01*
X178300101Y-141545100D01*
X179498893Y-141545100D01*
X179493100Y-141566720D01*
X179493100Y-141700480D01*
X179498893Y-141722100D01*
X178300101Y-141722100D01*
X178300100Y-141722101D01*
X178300100Y-141726084D01*
X178336185Y-141907494D01*
X178336187Y-141907500D01*
X178406967Y-142078379D01*
X178406968Y-142078382D01*
X178509731Y-142232176D01*
X178640523Y-142362968D01*
X178722728Y-142417896D01*
X178735803Y-142437465D01*
X178731212Y-142460548D01*
X178713603Y-142473166D01*
X178666199Y-142485868D01*
X178666182Y-142485874D01*
X178450808Y-142575086D01*
X178450792Y-142575094D01*
X178248902Y-142691655D01*
X178063937Y-142833583D01*
X178054225Y-142843295D01*
X178032483Y-142852300D01*
X168771139Y-142852300D01*
X168749395Y-142843294D01*
X166436206Y-140530105D01*
X166427200Y-140508361D01*
X166427200Y-137732538D01*
X166436206Y-137710794D01*
X166457950Y-137701788D01*
X166479692Y-137710793D01*
X168490331Y-139721432D01*
X168490334Y-139721434D01*
X168490336Y-139721436D01*
X168513175Y-139738029D01*
X168641579Y-139831319D01*
X168658588Y-139843677D01*
X168658593Y-139843679D01*
X168658597Y-139843682D01*
X168843892Y-139938095D01*
X168843897Y-139938097D01*
X169041695Y-140002365D01*
X169194625Y-140026587D01*
X169247104Y-140034899D01*
X169247105Y-140034899D01*
X169247111Y-140034900D01*
X169247112Y-140034900D01*
X169455089Y-140034900D01*
X171032483Y-140034900D01*
X171054225Y-140043905D01*
X171063937Y-140053616D01*
X171248898Y-140195542D01*
X171450802Y-140312111D01*
X171666193Y-140401329D01*
X171891387Y-140461669D01*
X172122531Y-140492100D01*
X172122536Y-140492100D01*
X173879664Y-140492100D01*
X173879669Y-140492100D01*
X174110813Y-140461669D01*
X174336007Y-140401329D01*
X174551398Y-140312111D01*
X174753302Y-140195542D01*
X174938263Y-140053616D01*
X175103116Y-139888763D01*
X175245042Y-139703802D01*
X175361611Y-139501898D01*
X175450829Y-139286507D01*
X175511169Y-139061313D01*
X175541600Y-138830169D01*
X175541600Y-138597031D01*
X175511169Y-138365887D01*
X175450829Y-138140693D01*
X175361611Y-137925302D01*
X175245042Y-137723398D01*
X175103116Y-137538437D01*
X175030021Y-137465342D01*
X175021016Y-137443600D01*
X175030021Y-137421857D01*
X175103116Y-137348763D01*
X175245042Y-137163802D01*
X175361611Y-136961898D01*
X175450829Y-136746507D01*
X175511169Y-136521313D01*
X175541600Y-136290169D01*
X175541600Y-136057031D01*
X175511169Y-135825887D01*
X175450829Y-135600693D01*
X175361611Y-135385302D01*
X175245042Y-135183398D01*
X175103116Y-134998437D01*
X174938263Y-134833584D01*
X174753302Y-134691658D01*
X174551398Y-134575089D01*
X174551391Y-134575086D01*
X174336006Y-134485870D01*
X174288595Y-134473166D01*
X174269924Y-134458839D01*
X174266852Y-134435505D01*
X174279470Y-134417896D01*
X174361676Y-134362968D01*
X174492468Y-134232176D01*
X174595231Y-134078382D01*
X174595232Y-134078379D01*
X174666012Y-133907500D01*
X174666014Y-133907494D01*
X174702099Y-133726084D01*
X174702100Y-133726084D01*
X174702100Y-133722101D01*
X174702099Y-133722100D01*
X173503307Y-133722100D01*
X173509100Y-133700480D01*
X173509100Y-133566720D01*
X173503307Y-133545100D01*
X174702099Y-133545100D01*
X174702100Y-133545099D01*
X174702100Y-133541116D01*
X174702099Y-133541115D01*
X174666014Y-133359705D01*
X174666012Y-133359699D01*
X174595232Y-133188820D01*
X174595231Y-133188817D01*
X174492468Y-133035023D01*
X174382039Y-132924594D01*
X174373033Y-132902850D01*
X174382039Y-132881106D01*
X174403783Y-132872100D01*
X175545788Y-132872100D01*
X175567532Y-132881106D01*
G37*
%TD.AperFunction*%
%TA.AperFunction,Conductor*%
G36*
X170334894Y-127325995D02*
G01*
X172271505Y-129262606D01*
X172280511Y-129284350D01*
X172271505Y-129306094D01*
X172249761Y-129315100D01*
X172122531Y-129315100D01*
X172095641Y-129318640D01*
X171891387Y-129345530D01*
X171666193Y-129405870D01*
X171450808Y-129495086D01*
X171450792Y-129495094D01*
X171248902Y-129611655D01*
X171063941Y-129753580D01*
X170899080Y-129918441D01*
X170757155Y-130103402D01*
X170640594Y-130305292D01*
X170640586Y-130305308D01*
X170551370Y-130520693D01*
X170491030Y-130745887D01*
X170460600Y-130977032D01*
X170460600Y-131210167D01*
X170491030Y-131441312D01*
X170551370Y-131666506D01*
X170623397Y-131840393D01*
X170640589Y-131881898D01*
X170640592Y-131881904D01*
X170640594Y-131881907D01*
X170756141Y-132082041D01*
X170757158Y-132083802D01*
X170805516Y-132146823D01*
X170893808Y-132261888D01*
X170899084Y-132268763D01*
X171063937Y-132433616D01*
X171248898Y-132575542D01*
X171450802Y-132692111D01*
X171609935Y-132758026D01*
X171666195Y-132781330D01*
X171713602Y-132794032D01*
X171732274Y-132808359D01*
X171735346Y-132831692D01*
X171722728Y-132849301D01*
X171640526Y-132904228D01*
X171509731Y-133035023D01*
X171406968Y-133188817D01*
X171406967Y-133188820D01*
X171336187Y-133359699D01*
X171336185Y-133359705D01*
X171300100Y-133541115D01*
X171300100Y-133545099D01*
X171300101Y-133545100D01*
X172498893Y-133545100D01*
X172493100Y-133566720D01*
X172493100Y-133700480D01*
X172498893Y-133722100D01*
X171300101Y-133722100D01*
X171300100Y-133722101D01*
X171300100Y-133726084D01*
X171302153Y-133736406D01*
X171297561Y-133759489D01*
X171277993Y-133772564D01*
X171254910Y-133767972D01*
X171250250Y-133764149D01*
X170291406Y-132805305D01*
X170282400Y-132783561D01*
X170282400Y-127347739D01*
X170291406Y-127325995D01*
X170313150Y-127316989D01*
X170334894Y-127325995D01*
G37*
%TD.AperFunction*%
%TA.AperFunction,Conductor*%
G36*
X135630794Y-117005994D02*
G01*
X135639800Y-117027738D01*
X135639800Y-127455675D01*
X135630794Y-127477419D01*
X135609050Y-127486425D01*
X135590331Y-127480071D01*
X135581966Y-127473652D01*
X135553302Y-127451658D01*
X135541919Y-127445086D01*
X135351407Y-127335094D01*
X135351404Y-127335092D01*
X135351398Y-127335089D01*
X135340435Y-127330548D01*
X135136006Y-127245870D01*
X135088595Y-127233166D01*
X135069924Y-127218839D01*
X135066852Y-127195505D01*
X135079470Y-127177896D01*
X135161676Y-127122968D01*
X135292468Y-126992176D01*
X135395231Y-126838382D01*
X135395232Y-126838379D01*
X135466012Y-126667500D01*
X135466014Y-126667494D01*
X135502099Y-126486084D01*
X135502100Y-126486084D01*
X135502100Y-126482101D01*
X135502099Y-126482100D01*
X134303307Y-126482100D01*
X134309100Y-126460480D01*
X134309100Y-126326720D01*
X134303307Y-126305100D01*
X135502099Y-126305100D01*
X135502100Y-126305099D01*
X135502100Y-126301116D01*
X135502099Y-126301115D01*
X135466014Y-126119705D01*
X135466012Y-126119699D01*
X135395232Y-125948820D01*
X135395231Y-125948817D01*
X135292468Y-125795023D01*
X135161676Y-125664231D01*
X135007882Y-125561468D01*
X135007879Y-125561467D01*
X134837000Y-125490687D01*
X134836994Y-125490685D01*
X134655584Y-125454600D01*
X133889601Y-125454600D01*
X133889600Y-125454601D01*
X133889600Y-125891393D01*
X133867980Y-125885600D01*
X133734220Y-125885600D01*
X133712600Y-125891393D01*
X133712600Y-125454601D01*
X133712599Y-125454600D01*
X132946616Y-125454600D01*
X132765205Y-125490685D01*
X132765199Y-125490687D01*
X132594320Y-125561467D01*
X132594317Y-125561468D01*
X132440523Y-125664231D01*
X132309731Y-125795023D01*
X132206968Y-125948817D01*
X132206967Y-125948820D01*
X132136187Y-126119699D01*
X132136185Y-126119705D01*
X132100100Y-126301115D01*
X132100100Y-126305099D01*
X132100101Y-126305100D01*
X133298893Y-126305100D01*
X133293100Y-126326720D01*
X133293100Y-126460480D01*
X133298893Y-126482100D01*
X132100101Y-126482100D01*
X132100100Y-126482101D01*
X132100100Y-126486084D01*
X132136185Y-126667494D01*
X132136187Y-126667500D01*
X132206967Y-126838379D01*
X132206968Y-126838382D01*
X132309731Y-126992176D01*
X132440523Y-127122968D01*
X132522728Y-127177896D01*
X132535803Y-127197465D01*
X132531212Y-127220548D01*
X132513603Y-127233166D01*
X132466199Y-127245868D01*
X132466182Y-127245874D01*
X132250808Y-127335086D01*
X132250792Y-127335094D01*
X132048902Y-127451655D01*
X131863935Y-127593584D01*
X131863182Y-127594246D01*
X131863138Y-127594196D01*
X131863138Y-127594197D01*
X131863130Y-127594187D01*
X131862848Y-127593865D01*
X131842484Y-127602300D01*
X131487717Y-127602300D01*
X131465974Y-127593294D01*
X131280198Y-127407519D01*
X131280196Y-127407517D01*
X131280195Y-127407516D01*
X131164200Y-127312322D01*
X131164198Y-127312321D01*
X131164197Y-127312320D01*
X131164194Y-127312318D01*
X130987617Y-127217936D01*
X130987615Y-127217935D01*
X130987611Y-127217933D01*
X130855628Y-127177896D01*
X130795998Y-127159807D01*
X130646665Y-127145100D01*
X129915529Y-127145100D01*
X129766201Y-127159807D01*
X129574592Y-127217931D01*
X129574589Y-127217932D01*
X129574587Y-127217932D01*
X129574582Y-127217935D01*
X129398004Y-127312318D01*
X129398001Y-127312320D01*
X129282003Y-127407517D01*
X128974893Y-127714627D01*
X128953150Y-127723633D01*
X128931406Y-127714626D01*
X128922400Y-127692883D01*
X128922400Y-125112101D01*
X129162099Y-125112101D01*
X129162099Y-125356664D01*
X129172370Y-125408293D01*
X129172370Y-125408294D01*
X129201609Y-125452055D01*
X129201611Y-125452057D01*
X129672644Y-125923091D01*
X129672646Y-125923093D01*
X129716405Y-125952330D01*
X129768032Y-125962599D01*
X129768033Y-125962600D01*
X130012599Y-125962600D01*
X130012600Y-125962599D01*
X130012600Y-125525806D01*
X130034220Y-125531600D01*
X130167980Y-125531600D01*
X130189600Y-125525806D01*
X130189600Y-125962599D01*
X130189601Y-125962600D01*
X130434164Y-125962600D01*
X130485793Y-125952329D01*
X130485794Y-125952329D01*
X130529555Y-125923090D01*
X130529557Y-125923088D01*
X131000591Y-125452055D01*
X131000593Y-125452053D01*
X131029830Y-125408294D01*
X131040099Y-125356667D01*
X131040100Y-125356667D01*
X131040100Y-125112101D01*
X131040099Y-125112100D01*
X130603307Y-125112100D01*
X130609100Y-125090480D01*
X130609100Y-124956720D01*
X130603307Y-124935100D01*
X131040100Y-124935100D01*
X131040101Y-124935099D01*
X131040101Y-124690535D01*
X131029829Y-124638906D01*
X131029829Y-124638905D01*
X131000590Y-124595144D01*
X131000588Y-124595142D01*
X130529555Y-124124108D01*
X130529553Y-124124106D01*
X130485794Y-124094869D01*
X130434167Y-124084600D01*
X130434166Y-124084599D01*
X130189600Y-124084599D01*
X130189600Y-124521393D01*
X130167980Y-124515600D01*
X130034220Y-124515600D01*
X130012600Y-124521393D01*
X130012600Y-124084600D01*
X130012599Y-124084599D01*
X129768035Y-124084599D01*
X129716406Y-124094870D01*
X129716405Y-124094870D01*
X129672644Y-124124109D01*
X129672642Y-124124111D01*
X129201608Y-124595144D01*
X129201606Y-124595146D01*
X129172369Y-124638905D01*
X129162100Y-124690532D01*
X129162100Y-124935099D01*
X129162101Y-124935100D01*
X129598893Y-124935100D01*
X129593100Y-124956720D01*
X129593100Y-125090480D01*
X129598893Y-125112100D01*
X129162100Y-125112100D01*
X129162099Y-125112101D01*
X128922400Y-125112101D01*
X128922400Y-123761115D01*
X132100100Y-123761115D01*
X132100100Y-123765099D01*
X132100101Y-123765100D01*
X133298893Y-123765100D01*
X133293100Y-123786720D01*
X133293100Y-123920480D01*
X133298893Y-123942100D01*
X132100101Y-123942100D01*
X132100100Y-123942101D01*
X132100100Y-123946084D01*
X132136185Y-124127494D01*
X132136187Y-124127500D01*
X132206967Y-124298379D01*
X132206968Y-124298382D01*
X132309731Y-124452176D01*
X132440523Y-124582968D01*
X132594317Y-124685731D01*
X132594320Y-124685732D01*
X132765199Y-124756512D01*
X132765205Y-124756514D01*
X132946615Y-124792599D01*
X132946616Y-124792600D01*
X133712599Y-124792600D01*
X133712600Y-124792599D01*
X133712600Y-124355806D01*
X133734220Y-124361600D01*
X133867980Y-124361600D01*
X133889600Y-124355806D01*
X133889600Y-124792599D01*
X133889601Y-124792600D01*
X134655584Y-124792600D01*
X134655584Y-124792599D01*
X134836994Y-124756514D01*
X134837000Y-124756512D01*
X135007879Y-124685732D01*
X135007882Y-124685731D01*
X135161676Y-124582968D01*
X135292468Y-124452176D01*
X135395231Y-124298382D01*
X135395232Y-124298379D01*
X135466012Y-124127500D01*
X135466014Y-124127494D01*
X135502099Y-123946084D01*
X135502100Y-123946084D01*
X135502100Y-123942101D01*
X135502099Y-123942100D01*
X134303307Y-123942100D01*
X134309100Y-123920480D01*
X134309100Y-123786720D01*
X134303307Y-123765100D01*
X135502099Y-123765100D01*
X135502100Y-123765099D01*
X135502100Y-123761116D01*
X135502099Y-123761115D01*
X135466014Y-123579705D01*
X135466012Y-123579699D01*
X135395232Y-123408820D01*
X135395231Y-123408817D01*
X135292468Y-123255023D01*
X135161676Y-123124231D01*
X135007882Y-123021468D01*
X135007879Y-123021467D01*
X134837000Y-122950687D01*
X134836994Y-122950685D01*
X134655584Y-122914600D01*
X133889601Y-122914600D01*
X133889600Y-122914601D01*
X133889600Y-123351393D01*
X133867980Y-123345600D01*
X133734220Y-123345600D01*
X133712600Y-123351393D01*
X133712600Y-122914601D01*
X133712599Y-122914600D01*
X132946616Y-122914600D01*
X132765205Y-122950685D01*
X132765199Y-122950687D01*
X132594320Y-123021467D01*
X132594317Y-123021468D01*
X132440523Y-123124231D01*
X132309731Y-123255023D01*
X132206968Y-123408817D01*
X132206967Y-123408820D01*
X132136187Y-123579699D01*
X132136185Y-123579705D01*
X132100100Y-123761115D01*
X128922400Y-123761115D01*
X128922400Y-123683638D01*
X128931406Y-123661894D01*
X135587306Y-117005994D01*
X135609050Y-116996988D01*
X135630794Y-117005994D01*
G37*
%TD.AperFunction*%
%TA.AperFunction,Conductor*%
G36*
X171960492Y-123818171D02*
G01*
X172042005Y-123899684D01*
X172158000Y-123994878D01*
X172158002Y-123994879D01*
X172158005Y-123994881D01*
X172256695Y-124047632D01*
X172334589Y-124089267D01*
X172526200Y-124147392D01*
X172675535Y-124162100D01*
X173406671Y-124162100D01*
X173556000Y-124147392D01*
X173658088Y-124116423D01*
X173667014Y-124115100D01*
X177438232Y-124115100D01*
X177459976Y-124124106D01*
X177468719Y-124141836D01*
X177491030Y-124311312D01*
X177551370Y-124536506D01*
X177623930Y-124711680D01*
X177640589Y-124751898D01*
X177640592Y-124751904D01*
X177640594Y-124751907D01*
X177700865Y-124856299D01*
X177757158Y-124953802D01*
X177899084Y-125138763D01*
X178063937Y-125303616D01*
X178248898Y-125445542D01*
X178450802Y-125562111D01*
X178578726Y-125615099D01*
X178666195Y-125651330D01*
X178713602Y-125664032D01*
X178732274Y-125678359D01*
X178735346Y-125701692D01*
X178722728Y-125719301D01*
X178640526Y-125774228D01*
X178509731Y-125905023D01*
X178406968Y-126058817D01*
X178406967Y-126058820D01*
X178336187Y-126229699D01*
X178336185Y-126229705D01*
X178300100Y-126411115D01*
X178300100Y-126415099D01*
X178300101Y-126415100D01*
X179498893Y-126415100D01*
X179493100Y-126436720D01*
X179493100Y-126570480D01*
X179498893Y-126592100D01*
X178300101Y-126592100D01*
X178300100Y-126592101D01*
X178300100Y-126596084D01*
X178336185Y-126777494D01*
X178336187Y-126777500D01*
X178406967Y-126948379D01*
X178406968Y-126948382D01*
X178509731Y-127102176D01*
X178640523Y-127232968D01*
X178722728Y-127287896D01*
X178735803Y-127307465D01*
X178731212Y-127330548D01*
X178713603Y-127343166D01*
X178666199Y-127355868D01*
X178666182Y-127355874D01*
X178450808Y-127445086D01*
X178450792Y-127445094D01*
X178248902Y-127561655D01*
X178063937Y-127703583D01*
X178054225Y-127713295D01*
X178032483Y-127722300D01*
X174481139Y-127722300D01*
X174459395Y-127713294D01*
X172538202Y-125792101D01*
X173562099Y-125792101D01*
X173562099Y-126036664D01*
X173572370Y-126088293D01*
X173572370Y-126088294D01*
X173601609Y-126132055D01*
X173601611Y-126132057D01*
X174072644Y-126603091D01*
X174072646Y-126603093D01*
X174116405Y-126632330D01*
X174168032Y-126642599D01*
X174168033Y-126642600D01*
X174412599Y-126642600D01*
X174412600Y-126642599D01*
X174412600Y-126205806D01*
X174434220Y-126211600D01*
X174567980Y-126211600D01*
X174589600Y-126205806D01*
X174589600Y-126642599D01*
X174589601Y-126642600D01*
X174834164Y-126642600D01*
X174885793Y-126632329D01*
X174885794Y-126632329D01*
X174929555Y-126603090D01*
X174929557Y-126603088D01*
X175400591Y-126132055D01*
X175400593Y-126132053D01*
X175429830Y-126088294D01*
X175440099Y-126036667D01*
X175440100Y-126036667D01*
X175440100Y-125792101D01*
X175440099Y-125792100D01*
X175003307Y-125792100D01*
X175009100Y-125770480D01*
X175009100Y-125636720D01*
X175003307Y-125615100D01*
X175440100Y-125615100D01*
X175440101Y-125615099D01*
X175440101Y-125370535D01*
X175429829Y-125318906D01*
X175429829Y-125318905D01*
X175400590Y-125275144D01*
X175400588Y-125275142D01*
X174929555Y-124804108D01*
X174929553Y-124804106D01*
X174885794Y-124774869D01*
X174834167Y-124764600D01*
X174834166Y-124764599D01*
X174589600Y-124764599D01*
X174589600Y-125201393D01*
X174567980Y-125195600D01*
X174434220Y-125195600D01*
X174412600Y-125201393D01*
X174412600Y-124764600D01*
X174412599Y-124764599D01*
X174168035Y-124764599D01*
X174116406Y-124774870D01*
X174116405Y-124774870D01*
X174072644Y-124804109D01*
X174072642Y-124804111D01*
X173601608Y-125275144D01*
X173601606Y-125275146D01*
X173572369Y-125318905D01*
X173562100Y-125370532D01*
X173562100Y-125615099D01*
X173562101Y-125615100D01*
X173998893Y-125615100D01*
X173993100Y-125636720D01*
X173993100Y-125770480D01*
X173998893Y-125792100D01*
X173562100Y-125792100D01*
X173562099Y-125792101D01*
X172538202Y-125792101D01*
X171917006Y-125170905D01*
X171908000Y-125149161D01*
X171908000Y-123839916D01*
X171917006Y-123818172D01*
X171938750Y-123809166D01*
X171960492Y-123818171D01*
G37*
%TD.AperFunction*%
%TA.AperFunction,Conductor*%
G36*
X166326032Y-65184106D02*
G01*
X166533782Y-65391856D01*
X166542788Y-65413600D01*
X166533782Y-65435344D01*
X166533781Y-65435344D01*
X166289995Y-65679129D01*
X166277179Y-65686811D01*
X166206728Y-65708182D01*
X166174589Y-65717932D01*
X166174586Y-65717933D01*
X166174582Y-65717935D01*
X165998004Y-65812318D01*
X165998001Y-65812320D01*
X165882009Y-65907512D01*
X165365014Y-66424507D01*
X165269820Y-66540502D01*
X165269818Y-66540505D01*
X165175436Y-66717082D01*
X165175432Y-66717092D01*
X165117307Y-66908701D01*
X165102600Y-67058034D01*
X165102600Y-67789171D01*
X165117307Y-67938498D01*
X165151856Y-68052390D01*
X165175432Y-68130111D01*
X165175434Y-68130115D01*
X165175435Y-68130117D01*
X165269818Y-68306695D01*
X165269820Y-68306698D01*
X165269822Y-68306701D01*
X165365014Y-68422693D01*
X165372390Y-68430069D01*
X165381396Y-68451812D01*
X165372390Y-68473556D01*
X165350646Y-68482562D01*
X165336686Y-68479211D01*
X165305052Y-68463093D01*
X165057824Y-68382764D01*
X164801082Y-68342100D01*
X164801076Y-68342100D01*
X164597020Y-68342100D01*
X164575276Y-68333094D01*
X164566270Y-68311350D01*
X164570390Y-68295975D01*
X164601606Y-68241907D01*
X164601606Y-68241905D01*
X164601611Y-68241898D01*
X164690829Y-68026507D01*
X164751169Y-67801313D01*
X164781600Y-67570169D01*
X164781600Y-67337031D01*
X164751169Y-67105887D01*
X164690829Y-66880693D01*
X164601611Y-66665302D01*
X164485042Y-66463398D01*
X164343116Y-66278437D01*
X164178263Y-66113584D01*
X163993302Y-65971658D01*
X163972493Y-65959644D01*
X163791407Y-65855094D01*
X163791404Y-65855092D01*
X163791398Y-65855089D01*
X163791391Y-65855086D01*
X163576006Y-65765870D01*
X163350812Y-65705530D01*
X163173448Y-65682180D01*
X163119669Y-65675100D01*
X161362531Y-65675100D01*
X161335641Y-65678640D01*
X161131387Y-65705530D01*
X160906193Y-65765870D01*
X160690808Y-65855086D01*
X160690792Y-65855094D01*
X160488902Y-65971655D01*
X160303941Y-66113580D01*
X160139080Y-66278441D01*
X159997155Y-66463402D01*
X159880594Y-66665292D01*
X159880586Y-66665308D01*
X159791370Y-66880693D01*
X159731030Y-67105887D01*
X159700600Y-67337032D01*
X159700600Y-67570167D01*
X159731030Y-67801312D01*
X159791370Y-68026506D01*
X159880586Y-68241891D01*
X159880589Y-68241898D01*
X159880592Y-68241904D01*
X159880594Y-68241907D01*
X159996368Y-68442434D01*
X159997158Y-68443802D01*
X160044396Y-68505363D01*
X160139083Y-68628762D01*
X160212177Y-68701857D01*
X160221183Y-68723600D01*
X160212177Y-68745343D01*
X160139083Y-68818437D01*
X159997155Y-69003402D01*
X159880594Y-69205292D01*
X159880586Y-69205308D01*
X159791370Y-69420693D01*
X159731030Y-69645887D01*
X159708788Y-69814834D01*
X159700600Y-69877031D01*
X159700600Y-70110169D01*
X159701629Y-70117983D01*
X159731030Y-70341312D01*
X159791370Y-70566506D01*
X159844921Y-70695789D01*
X159880589Y-70781898D01*
X159880592Y-70781904D01*
X159880594Y-70781907D01*
X159949533Y-70901313D01*
X159997158Y-70983802D01*
X160139084Y-71168763D01*
X160303937Y-71333616D01*
X160488898Y-71475542D01*
X160690802Y-71592111D01*
X160818729Y-71645100D01*
X160906195Y-71681330D01*
X160953602Y-71694032D01*
X160972274Y-71708359D01*
X160975346Y-71731692D01*
X160962728Y-71749301D01*
X160880526Y-71804228D01*
X160749731Y-71935023D01*
X160646968Y-72088817D01*
X160646967Y-72088820D01*
X160576187Y-72259699D01*
X160576185Y-72259705D01*
X160540100Y-72441115D01*
X160540100Y-72445099D01*
X160540101Y-72445100D01*
X161738893Y-72445100D01*
X161733100Y-72466720D01*
X161733100Y-72600480D01*
X161738893Y-72622100D01*
X160540101Y-72622100D01*
X160540100Y-72622101D01*
X160540100Y-72626084D01*
X160576185Y-72807494D01*
X160576187Y-72807500D01*
X160646967Y-72978379D01*
X160646968Y-72978382D01*
X160749731Y-73132176D01*
X160880523Y-73262968D01*
X160962728Y-73317896D01*
X160975803Y-73337465D01*
X160971212Y-73360548D01*
X160953603Y-73373166D01*
X160906199Y-73385868D01*
X160906182Y-73385874D01*
X160690808Y-73475086D01*
X160690792Y-73475094D01*
X160488902Y-73591655D01*
X160303941Y-73733580D01*
X160139080Y-73898441D01*
X159997155Y-74083402D01*
X159880594Y-74285292D01*
X159880586Y-74285308D01*
X159791370Y-74500693D01*
X159731030Y-74725887D01*
X159711781Y-74872100D01*
X159700600Y-74957031D01*
X159700600Y-75190169D01*
X159705820Y-75229817D01*
X159731030Y-75421312D01*
X159791370Y-75646506D01*
X159880586Y-75861891D01*
X159880589Y-75861898D01*
X159880592Y-75861904D01*
X159880594Y-75861907D01*
X159936034Y-75957932D01*
X159997158Y-76063802D01*
X160139084Y-76248763D01*
X160180128Y-76289807D01*
X160189134Y-76311550D01*
X160180128Y-76333294D01*
X160158384Y-76342300D01*
X159887717Y-76342300D01*
X159865974Y-76333294D01*
X159680198Y-76147519D01*
X159680195Y-76147516D01*
X159564200Y-76052322D01*
X159564198Y-76052321D01*
X159564197Y-76052320D01*
X159564194Y-76052318D01*
X159387617Y-75957936D01*
X159387615Y-75957935D01*
X159387611Y-75957933D01*
X159320211Y-75937487D01*
X159195998Y-75899807D01*
X159046665Y-75885100D01*
X158315529Y-75885100D01*
X158166201Y-75899807D01*
X157974592Y-75957931D01*
X157974589Y-75957932D01*
X157974587Y-75957932D01*
X157974582Y-75957935D01*
X157798004Y-76052318D01*
X157798001Y-76052320D01*
X157682009Y-76147512D01*
X157165014Y-76664507D01*
X157069820Y-76780502D01*
X157069818Y-76780505D01*
X156975436Y-76957082D01*
X156975432Y-76957092D01*
X156917307Y-77148701D01*
X156902600Y-77298034D01*
X156902600Y-78029171D01*
X156917307Y-78178498D01*
X156919737Y-78186507D01*
X156975432Y-78370111D01*
X156975434Y-78370115D01*
X156975435Y-78370117D01*
X157069818Y-78546695D01*
X157069820Y-78546698D01*
X157069822Y-78546701D01*
X157165014Y-78662693D01*
X157682005Y-79179684D01*
X157798000Y-79274878D01*
X157798002Y-79274879D01*
X157798005Y-79274881D01*
X157896695Y-79327632D01*
X157974589Y-79369267D01*
X158166200Y-79427392D01*
X158315535Y-79442100D01*
X159046671Y-79442100D01*
X159196000Y-79427392D01*
X159387611Y-79369268D01*
X159564201Y-79274878D01*
X159680193Y-79179686D01*
X159773085Y-79086794D01*
X159865974Y-78993906D01*
X159887717Y-78984900D01*
X160071770Y-78984900D01*
X160093514Y-78993906D01*
X160102520Y-79015650D01*
X160096166Y-79034369D01*
X159997155Y-79163402D01*
X159880594Y-79365292D01*
X159880586Y-79365308D01*
X159791370Y-79580693D01*
X159731030Y-79805887D01*
X159700600Y-80037032D01*
X159700600Y-80270167D01*
X159731030Y-80501312D01*
X159791370Y-80726506D01*
X159869076Y-80914103D01*
X159880589Y-80941898D01*
X159880592Y-80941904D01*
X159880594Y-80941907D01*
X159965672Y-81089267D01*
X159997158Y-81143802D01*
X160104486Y-81283674D01*
X160139083Y-81328762D01*
X160212177Y-81401857D01*
X160221183Y-81423600D01*
X160212177Y-81445343D01*
X160139083Y-81518437D01*
X159997155Y-81703402D01*
X159880594Y-81905292D01*
X159880586Y-81905308D01*
X159791370Y-82120693D01*
X159731030Y-82345887D01*
X159700600Y-82577032D01*
X159700600Y-82810167D01*
X159731030Y-83041312D01*
X159791370Y-83266506D01*
X159880494Y-83481669D01*
X159880589Y-83481898D01*
X159880592Y-83481904D01*
X159880594Y-83481907D01*
X159898026Y-83512100D01*
X159997158Y-83683802D01*
X160059924Y-83765600D01*
X160139083Y-83868762D01*
X160212177Y-83941857D01*
X160221183Y-83963600D01*
X160212177Y-83985343D01*
X160139083Y-84058437D01*
X159997155Y-84243402D01*
X159880594Y-84445292D01*
X159880586Y-84445308D01*
X159791370Y-84660693D01*
X159731030Y-84885887D01*
X159704140Y-85090141D01*
X159700600Y-85117031D01*
X159700600Y-85350169D01*
X159705833Y-85389917D01*
X159731030Y-85581312D01*
X159791370Y-85806506D01*
X159869489Y-85995100D01*
X159880589Y-86021898D01*
X159880592Y-86021904D01*
X159880594Y-86021907D01*
X159985523Y-86203649D01*
X159997158Y-86223802D01*
X160108201Y-86368515D01*
X160139083Y-86408762D01*
X160212177Y-86481857D01*
X160221183Y-86503600D01*
X160212177Y-86525343D01*
X160139083Y-86598437D01*
X159997155Y-86783402D01*
X159880594Y-86985292D01*
X159880586Y-86985308D01*
X159791370Y-87200693D01*
X159731030Y-87425887D01*
X159700600Y-87657032D01*
X159700600Y-87890167D01*
X159731030Y-88121312D01*
X159791370Y-88346506D01*
X159826089Y-88430324D01*
X159880589Y-88561898D01*
X159880592Y-88561904D01*
X159880594Y-88561907D01*
X159947363Y-88677555D01*
X159997158Y-88763802D01*
X160108201Y-88908515D01*
X160139083Y-88948762D01*
X160212177Y-89021857D01*
X160221183Y-89043600D01*
X160212177Y-89065343D01*
X160139083Y-89138437D01*
X159997155Y-89323402D01*
X159880594Y-89525292D01*
X159880586Y-89525308D01*
X159791370Y-89740693D01*
X159731030Y-89965887D01*
X159700600Y-90197032D01*
X159700600Y-90430167D01*
X159731030Y-90661312D01*
X159791370Y-90886506D01*
X159820978Y-90957985D01*
X159880589Y-91101898D01*
X159997158Y-91303802D01*
X160108201Y-91448515D01*
X160139083Y-91488762D01*
X160212177Y-91561857D01*
X160221183Y-91583600D01*
X160212177Y-91605343D01*
X160139083Y-91678437D01*
X159997155Y-91863402D01*
X159880594Y-92065292D01*
X159880586Y-92065308D01*
X159791370Y-92280693D01*
X159731030Y-92505887D01*
X159700600Y-92737032D01*
X159700600Y-92970167D01*
X159731030Y-93201312D01*
X159791370Y-93426506D01*
X159838166Y-93539480D01*
X159880589Y-93641898D01*
X159880592Y-93641904D01*
X159880594Y-93641907D01*
X159973957Y-93803616D01*
X159997158Y-93843802D01*
X160075226Y-93945542D01*
X160134532Y-94022831D01*
X160140623Y-94045564D01*
X160128855Y-94065946D01*
X160110136Y-94072300D01*
X156107104Y-94072300D01*
X155901697Y-94104834D01*
X155703897Y-94169102D01*
X155703892Y-94169104D01*
X155518597Y-94263517D01*
X155518584Y-94263525D01*
X155350336Y-94385764D01*
X154093263Y-95642836D01*
X153996287Y-95776314D01*
X153989442Y-95785736D01*
X153987873Y-95787896D01*
X153971022Y-95811088D01*
X153971020Y-95811091D01*
X153876604Y-95996392D01*
X153876602Y-95996397D01*
X153812334Y-96194197D01*
X153779800Y-96399604D01*
X153779800Y-98796983D01*
X153770794Y-98818726D01*
X153585019Y-99004501D01*
X153489820Y-99120502D01*
X153489818Y-99120505D01*
X153395436Y-99297082D01*
X153395432Y-99297092D01*
X153337307Y-99488701D01*
X153322600Y-99638034D01*
X153322600Y-100369171D01*
X153337307Y-100518498D01*
X153337308Y-100518500D01*
X153395432Y-100710111D01*
X153395434Y-100710115D01*
X153395435Y-100710117D01*
X153489818Y-100886695D01*
X153489820Y-100886698D01*
X153489822Y-100886701D01*
X153585014Y-101002693D01*
X154102005Y-101519684D01*
X154218000Y-101614878D01*
X154218002Y-101614879D01*
X154218005Y-101614881D01*
X154281385Y-101648758D01*
X154394589Y-101709267D01*
X154586200Y-101767392D01*
X154735535Y-101782100D01*
X155466671Y-101782100D01*
X155616000Y-101767392D01*
X155807611Y-101709268D01*
X155984201Y-101614878D01*
X156100193Y-101519686D01*
X156617184Y-101002695D01*
X156712378Y-100886700D01*
X156806767Y-100710111D01*
X156864892Y-100518500D01*
X156879600Y-100369165D01*
X156879600Y-99638029D01*
X156864892Y-99488700D01*
X156806768Y-99297089D01*
X156745174Y-99181856D01*
X156712381Y-99120504D01*
X156712379Y-99120501D01*
X156712378Y-99120499D01*
X156617186Y-99004507D01*
X156536476Y-98923797D01*
X156431406Y-98818726D01*
X156422400Y-98796983D01*
X156422400Y-97063638D01*
X156431406Y-97041894D01*
X156749394Y-96723906D01*
X156771138Y-96714900D01*
X160110136Y-96714900D01*
X160131880Y-96723906D01*
X160140886Y-96745650D01*
X160134532Y-96764369D01*
X159997155Y-96943402D01*
X159880594Y-97145292D01*
X159880586Y-97145308D01*
X159791370Y-97360693D01*
X159731030Y-97585887D01*
X159714193Y-97713781D01*
X159702470Y-97802831D01*
X159700600Y-97817032D01*
X159700600Y-98050167D01*
X159731030Y-98281312D01*
X159791370Y-98506506D01*
X159832406Y-98605575D01*
X159880589Y-98721898D01*
X159880592Y-98721904D01*
X159880594Y-98721907D01*
X159973957Y-98883616D01*
X159997158Y-98923802D01*
X160075226Y-99025542D01*
X160139083Y-99108762D01*
X160212177Y-99181857D01*
X160221183Y-99203600D01*
X160212177Y-99225343D01*
X160139083Y-99298437D01*
X159997155Y-99483402D01*
X159880594Y-99685292D01*
X159880586Y-99685308D01*
X159791370Y-99900693D01*
X159731030Y-100125887D01*
X159700600Y-100357032D01*
X159700600Y-100590167D01*
X159731030Y-100821312D01*
X159791370Y-101046506D01*
X159880586Y-101261891D01*
X159880589Y-101261898D01*
X159997158Y-101463802D01*
X160108201Y-101608515D01*
X160139083Y-101648762D01*
X160212177Y-101721857D01*
X160221183Y-101743600D01*
X160212177Y-101765343D01*
X160139083Y-101838437D01*
X159997155Y-102023402D01*
X159880594Y-102225292D01*
X159880586Y-102225308D01*
X159791370Y-102440693D01*
X159731030Y-102665887D01*
X159714193Y-102793781D01*
X159700600Y-102897031D01*
X159700600Y-103130169D01*
X159707680Y-103183948D01*
X159731030Y-103361312D01*
X159791370Y-103586506D01*
X159856357Y-103743398D01*
X159880589Y-103801898D01*
X159880592Y-103801904D01*
X159880594Y-103801907D01*
X159997155Y-104003797D01*
X159997158Y-104003802D01*
X160032873Y-104050346D01*
X160139083Y-104188762D01*
X160212177Y-104261857D01*
X160221183Y-104283600D01*
X160212177Y-104305343D01*
X160139083Y-104378437D01*
X159997155Y-104563402D01*
X159880594Y-104765292D01*
X159880586Y-104765308D01*
X159791370Y-104980693D01*
X159731030Y-105205887D01*
X159700600Y-105437032D01*
X159700600Y-105670167D01*
X159731030Y-105901312D01*
X159791370Y-106126506D01*
X159876535Y-106332111D01*
X159880589Y-106341898D01*
X159880592Y-106341904D01*
X159880594Y-106341907D01*
X159962104Y-106483086D01*
X159997158Y-106543802D01*
X160075224Y-106645539D01*
X160139083Y-106728762D01*
X160212177Y-106801857D01*
X160221183Y-106823600D01*
X160212177Y-106845343D01*
X160139083Y-106918437D01*
X159997155Y-107103402D01*
X159880594Y-107305292D01*
X159880586Y-107305308D01*
X159791370Y-107520693D01*
X159731030Y-107745887D01*
X159700600Y-107977032D01*
X159700600Y-108210167D01*
X159731030Y-108441312D01*
X159791370Y-108666506D01*
X159880586Y-108881891D01*
X159880589Y-108881898D01*
X159880592Y-108881904D01*
X159880594Y-108881907D01*
X159940453Y-108985586D01*
X159997158Y-109083802D01*
X160072569Y-109182079D01*
X160139083Y-109268762D01*
X160212177Y-109341857D01*
X160221183Y-109363600D01*
X160212177Y-109385343D01*
X160139083Y-109458437D01*
X159997155Y-109643402D01*
X159880594Y-109845292D01*
X159880586Y-109845308D01*
X159791370Y-110060693D01*
X159731030Y-110285887D01*
X159714193Y-110413781D01*
X159700600Y-110517031D01*
X159700600Y-110750169D01*
X159705042Y-110783906D01*
X159731030Y-110981312D01*
X159791370Y-111206506D01*
X159832406Y-111305575D01*
X159880589Y-111421898D01*
X159880592Y-111421904D01*
X159880594Y-111421907D01*
X159997155Y-111623797D01*
X159997158Y-111623802D01*
X160075224Y-111725539D01*
X160139083Y-111808762D01*
X160212177Y-111881857D01*
X160221183Y-111903600D01*
X160212177Y-111925343D01*
X160139083Y-111998437D01*
X159997155Y-112183402D01*
X159880594Y-112385292D01*
X159880586Y-112385308D01*
X159791370Y-112600693D01*
X159731030Y-112825887D01*
X159714193Y-112953781D01*
X159700600Y-113057031D01*
X159700600Y-113290169D01*
X159705207Y-113325161D01*
X159731030Y-113521312D01*
X159791370Y-113746506D01*
X159832406Y-113845575D01*
X159880589Y-113961898D01*
X159880592Y-113961904D01*
X159880594Y-113961907D01*
X159928788Y-114045381D01*
X159997158Y-114163802D01*
X160075224Y-114265539D01*
X160139083Y-114348762D01*
X160212177Y-114421857D01*
X160221183Y-114443600D01*
X160212177Y-114465343D01*
X160139083Y-114538437D01*
X159997155Y-114723402D01*
X159880594Y-114925292D01*
X159880586Y-114925308D01*
X159791370Y-115140693D01*
X159731030Y-115365887D01*
X159700600Y-115597032D01*
X159700600Y-115830167D01*
X159731030Y-116061312D01*
X159791370Y-116286506D01*
X159872753Y-116482981D01*
X159880589Y-116501898D01*
X159997158Y-116703802D01*
X160139084Y-116888763D01*
X160303937Y-117053616D01*
X160488898Y-117195542D01*
X160690802Y-117312111D01*
X160690808Y-117312113D01*
X160690813Y-117312116D01*
X160800291Y-117357463D01*
X160863618Y-117383694D01*
X160900817Y-117399102D01*
X160917459Y-117415743D01*
X160919800Y-117427511D01*
X160919800Y-120499680D01*
X160910794Y-120521424D01*
X160889050Y-120530430D01*
X160879548Y-120528925D01*
X160735227Y-120482034D01*
X160529820Y-120449500D01*
X160529814Y-120449500D01*
X153748338Y-120449500D01*
X153726594Y-120440494D01*
X150471406Y-117185305D01*
X150462400Y-117163561D01*
X150462400Y-109182091D01*
X150462399Y-109182079D01*
X150438506Y-109031225D01*
X150429865Y-108976670D01*
X150402553Y-108892612D01*
X150365597Y-108778871D01*
X150365595Y-108778866D01*
X150271182Y-108593572D01*
X150271179Y-108593568D01*
X150271177Y-108593563D01*
X150163635Y-108445544D01*
X150148935Y-108425311D01*
X150148933Y-108425309D01*
X150148931Y-108425306D01*
X146726594Y-105002968D01*
X146726590Y-105002965D01*
X146726588Y-105002963D01*
X146695646Y-104980483D01*
X146685311Y-104967373D01*
X146601615Y-104765311D01*
X146601604Y-104765288D01*
X146485044Y-104563402D01*
X146485042Y-104563398D01*
X146343116Y-104378437D01*
X146270021Y-104305342D01*
X146261016Y-104283600D01*
X146270021Y-104261857D01*
X146343116Y-104188763D01*
X146485042Y-104003802D01*
X146601611Y-103801898D01*
X146690829Y-103586507D01*
X146751169Y-103361313D01*
X146781600Y-103130169D01*
X146781600Y-102897031D01*
X146751169Y-102665887D01*
X146690829Y-102440693D01*
X146601611Y-102225302D01*
X146485042Y-102023398D01*
X146343116Y-101838437D01*
X146270021Y-101765342D01*
X146261016Y-101743600D01*
X146270021Y-101721857D01*
X146343116Y-101648763D01*
X146485042Y-101463802D01*
X146601611Y-101261898D01*
X146690829Y-101046507D01*
X146751169Y-100821313D01*
X146781600Y-100590169D01*
X146781600Y-100357031D01*
X146751169Y-100125887D01*
X146690829Y-99900693D01*
X146601611Y-99685302D01*
X146485042Y-99483398D01*
X146343116Y-99298437D01*
X146270021Y-99225342D01*
X146261016Y-99203600D01*
X146270021Y-99181857D01*
X146343116Y-99108763D01*
X146485042Y-98923802D01*
X146601611Y-98721898D01*
X146690829Y-98506507D01*
X146751169Y-98281313D01*
X146781600Y-98050169D01*
X146781600Y-97817031D01*
X146751169Y-97585887D01*
X146690829Y-97360693D01*
X146601611Y-97145302D01*
X146485042Y-96943398D01*
X146343116Y-96758437D01*
X146270021Y-96685342D01*
X146261016Y-96663600D01*
X146270021Y-96641857D01*
X146343116Y-96568763D01*
X146485042Y-96383802D01*
X146601611Y-96181898D01*
X146690829Y-95966507D01*
X146751169Y-95741313D01*
X146781600Y-95510169D01*
X146781600Y-95277031D01*
X146751169Y-95045887D01*
X146690829Y-94820693D01*
X146601611Y-94605302D01*
X146485042Y-94403398D01*
X146343116Y-94218437D01*
X146270021Y-94145342D01*
X146261016Y-94123600D01*
X146270021Y-94101857D01*
X146343116Y-94028763D01*
X146485042Y-93843802D01*
X146601611Y-93641898D01*
X146690829Y-93426507D01*
X146751169Y-93201313D01*
X146781600Y-92970169D01*
X146781600Y-92737031D01*
X146751169Y-92505887D01*
X146690829Y-92280693D01*
X146601611Y-92065302D01*
X146485042Y-91863398D01*
X146343116Y-91678437D01*
X146270021Y-91605342D01*
X146261016Y-91583600D01*
X146270021Y-91561857D01*
X146343116Y-91488763D01*
X146485042Y-91303802D01*
X146601611Y-91101898D01*
X146690829Y-90886507D01*
X146751169Y-90661313D01*
X146781600Y-90430169D01*
X146781600Y-90197031D01*
X146751169Y-89965887D01*
X146690829Y-89740693D01*
X146601611Y-89525302D01*
X146485042Y-89323398D01*
X146343116Y-89138437D01*
X146270021Y-89065342D01*
X146261016Y-89043600D01*
X146270021Y-89021857D01*
X146343116Y-88948763D01*
X146485042Y-88763802D01*
X146601611Y-88561898D01*
X146690829Y-88346507D01*
X146751169Y-88121313D01*
X146781600Y-87890169D01*
X146781600Y-87657031D01*
X146751169Y-87425887D01*
X146690829Y-87200693D01*
X146601611Y-86985302D01*
X146485042Y-86783398D01*
X146343116Y-86598437D01*
X146178263Y-86433584D01*
X145993302Y-86291658D01*
X145791398Y-86175089D01*
X145739599Y-86153633D01*
X145576006Y-86085870D01*
X145528595Y-86073166D01*
X145509924Y-86058839D01*
X145506852Y-86035505D01*
X145519470Y-86017896D01*
X145601676Y-85962968D01*
X145732468Y-85832176D01*
X145835231Y-85678382D01*
X145835232Y-85678379D01*
X145906012Y-85507500D01*
X145906014Y-85507494D01*
X145942099Y-85326084D01*
X145942100Y-85326084D01*
X145942100Y-85322101D01*
X145942099Y-85322100D01*
X144743307Y-85322100D01*
X144749100Y-85300480D01*
X144749100Y-85166720D01*
X144743307Y-85145100D01*
X145942099Y-85145100D01*
X145942100Y-85145099D01*
X145942100Y-85141116D01*
X145942099Y-85141115D01*
X145906014Y-84959705D01*
X145906012Y-84959699D01*
X145835232Y-84788820D01*
X145835231Y-84788817D01*
X145732468Y-84635023D01*
X145601676Y-84504231D01*
X145519470Y-84449302D01*
X145506395Y-84429733D01*
X145510986Y-84406650D01*
X145528594Y-84394032D01*
X145564655Y-84384370D01*
X145576004Y-84381330D01*
X145576005Y-84381330D01*
X145622430Y-84362100D01*
X145791398Y-84292111D01*
X145993302Y-84175542D01*
X146178263Y-84033616D01*
X146343116Y-83868763D01*
X146485042Y-83683802D01*
X146601611Y-83481898D01*
X146690829Y-83266507D01*
X146751169Y-83041313D01*
X146781600Y-82810169D01*
X146781600Y-82577031D01*
X146751169Y-82345887D01*
X146690829Y-82120693D01*
X146601611Y-81905302D01*
X146485042Y-81703398D01*
X146343116Y-81518437D01*
X146270021Y-81445342D01*
X146261016Y-81423600D01*
X146270021Y-81401857D01*
X146343116Y-81328763D01*
X146485042Y-81143802D01*
X146601611Y-80941898D01*
X146690829Y-80726507D01*
X146751169Y-80501313D01*
X146781600Y-80270169D01*
X146781600Y-80037031D01*
X146751169Y-79805887D01*
X146690829Y-79580693D01*
X146601611Y-79365302D01*
X146485042Y-79163398D01*
X146343116Y-78978437D01*
X146270021Y-78905342D01*
X146261016Y-78883600D01*
X146270021Y-78861857D01*
X146343116Y-78788763D01*
X146485042Y-78603802D01*
X146601611Y-78401898D01*
X146690829Y-78186507D01*
X146751169Y-77961313D01*
X146781600Y-77730169D01*
X146781600Y-77497031D01*
X146751169Y-77265887D01*
X146690829Y-77040693D01*
X146601611Y-76825302D01*
X146485042Y-76623398D01*
X146343116Y-76438437D01*
X146270021Y-76365342D01*
X146261016Y-76343600D01*
X146270021Y-76321857D01*
X146343116Y-76248763D01*
X146485042Y-76063802D01*
X146601611Y-75861898D01*
X146690829Y-75646507D01*
X146751169Y-75421313D01*
X146781600Y-75190169D01*
X146781600Y-74957031D01*
X146759886Y-74792101D01*
X152262099Y-74792101D01*
X152262099Y-75036664D01*
X152272370Y-75088293D01*
X152272370Y-75088294D01*
X152301609Y-75132055D01*
X152301611Y-75132057D01*
X152772644Y-75603091D01*
X152772646Y-75603093D01*
X152816405Y-75632330D01*
X152868032Y-75642599D01*
X152868033Y-75642600D01*
X153112599Y-75642600D01*
X153112600Y-75642599D01*
X153112600Y-75205806D01*
X153134220Y-75211600D01*
X153267980Y-75211600D01*
X153289600Y-75205806D01*
X153289600Y-75642599D01*
X153289601Y-75642600D01*
X153534164Y-75642600D01*
X153585793Y-75632329D01*
X153585794Y-75632329D01*
X153629555Y-75603090D01*
X153629557Y-75603088D01*
X154100591Y-75132055D01*
X154100593Y-75132053D01*
X154129830Y-75088294D01*
X154140099Y-75036667D01*
X154140100Y-75036667D01*
X154140100Y-74792101D01*
X154140099Y-74792100D01*
X153703307Y-74792100D01*
X153709100Y-74770480D01*
X153709100Y-74636720D01*
X153703307Y-74615100D01*
X154140100Y-74615100D01*
X154140101Y-74615099D01*
X154140101Y-74370535D01*
X154129829Y-74318906D01*
X154129829Y-74318905D01*
X154100590Y-74275144D01*
X154100588Y-74275142D01*
X153629555Y-73804108D01*
X153629553Y-73804106D01*
X153585794Y-73774869D01*
X153534167Y-73764600D01*
X153534166Y-73764599D01*
X153289600Y-73764599D01*
X153289600Y-74201393D01*
X153267980Y-74195600D01*
X153134220Y-74195600D01*
X153112600Y-74201393D01*
X153112600Y-73764600D01*
X153112599Y-73764599D01*
X152868035Y-73764599D01*
X152816406Y-73774870D01*
X152816405Y-73774870D01*
X152772644Y-73804109D01*
X152772642Y-73804111D01*
X152301608Y-74275144D01*
X152301606Y-74275146D01*
X152272369Y-74318905D01*
X152262100Y-74370532D01*
X152262100Y-74615099D01*
X152262101Y-74615100D01*
X152698893Y-74615100D01*
X152693100Y-74636720D01*
X152693100Y-74770480D01*
X152698893Y-74792100D01*
X152262100Y-74792100D01*
X152262099Y-74792101D01*
X146759886Y-74792101D01*
X146753698Y-74745100D01*
X146751169Y-74725887D01*
X146690829Y-74500693D01*
X146641164Y-74380791D01*
X146620990Y-74332087D01*
X146601611Y-74285302D01*
X146485042Y-74083398D01*
X146343116Y-73898437D01*
X146270021Y-73825342D01*
X146261016Y-73803600D01*
X146270021Y-73781857D01*
X146343116Y-73708763D01*
X146485042Y-73523802D01*
X146601611Y-73321898D01*
X146690829Y-73106507D01*
X146751169Y-72881313D01*
X146781600Y-72650169D01*
X146781600Y-72417031D01*
X146751169Y-72185887D01*
X146690829Y-71960693D01*
X146601611Y-71745302D01*
X146485042Y-71543398D01*
X146343116Y-71358437D01*
X146270021Y-71285342D01*
X146261016Y-71263600D01*
X146270021Y-71241857D01*
X146343116Y-71168763D01*
X146485042Y-70983802D01*
X146601611Y-70781898D01*
X146690829Y-70566507D01*
X146751169Y-70341313D01*
X146781600Y-70110169D01*
X146781600Y-69877031D01*
X146751169Y-69645887D01*
X146690829Y-69420693D01*
X146601611Y-69205302D01*
X146485042Y-69003398D01*
X146343116Y-68818437D01*
X146270021Y-68745342D01*
X146261016Y-68723600D01*
X146270021Y-68701857D01*
X146343116Y-68628763D01*
X146485042Y-68443802D01*
X146601611Y-68241898D01*
X146690829Y-68026507D01*
X146751169Y-67801313D01*
X146781600Y-67570169D01*
X146781600Y-67337031D01*
X146751169Y-67105887D01*
X146690829Y-66880693D01*
X146601611Y-66665302D01*
X146485042Y-66463398D01*
X146343116Y-66278437D01*
X146178263Y-66113584D01*
X145993302Y-65971658D01*
X145972493Y-65959644D01*
X145791407Y-65855094D01*
X145791404Y-65855092D01*
X145791398Y-65855089D01*
X145791391Y-65855086D01*
X145576006Y-65765870D01*
X145350812Y-65705530D01*
X145173448Y-65682180D01*
X145119669Y-65675100D01*
X143362531Y-65675100D01*
X143335641Y-65678640D01*
X143131387Y-65705530D01*
X142906193Y-65765870D01*
X142690808Y-65855086D01*
X142690792Y-65855094D01*
X142488902Y-65971655D01*
X142303941Y-66113580D01*
X142139080Y-66278441D01*
X141997155Y-66463402D01*
X141880594Y-66665292D01*
X141880586Y-66665308D01*
X141791370Y-66880693D01*
X141731030Y-67105887D01*
X141700600Y-67337032D01*
X141700600Y-67570167D01*
X141731030Y-67801312D01*
X141791370Y-68026506D01*
X141880586Y-68241891D01*
X141880589Y-68241898D01*
X141880592Y-68241904D01*
X141880594Y-68241907D01*
X141996368Y-68442434D01*
X141997158Y-68443802D01*
X142044396Y-68505363D01*
X142139083Y-68628762D01*
X142212177Y-68701857D01*
X142221183Y-68723600D01*
X142212177Y-68745343D01*
X142139083Y-68818437D01*
X141997155Y-69003402D01*
X141880594Y-69205292D01*
X141880586Y-69205308D01*
X141791370Y-69420693D01*
X141731030Y-69645887D01*
X141708788Y-69814834D01*
X141700600Y-69877031D01*
X141700600Y-70110169D01*
X141701629Y-70117983D01*
X141731030Y-70341312D01*
X141791370Y-70566506D01*
X141844921Y-70695789D01*
X141880589Y-70781898D01*
X141880592Y-70781904D01*
X141880594Y-70781907D01*
X141949533Y-70901313D01*
X141997158Y-70983802D01*
X142100148Y-71118021D01*
X142139083Y-71168762D01*
X142212177Y-71241857D01*
X142221183Y-71263600D01*
X142212177Y-71285343D01*
X142139083Y-71358437D01*
X141997155Y-71543402D01*
X141880594Y-71745292D01*
X141880586Y-71745308D01*
X141791370Y-71960693D01*
X141731030Y-72185887D01*
X141700600Y-72417032D01*
X141700600Y-72650167D01*
X141731030Y-72881312D01*
X141791370Y-73106506D01*
X141856179Y-73262968D01*
X141880589Y-73321898D01*
X141880592Y-73321904D01*
X141880594Y-73321907D01*
X141976047Y-73487236D01*
X141997158Y-73523802D01*
X142073818Y-73623707D01*
X142139083Y-73708762D01*
X142212177Y-73781857D01*
X142221183Y-73803600D01*
X142212177Y-73825343D01*
X142139083Y-73898437D01*
X141997155Y-74083402D01*
X141880594Y-74285292D01*
X141880586Y-74285308D01*
X141791370Y-74500693D01*
X141731030Y-74725887D01*
X141711781Y-74872100D01*
X141700600Y-74957031D01*
X141700600Y-75190169D01*
X141705820Y-75229817D01*
X141731030Y-75421312D01*
X141791370Y-75646506D01*
X141880586Y-75861891D01*
X141880589Y-75861898D01*
X141880592Y-75861904D01*
X141880594Y-75861907D01*
X141936034Y-75957932D01*
X141997158Y-76063802D01*
X142061397Y-76147519D01*
X142139083Y-76248762D01*
X142212177Y-76321857D01*
X142221183Y-76343600D01*
X142212177Y-76365343D01*
X142139083Y-76438437D01*
X141997155Y-76623402D01*
X141880594Y-76825292D01*
X141880586Y-76825308D01*
X141791370Y-77040693D01*
X141731030Y-77265887D01*
X141700600Y-77497032D01*
X141700600Y-77730167D01*
X141731030Y-77961312D01*
X141791370Y-78186506D01*
X141853417Y-78336299D01*
X141880589Y-78401898D01*
X141880592Y-78401904D01*
X141880594Y-78401907D01*
X141985523Y-78583649D01*
X141997158Y-78603802D01*
X142053396Y-78677092D01*
X142134532Y-78782831D01*
X142140623Y-78805564D01*
X142128855Y-78825946D01*
X142110136Y-78832300D01*
X141271138Y-78832300D01*
X141249394Y-78823294D01*
X140771406Y-78345305D01*
X140762400Y-78323561D01*
X140762400Y-78296532D01*
X140771405Y-78274789D01*
X140891068Y-78155128D01*
X141002310Y-77988640D01*
X141078936Y-77803649D01*
X141118000Y-77607264D01*
X141117999Y-76859936D01*
X141078937Y-76663551D01*
X141002311Y-76478560D01*
X140891067Y-76312072D01*
X140362628Y-75783632D01*
X140359157Y-75781313D01*
X140307882Y-75747052D01*
X140196140Y-75672390D01*
X140011149Y-75595764D01*
X140011147Y-75595763D01*
X139814765Y-75556700D01*
X139067435Y-75556700D01*
X139067434Y-75556701D01*
X138871052Y-75595762D01*
X138871050Y-75595763D01*
X138686060Y-75672389D01*
X138519572Y-75783633D01*
X137991129Y-76312075D01*
X137879890Y-76478560D01*
X137803264Y-76663550D01*
X137803263Y-76663552D01*
X137764200Y-76859934D01*
X137764200Y-77607264D01*
X137764201Y-77607265D01*
X137803262Y-77803647D01*
X137803263Y-77803649D01*
X137879889Y-77988640D01*
X137991133Y-78155128D01*
X138110794Y-78274789D01*
X138119800Y-78296532D01*
X138119800Y-78323561D01*
X138110794Y-78345305D01*
X137272805Y-79183294D01*
X137251061Y-79192300D01*
X137208134Y-79192300D01*
X137186390Y-79183294D01*
X137177384Y-79161550D01*
X137186390Y-79139807D01*
X137332290Y-78993906D01*
X137391068Y-78935128D01*
X137502310Y-78768640D01*
X137578936Y-78583649D01*
X137618000Y-78387264D01*
X137617999Y-77639936D01*
X137593191Y-77515213D01*
X137592600Y-77509214D01*
X137592600Y-74963629D01*
X137592599Y-74963617D01*
X137563622Y-74780660D01*
X137569116Y-74757776D01*
X137589183Y-74745479D01*
X137593993Y-74745100D01*
X138401070Y-74745100D01*
X138401076Y-74745100D01*
X138657827Y-74704435D01*
X138905056Y-74624105D01*
X139136675Y-74506090D01*
X139346980Y-74353294D01*
X140700794Y-72999480D01*
X140853590Y-72789175D01*
X140971605Y-72557556D01*
X141051935Y-72310327D01*
X141092600Y-72053576D01*
X141092600Y-71793624D01*
X141092600Y-70117983D01*
X141093191Y-70111984D01*
X141093552Y-70110169D01*
X141118000Y-69987264D01*
X141117999Y-69239936D01*
X141078937Y-69043551D01*
X141002311Y-68858560D01*
X140891067Y-68692072D01*
X140362628Y-68163632D01*
X140312468Y-68130117D01*
X140307882Y-68127052D01*
X140196140Y-68052390D01*
X140011149Y-67975764D01*
X140011147Y-67975763D01*
X139814765Y-67936700D01*
X139067435Y-67936700D01*
X139067434Y-67936701D01*
X138871052Y-67975762D01*
X138871050Y-67975763D01*
X138686060Y-68052389D01*
X138519572Y-68163633D01*
X137991129Y-68692075D01*
X137879890Y-68858560D01*
X137803264Y-69043550D01*
X137803263Y-69043552D01*
X137764200Y-69239934D01*
X137764200Y-69987264D01*
X137764201Y-69987265D01*
X137779906Y-70066223D01*
X137789009Y-70111985D01*
X137789600Y-70117984D01*
X137789600Y-71226788D01*
X137780594Y-71248532D01*
X137596032Y-71433094D01*
X137574288Y-71442100D01*
X136297020Y-71442100D01*
X136275276Y-71433094D01*
X136266270Y-71411350D01*
X136270390Y-71395975D01*
X136301606Y-71341907D01*
X136301606Y-71341905D01*
X136301611Y-71341898D01*
X136390829Y-71126507D01*
X136451169Y-70901313D01*
X136481600Y-70670169D01*
X136481600Y-70437031D01*
X136451169Y-70205887D01*
X136390829Y-69980693D01*
X136301611Y-69765302D01*
X136185042Y-69563398D01*
X136043116Y-69378437D01*
X135878263Y-69213584D01*
X135693302Y-69071658D01*
X135644622Y-69043552D01*
X135607975Y-69022393D01*
X135593648Y-69003721D01*
X135592600Y-68995763D01*
X135592600Y-67700412D01*
X135601606Y-67678668D01*
X138096168Y-65184106D01*
X138117912Y-65175100D01*
X166304288Y-65175100D01*
X166326032Y-65184106D01*
G37*
%TD.AperFunction*%
%TA.AperFunction,Conductor*%
G36*
X131606924Y-72214106D02*
G01*
X131615930Y-72235850D01*
X131611810Y-72251225D01*
X131580593Y-72305292D01*
X131580586Y-72305308D01*
X131491370Y-72520693D01*
X131431030Y-72745887D01*
X131405462Y-72940102D01*
X131400944Y-72974422D01*
X131400600Y-72977032D01*
X131400600Y-73210167D01*
X131431030Y-73441312D01*
X131491370Y-73666506D01*
X131578048Y-73875763D01*
X131580589Y-73881898D01*
X131697158Y-74083802D01*
X131724885Y-74119936D01*
X131831160Y-74258437D01*
X131839084Y-74268763D01*
X132003937Y-74433616D01*
X132188898Y-74575542D01*
X132390802Y-74692111D01*
X132606193Y-74781329D01*
X132831387Y-74841669D01*
X133062531Y-74872100D01*
X133371288Y-74872100D01*
X133393032Y-74881106D01*
X134280594Y-75768668D01*
X134289600Y-75790412D01*
X134289600Y-77509215D01*
X134289009Y-77515214D01*
X134264200Y-77639934D01*
X134264200Y-78387264D01*
X134264201Y-78387265D01*
X134303262Y-78583647D01*
X134303263Y-78583649D01*
X134379889Y-78768640D01*
X134491133Y-78935128D01*
X134491134Y-78935129D01*
X134491135Y-78935130D01*
X134695811Y-79139807D01*
X134704817Y-79161550D01*
X134695810Y-79183294D01*
X134674067Y-79192300D01*
X129789717Y-79192300D01*
X129767975Y-79183295D01*
X129758262Y-79173583D01*
X129714244Y-79139807D01*
X129573302Y-79031658D01*
X129545575Y-79015650D01*
X129371407Y-78915094D01*
X129371404Y-78915092D01*
X129371398Y-78915089D01*
X129347872Y-78905344D01*
X129156006Y-78825870D01*
X129108595Y-78813166D01*
X129089924Y-78798839D01*
X129086852Y-78775505D01*
X129099470Y-78757896D01*
X129181676Y-78702968D01*
X129312468Y-78572176D01*
X129415231Y-78418382D01*
X129415232Y-78418379D01*
X129486012Y-78247500D01*
X129486014Y-78247494D01*
X129522099Y-78066084D01*
X129522100Y-78066084D01*
X129522100Y-78062101D01*
X129522099Y-78062100D01*
X128323307Y-78062100D01*
X128329100Y-78040480D01*
X128329100Y-77906720D01*
X128323307Y-77885100D01*
X129522099Y-77885100D01*
X129522100Y-77885099D01*
X129522100Y-77881116D01*
X129522099Y-77881115D01*
X129486014Y-77699705D01*
X129486012Y-77699699D01*
X129415232Y-77528820D01*
X129415231Y-77528817D01*
X129312468Y-77375023D01*
X129181676Y-77244231D01*
X129099470Y-77189302D01*
X129086395Y-77169733D01*
X129090986Y-77146650D01*
X129108594Y-77134032D01*
X129144655Y-77124370D01*
X129156004Y-77121330D01*
X129156005Y-77121330D01*
X129232897Y-77089480D01*
X129371398Y-77032111D01*
X129573302Y-76915542D01*
X129758263Y-76773616D01*
X129923116Y-76608763D01*
X130065042Y-76423802D01*
X130181611Y-76221898D01*
X130270829Y-76006507D01*
X130331169Y-75781313D01*
X130361600Y-75550169D01*
X130361600Y-75317031D01*
X130331169Y-75085887D01*
X130270829Y-74860693D01*
X130181611Y-74645302D01*
X130065042Y-74443398D01*
X129923116Y-74258437D01*
X129758263Y-74093584D01*
X129745515Y-74083802D01*
X129587152Y-73962285D01*
X129575384Y-73941903D01*
X129581475Y-73919170D01*
X129584119Y-73916153D01*
X131286168Y-72214106D01*
X131307912Y-72205100D01*
X131585180Y-72205100D01*
X131606924Y-72214106D01*
G37*
%TD.AperFunction*%
%TD*%
M02*
